M48
; DRILL file {KiCad (5.1.0)-1} date 7/20/2020 11:56:33 AM
; FORMAT={-:-/ absolute / inch / decimal}
; #@! TF.CreationDate,2020-07-20T11:56:33-07:00
; #@! TF.GenerationSoftware,Kicad,Pcbnew,(5.1.0)-1
FMAT,2
INCH
T1C0.0118
T2C0.0315
T3C0.0400
T4C0.0433
T5C0.1260
%
G90
G05
T1
X4.9625Y-4.775
X4.9875Y-3.725
X5.0625Y-3.9625
X5.175Y-4.3
X5.175Y-4.2
X5.175Y-4.25
X5.1875Y-4.35
X5.2Y-4.525
X5.3125Y-3.8375
X5.3375Y-3.8125
X5.35Y-4.725
X5.3625Y-3.8375
X5.375Y-3.95
X5.3875Y-3.8125
X5.3875Y-4.725
X5.3875Y-4.8
X5.4Y-4.225
X5.4375Y-3.9625
X5.4375Y-4.15
X5.4625Y-4.375
X5.4875Y-4.275
X5.4875Y-4.325
X5.4875Y-4.475
X5.5Y-4.025
X5.525Y-3.4375
X5.525Y-3.6
X5.55Y-3.3375
X5.575Y-3.2125
X5.575Y-3.8375
X5.575Y-3.525
X5.6125Y-3.8375
X5.625Y-4.1
X5.637Y-3.337
X5.6375Y-3.2125
X5.6375Y-4.625
X5.65Y-3.8375
X5.65Y-4.0375
X5.65Y-4.075
X5.65Y-4.7875
X5.6625Y-4.125
X5.6685Y-3.656
X5.6875Y-4.775
X5.7Y-3.3375
X5.7Y-3.375
X5.7Y-4.175
X5.725Y-3.4125
X5.725Y-3.6125
X5.725Y-4.0125
X5.7375Y-3.3375
X5.7375Y-4.9
X5.75Y-3.9875
X5.7625Y-3.2125
X5.775Y-4.8744
X5.8266Y-3.7859
X5.8375Y-4.2
X5.8375Y-3.8875
X5.8625Y-3.475
X5.8625Y-3.7875
X5.875Y-3.5375
X5.875Y-3.625
X5.875Y-4.6625
X5.9Y-3.7875
X5.9125Y-4.6375
X5.9423Y-4.5247
X5.95Y-4.9
X5.9575Y-4.55
X5.9625Y-4.5
X5.968Y-3.4055
X5.9689Y-3.437
X5.9708Y-3.5
X5.975Y-3.2125
X5.975Y-3.6
X5.975Y-3.725
X5.9875Y-3.35
X6.001Y-3.626
X6.0142Y-4.275
X6.025Y-4.725
X6.0275Y-3.885
X6.0425Y-4.6
X6.05Y-3.65
X6.05Y-4.9
X6.06Y-3.49
X6.0625Y-4.0
X6.1Y-4.025
X6.1Y-4.725
X6.105Y-4.325
X6.1125Y-3.5375
X6.125Y-4.6
X6.15Y-3.475
X6.15Y-3.75
X6.15Y-3.95
X6.15Y-4.0625
X6.15Y-4.375
X6.175Y-4.9256
X6.1757Y-4.5882
X6.1875Y-3.975
X6.2Y-4.425
X6.2Y-4.95
X6.2125Y-3.95
X6.225Y-4.8125
X6.2267Y-4.2307
X6.2375Y-3.925
X6.25Y-3.55
X6.2625Y-3.9
X6.2875Y-4.1625
X6.3375Y-3.875
X6.3375Y-4.1
X6.3637Y-4.5012
X6.3647Y-4.3503
X6.3647Y-4.3503
X6.365Y-4.4
X6.365Y-4.25
X6.365Y-4.3
X6.375Y-3.8
X6.375Y-4.2
X6.435Y-4.25
X6.435Y-4.3
X6.45Y-4.55
X6.4658Y-4.3118
X6.4743Y-4.6111
X6.475Y-4.65
X6.49Y-4.252
X6.49Y-4.285
X6.5Y-3.9125
X6.5125Y-4.7
X6.515Y-4.305
X6.5331Y-3.9706
X6.5375Y-3.575
X6.55Y-4.675
X6.5675Y-3.945
X6.5875Y-4.7
X6.65Y-3.45
X6.7025Y-4.5875
X6.725Y-3.925
X6.7625Y-4.225
X6.775Y-4.75
X6.8Y-3.925
X6.8Y-4.375
X6.8128Y-4.5928
X6.86Y-4.6775
X6.8712Y-3.5587
X6.9Y-3.925
X6.9Y-4.675
X6.935Y-4.5775
X6.95Y-4.1125
X6.95Y-4.175
X6.95Y-4.225
X6.95Y-4.275
X6.95Y-4.325
X6.95Y-4.375
X6.9675Y-4.5775
X6.975Y-4.0
X6.975Y-4.0375
X6.975Y-4.2
X6.975Y-4.25
X6.975Y-4.3
X6.975Y-4.35
X6.975Y-4.775
X7.0125Y-3.925
X7.025Y-4.7125
X7.0375Y-3.9875
X7.045Y-4.595
X7.0622Y-3.9503
X7.0625Y-4.5625
X7.075Y-4.8
X7.0875Y-4.6375
X7.0878Y-3.9878
X7.0878Y-4.3872
X7.125Y-3.9375
X7.15Y-4.425
X7.1862Y-4.6418
X7.2Y-4.0875
X7.2Y-4.675
X7.2138Y-3.9112
X7.225Y-3.975
X7.225Y-4.1125
X7.2254Y-3.9384
X7.25Y-4.0625
X7.2625Y-3.975
X7.275Y-4.0375
X7.3Y-4.0125
X7.3014Y-3.9757
X7.4Y-4.6375
X7.425Y-4.075
X7.4375Y-4.325
X7.4625Y-4.575
X7.5375Y-3.55
X7.5625Y-3.525
X7.5625Y-4.15
X7.575Y-4.4625
X7.6Y-3.73
X7.6Y-4.2875
X7.6375Y-3.65
X7.6625Y-3.45
X7.6625Y-4.4375
X7.7Y-4.0
X7.7Y-4.2875
X7.725Y-4.3875
X7.725Y-4.45
X7.75Y-4.1125
X7.75Y-4.35
X7.85Y-3.8994
X7.8625Y-4.325
X7.8631Y-4.1125
X7.88Y-3.73
X7.8875Y-4.2875
X7.9125Y-3.9375
X7.9381Y-4.0
X7.9387Y-3.9
X7.9675Y-3.73
X8.0375Y-4.6
X8.1Y-3.73
X8.1Y-4.1625
T2
X8.2366Y-3.9391
X8.2366Y-4.1359
T3
X6.6Y-4.9
X6.7Y-4.9
X6.8Y-4.9
X6.9Y-4.9
X7.0Y-4.9
X7.1Y-4.9
X7.2Y-4.9
X7.3Y-4.9
X7.4Y-4.9
X7.5Y-4.9
X6.8Y-3.2
X6.8Y-3.3
X6.9Y-3.2
X6.9Y-3.3
X7.0Y-3.2
X7.0Y-3.3
X7.1Y-3.2
X7.1Y-3.3
X7.2Y-3.2
X7.2Y-3.3
X7.3Y-3.2
X7.3Y-3.3
X7.4Y-3.2
X7.4Y-3.3
X7.5Y-3.2
X7.5Y-3.3
X7.6Y-3.2
X7.6Y-3.3
X7.7Y-3.2
X7.7Y-3.3
X7.8Y-3.2
X7.8Y-3.3
X7.9Y-3.2
X7.9Y-3.3
X8.0Y-3.2
X8.0Y-3.3
X6.1Y-3.2
X6.1Y-3.3
X6.2Y-3.2
X6.2Y-3.3
X6.3Y-3.2
X6.3Y-3.3
X6.4Y-3.2
X6.4Y-3.3
X6.5Y-3.2
X6.5Y-3.3
X8.2Y-4.4
X8.2Y-4.5
X8.2Y-4.6
X8.2Y-4.7
X8.2Y-4.8
X8.3Y-4.4
X8.3Y-4.5
X8.3Y-4.6
X8.3Y-4.7
X8.3Y-4.8
X8.3Y-3.2
X8.3Y-3.3
X8.3Y-3.4
X8.3Y-3.5
X8.3Y-3.6
X8.3Y-3.7
X5.0Y-5.0
X5.1Y-5.0
X5.2Y-5.0
X5.3Y-5.0
X5.4Y-5.0
X5.5Y-5.0
X5.6Y-5.0
X5.7Y-5.0
X5.8Y-5.0
X5.9Y-5.0
X6.0Y-5.0
X6.1Y-5.0
X6.2Y-5.0
X6.3Y-5.0
X6.4Y-5.0
X6.5Y-5.0
X6.6Y-5.0
X6.7Y-5.0
X6.8Y-5.0
X6.9Y-5.0
X7.0Y-5.0
X7.1Y-5.0
X7.2Y-5.0
X7.3Y-5.0
X7.4Y-5.0
X7.5Y-5.0
X7.6Y-5.0
X7.7Y-5.0
X7.8Y-5.0
X7.9Y-5.0
X8.0Y-5.0
X8.1Y-5.0
X8.2Y-5.0
X8.3Y-5.0
T4
X8.3429Y-3.8997
X8.3429Y-4.1753
T5
X5.127Y-3.765
T0
M30
