G04 #@! TF.GenerationSoftware,KiCad,Pcbnew,(5.1.0)-1*
G04 #@! TF.CreationDate,2020-07-20T11:56:29-07:00*
G04 #@! TF.ProjectId,Tiny_Z80,54696e79-5f5a-4383-902e-6b696361645f,rev?*
G04 #@! TF.SameCoordinates,Original*
G04 #@! TF.FileFunction,Paste,Bot*
G04 #@! TF.FilePolarity,Positive*
%FSLAX46Y46*%
G04 Gerber Fmt 4.6, Leading zero omitted, Abs format (unit mm)*
G04 Created by KiCad (PCBNEW (5.1.0)-1) date 2020-07-20 11:56:29*
%MOMM*%
%LPD*%
G04 APERTURE LIST*
%ADD10R,3.510000X2.540000*%
%ADD11C,0.100000*%
%ADD12C,2.250000*%
%ADD13C,0.950000*%
%ADD14R,1.200000X1.200000*%
%ADD15R,1.600000X1.500000*%
%ADD16R,1.500000X0.600000*%
%ADD17R,0.650000X1.060000*%
G04 APERTURE END LIST*
D10*
X160020000Y-121360000D03*
X160020000Y-92000000D03*
D11*
G36*
X199009505Y-111856204D02*
G01*
X199033773Y-111859804D01*
X199057572Y-111865765D01*
X199080671Y-111874030D01*
X199102850Y-111884520D01*
X199123893Y-111897132D01*
X199143599Y-111911747D01*
X199161777Y-111928223D01*
X199178253Y-111946401D01*
X199192868Y-111966107D01*
X199205480Y-111987150D01*
X199215970Y-112009329D01*
X199224235Y-112032428D01*
X199230196Y-112056227D01*
X199233796Y-112080495D01*
X199235000Y-112104999D01*
X199235000Y-113955001D01*
X199233796Y-113979505D01*
X199230196Y-114003773D01*
X199224235Y-114027572D01*
X199215970Y-114050671D01*
X199205480Y-114072850D01*
X199192868Y-114093893D01*
X199178253Y-114113599D01*
X199161777Y-114131777D01*
X199143599Y-114148253D01*
X199123893Y-114162868D01*
X199102850Y-114175480D01*
X199080671Y-114185970D01*
X199057572Y-114194235D01*
X199033773Y-114200196D01*
X199009505Y-114203796D01*
X198985001Y-114205000D01*
X197234999Y-114205000D01*
X197210495Y-114203796D01*
X197186227Y-114200196D01*
X197162428Y-114194235D01*
X197139329Y-114185970D01*
X197117150Y-114175480D01*
X197096107Y-114162868D01*
X197076401Y-114148253D01*
X197058223Y-114131777D01*
X197041747Y-114113599D01*
X197027132Y-114093893D01*
X197014520Y-114072850D01*
X197004030Y-114050671D01*
X196995765Y-114027572D01*
X196989804Y-114003773D01*
X196986204Y-113979505D01*
X196985000Y-113955001D01*
X196985000Y-112104999D01*
X196986204Y-112080495D01*
X196989804Y-112056227D01*
X196995765Y-112032428D01*
X197004030Y-112009329D01*
X197014520Y-111987150D01*
X197027132Y-111966107D01*
X197041747Y-111946401D01*
X197058223Y-111928223D01*
X197076401Y-111911747D01*
X197096107Y-111897132D01*
X197117150Y-111884520D01*
X197139329Y-111874030D01*
X197162428Y-111865765D01*
X197186227Y-111859804D01*
X197210495Y-111856204D01*
X197234999Y-111855000D01*
X198985001Y-111855000D01*
X199009505Y-111856204D01*
X199009505Y-111856204D01*
G37*
D12*
X198110000Y-113030000D03*
D11*
G36*
X204109505Y-111856204D02*
G01*
X204133773Y-111859804D01*
X204157572Y-111865765D01*
X204180671Y-111874030D01*
X204202850Y-111884520D01*
X204223893Y-111897132D01*
X204243599Y-111911747D01*
X204261777Y-111928223D01*
X204278253Y-111946401D01*
X204292868Y-111966107D01*
X204305480Y-111987150D01*
X204315970Y-112009329D01*
X204324235Y-112032428D01*
X204330196Y-112056227D01*
X204333796Y-112080495D01*
X204335000Y-112104999D01*
X204335000Y-113955001D01*
X204333796Y-113979505D01*
X204330196Y-114003773D01*
X204324235Y-114027572D01*
X204315970Y-114050671D01*
X204305480Y-114072850D01*
X204292868Y-114093893D01*
X204278253Y-114113599D01*
X204261777Y-114131777D01*
X204243599Y-114148253D01*
X204223893Y-114162868D01*
X204202850Y-114175480D01*
X204180671Y-114185970D01*
X204157572Y-114194235D01*
X204133773Y-114200196D01*
X204109505Y-114203796D01*
X204085001Y-114205000D01*
X202334999Y-114205000D01*
X202310495Y-114203796D01*
X202286227Y-114200196D01*
X202262428Y-114194235D01*
X202239329Y-114185970D01*
X202217150Y-114175480D01*
X202196107Y-114162868D01*
X202176401Y-114148253D01*
X202158223Y-114131777D01*
X202141747Y-114113599D01*
X202127132Y-114093893D01*
X202114520Y-114072850D01*
X202104030Y-114050671D01*
X202095765Y-114027572D01*
X202089804Y-114003773D01*
X202086204Y-113979505D01*
X202085000Y-113955001D01*
X202085000Y-112104999D01*
X202086204Y-112080495D01*
X202089804Y-112056227D01*
X202095765Y-112032428D01*
X202104030Y-112009329D01*
X202114520Y-111987150D01*
X202127132Y-111966107D01*
X202141747Y-111946401D01*
X202158223Y-111928223D01*
X202176401Y-111911747D01*
X202196107Y-111897132D01*
X202217150Y-111884520D01*
X202239329Y-111874030D01*
X202262428Y-111865765D01*
X202286227Y-111859804D01*
X202310495Y-111856204D01*
X202334999Y-111855000D01*
X204085001Y-111855000D01*
X204109505Y-111856204D01*
X204109505Y-111856204D01*
G37*
D12*
X203210000Y-113030000D03*
D11*
G36*
X172980779Y-107821144D02*
G01*
X173003834Y-107824563D01*
X173026443Y-107830227D01*
X173048387Y-107838079D01*
X173069457Y-107848044D01*
X173089448Y-107860026D01*
X173108168Y-107873910D01*
X173125438Y-107889562D01*
X173141090Y-107906832D01*
X173154974Y-107925552D01*
X173166956Y-107945543D01*
X173176921Y-107966613D01*
X173184773Y-107988557D01*
X173190437Y-108011166D01*
X173193856Y-108034221D01*
X173195000Y-108057500D01*
X173195000Y-108632500D01*
X173193856Y-108655779D01*
X173190437Y-108678834D01*
X173184773Y-108701443D01*
X173176921Y-108723387D01*
X173166956Y-108744457D01*
X173154974Y-108764448D01*
X173141090Y-108783168D01*
X173125438Y-108800438D01*
X173108168Y-108816090D01*
X173089448Y-108829974D01*
X173069457Y-108841956D01*
X173048387Y-108851921D01*
X173026443Y-108859773D01*
X173003834Y-108865437D01*
X172980779Y-108868856D01*
X172957500Y-108870000D01*
X172482500Y-108870000D01*
X172459221Y-108868856D01*
X172436166Y-108865437D01*
X172413557Y-108859773D01*
X172391613Y-108851921D01*
X172370543Y-108841956D01*
X172350552Y-108829974D01*
X172331832Y-108816090D01*
X172314562Y-108800438D01*
X172298910Y-108783168D01*
X172285026Y-108764448D01*
X172273044Y-108744457D01*
X172263079Y-108723387D01*
X172255227Y-108701443D01*
X172249563Y-108678834D01*
X172246144Y-108655779D01*
X172245000Y-108632500D01*
X172245000Y-108057500D01*
X172246144Y-108034221D01*
X172249563Y-108011166D01*
X172255227Y-107988557D01*
X172263079Y-107966613D01*
X172273044Y-107945543D01*
X172285026Y-107925552D01*
X172298910Y-107906832D01*
X172314562Y-107889562D01*
X172331832Y-107873910D01*
X172350552Y-107860026D01*
X172370543Y-107848044D01*
X172391613Y-107838079D01*
X172413557Y-107830227D01*
X172436166Y-107824563D01*
X172459221Y-107821144D01*
X172482500Y-107820000D01*
X172957500Y-107820000D01*
X172980779Y-107821144D01*
X172980779Y-107821144D01*
G37*
D13*
X172720000Y-108345000D03*
D11*
G36*
X172980779Y-109571144D02*
G01*
X173003834Y-109574563D01*
X173026443Y-109580227D01*
X173048387Y-109588079D01*
X173069457Y-109598044D01*
X173089448Y-109610026D01*
X173108168Y-109623910D01*
X173125438Y-109639562D01*
X173141090Y-109656832D01*
X173154974Y-109675552D01*
X173166956Y-109695543D01*
X173176921Y-109716613D01*
X173184773Y-109738557D01*
X173190437Y-109761166D01*
X173193856Y-109784221D01*
X173195000Y-109807500D01*
X173195000Y-110382500D01*
X173193856Y-110405779D01*
X173190437Y-110428834D01*
X173184773Y-110451443D01*
X173176921Y-110473387D01*
X173166956Y-110494457D01*
X173154974Y-110514448D01*
X173141090Y-110533168D01*
X173125438Y-110550438D01*
X173108168Y-110566090D01*
X173089448Y-110579974D01*
X173069457Y-110591956D01*
X173048387Y-110601921D01*
X173026443Y-110609773D01*
X173003834Y-110615437D01*
X172980779Y-110618856D01*
X172957500Y-110620000D01*
X172482500Y-110620000D01*
X172459221Y-110618856D01*
X172436166Y-110615437D01*
X172413557Y-110609773D01*
X172391613Y-110601921D01*
X172370543Y-110591956D01*
X172350552Y-110579974D01*
X172331832Y-110566090D01*
X172314562Y-110550438D01*
X172298910Y-110533168D01*
X172285026Y-110514448D01*
X172273044Y-110494457D01*
X172263079Y-110473387D01*
X172255227Y-110451443D01*
X172249563Y-110428834D01*
X172246144Y-110405779D01*
X172245000Y-110382500D01*
X172245000Y-109807500D01*
X172246144Y-109784221D01*
X172249563Y-109761166D01*
X172255227Y-109738557D01*
X172263079Y-109716613D01*
X172273044Y-109695543D01*
X172285026Y-109675552D01*
X172298910Y-109656832D01*
X172314562Y-109639562D01*
X172331832Y-109623910D01*
X172350552Y-109610026D01*
X172370543Y-109598044D01*
X172391613Y-109588079D01*
X172413557Y-109580227D01*
X172436166Y-109574563D01*
X172459221Y-109571144D01*
X172482500Y-109570000D01*
X172957500Y-109570000D01*
X172980779Y-109571144D01*
X172980779Y-109571144D01*
G37*
D13*
X172720000Y-110095000D03*
D11*
G36*
X193300779Y-104491144D02*
G01*
X193323834Y-104494563D01*
X193346443Y-104500227D01*
X193368387Y-104508079D01*
X193389457Y-104518044D01*
X193409448Y-104530026D01*
X193428168Y-104543910D01*
X193445438Y-104559562D01*
X193461090Y-104576832D01*
X193474974Y-104595552D01*
X193486956Y-104615543D01*
X193496921Y-104636613D01*
X193504773Y-104658557D01*
X193510437Y-104681166D01*
X193513856Y-104704221D01*
X193515000Y-104727500D01*
X193515000Y-105302500D01*
X193513856Y-105325779D01*
X193510437Y-105348834D01*
X193504773Y-105371443D01*
X193496921Y-105393387D01*
X193486956Y-105414457D01*
X193474974Y-105434448D01*
X193461090Y-105453168D01*
X193445438Y-105470438D01*
X193428168Y-105486090D01*
X193409448Y-105499974D01*
X193389457Y-105511956D01*
X193368387Y-105521921D01*
X193346443Y-105529773D01*
X193323834Y-105535437D01*
X193300779Y-105538856D01*
X193277500Y-105540000D01*
X192802500Y-105540000D01*
X192779221Y-105538856D01*
X192756166Y-105535437D01*
X192733557Y-105529773D01*
X192711613Y-105521921D01*
X192690543Y-105511956D01*
X192670552Y-105499974D01*
X192651832Y-105486090D01*
X192634562Y-105470438D01*
X192618910Y-105453168D01*
X192605026Y-105434448D01*
X192593044Y-105414457D01*
X192583079Y-105393387D01*
X192575227Y-105371443D01*
X192569563Y-105348834D01*
X192566144Y-105325779D01*
X192565000Y-105302500D01*
X192565000Y-104727500D01*
X192566144Y-104704221D01*
X192569563Y-104681166D01*
X192575227Y-104658557D01*
X192583079Y-104636613D01*
X192593044Y-104615543D01*
X192605026Y-104595552D01*
X192618910Y-104576832D01*
X192634562Y-104559562D01*
X192651832Y-104543910D01*
X192670552Y-104530026D01*
X192690543Y-104518044D01*
X192711613Y-104508079D01*
X192733557Y-104500227D01*
X192756166Y-104494563D01*
X192779221Y-104491144D01*
X192802500Y-104490000D01*
X193277500Y-104490000D01*
X193300779Y-104491144D01*
X193300779Y-104491144D01*
G37*
D13*
X193040000Y-105015000D03*
D11*
G36*
X193300779Y-102741144D02*
G01*
X193323834Y-102744563D01*
X193346443Y-102750227D01*
X193368387Y-102758079D01*
X193389457Y-102768044D01*
X193409448Y-102780026D01*
X193428168Y-102793910D01*
X193445438Y-102809562D01*
X193461090Y-102826832D01*
X193474974Y-102845552D01*
X193486956Y-102865543D01*
X193496921Y-102886613D01*
X193504773Y-102908557D01*
X193510437Y-102931166D01*
X193513856Y-102954221D01*
X193515000Y-102977500D01*
X193515000Y-103552500D01*
X193513856Y-103575779D01*
X193510437Y-103598834D01*
X193504773Y-103621443D01*
X193496921Y-103643387D01*
X193486956Y-103664457D01*
X193474974Y-103684448D01*
X193461090Y-103703168D01*
X193445438Y-103720438D01*
X193428168Y-103736090D01*
X193409448Y-103749974D01*
X193389457Y-103761956D01*
X193368387Y-103771921D01*
X193346443Y-103779773D01*
X193323834Y-103785437D01*
X193300779Y-103788856D01*
X193277500Y-103790000D01*
X192802500Y-103790000D01*
X192779221Y-103788856D01*
X192756166Y-103785437D01*
X192733557Y-103779773D01*
X192711613Y-103771921D01*
X192690543Y-103761956D01*
X192670552Y-103749974D01*
X192651832Y-103736090D01*
X192634562Y-103720438D01*
X192618910Y-103703168D01*
X192605026Y-103684448D01*
X192593044Y-103664457D01*
X192583079Y-103643387D01*
X192575227Y-103621443D01*
X192569563Y-103598834D01*
X192566144Y-103575779D01*
X192565000Y-103552500D01*
X192565000Y-102977500D01*
X192566144Y-102954221D01*
X192569563Y-102931166D01*
X192575227Y-102908557D01*
X192583079Y-102886613D01*
X192593044Y-102865543D01*
X192605026Y-102845552D01*
X192618910Y-102826832D01*
X192634562Y-102809562D01*
X192651832Y-102793910D01*
X192670552Y-102780026D01*
X192690543Y-102768044D01*
X192711613Y-102758079D01*
X192733557Y-102750227D01*
X192756166Y-102744563D01*
X192779221Y-102741144D01*
X192802500Y-102740000D01*
X193277500Y-102740000D01*
X193300779Y-102741144D01*
X193300779Y-102741144D01*
G37*
D13*
X193040000Y-103265000D03*
D11*
G36*
X178695779Y-90838644D02*
G01*
X178718834Y-90842063D01*
X178741443Y-90847727D01*
X178763387Y-90855579D01*
X178784457Y-90865544D01*
X178804448Y-90877526D01*
X178823168Y-90891410D01*
X178840438Y-90907062D01*
X178856090Y-90924332D01*
X178869974Y-90943052D01*
X178881956Y-90963043D01*
X178891921Y-90984113D01*
X178899773Y-91006057D01*
X178905437Y-91028666D01*
X178908856Y-91051721D01*
X178910000Y-91075000D01*
X178910000Y-91650000D01*
X178908856Y-91673279D01*
X178905437Y-91696334D01*
X178899773Y-91718943D01*
X178891921Y-91740887D01*
X178881956Y-91761957D01*
X178869974Y-91781948D01*
X178856090Y-91800668D01*
X178840438Y-91817938D01*
X178823168Y-91833590D01*
X178804448Y-91847474D01*
X178784457Y-91859456D01*
X178763387Y-91869421D01*
X178741443Y-91877273D01*
X178718834Y-91882937D01*
X178695779Y-91886356D01*
X178672500Y-91887500D01*
X178197500Y-91887500D01*
X178174221Y-91886356D01*
X178151166Y-91882937D01*
X178128557Y-91877273D01*
X178106613Y-91869421D01*
X178085543Y-91859456D01*
X178065552Y-91847474D01*
X178046832Y-91833590D01*
X178029562Y-91817938D01*
X178013910Y-91800668D01*
X178000026Y-91781948D01*
X177988044Y-91761957D01*
X177978079Y-91740887D01*
X177970227Y-91718943D01*
X177964563Y-91696334D01*
X177961144Y-91673279D01*
X177960000Y-91650000D01*
X177960000Y-91075000D01*
X177961144Y-91051721D01*
X177964563Y-91028666D01*
X177970227Y-91006057D01*
X177978079Y-90984113D01*
X177988044Y-90963043D01*
X178000026Y-90943052D01*
X178013910Y-90924332D01*
X178029562Y-90907062D01*
X178046832Y-90891410D01*
X178065552Y-90877526D01*
X178085543Y-90865544D01*
X178106613Y-90855579D01*
X178128557Y-90847727D01*
X178151166Y-90842063D01*
X178174221Y-90838644D01*
X178197500Y-90837500D01*
X178672500Y-90837500D01*
X178695779Y-90838644D01*
X178695779Y-90838644D01*
G37*
D13*
X178435000Y-91362500D03*
D11*
G36*
X178695779Y-89088644D02*
G01*
X178718834Y-89092063D01*
X178741443Y-89097727D01*
X178763387Y-89105579D01*
X178784457Y-89115544D01*
X178804448Y-89127526D01*
X178823168Y-89141410D01*
X178840438Y-89157062D01*
X178856090Y-89174332D01*
X178869974Y-89193052D01*
X178881956Y-89213043D01*
X178891921Y-89234113D01*
X178899773Y-89256057D01*
X178905437Y-89278666D01*
X178908856Y-89301721D01*
X178910000Y-89325000D01*
X178910000Y-89900000D01*
X178908856Y-89923279D01*
X178905437Y-89946334D01*
X178899773Y-89968943D01*
X178891921Y-89990887D01*
X178881956Y-90011957D01*
X178869974Y-90031948D01*
X178856090Y-90050668D01*
X178840438Y-90067938D01*
X178823168Y-90083590D01*
X178804448Y-90097474D01*
X178784457Y-90109456D01*
X178763387Y-90119421D01*
X178741443Y-90127273D01*
X178718834Y-90132937D01*
X178695779Y-90136356D01*
X178672500Y-90137500D01*
X178197500Y-90137500D01*
X178174221Y-90136356D01*
X178151166Y-90132937D01*
X178128557Y-90127273D01*
X178106613Y-90119421D01*
X178085543Y-90109456D01*
X178065552Y-90097474D01*
X178046832Y-90083590D01*
X178029562Y-90067938D01*
X178013910Y-90050668D01*
X178000026Y-90031948D01*
X177988044Y-90011957D01*
X177978079Y-89990887D01*
X177970227Y-89968943D01*
X177964563Y-89946334D01*
X177961144Y-89923279D01*
X177960000Y-89900000D01*
X177960000Y-89325000D01*
X177961144Y-89301721D01*
X177964563Y-89278666D01*
X177970227Y-89256057D01*
X177978079Y-89234113D01*
X177988044Y-89213043D01*
X178000026Y-89193052D01*
X178013910Y-89174332D01*
X178029562Y-89157062D01*
X178046832Y-89141410D01*
X178065552Y-89127526D01*
X178085543Y-89115544D01*
X178106613Y-89105579D01*
X178128557Y-89097727D01*
X178151166Y-89092063D01*
X178174221Y-89088644D01*
X178197500Y-89087500D01*
X178672500Y-89087500D01*
X178695779Y-89088644D01*
X178695779Y-89088644D01*
G37*
D13*
X178435000Y-89612500D03*
D11*
G36*
X128530779Y-122271144D02*
G01*
X128553834Y-122274563D01*
X128576443Y-122280227D01*
X128598387Y-122288079D01*
X128619457Y-122298044D01*
X128639448Y-122310026D01*
X128658168Y-122323910D01*
X128675438Y-122339562D01*
X128691090Y-122356832D01*
X128704974Y-122375552D01*
X128716956Y-122395543D01*
X128726921Y-122416613D01*
X128734773Y-122438557D01*
X128740437Y-122461166D01*
X128743856Y-122484221D01*
X128745000Y-122507500D01*
X128745000Y-123082500D01*
X128743856Y-123105779D01*
X128740437Y-123128834D01*
X128734773Y-123151443D01*
X128726921Y-123173387D01*
X128716956Y-123194457D01*
X128704974Y-123214448D01*
X128691090Y-123233168D01*
X128675438Y-123250438D01*
X128658168Y-123266090D01*
X128639448Y-123279974D01*
X128619457Y-123291956D01*
X128598387Y-123301921D01*
X128576443Y-123309773D01*
X128553834Y-123315437D01*
X128530779Y-123318856D01*
X128507500Y-123320000D01*
X128032500Y-123320000D01*
X128009221Y-123318856D01*
X127986166Y-123315437D01*
X127963557Y-123309773D01*
X127941613Y-123301921D01*
X127920543Y-123291956D01*
X127900552Y-123279974D01*
X127881832Y-123266090D01*
X127864562Y-123250438D01*
X127848910Y-123233168D01*
X127835026Y-123214448D01*
X127823044Y-123194457D01*
X127813079Y-123173387D01*
X127805227Y-123151443D01*
X127799563Y-123128834D01*
X127796144Y-123105779D01*
X127795000Y-123082500D01*
X127795000Y-122507500D01*
X127796144Y-122484221D01*
X127799563Y-122461166D01*
X127805227Y-122438557D01*
X127813079Y-122416613D01*
X127823044Y-122395543D01*
X127835026Y-122375552D01*
X127848910Y-122356832D01*
X127864562Y-122339562D01*
X127881832Y-122323910D01*
X127900552Y-122310026D01*
X127920543Y-122298044D01*
X127941613Y-122288079D01*
X127963557Y-122280227D01*
X127986166Y-122274563D01*
X128009221Y-122271144D01*
X128032500Y-122270000D01*
X128507500Y-122270000D01*
X128530779Y-122271144D01*
X128530779Y-122271144D01*
G37*
D13*
X128270000Y-122795000D03*
D11*
G36*
X128530779Y-120521144D02*
G01*
X128553834Y-120524563D01*
X128576443Y-120530227D01*
X128598387Y-120538079D01*
X128619457Y-120548044D01*
X128639448Y-120560026D01*
X128658168Y-120573910D01*
X128675438Y-120589562D01*
X128691090Y-120606832D01*
X128704974Y-120625552D01*
X128716956Y-120645543D01*
X128726921Y-120666613D01*
X128734773Y-120688557D01*
X128740437Y-120711166D01*
X128743856Y-120734221D01*
X128745000Y-120757500D01*
X128745000Y-121332500D01*
X128743856Y-121355779D01*
X128740437Y-121378834D01*
X128734773Y-121401443D01*
X128726921Y-121423387D01*
X128716956Y-121444457D01*
X128704974Y-121464448D01*
X128691090Y-121483168D01*
X128675438Y-121500438D01*
X128658168Y-121516090D01*
X128639448Y-121529974D01*
X128619457Y-121541956D01*
X128598387Y-121551921D01*
X128576443Y-121559773D01*
X128553834Y-121565437D01*
X128530779Y-121568856D01*
X128507500Y-121570000D01*
X128032500Y-121570000D01*
X128009221Y-121568856D01*
X127986166Y-121565437D01*
X127963557Y-121559773D01*
X127941613Y-121551921D01*
X127920543Y-121541956D01*
X127900552Y-121529974D01*
X127881832Y-121516090D01*
X127864562Y-121500438D01*
X127848910Y-121483168D01*
X127835026Y-121464448D01*
X127823044Y-121444457D01*
X127813079Y-121423387D01*
X127805227Y-121401443D01*
X127799563Y-121378834D01*
X127796144Y-121355779D01*
X127795000Y-121332500D01*
X127795000Y-120757500D01*
X127796144Y-120734221D01*
X127799563Y-120711166D01*
X127805227Y-120688557D01*
X127813079Y-120666613D01*
X127823044Y-120645543D01*
X127835026Y-120625552D01*
X127848910Y-120606832D01*
X127864562Y-120589562D01*
X127881832Y-120573910D01*
X127900552Y-120560026D01*
X127920543Y-120548044D01*
X127941613Y-120538079D01*
X127963557Y-120530227D01*
X127986166Y-120524563D01*
X128009221Y-120521144D01*
X128032500Y-120520000D01*
X128507500Y-120520000D01*
X128530779Y-120521144D01*
X128530779Y-120521144D01*
G37*
D13*
X128270000Y-121045000D03*
D11*
G36*
X136150779Y-122271144D02*
G01*
X136173834Y-122274563D01*
X136196443Y-122280227D01*
X136218387Y-122288079D01*
X136239457Y-122298044D01*
X136259448Y-122310026D01*
X136278168Y-122323910D01*
X136295438Y-122339562D01*
X136311090Y-122356832D01*
X136324974Y-122375552D01*
X136336956Y-122395543D01*
X136346921Y-122416613D01*
X136354773Y-122438557D01*
X136360437Y-122461166D01*
X136363856Y-122484221D01*
X136365000Y-122507500D01*
X136365000Y-123082500D01*
X136363856Y-123105779D01*
X136360437Y-123128834D01*
X136354773Y-123151443D01*
X136346921Y-123173387D01*
X136336956Y-123194457D01*
X136324974Y-123214448D01*
X136311090Y-123233168D01*
X136295438Y-123250438D01*
X136278168Y-123266090D01*
X136259448Y-123279974D01*
X136239457Y-123291956D01*
X136218387Y-123301921D01*
X136196443Y-123309773D01*
X136173834Y-123315437D01*
X136150779Y-123318856D01*
X136127500Y-123320000D01*
X135652500Y-123320000D01*
X135629221Y-123318856D01*
X135606166Y-123315437D01*
X135583557Y-123309773D01*
X135561613Y-123301921D01*
X135540543Y-123291956D01*
X135520552Y-123279974D01*
X135501832Y-123266090D01*
X135484562Y-123250438D01*
X135468910Y-123233168D01*
X135455026Y-123214448D01*
X135443044Y-123194457D01*
X135433079Y-123173387D01*
X135425227Y-123151443D01*
X135419563Y-123128834D01*
X135416144Y-123105779D01*
X135415000Y-123082500D01*
X135415000Y-122507500D01*
X135416144Y-122484221D01*
X135419563Y-122461166D01*
X135425227Y-122438557D01*
X135433079Y-122416613D01*
X135443044Y-122395543D01*
X135455026Y-122375552D01*
X135468910Y-122356832D01*
X135484562Y-122339562D01*
X135501832Y-122323910D01*
X135520552Y-122310026D01*
X135540543Y-122298044D01*
X135561613Y-122288079D01*
X135583557Y-122280227D01*
X135606166Y-122274563D01*
X135629221Y-122271144D01*
X135652500Y-122270000D01*
X136127500Y-122270000D01*
X136150779Y-122271144D01*
X136150779Y-122271144D01*
G37*
D13*
X135890000Y-122795000D03*
D11*
G36*
X136150779Y-120521144D02*
G01*
X136173834Y-120524563D01*
X136196443Y-120530227D01*
X136218387Y-120538079D01*
X136239457Y-120548044D01*
X136259448Y-120560026D01*
X136278168Y-120573910D01*
X136295438Y-120589562D01*
X136311090Y-120606832D01*
X136324974Y-120625552D01*
X136336956Y-120645543D01*
X136346921Y-120666613D01*
X136354773Y-120688557D01*
X136360437Y-120711166D01*
X136363856Y-120734221D01*
X136365000Y-120757500D01*
X136365000Y-121332500D01*
X136363856Y-121355779D01*
X136360437Y-121378834D01*
X136354773Y-121401443D01*
X136346921Y-121423387D01*
X136336956Y-121444457D01*
X136324974Y-121464448D01*
X136311090Y-121483168D01*
X136295438Y-121500438D01*
X136278168Y-121516090D01*
X136259448Y-121529974D01*
X136239457Y-121541956D01*
X136218387Y-121551921D01*
X136196443Y-121559773D01*
X136173834Y-121565437D01*
X136150779Y-121568856D01*
X136127500Y-121570000D01*
X135652500Y-121570000D01*
X135629221Y-121568856D01*
X135606166Y-121565437D01*
X135583557Y-121559773D01*
X135561613Y-121551921D01*
X135540543Y-121541956D01*
X135520552Y-121529974D01*
X135501832Y-121516090D01*
X135484562Y-121500438D01*
X135468910Y-121483168D01*
X135455026Y-121464448D01*
X135443044Y-121444457D01*
X135433079Y-121423387D01*
X135425227Y-121401443D01*
X135419563Y-121378834D01*
X135416144Y-121355779D01*
X135415000Y-121332500D01*
X135415000Y-120757500D01*
X135416144Y-120734221D01*
X135419563Y-120711166D01*
X135425227Y-120688557D01*
X135433079Y-120666613D01*
X135443044Y-120645543D01*
X135455026Y-120625552D01*
X135468910Y-120606832D01*
X135484562Y-120589562D01*
X135501832Y-120573910D01*
X135520552Y-120560026D01*
X135540543Y-120548044D01*
X135561613Y-120538079D01*
X135583557Y-120530227D01*
X135606166Y-120524563D01*
X135629221Y-120521144D01*
X135652500Y-120520000D01*
X136127500Y-120520000D01*
X136150779Y-120521144D01*
X136150779Y-120521144D01*
G37*
D13*
X135890000Y-121045000D03*
D14*
X133080000Y-123720000D03*
X131080000Y-123720000D03*
D15*
X132080000Y-120470000D03*
D16*
X143080000Y-107315000D03*
X143080000Y-108585000D03*
X143080000Y-109855000D03*
X143080000Y-111125000D03*
X143080000Y-112395000D03*
X143080000Y-113665000D03*
X143080000Y-114935000D03*
X143080000Y-116205000D03*
X133780000Y-116205000D03*
X133780000Y-114935000D03*
X133780000Y-113665000D03*
X133780000Y-112395000D03*
X133780000Y-111125000D03*
X133780000Y-109855000D03*
X133780000Y-108585000D03*
X133780000Y-107315000D03*
D11*
G36*
X147263279Y-113381144D02*
G01*
X147286334Y-113384563D01*
X147308943Y-113390227D01*
X147330887Y-113398079D01*
X147351957Y-113408044D01*
X147371948Y-113420026D01*
X147390668Y-113433910D01*
X147407938Y-113449562D01*
X147423590Y-113466832D01*
X147437474Y-113485552D01*
X147449456Y-113505543D01*
X147459421Y-113526613D01*
X147467273Y-113548557D01*
X147472937Y-113571166D01*
X147476356Y-113594221D01*
X147477500Y-113617500D01*
X147477500Y-114192500D01*
X147476356Y-114215779D01*
X147472937Y-114238834D01*
X147467273Y-114261443D01*
X147459421Y-114283387D01*
X147449456Y-114304457D01*
X147437474Y-114324448D01*
X147423590Y-114343168D01*
X147407938Y-114360438D01*
X147390668Y-114376090D01*
X147371948Y-114389974D01*
X147351957Y-114401956D01*
X147330887Y-114411921D01*
X147308943Y-114419773D01*
X147286334Y-114425437D01*
X147263279Y-114428856D01*
X147240000Y-114430000D01*
X146765000Y-114430000D01*
X146741721Y-114428856D01*
X146718666Y-114425437D01*
X146696057Y-114419773D01*
X146674113Y-114411921D01*
X146653043Y-114401956D01*
X146633052Y-114389974D01*
X146614332Y-114376090D01*
X146597062Y-114360438D01*
X146581410Y-114343168D01*
X146567526Y-114324448D01*
X146555544Y-114304457D01*
X146545579Y-114283387D01*
X146537727Y-114261443D01*
X146532063Y-114238834D01*
X146528644Y-114215779D01*
X146527500Y-114192500D01*
X146527500Y-113617500D01*
X146528644Y-113594221D01*
X146532063Y-113571166D01*
X146537727Y-113548557D01*
X146545579Y-113526613D01*
X146555544Y-113505543D01*
X146567526Y-113485552D01*
X146581410Y-113466832D01*
X146597062Y-113449562D01*
X146614332Y-113433910D01*
X146633052Y-113420026D01*
X146653043Y-113408044D01*
X146674113Y-113398079D01*
X146696057Y-113390227D01*
X146718666Y-113384563D01*
X146741721Y-113381144D01*
X146765000Y-113380000D01*
X147240000Y-113380000D01*
X147263279Y-113381144D01*
X147263279Y-113381144D01*
G37*
D13*
X147002500Y-113905000D03*
D11*
G36*
X147263279Y-111631144D02*
G01*
X147286334Y-111634563D01*
X147308943Y-111640227D01*
X147330887Y-111648079D01*
X147351957Y-111658044D01*
X147371948Y-111670026D01*
X147390668Y-111683910D01*
X147407938Y-111699562D01*
X147423590Y-111716832D01*
X147437474Y-111735552D01*
X147449456Y-111755543D01*
X147459421Y-111776613D01*
X147467273Y-111798557D01*
X147472937Y-111821166D01*
X147476356Y-111844221D01*
X147477500Y-111867500D01*
X147477500Y-112442500D01*
X147476356Y-112465779D01*
X147472937Y-112488834D01*
X147467273Y-112511443D01*
X147459421Y-112533387D01*
X147449456Y-112554457D01*
X147437474Y-112574448D01*
X147423590Y-112593168D01*
X147407938Y-112610438D01*
X147390668Y-112626090D01*
X147371948Y-112639974D01*
X147351957Y-112651956D01*
X147330887Y-112661921D01*
X147308943Y-112669773D01*
X147286334Y-112675437D01*
X147263279Y-112678856D01*
X147240000Y-112680000D01*
X146765000Y-112680000D01*
X146741721Y-112678856D01*
X146718666Y-112675437D01*
X146696057Y-112669773D01*
X146674113Y-112661921D01*
X146653043Y-112651956D01*
X146633052Y-112639974D01*
X146614332Y-112626090D01*
X146597062Y-112610438D01*
X146581410Y-112593168D01*
X146567526Y-112574448D01*
X146555544Y-112554457D01*
X146545579Y-112533387D01*
X146537727Y-112511443D01*
X146532063Y-112488834D01*
X146528644Y-112465779D01*
X146527500Y-112442500D01*
X146527500Y-111867500D01*
X146528644Y-111844221D01*
X146532063Y-111821166D01*
X146537727Y-111798557D01*
X146545579Y-111776613D01*
X146555544Y-111755543D01*
X146567526Y-111735552D01*
X146581410Y-111716832D01*
X146597062Y-111699562D01*
X146614332Y-111683910D01*
X146633052Y-111670026D01*
X146653043Y-111658044D01*
X146674113Y-111648079D01*
X146696057Y-111640227D01*
X146718666Y-111634563D01*
X146741721Y-111631144D01*
X146765000Y-111630000D01*
X147240000Y-111630000D01*
X147263279Y-111631144D01*
X147263279Y-111631144D01*
G37*
D13*
X147002500Y-112155000D03*
D11*
G36*
X141675779Y-90966144D02*
G01*
X141698834Y-90969563D01*
X141721443Y-90975227D01*
X141743387Y-90983079D01*
X141764457Y-90993044D01*
X141784448Y-91005026D01*
X141803168Y-91018910D01*
X141820438Y-91034562D01*
X141836090Y-91051832D01*
X141849974Y-91070552D01*
X141861956Y-91090543D01*
X141871921Y-91111613D01*
X141879773Y-91133557D01*
X141885437Y-91156166D01*
X141888856Y-91179221D01*
X141890000Y-91202500D01*
X141890000Y-91677500D01*
X141888856Y-91700779D01*
X141885437Y-91723834D01*
X141879773Y-91746443D01*
X141871921Y-91768387D01*
X141861956Y-91789457D01*
X141849974Y-91809448D01*
X141836090Y-91828168D01*
X141820438Y-91845438D01*
X141803168Y-91861090D01*
X141784448Y-91874974D01*
X141764457Y-91886956D01*
X141743387Y-91896921D01*
X141721443Y-91904773D01*
X141698834Y-91910437D01*
X141675779Y-91913856D01*
X141652500Y-91915000D01*
X141077500Y-91915000D01*
X141054221Y-91913856D01*
X141031166Y-91910437D01*
X141008557Y-91904773D01*
X140986613Y-91896921D01*
X140965543Y-91886956D01*
X140945552Y-91874974D01*
X140926832Y-91861090D01*
X140909562Y-91845438D01*
X140893910Y-91828168D01*
X140880026Y-91809448D01*
X140868044Y-91789457D01*
X140858079Y-91768387D01*
X140850227Y-91746443D01*
X140844563Y-91723834D01*
X140841144Y-91700779D01*
X140840000Y-91677500D01*
X140840000Y-91202500D01*
X140841144Y-91179221D01*
X140844563Y-91156166D01*
X140850227Y-91133557D01*
X140858079Y-91111613D01*
X140868044Y-91090543D01*
X140880026Y-91070552D01*
X140893910Y-91051832D01*
X140909562Y-91034562D01*
X140926832Y-91018910D01*
X140945552Y-91005026D01*
X140965543Y-90993044D01*
X140986613Y-90983079D01*
X141008557Y-90975227D01*
X141031166Y-90969563D01*
X141054221Y-90966144D01*
X141077500Y-90965000D01*
X141652500Y-90965000D01*
X141675779Y-90966144D01*
X141675779Y-90966144D01*
G37*
D13*
X141365000Y-91440000D03*
D11*
G36*
X143425779Y-90966144D02*
G01*
X143448834Y-90969563D01*
X143471443Y-90975227D01*
X143493387Y-90983079D01*
X143514457Y-90993044D01*
X143534448Y-91005026D01*
X143553168Y-91018910D01*
X143570438Y-91034562D01*
X143586090Y-91051832D01*
X143599974Y-91070552D01*
X143611956Y-91090543D01*
X143621921Y-91111613D01*
X143629773Y-91133557D01*
X143635437Y-91156166D01*
X143638856Y-91179221D01*
X143640000Y-91202500D01*
X143640000Y-91677500D01*
X143638856Y-91700779D01*
X143635437Y-91723834D01*
X143629773Y-91746443D01*
X143621921Y-91768387D01*
X143611956Y-91789457D01*
X143599974Y-91809448D01*
X143586090Y-91828168D01*
X143570438Y-91845438D01*
X143553168Y-91861090D01*
X143534448Y-91874974D01*
X143514457Y-91886956D01*
X143493387Y-91896921D01*
X143471443Y-91904773D01*
X143448834Y-91910437D01*
X143425779Y-91913856D01*
X143402500Y-91915000D01*
X142827500Y-91915000D01*
X142804221Y-91913856D01*
X142781166Y-91910437D01*
X142758557Y-91904773D01*
X142736613Y-91896921D01*
X142715543Y-91886956D01*
X142695552Y-91874974D01*
X142676832Y-91861090D01*
X142659562Y-91845438D01*
X142643910Y-91828168D01*
X142630026Y-91809448D01*
X142618044Y-91789457D01*
X142608079Y-91768387D01*
X142600227Y-91746443D01*
X142594563Y-91723834D01*
X142591144Y-91700779D01*
X142590000Y-91677500D01*
X142590000Y-91202500D01*
X142591144Y-91179221D01*
X142594563Y-91156166D01*
X142600227Y-91133557D01*
X142608079Y-91111613D01*
X142618044Y-91090543D01*
X142630026Y-91070552D01*
X142643910Y-91051832D01*
X142659562Y-91034562D01*
X142676832Y-91018910D01*
X142695552Y-91005026D01*
X142715543Y-90993044D01*
X142736613Y-90983079D01*
X142758557Y-90975227D01*
X142781166Y-90969563D01*
X142804221Y-90966144D01*
X142827500Y-90965000D01*
X143402500Y-90965000D01*
X143425779Y-90966144D01*
X143425779Y-90966144D01*
G37*
D13*
X143115000Y-91440000D03*
D11*
G36*
X146755779Y-90966144D02*
G01*
X146778834Y-90969563D01*
X146801443Y-90975227D01*
X146823387Y-90983079D01*
X146844457Y-90993044D01*
X146864448Y-91005026D01*
X146883168Y-91018910D01*
X146900438Y-91034562D01*
X146916090Y-91051832D01*
X146929974Y-91070552D01*
X146941956Y-91090543D01*
X146951921Y-91111613D01*
X146959773Y-91133557D01*
X146965437Y-91156166D01*
X146968856Y-91179221D01*
X146970000Y-91202500D01*
X146970000Y-91677500D01*
X146968856Y-91700779D01*
X146965437Y-91723834D01*
X146959773Y-91746443D01*
X146951921Y-91768387D01*
X146941956Y-91789457D01*
X146929974Y-91809448D01*
X146916090Y-91828168D01*
X146900438Y-91845438D01*
X146883168Y-91861090D01*
X146864448Y-91874974D01*
X146844457Y-91886956D01*
X146823387Y-91896921D01*
X146801443Y-91904773D01*
X146778834Y-91910437D01*
X146755779Y-91913856D01*
X146732500Y-91915000D01*
X146157500Y-91915000D01*
X146134221Y-91913856D01*
X146111166Y-91910437D01*
X146088557Y-91904773D01*
X146066613Y-91896921D01*
X146045543Y-91886956D01*
X146025552Y-91874974D01*
X146006832Y-91861090D01*
X145989562Y-91845438D01*
X145973910Y-91828168D01*
X145960026Y-91809448D01*
X145948044Y-91789457D01*
X145938079Y-91768387D01*
X145930227Y-91746443D01*
X145924563Y-91723834D01*
X145921144Y-91700779D01*
X145920000Y-91677500D01*
X145920000Y-91202500D01*
X145921144Y-91179221D01*
X145924563Y-91156166D01*
X145930227Y-91133557D01*
X145938079Y-91111613D01*
X145948044Y-91090543D01*
X145960026Y-91070552D01*
X145973910Y-91051832D01*
X145989562Y-91034562D01*
X146006832Y-91018910D01*
X146025552Y-91005026D01*
X146045543Y-90993044D01*
X146066613Y-90983079D01*
X146088557Y-90975227D01*
X146111166Y-90969563D01*
X146134221Y-90966144D01*
X146157500Y-90965000D01*
X146732500Y-90965000D01*
X146755779Y-90966144D01*
X146755779Y-90966144D01*
G37*
D13*
X146445000Y-91440000D03*
D11*
G36*
X148505779Y-90966144D02*
G01*
X148528834Y-90969563D01*
X148551443Y-90975227D01*
X148573387Y-90983079D01*
X148594457Y-90993044D01*
X148614448Y-91005026D01*
X148633168Y-91018910D01*
X148650438Y-91034562D01*
X148666090Y-91051832D01*
X148679974Y-91070552D01*
X148691956Y-91090543D01*
X148701921Y-91111613D01*
X148709773Y-91133557D01*
X148715437Y-91156166D01*
X148718856Y-91179221D01*
X148720000Y-91202500D01*
X148720000Y-91677500D01*
X148718856Y-91700779D01*
X148715437Y-91723834D01*
X148709773Y-91746443D01*
X148701921Y-91768387D01*
X148691956Y-91789457D01*
X148679974Y-91809448D01*
X148666090Y-91828168D01*
X148650438Y-91845438D01*
X148633168Y-91861090D01*
X148614448Y-91874974D01*
X148594457Y-91886956D01*
X148573387Y-91896921D01*
X148551443Y-91904773D01*
X148528834Y-91910437D01*
X148505779Y-91913856D01*
X148482500Y-91915000D01*
X147907500Y-91915000D01*
X147884221Y-91913856D01*
X147861166Y-91910437D01*
X147838557Y-91904773D01*
X147816613Y-91896921D01*
X147795543Y-91886956D01*
X147775552Y-91874974D01*
X147756832Y-91861090D01*
X147739562Y-91845438D01*
X147723910Y-91828168D01*
X147710026Y-91809448D01*
X147698044Y-91789457D01*
X147688079Y-91768387D01*
X147680227Y-91746443D01*
X147674563Y-91723834D01*
X147671144Y-91700779D01*
X147670000Y-91677500D01*
X147670000Y-91202500D01*
X147671144Y-91179221D01*
X147674563Y-91156166D01*
X147680227Y-91133557D01*
X147688079Y-91111613D01*
X147698044Y-91090543D01*
X147710026Y-91070552D01*
X147723910Y-91051832D01*
X147739562Y-91034562D01*
X147756832Y-91018910D01*
X147775552Y-91005026D01*
X147795543Y-90993044D01*
X147816613Y-90983079D01*
X147838557Y-90975227D01*
X147861166Y-90969563D01*
X147884221Y-90966144D01*
X147907500Y-90965000D01*
X148482500Y-90965000D01*
X148505779Y-90966144D01*
X148505779Y-90966144D01*
G37*
D13*
X148195000Y-91440000D03*
D11*
G36*
X141675779Y-85886144D02*
G01*
X141698834Y-85889563D01*
X141721443Y-85895227D01*
X141743387Y-85903079D01*
X141764457Y-85913044D01*
X141784448Y-85925026D01*
X141803168Y-85938910D01*
X141820438Y-85954562D01*
X141836090Y-85971832D01*
X141849974Y-85990552D01*
X141861956Y-86010543D01*
X141871921Y-86031613D01*
X141879773Y-86053557D01*
X141885437Y-86076166D01*
X141888856Y-86099221D01*
X141890000Y-86122500D01*
X141890000Y-86597500D01*
X141888856Y-86620779D01*
X141885437Y-86643834D01*
X141879773Y-86666443D01*
X141871921Y-86688387D01*
X141861956Y-86709457D01*
X141849974Y-86729448D01*
X141836090Y-86748168D01*
X141820438Y-86765438D01*
X141803168Y-86781090D01*
X141784448Y-86794974D01*
X141764457Y-86806956D01*
X141743387Y-86816921D01*
X141721443Y-86824773D01*
X141698834Y-86830437D01*
X141675779Y-86833856D01*
X141652500Y-86835000D01*
X141077500Y-86835000D01*
X141054221Y-86833856D01*
X141031166Y-86830437D01*
X141008557Y-86824773D01*
X140986613Y-86816921D01*
X140965543Y-86806956D01*
X140945552Y-86794974D01*
X140926832Y-86781090D01*
X140909562Y-86765438D01*
X140893910Y-86748168D01*
X140880026Y-86729448D01*
X140868044Y-86709457D01*
X140858079Y-86688387D01*
X140850227Y-86666443D01*
X140844563Y-86643834D01*
X140841144Y-86620779D01*
X140840000Y-86597500D01*
X140840000Y-86122500D01*
X140841144Y-86099221D01*
X140844563Y-86076166D01*
X140850227Y-86053557D01*
X140858079Y-86031613D01*
X140868044Y-86010543D01*
X140880026Y-85990552D01*
X140893910Y-85971832D01*
X140909562Y-85954562D01*
X140926832Y-85938910D01*
X140945552Y-85925026D01*
X140965543Y-85913044D01*
X140986613Y-85903079D01*
X141008557Y-85895227D01*
X141031166Y-85889563D01*
X141054221Y-85886144D01*
X141077500Y-85885000D01*
X141652500Y-85885000D01*
X141675779Y-85886144D01*
X141675779Y-85886144D01*
G37*
D13*
X141365000Y-86360000D03*
D11*
G36*
X143425779Y-85886144D02*
G01*
X143448834Y-85889563D01*
X143471443Y-85895227D01*
X143493387Y-85903079D01*
X143514457Y-85913044D01*
X143534448Y-85925026D01*
X143553168Y-85938910D01*
X143570438Y-85954562D01*
X143586090Y-85971832D01*
X143599974Y-85990552D01*
X143611956Y-86010543D01*
X143621921Y-86031613D01*
X143629773Y-86053557D01*
X143635437Y-86076166D01*
X143638856Y-86099221D01*
X143640000Y-86122500D01*
X143640000Y-86597500D01*
X143638856Y-86620779D01*
X143635437Y-86643834D01*
X143629773Y-86666443D01*
X143621921Y-86688387D01*
X143611956Y-86709457D01*
X143599974Y-86729448D01*
X143586090Y-86748168D01*
X143570438Y-86765438D01*
X143553168Y-86781090D01*
X143534448Y-86794974D01*
X143514457Y-86806956D01*
X143493387Y-86816921D01*
X143471443Y-86824773D01*
X143448834Y-86830437D01*
X143425779Y-86833856D01*
X143402500Y-86835000D01*
X142827500Y-86835000D01*
X142804221Y-86833856D01*
X142781166Y-86830437D01*
X142758557Y-86824773D01*
X142736613Y-86816921D01*
X142715543Y-86806956D01*
X142695552Y-86794974D01*
X142676832Y-86781090D01*
X142659562Y-86765438D01*
X142643910Y-86748168D01*
X142630026Y-86729448D01*
X142618044Y-86709457D01*
X142608079Y-86688387D01*
X142600227Y-86666443D01*
X142594563Y-86643834D01*
X142591144Y-86620779D01*
X142590000Y-86597500D01*
X142590000Y-86122500D01*
X142591144Y-86099221D01*
X142594563Y-86076166D01*
X142600227Y-86053557D01*
X142608079Y-86031613D01*
X142618044Y-86010543D01*
X142630026Y-85990552D01*
X142643910Y-85971832D01*
X142659562Y-85954562D01*
X142676832Y-85938910D01*
X142695552Y-85925026D01*
X142715543Y-85913044D01*
X142736613Y-85903079D01*
X142758557Y-85895227D01*
X142781166Y-85889563D01*
X142804221Y-85886144D01*
X142827500Y-85885000D01*
X143402500Y-85885000D01*
X143425779Y-85886144D01*
X143425779Y-85886144D01*
G37*
D13*
X143115000Y-86360000D03*
D11*
G36*
X148505779Y-85886144D02*
G01*
X148528834Y-85889563D01*
X148551443Y-85895227D01*
X148573387Y-85903079D01*
X148594457Y-85913044D01*
X148614448Y-85925026D01*
X148633168Y-85938910D01*
X148650438Y-85954562D01*
X148666090Y-85971832D01*
X148679974Y-85990552D01*
X148691956Y-86010543D01*
X148701921Y-86031613D01*
X148709773Y-86053557D01*
X148715437Y-86076166D01*
X148718856Y-86099221D01*
X148720000Y-86122500D01*
X148720000Y-86597500D01*
X148718856Y-86620779D01*
X148715437Y-86643834D01*
X148709773Y-86666443D01*
X148701921Y-86688387D01*
X148691956Y-86709457D01*
X148679974Y-86729448D01*
X148666090Y-86748168D01*
X148650438Y-86765438D01*
X148633168Y-86781090D01*
X148614448Y-86794974D01*
X148594457Y-86806956D01*
X148573387Y-86816921D01*
X148551443Y-86824773D01*
X148528834Y-86830437D01*
X148505779Y-86833856D01*
X148482500Y-86835000D01*
X147907500Y-86835000D01*
X147884221Y-86833856D01*
X147861166Y-86830437D01*
X147838557Y-86824773D01*
X147816613Y-86816921D01*
X147795543Y-86806956D01*
X147775552Y-86794974D01*
X147756832Y-86781090D01*
X147739562Y-86765438D01*
X147723910Y-86748168D01*
X147710026Y-86729448D01*
X147698044Y-86709457D01*
X147688079Y-86688387D01*
X147680227Y-86666443D01*
X147674563Y-86643834D01*
X147671144Y-86620779D01*
X147670000Y-86597500D01*
X147670000Y-86122500D01*
X147671144Y-86099221D01*
X147674563Y-86076166D01*
X147680227Y-86053557D01*
X147688079Y-86031613D01*
X147698044Y-86010543D01*
X147710026Y-85990552D01*
X147723910Y-85971832D01*
X147739562Y-85954562D01*
X147756832Y-85938910D01*
X147775552Y-85925026D01*
X147795543Y-85913044D01*
X147816613Y-85903079D01*
X147838557Y-85895227D01*
X147861166Y-85889563D01*
X147884221Y-85886144D01*
X147907500Y-85885000D01*
X148482500Y-85885000D01*
X148505779Y-85886144D01*
X148505779Y-85886144D01*
G37*
D13*
X148195000Y-86360000D03*
D11*
G36*
X146755779Y-85886144D02*
G01*
X146778834Y-85889563D01*
X146801443Y-85895227D01*
X146823387Y-85903079D01*
X146844457Y-85913044D01*
X146864448Y-85925026D01*
X146883168Y-85938910D01*
X146900438Y-85954562D01*
X146916090Y-85971832D01*
X146929974Y-85990552D01*
X146941956Y-86010543D01*
X146951921Y-86031613D01*
X146959773Y-86053557D01*
X146965437Y-86076166D01*
X146968856Y-86099221D01*
X146970000Y-86122500D01*
X146970000Y-86597500D01*
X146968856Y-86620779D01*
X146965437Y-86643834D01*
X146959773Y-86666443D01*
X146951921Y-86688387D01*
X146941956Y-86709457D01*
X146929974Y-86729448D01*
X146916090Y-86748168D01*
X146900438Y-86765438D01*
X146883168Y-86781090D01*
X146864448Y-86794974D01*
X146844457Y-86806956D01*
X146823387Y-86816921D01*
X146801443Y-86824773D01*
X146778834Y-86830437D01*
X146755779Y-86833856D01*
X146732500Y-86835000D01*
X146157500Y-86835000D01*
X146134221Y-86833856D01*
X146111166Y-86830437D01*
X146088557Y-86824773D01*
X146066613Y-86816921D01*
X146045543Y-86806956D01*
X146025552Y-86794974D01*
X146006832Y-86781090D01*
X145989562Y-86765438D01*
X145973910Y-86748168D01*
X145960026Y-86729448D01*
X145948044Y-86709457D01*
X145938079Y-86688387D01*
X145930227Y-86666443D01*
X145924563Y-86643834D01*
X145921144Y-86620779D01*
X145920000Y-86597500D01*
X145920000Y-86122500D01*
X145921144Y-86099221D01*
X145924563Y-86076166D01*
X145930227Y-86053557D01*
X145938079Y-86031613D01*
X145948044Y-86010543D01*
X145960026Y-85990552D01*
X145973910Y-85971832D01*
X145989562Y-85954562D01*
X146006832Y-85938910D01*
X146025552Y-85925026D01*
X146045543Y-85913044D01*
X146066613Y-85903079D01*
X146088557Y-85895227D01*
X146111166Y-85889563D01*
X146134221Y-85886144D01*
X146157500Y-85885000D01*
X146732500Y-85885000D01*
X146755779Y-85886144D01*
X146755779Y-85886144D01*
G37*
D13*
X146445000Y-86360000D03*
D11*
G36*
X175574505Y-91596204D02*
G01*
X175598773Y-91599804D01*
X175622572Y-91605765D01*
X175645671Y-91614030D01*
X175667850Y-91624520D01*
X175688893Y-91637132D01*
X175708599Y-91651747D01*
X175726777Y-91668223D01*
X175743253Y-91686401D01*
X175757868Y-91706107D01*
X175770480Y-91727150D01*
X175780970Y-91749329D01*
X175789235Y-91772428D01*
X175795196Y-91796227D01*
X175798796Y-91820495D01*
X175800000Y-91844999D01*
X175800000Y-93595001D01*
X175798796Y-93619505D01*
X175795196Y-93643773D01*
X175789235Y-93667572D01*
X175780970Y-93690671D01*
X175770480Y-93712850D01*
X175757868Y-93733893D01*
X175743253Y-93753599D01*
X175726777Y-93771777D01*
X175708599Y-93788253D01*
X175688893Y-93802868D01*
X175667850Y-93815480D01*
X175645671Y-93825970D01*
X175622572Y-93834235D01*
X175598773Y-93840196D01*
X175574505Y-93843796D01*
X175550001Y-93845000D01*
X173699999Y-93845000D01*
X173675495Y-93843796D01*
X173651227Y-93840196D01*
X173627428Y-93834235D01*
X173604329Y-93825970D01*
X173582150Y-93815480D01*
X173561107Y-93802868D01*
X173541401Y-93788253D01*
X173523223Y-93771777D01*
X173506747Y-93753599D01*
X173492132Y-93733893D01*
X173479520Y-93712850D01*
X173469030Y-93690671D01*
X173460765Y-93667572D01*
X173454804Y-93643773D01*
X173451204Y-93619505D01*
X173450000Y-93595001D01*
X173450000Y-91844999D01*
X173451204Y-91820495D01*
X173454804Y-91796227D01*
X173460765Y-91772428D01*
X173469030Y-91749329D01*
X173479520Y-91727150D01*
X173492132Y-91706107D01*
X173506747Y-91686401D01*
X173523223Y-91668223D01*
X173541401Y-91651747D01*
X173561107Y-91637132D01*
X173582150Y-91624520D01*
X173604329Y-91614030D01*
X173627428Y-91605765D01*
X173651227Y-91599804D01*
X173675495Y-91596204D01*
X173699999Y-91595000D01*
X175550001Y-91595000D01*
X175574505Y-91596204D01*
X175574505Y-91596204D01*
G37*
D12*
X174625000Y-92720000D03*
D11*
G36*
X175574505Y-86496204D02*
G01*
X175598773Y-86499804D01*
X175622572Y-86505765D01*
X175645671Y-86514030D01*
X175667850Y-86524520D01*
X175688893Y-86537132D01*
X175708599Y-86551747D01*
X175726777Y-86568223D01*
X175743253Y-86586401D01*
X175757868Y-86606107D01*
X175770480Y-86627150D01*
X175780970Y-86649329D01*
X175789235Y-86672428D01*
X175795196Y-86696227D01*
X175798796Y-86720495D01*
X175800000Y-86744999D01*
X175800000Y-88495001D01*
X175798796Y-88519505D01*
X175795196Y-88543773D01*
X175789235Y-88567572D01*
X175780970Y-88590671D01*
X175770480Y-88612850D01*
X175757868Y-88633893D01*
X175743253Y-88653599D01*
X175726777Y-88671777D01*
X175708599Y-88688253D01*
X175688893Y-88702868D01*
X175667850Y-88715480D01*
X175645671Y-88725970D01*
X175622572Y-88734235D01*
X175598773Y-88740196D01*
X175574505Y-88743796D01*
X175550001Y-88745000D01*
X173699999Y-88745000D01*
X173675495Y-88743796D01*
X173651227Y-88740196D01*
X173627428Y-88734235D01*
X173604329Y-88725970D01*
X173582150Y-88715480D01*
X173561107Y-88702868D01*
X173541401Y-88688253D01*
X173523223Y-88671777D01*
X173506747Y-88653599D01*
X173492132Y-88633893D01*
X173479520Y-88612850D01*
X173469030Y-88590671D01*
X173460765Y-88567572D01*
X173454804Y-88543773D01*
X173451204Y-88519505D01*
X173450000Y-88495001D01*
X173450000Y-86744999D01*
X173451204Y-86720495D01*
X173454804Y-86696227D01*
X173460765Y-86672428D01*
X173469030Y-86649329D01*
X173479520Y-86627150D01*
X173492132Y-86606107D01*
X173506747Y-86586401D01*
X173523223Y-86568223D01*
X173541401Y-86551747D01*
X173561107Y-86537132D01*
X173582150Y-86524520D01*
X173604329Y-86514030D01*
X173627428Y-86505765D01*
X173651227Y-86499804D01*
X173675495Y-86496204D01*
X173699999Y-86495000D01*
X175550001Y-86495000D01*
X175574505Y-86496204D01*
X175574505Y-86496204D01*
G37*
D12*
X174625000Y-87620000D03*
D11*
G36*
X170758279Y-95601144D02*
G01*
X170781334Y-95604563D01*
X170803943Y-95610227D01*
X170825887Y-95618079D01*
X170846957Y-95628044D01*
X170866948Y-95640026D01*
X170885668Y-95653910D01*
X170902938Y-95669562D01*
X170918590Y-95686832D01*
X170932474Y-95705552D01*
X170944456Y-95725543D01*
X170954421Y-95746613D01*
X170962273Y-95768557D01*
X170967937Y-95791166D01*
X170971356Y-95814221D01*
X170972500Y-95837500D01*
X170972500Y-96412500D01*
X170971356Y-96435779D01*
X170967937Y-96458834D01*
X170962273Y-96481443D01*
X170954421Y-96503387D01*
X170944456Y-96524457D01*
X170932474Y-96544448D01*
X170918590Y-96563168D01*
X170902938Y-96580438D01*
X170885668Y-96596090D01*
X170866948Y-96609974D01*
X170846957Y-96621956D01*
X170825887Y-96631921D01*
X170803943Y-96639773D01*
X170781334Y-96645437D01*
X170758279Y-96648856D01*
X170735000Y-96650000D01*
X170260000Y-96650000D01*
X170236721Y-96648856D01*
X170213666Y-96645437D01*
X170191057Y-96639773D01*
X170169113Y-96631921D01*
X170148043Y-96621956D01*
X170128052Y-96609974D01*
X170109332Y-96596090D01*
X170092062Y-96580438D01*
X170076410Y-96563168D01*
X170062526Y-96544448D01*
X170050544Y-96524457D01*
X170040579Y-96503387D01*
X170032727Y-96481443D01*
X170027063Y-96458834D01*
X170023644Y-96435779D01*
X170022500Y-96412500D01*
X170022500Y-95837500D01*
X170023644Y-95814221D01*
X170027063Y-95791166D01*
X170032727Y-95768557D01*
X170040579Y-95746613D01*
X170050544Y-95725543D01*
X170062526Y-95705552D01*
X170076410Y-95686832D01*
X170092062Y-95669562D01*
X170109332Y-95653910D01*
X170128052Y-95640026D01*
X170148043Y-95628044D01*
X170169113Y-95618079D01*
X170191057Y-95610227D01*
X170213666Y-95604563D01*
X170236721Y-95601144D01*
X170260000Y-95600000D01*
X170735000Y-95600000D01*
X170758279Y-95601144D01*
X170758279Y-95601144D01*
G37*
D13*
X170497500Y-96125000D03*
D11*
G36*
X170758279Y-93851144D02*
G01*
X170781334Y-93854563D01*
X170803943Y-93860227D01*
X170825887Y-93868079D01*
X170846957Y-93878044D01*
X170866948Y-93890026D01*
X170885668Y-93903910D01*
X170902938Y-93919562D01*
X170918590Y-93936832D01*
X170932474Y-93955552D01*
X170944456Y-93975543D01*
X170954421Y-93996613D01*
X170962273Y-94018557D01*
X170967937Y-94041166D01*
X170971356Y-94064221D01*
X170972500Y-94087500D01*
X170972500Y-94662500D01*
X170971356Y-94685779D01*
X170967937Y-94708834D01*
X170962273Y-94731443D01*
X170954421Y-94753387D01*
X170944456Y-94774457D01*
X170932474Y-94794448D01*
X170918590Y-94813168D01*
X170902938Y-94830438D01*
X170885668Y-94846090D01*
X170866948Y-94859974D01*
X170846957Y-94871956D01*
X170825887Y-94881921D01*
X170803943Y-94889773D01*
X170781334Y-94895437D01*
X170758279Y-94898856D01*
X170735000Y-94900000D01*
X170260000Y-94900000D01*
X170236721Y-94898856D01*
X170213666Y-94895437D01*
X170191057Y-94889773D01*
X170169113Y-94881921D01*
X170148043Y-94871956D01*
X170128052Y-94859974D01*
X170109332Y-94846090D01*
X170092062Y-94830438D01*
X170076410Y-94813168D01*
X170062526Y-94794448D01*
X170050544Y-94774457D01*
X170040579Y-94753387D01*
X170032727Y-94731443D01*
X170027063Y-94708834D01*
X170023644Y-94685779D01*
X170022500Y-94662500D01*
X170022500Y-94087500D01*
X170023644Y-94064221D01*
X170027063Y-94041166D01*
X170032727Y-94018557D01*
X170040579Y-93996613D01*
X170050544Y-93975543D01*
X170062526Y-93955552D01*
X170076410Y-93936832D01*
X170092062Y-93919562D01*
X170109332Y-93903910D01*
X170128052Y-93890026D01*
X170148043Y-93878044D01*
X170169113Y-93868079D01*
X170191057Y-93860227D01*
X170213666Y-93854563D01*
X170236721Y-93851144D01*
X170260000Y-93850000D01*
X170735000Y-93850000D01*
X170758279Y-93851144D01*
X170758279Y-93851144D01*
G37*
D13*
X170497500Y-94375000D03*
D11*
G36*
X167319505Y-86496204D02*
G01*
X167343773Y-86499804D01*
X167367572Y-86505765D01*
X167390671Y-86514030D01*
X167412850Y-86524520D01*
X167433893Y-86537132D01*
X167453599Y-86551747D01*
X167471777Y-86568223D01*
X167488253Y-86586401D01*
X167502868Y-86606107D01*
X167515480Y-86627150D01*
X167525970Y-86649329D01*
X167534235Y-86672428D01*
X167540196Y-86696227D01*
X167543796Y-86720495D01*
X167545000Y-86744999D01*
X167545000Y-88495001D01*
X167543796Y-88519505D01*
X167540196Y-88543773D01*
X167534235Y-88567572D01*
X167525970Y-88590671D01*
X167515480Y-88612850D01*
X167502868Y-88633893D01*
X167488253Y-88653599D01*
X167471777Y-88671777D01*
X167453599Y-88688253D01*
X167433893Y-88702868D01*
X167412850Y-88715480D01*
X167390671Y-88725970D01*
X167367572Y-88734235D01*
X167343773Y-88740196D01*
X167319505Y-88743796D01*
X167295001Y-88745000D01*
X165444999Y-88745000D01*
X165420495Y-88743796D01*
X165396227Y-88740196D01*
X165372428Y-88734235D01*
X165349329Y-88725970D01*
X165327150Y-88715480D01*
X165306107Y-88702868D01*
X165286401Y-88688253D01*
X165268223Y-88671777D01*
X165251747Y-88653599D01*
X165237132Y-88633893D01*
X165224520Y-88612850D01*
X165214030Y-88590671D01*
X165205765Y-88567572D01*
X165199804Y-88543773D01*
X165196204Y-88519505D01*
X165195000Y-88495001D01*
X165195000Y-86744999D01*
X165196204Y-86720495D01*
X165199804Y-86696227D01*
X165205765Y-86672428D01*
X165214030Y-86649329D01*
X165224520Y-86627150D01*
X165237132Y-86606107D01*
X165251747Y-86586401D01*
X165268223Y-86568223D01*
X165286401Y-86551747D01*
X165306107Y-86537132D01*
X165327150Y-86524520D01*
X165349329Y-86514030D01*
X165372428Y-86505765D01*
X165396227Y-86499804D01*
X165420495Y-86496204D01*
X165444999Y-86495000D01*
X167295001Y-86495000D01*
X167319505Y-86496204D01*
X167319505Y-86496204D01*
G37*
D12*
X166370000Y-87620000D03*
D11*
G36*
X167319505Y-91596204D02*
G01*
X167343773Y-91599804D01*
X167367572Y-91605765D01*
X167390671Y-91614030D01*
X167412850Y-91624520D01*
X167433893Y-91637132D01*
X167453599Y-91651747D01*
X167471777Y-91668223D01*
X167488253Y-91686401D01*
X167502868Y-91706107D01*
X167515480Y-91727150D01*
X167525970Y-91749329D01*
X167534235Y-91772428D01*
X167540196Y-91796227D01*
X167543796Y-91820495D01*
X167545000Y-91844999D01*
X167545000Y-93595001D01*
X167543796Y-93619505D01*
X167540196Y-93643773D01*
X167534235Y-93667572D01*
X167525970Y-93690671D01*
X167515480Y-93712850D01*
X167502868Y-93733893D01*
X167488253Y-93753599D01*
X167471777Y-93771777D01*
X167453599Y-93788253D01*
X167433893Y-93802868D01*
X167412850Y-93815480D01*
X167390671Y-93825970D01*
X167367572Y-93834235D01*
X167343773Y-93840196D01*
X167319505Y-93843796D01*
X167295001Y-93845000D01*
X165444999Y-93845000D01*
X165420495Y-93843796D01*
X165396227Y-93840196D01*
X165372428Y-93834235D01*
X165349329Y-93825970D01*
X165327150Y-93815480D01*
X165306107Y-93802868D01*
X165286401Y-93788253D01*
X165268223Y-93771777D01*
X165251747Y-93753599D01*
X165237132Y-93733893D01*
X165224520Y-93712850D01*
X165214030Y-93690671D01*
X165205765Y-93667572D01*
X165199804Y-93643773D01*
X165196204Y-93619505D01*
X165195000Y-93595001D01*
X165195000Y-91844999D01*
X165196204Y-91820495D01*
X165199804Y-91796227D01*
X165205765Y-91772428D01*
X165214030Y-91749329D01*
X165224520Y-91727150D01*
X165237132Y-91706107D01*
X165251747Y-91686401D01*
X165268223Y-91668223D01*
X165286401Y-91651747D01*
X165306107Y-91637132D01*
X165327150Y-91624520D01*
X165349329Y-91614030D01*
X165372428Y-91605765D01*
X165396227Y-91599804D01*
X165420495Y-91596204D01*
X165444999Y-91595000D01*
X167295001Y-91595000D01*
X167319505Y-91596204D01*
X167319505Y-91596204D01*
G37*
D12*
X166370000Y-92720000D03*
D17*
X169547500Y-89070000D03*
X170497500Y-89070000D03*
X171447500Y-89070000D03*
X171447500Y-91270000D03*
X169547500Y-91270000D03*
D11*
G36*
X155200779Y-87981144D02*
G01*
X155223834Y-87984563D01*
X155246443Y-87990227D01*
X155268387Y-87998079D01*
X155289457Y-88008044D01*
X155309448Y-88020026D01*
X155328168Y-88033910D01*
X155345438Y-88049562D01*
X155361090Y-88066832D01*
X155374974Y-88085552D01*
X155386956Y-88105543D01*
X155396921Y-88126613D01*
X155404773Y-88148557D01*
X155410437Y-88171166D01*
X155413856Y-88194221D01*
X155415000Y-88217500D01*
X155415000Y-88792500D01*
X155413856Y-88815779D01*
X155410437Y-88838834D01*
X155404773Y-88861443D01*
X155396921Y-88883387D01*
X155386956Y-88904457D01*
X155374974Y-88924448D01*
X155361090Y-88943168D01*
X155345438Y-88960438D01*
X155328168Y-88976090D01*
X155309448Y-88989974D01*
X155289457Y-89001956D01*
X155268387Y-89011921D01*
X155246443Y-89019773D01*
X155223834Y-89025437D01*
X155200779Y-89028856D01*
X155177500Y-89030000D01*
X154702500Y-89030000D01*
X154679221Y-89028856D01*
X154656166Y-89025437D01*
X154633557Y-89019773D01*
X154611613Y-89011921D01*
X154590543Y-89001956D01*
X154570552Y-88989974D01*
X154551832Y-88976090D01*
X154534562Y-88960438D01*
X154518910Y-88943168D01*
X154505026Y-88924448D01*
X154493044Y-88904457D01*
X154483079Y-88883387D01*
X154475227Y-88861443D01*
X154469563Y-88838834D01*
X154466144Y-88815779D01*
X154465000Y-88792500D01*
X154465000Y-88217500D01*
X154466144Y-88194221D01*
X154469563Y-88171166D01*
X154475227Y-88148557D01*
X154483079Y-88126613D01*
X154493044Y-88105543D01*
X154505026Y-88085552D01*
X154518910Y-88066832D01*
X154534562Y-88049562D01*
X154551832Y-88033910D01*
X154570552Y-88020026D01*
X154590543Y-88008044D01*
X154611613Y-87998079D01*
X154633557Y-87990227D01*
X154656166Y-87984563D01*
X154679221Y-87981144D01*
X154702500Y-87980000D01*
X155177500Y-87980000D01*
X155200779Y-87981144D01*
X155200779Y-87981144D01*
G37*
D13*
X154940000Y-88505000D03*
D11*
G36*
X155200779Y-86231144D02*
G01*
X155223834Y-86234563D01*
X155246443Y-86240227D01*
X155268387Y-86248079D01*
X155289457Y-86258044D01*
X155309448Y-86270026D01*
X155328168Y-86283910D01*
X155345438Y-86299562D01*
X155361090Y-86316832D01*
X155374974Y-86335552D01*
X155386956Y-86355543D01*
X155396921Y-86376613D01*
X155404773Y-86398557D01*
X155410437Y-86421166D01*
X155413856Y-86444221D01*
X155415000Y-86467500D01*
X155415000Y-87042500D01*
X155413856Y-87065779D01*
X155410437Y-87088834D01*
X155404773Y-87111443D01*
X155396921Y-87133387D01*
X155386956Y-87154457D01*
X155374974Y-87174448D01*
X155361090Y-87193168D01*
X155345438Y-87210438D01*
X155328168Y-87226090D01*
X155309448Y-87239974D01*
X155289457Y-87251956D01*
X155268387Y-87261921D01*
X155246443Y-87269773D01*
X155223834Y-87275437D01*
X155200779Y-87278856D01*
X155177500Y-87280000D01*
X154702500Y-87280000D01*
X154679221Y-87278856D01*
X154656166Y-87275437D01*
X154633557Y-87269773D01*
X154611613Y-87261921D01*
X154590543Y-87251956D01*
X154570552Y-87239974D01*
X154551832Y-87226090D01*
X154534562Y-87210438D01*
X154518910Y-87193168D01*
X154505026Y-87174448D01*
X154493044Y-87154457D01*
X154483079Y-87133387D01*
X154475227Y-87111443D01*
X154469563Y-87088834D01*
X154466144Y-87065779D01*
X154465000Y-87042500D01*
X154465000Y-86467500D01*
X154466144Y-86444221D01*
X154469563Y-86421166D01*
X154475227Y-86398557D01*
X154483079Y-86376613D01*
X154493044Y-86355543D01*
X154505026Y-86335552D01*
X154518910Y-86316832D01*
X154534562Y-86299562D01*
X154551832Y-86283910D01*
X154570552Y-86270026D01*
X154590543Y-86258044D01*
X154611613Y-86248079D01*
X154633557Y-86240227D01*
X154656166Y-86234563D01*
X154679221Y-86231144D01*
X154702500Y-86230000D01*
X155177500Y-86230000D01*
X155200779Y-86231144D01*
X155200779Y-86231144D01*
G37*
D13*
X154940000Y-86755000D03*
D11*
G36*
X157740779Y-87981144D02*
G01*
X157763834Y-87984563D01*
X157786443Y-87990227D01*
X157808387Y-87998079D01*
X157829457Y-88008044D01*
X157849448Y-88020026D01*
X157868168Y-88033910D01*
X157885438Y-88049562D01*
X157901090Y-88066832D01*
X157914974Y-88085552D01*
X157926956Y-88105543D01*
X157936921Y-88126613D01*
X157944773Y-88148557D01*
X157950437Y-88171166D01*
X157953856Y-88194221D01*
X157955000Y-88217500D01*
X157955000Y-88792500D01*
X157953856Y-88815779D01*
X157950437Y-88838834D01*
X157944773Y-88861443D01*
X157936921Y-88883387D01*
X157926956Y-88904457D01*
X157914974Y-88924448D01*
X157901090Y-88943168D01*
X157885438Y-88960438D01*
X157868168Y-88976090D01*
X157849448Y-88989974D01*
X157829457Y-89001956D01*
X157808387Y-89011921D01*
X157786443Y-89019773D01*
X157763834Y-89025437D01*
X157740779Y-89028856D01*
X157717500Y-89030000D01*
X157242500Y-89030000D01*
X157219221Y-89028856D01*
X157196166Y-89025437D01*
X157173557Y-89019773D01*
X157151613Y-89011921D01*
X157130543Y-89001956D01*
X157110552Y-88989974D01*
X157091832Y-88976090D01*
X157074562Y-88960438D01*
X157058910Y-88943168D01*
X157045026Y-88924448D01*
X157033044Y-88904457D01*
X157023079Y-88883387D01*
X157015227Y-88861443D01*
X157009563Y-88838834D01*
X157006144Y-88815779D01*
X157005000Y-88792500D01*
X157005000Y-88217500D01*
X157006144Y-88194221D01*
X157009563Y-88171166D01*
X157015227Y-88148557D01*
X157023079Y-88126613D01*
X157033044Y-88105543D01*
X157045026Y-88085552D01*
X157058910Y-88066832D01*
X157074562Y-88049562D01*
X157091832Y-88033910D01*
X157110552Y-88020026D01*
X157130543Y-88008044D01*
X157151613Y-87998079D01*
X157173557Y-87990227D01*
X157196166Y-87984563D01*
X157219221Y-87981144D01*
X157242500Y-87980000D01*
X157717500Y-87980000D01*
X157740779Y-87981144D01*
X157740779Y-87981144D01*
G37*
D13*
X157480000Y-88505000D03*
D11*
G36*
X157740779Y-86231144D02*
G01*
X157763834Y-86234563D01*
X157786443Y-86240227D01*
X157808387Y-86248079D01*
X157829457Y-86258044D01*
X157849448Y-86270026D01*
X157868168Y-86283910D01*
X157885438Y-86299562D01*
X157901090Y-86316832D01*
X157914974Y-86335552D01*
X157926956Y-86355543D01*
X157936921Y-86376613D01*
X157944773Y-86398557D01*
X157950437Y-86421166D01*
X157953856Y-86444221D01*
X157955000Y-86467500D01*
X157955000Y-87042500D01*
X157953856Y-87065779D01*
X157950437Y-87088834D01*
X157944773Y-87111443D01*
X157936921Y-87133387D01*
X157926956Y-87154457D01*
X157914974Y-87174448D01*
X157901090Y-87193168D01*
X157885438Y-87210438D01*
X157868168Y-87226090D01*
X157849448Y-87239974D01*
X157829457Y-87251956D01*
X157808387Y-87261921D01*
X157786443Y-87269773D01*
X157763834Y-87275437D01*
X157740779Y-87278856D01*
X157717500Y-87280000D01*
X157242500Y-87280000D01*
X157219221Y-87278856D01*
X157196166Y-87275437D01*
X157173557Y-87269773D01*
X157151613Y-87261921D01*
X157130543Y-87251956D01*
X157110552Y-87239974D01*
X157091832Y-87226090D01*
X157074562Y-87210438D01*
X157058910Y-87193168D01*
X157045026Y-87174448D01*
X157033044Y-87154457D01*
X157023079Y-87133387D01*
X157015227Y-87111443D01*
X157009563Y-87088834D01*
X157006144Y-87065779D01*
X157005000Y-87042500D01*
X157005000Y-86467500D01*
X157006144Y-86444221D01*
X157009563Y-86421166D01*
X157015227Y-86398557D01*
X157023079Y-86376613D01*
X157033044Y-86355543D01*
X157045026Y-86335552D01*
X157058910Y-86316832D01*
X157074562Y-86299562D01*
X157091832Y-86283910D01*
X157110552Y-86270026D01*
X157130543Y-86258044D01*
X157151613Y-86248079D01*
X157173557Y-86240227D01*
X157196166Y-86234563D01*
X157219221Y-86231144D01*
X157242500Y-86230000D01*
X157717500Y-86230000D01*
X157740779Y-86231144D01*
X157740779Y-86231144D01*
G37*
D13*
X157480000Y-86755000D03*
D11*
G36*
X160280779Y-86231144D02*
G01*
X160303834Y-86234563D01*
X160326443Y-86240227D01*
X160348387Y-86248079D01*
X160369457Y-86258044D01*
X160389448Y-86270026D01*
X160408168Y-86283910D01*
X160425438Y-86299562D01*
X160441090Y-86316832D01*
X160454974Y-86335552D01*
X160466956Y-86355543D01*
X160476921Y-86376613D01*
X160484773Y-86398557D01*
X160490437Y-86421166D01*
X160493856Y-86444221D01*
X160495000Y-86467500D01*
X160495000Y-87042500D01*
X160493856Y-87065779D01*
X160490437Y-87088834D01*
X160484773Y-87111443D01*
X160476921Y-87133387D01*
X160466956Y-87154457D01*
X160454974Y-87174448D01*
X160441090Y-87193168D01*
X160425438Y-87210438D01*
X160408168Y-87226090D01*
X160389448Y-87239974D01*
X160369457Y-87251956D01*
X160348387Y-87261921D01*
X160326443Y-87269773D01*
X160303834Y-87275437D01*
X160280779Y-87278856D01*
X160257500Y-87280000D01*
X159782500Y-87280000D01*
X159759221Y-87278856D01*
X159736166Y-87275437D01*
X159713557Y-87269773D01*
X159691613Y-87261921D01*
X159670543Y-87251956D01*
X159650552Y-87239974D01*
X159631832Y-87226090D01*
X159614562Y-87210438D01*
X159598910Y-87193168D01*
X159585026Y-87174448D01*
X159573044Y-87154457D01*
X159563079Y-87133387D01*
X159555227Y-87111443D01*
X159549563Y-87088834D01*
X159546144Y-87065779D01*
X159545000Y-87042500D01*
X159545000Y-86467500D01*
X159546144Y-86444221D01*
X159549563Y-86421166D01*
X159555227Y-86398557D01*
X159563079Y-86376613D01*
X159573044Y-86355543D01*
X159585026Y-86335552D01*
X159598910Y-86316832D01*
X159614562Y-86299562D01*
X159631832Y-86283910D01*
X159650552Y-86270026D01*
X159670543Y-86258044D01*
X159691613Y-86248079D01*
X159713557Y-86240227D01*
X159736166Y-86234563D01*
X159759221Y-86231144D01*
X159782500Y-86230000D01*
X160257500Y-86230000D01*
X160280779Y-86231144D01*
X160280779Y-86231144D01*
G37*
D13*
X160020000Y-86755000D03*
D11*
G36*
X160280779Y-87981144D02*
G01*
X160303834Y-87984563D01*
X160326443Y-87990227D01*
X160348387Y-87998079D01*
X160369457Y-88008044D01*
X160389448Y-88020026D01*
X160408168Y-88033910D01*
X160425438Y-88049562D01*
X160441090Y-88066832D01*
X160454974Y-88085552D01*
X160466956Y-88105543D01*
X160476921Y-88126613D01*
X160484773Y-88148557D01*
X160490437Y-88171166D01*
X160493856Y-88194221D01*
X160495000Y-88217500D01*
X160495000Y-88792500D01*
X160493856Y-88815779D01*
X160490437Y-88838834D01*
X160484773Y-88861443D01*
X160476921Y-88883387D01*
X160466956Y-88904457D01*
X160454974Y-88924448D01*
X160441090Y-88943168D01*
X160425438Y-88960438D01*
X160408168Y-88976090D01*
X160389448Y-88989974D01*
X160369457Y-89001956D01*
X160348387Y-89011921D01*
X160326443Y-89019773D01*
X160303834Y-89025437D01*
X160280779Y-89028856D01*
X160257500Y-89030000D01*
X159782500Y-89030000D01*
X159759221Y-89028856D01*
X159736166Y-89025437D01*
X159713557Y-89019773D01*
X159691613Y-89011921D01*
X159670543Y-89001956D01*
X159650552Y-88989974D01*
X159631832Y-88976090D01*
X159614562Y-88960438D01*
X159598910Y-88943168D01*
X159585026Y-88924448D01*
X159573044Y-88904457D01*
X159563079Y-88883387D01*
X159555227Y-88861443D01*
X159549563Y-88838834D01*
X159546144Y-88815779D01*
X159545000Y-88792500D01*
X159545000Y-88217500D01*
X159546144Y-88194221D01*
X159549563Y-88171166D01*
X159555227Y-88148557D01*
X159563079Y-88126613D01*
X159573044Y-88105543D01*
X159585026Y-88085552D01*
X159598910Y-88066832D01*
X159614562Y-88049562D01*
X159631832Y-88033910D01*
X159650552Y-88020026D01*
X159670543Y-88008044D01*
X159691613Y-87998079D01*
X159713557Y-87990227D01*
X159736166Y-87984563D01*
X159759221Y-87981144D01*
X159782500Y-87980000D01*
X160257500Y-87980000D01*
X160280779Y-87981144D01*
X160280779Y-87981144D01*
G37*
D13*
X160020000Y-88505000D03*
D11*
G36*
X162820779Y-87981144D02*
G01*
X162843834Y-87984563D01*
X162866443Y-87990227D01*
X162888387Y-87998079D01*
X162909457Y-88008044D01*
X162929448Y-88020026D01*
X162948168Y-88033910D01*
X162965438Y-88049562D01*
X162981090Y-88066832D01*
X162994974Y-88085552D01*
X163006956Y-88105543D01*
X163016921Y-88126613D01*
X163024773Y-88148557D01*
X163030437Y-88171166D01*
X163033856Y-88194221D01*
X163035000Y-88217500D01*
X163035000Y-88792500D01*
X163033856Y-88815779D01*
X163030437Y-88838834D01*
X163024773Y-88861443D01*
X163016921Y-88883387D01*
X163006956Y-88904457D01*
X162994974Y-88924448D01*
X162981090Y-88943168D01*
X162965438Y-88960438D01*
X162948168Y-88976090D01*
X162929448Y-88989974D01*
X162909457Y-89001956D01*
X162888387Y-89011921D01*
X162866443Y-89019773D01*
X162843834Y-89025437D01*
X162820779Y-89028856D01*
X162797500Y-89030000D01*
X162322500Y-89030000D01*
X162299221Y-89028856D01*
X162276166Y-89025437D01*
X162253557Y-89019773D01*
X162231613Y-89011921D01*
X162210543Y-89001956D01*
X162190552Y-88989974D01*
X162171832Y-88976090D01*
X162154562Y-88960438D01*
X162138910Y-88943168D01*
X162125026Y-88924448D01*
X162113044Y-88904457D01*
X162103079Y-88883387D01*
X162095227Y-88861443D01*
X162089563Y-88838834D01*
X162086144Y-88815779D01*
X162085000Y-88792500D01*
X162085000Y-88217500D01*
X162086144Y-88194221D01*
X162089563Y-88171166D01*
X162095227Y-88148557D01*
X162103079Y-88126613D01*
X162113044Y-88105543D01*
X162125026Y-88085552D01*
X162138910Y-88066832D01*
X162154562Y-88049562D01*
X162171832Y-88033910D01*
X162190552Y-88020026D01*
X162210543Y-88008044D01*
X162231613Y-87998079D01*
X162253557Y-87990227D01*
X162276166Y-87984563D01*
X162299221Y-87981144D01*
X162322500Y-87980000D01*
X162797500Y-87980000D01*
X162820779Y-87981144D01*
X162820779Y-87981144D01*
G37*
D13*
X162560000Y-88505000D03*
D11*
G36*
X162820779Y-86231144D02*
G01*
X162843834Y-86234563D01*
X162866443Y-86240227D01*
X162888387Y-86248079D01*
X162909457Y-86258044D01*
X162929448Y-86270026D01*
X162948168Y-86283910D01*
X162965438Y-86299562D01*
X162981090Y-86316832D01*
X162994974Y-86335552D01*
X163006956Y-86355543D01*
X163016921Y-86376613D01*
X163024773Y-86398557D01*
X163030437Y-86421166D01*
X163033856Y-86444221D01*
X163035000Y-86467500D01*
X163035000Y-87042500D01*
X163033856Y-87065779D01*
X163030437Y-87088834D01*
X163024773Y-87111443D01*
X163016921Y-87133387D01*
X163006956Y-87154457D01*
X162994974Y-87174448D01*
X162981090Y-87193168D01*
X162965438Y-87210438D01*
X162948168Y-87226090D01*
X162929448Y-87239974D01*
X162909457Y-87251956D01*
X162888387Y-87261921D01*
X162866443Y-87269773D01*
X162843834Y-87275437D01*
X162820779Y-87278856D01*
X162797500Y-87280000D01*
X162322500Y-87280000D01*
X162299221Y-87278856D01*
X162276166Y-87275437D01*
X162253557Y-87269773D01*
X162231613Y-87261921D01*
X162210543Y-87251956D01*
X162190552Y-87239974D01*
X162171832Y-87226090D01*
X162154562Y-87210438D01*
X162138910Y-87193168D01*
X162125026Y-87174448D01*
X162113044Y-87154457D01*
X162103079Y-87133387D01*
X162095227Y-87111443D01*
X162089563Y-87088834D01*
X162086144Y-87065779D01*
X162085000Y-87042500D01*
X162085000Y-86467500D01*
X162086144Y-86444221D01*
X162089563Y-86421166D01*
X162095227Y-86398557D01*
X162103079Y-86376613D01*
X162113044Y-86355543D01*
X162125026Y-86335552D01*
X162138910Y-86316832D01*
X162154562Y-86299562D01*
X162171832Y-86283910D01*
X162190552Y-86270026D01*
X162210543Y-86258044D01*
X162231613Y-86248079D01*
X162253557Y-86240227D01*
X162276166Y-86234563D01*
X162299221Y-86231144D01*
X162322500Y-86230000D01*
X162797500Y-86230000D01*
X162820779Y-86231144D01*
X162820779Y-86231144D01*
G37*
D13*
X162560000Y-86755000D03*
M02*
