G04 #@! TF.GenerationSoftware,KiCad,Pcbnew,(5.1.0)-1*
G04 #@! TF.CreationDate,2020-07-20T11:56:29-07:00*
G04 #@! TF.ProjectId,Tiny_Z80,54696e79-5f5a-4383-902e-6b696361645f,rev?*
G04 #@! TF.SameCoordinates,Original*
G04 #@! TF.FileFunction,Legend,Bot*
G04 #@! TF.FilePolarity,Positive*
%FSLAX46Y46*%
G04 Gerber Fmt 4.6, Leading zero omitted, Abs format (unit mm)*
G04 Created by KiCad (PCBNEW (5.1.0)-1) date 2020-07-20 11:56:29*
%MOMM*%
%LPD*%
G04 APERTURE LIST*
%ADD10C,0.200000*%
%ADD11C,0.150000*%
%ADD12C,0.120000*%
G04 APERTURE END LIST*
D10*
X204730833Y-91312380D02*
X204159404Y-91312380D01*
X204445119Y-92312380D02*
X204445119Y-91312380D01*
X203826071Y-92312380D02*
X203826071Y-91645714D01*
X203826071Y-91312380D02*
X203873690Y-91360000D01*
X203826071Y-91407619D01*
X203778452Y-91360000D01*
X203826071Y-91312380D01*
X203826071Y-91407619D01*
X203349880Y-91645714D02*
X203349880Y-92312380D01*
X203349880Y-91740952D02*
X203302261Y-91693333D01*
X203207023Y-91645714D01*
X203064166Y-91645714D01*
X202968928Y-91693333D01*
X202921309Y-91788571D01*
X202921309Y-92312380D01*
X202540357Y-91645714D02*
X202302261Y-92312380D01*
X202064166Y-91645714D02*
X202302261Y-92312380D01*
X202397500Y-92550476D01*
X202445119Y-92598095D01*
X202540357Y-92645714D01*
X201016547Y-91312380D02*
X200349880Y-91312380D01*
X201016547Y-92312380D01*
X200349880Y-92312380D01*
X199826071Y-91740952D02*
X199921309Y-91693333D01*
X199968928Y-91645714D01*
X200016547Y-91550476D01*
X200016547Y-91502857D01*
X199968928Y-91407619D01*
X199921309Y-91360000D01*
X199826071Y-91312380D01*
X199635595Y-91312380D01*
X199540357Y-91360000D01*
X199492738Y-91407619D01*
X199445119Y-91502857D01*
X199445119Y-91550476D01*
X199492738Y-91645714D01*
X199540357Y-91693333D01*
X199635595Y-91740952D01*
X199826071Y-91740952D01*
X199921309Y-91788571D01*
X199968928Y-91836190D01*
X200016547Y-91931428D01*
X200016547Y-92121904D01*
X199968928Y-92217142D01*
X199921309Y-92264761D01*
X199826071Y-92312380D01*
X199635595Y-92312380D01*
X199540357Y-92264761D01*
X199492738Y-92217142D01*
X199445119Y-92121904D01*
X199445119Y-91931428D01*
X199492738Y-91836190D01*
X199540357Y-91788571D01*
X199635595Y-91740952D01*
X198826071Y-91312380D02*
X198730833Y-91312380D01*
X198635595Y-91360000D01*
X198587976Y-91407619D01*
X198540357Y-91502857D01*
X198492738Y-91693333D01*
X198492738Y-91931428D01*
X198540357Y-92121904D01*
X198587976Y-92217142D01*
X198635595Y-92264761D01*
X198730833Y-92312380D01*
X198826071Y-92312380D01*
X198921309Y-92264761D01*
X198968928Y-92217142D01*
X199016547Y-92121904D01*
X199064166Y-91931428D01*
X199064166Y-91693333D01*
X199016547Y-91502857D01*
X198968928Y-91407619D01*
X198921309Y-91360000D01*
X198826071Y-91312380D01*
X197302261Y-91931428D02*
X196540357Y-91931428D01*
X195445119Y-91312380D02*
X195111785Y-92312380D01*
X194778452Y-91312380D01*
X194064166Y-92264761D02*
X194159404Y-92312380D01*
X194349880Y-92312380D01*
X194445119Y-92264761D01*
X194492738Y-92169523D01*
X194492738Y-91788571D01*
X194445119Y-91693333D01*
X194349880Y-91645714D01*
X194159404Y-91645714D01*
X194064166Y-91693333D01*
X194016547Y-91788571D01*
X194016547Y-91883809D01*
X194492738Y-91979047D01*
X193587976Y-92312380D02*
X193587976Y-91645714D01*
X193587976Y-91836190D02*
X193540357Y-91740952D01*
X193492738Y-91693333D01*
X193397500Y-91645714D01*
X193302261Y-91645714D01*
X193016547Y-92264761D02*
X192921309Y-92312380D01*
X192730833Y-92312380D01*
X192635595Y-92264761D01*
X192587976Y-92169523D01*
X192587976Y-92121904D01*
X192635595Y-92026666D01*
X192730833Y-91979047D01*
X192873690Y-91979047D01*
X192968928Y-91931428D01*
X193016547Y-91836190D01*
X193016547Y-91788571D01*
X192968928Y-91693333D01*
X192873690Y-91645714D01*
X192730833Y-91645714D01*
X192635595Y-91693333D01*
X192159404Y-92312380D02*
X192159404Y-91645714D01*
X192159404Y-91312380D02*
X192207023Y-91360000D01*
X192159404Y-91407619D01*
X192111785Y-91360000D01*
X192159404Y-91312380D01*
X192159404Y-91407619D01*
X191540357Y-92312380D02*
X191635595Y-92264761D01*
X191683214Y-92217142D01*
X191730833Y-92121904D01*
X191730833Y-91836190D01*
X191683214Y-91740952D01*
X191635595Y-91693333D01*
X191540357Y-91645714D01*
X191397500Y-91645714D01*
X191302261Y-91693333D01*
X191254642Y-91740952D01*
X191207023Y-91836190D01*
X191207023Y-92121904D01*
X191254642Y-92217142D01*
X191302261Y-92264761D01*
X191397500Y-92312380D01*
X191540357Y-92312380D01*
X190778452Y-91645714D02*
X190778452Y-92312380D01*
X190778452Y-91740952D02*
X190730833Y-91693333D01*
X190635595Y-91645714D01*
X190492738Y-91645714D01*
X190397500Y-91693333D01*
X190349880Y-91788571D01*
X190349880Y-92312380D01*
X188587976Y-92312380D02*
X189159404Y-92312380D01*
X188873690Y-92312380D02*
X188873690Y-91312380D01*
X188968928Y-91455238D01*
X189064166Y-91550476D01*
X189159404Y-91598095D01*
X188159404Y-92217142D02*
X188111785Y-92264761D01*
X188159404Y-92312380D01*
X188207023Y-92264761D01*
X188159404Y-92217142D01*
X188159404Y-92312380D01*
X187492738Y-91312380D02*
X187397500Y-91312380D01*
X187302261Y-91360000D01*
X187254642Y-91407619D01*
X187207023Y-91502857D01*
X187159404Y-91693333D01*
X187159404Y-91931428D01*
X187207023Y-92121904D01*
X187254642Y-92217142D01*
X187302261Y-92264761D01*
X187397500Y-92312380D01*
X187492738Y-92312380D01*
X187587976Y-92264761D01*
X187635595Y-92217142D01*
X187683214Y-92121904D01*
X187730833Y-91931428D01*
X187730833Y-91693333D01*
X187683214Y-91502857D01*
X187635595Y-91407619D01*
X187587976Y-91360000D01*
X187492738Y-91312380D01*
X208326071Y-93917142D02*
X208373690Y-93964761D01*
X208516547Y-94012380D01*
X208611785Y-94012380D01*
X208754642Y-93964761D01*
X208849880Y-93869523D01*
X208897500Y-93774285D01*
X208945119Y-93583809D01*
X208945119Y-93440952D01*
X208897500Y-93250476D01*
X208849880Y-93155238D01*
X208754642Y-93060000D01*
X208611785Y-93012380D01*
X208516547Y-93012380D01*
X208373690Y-93060000D01*
X208326071Y-93107619D01*
X207754642Y-94012380D02*
X207849880Y-93964761D01*
X207897500Y-93917142D01*
X207945119Y-93821904D01*
X207945119Y-93536190D01*
X207897500Y-93440952D01*
X207849880Y-93393333D01*
X207754642Y-93345714D01*
X207611785Y-93345714D01*
X207516547Y-93393333D01*
X207468928Y-93440952D01*
X207421309Y-93536190D01*
X207421309Y-93821904D01*
X207468928Y-93917142D01*
X207516547Y-93964761D01*
X207611785Y-94012380D01*
X207754642Y-94012380D01*
X206992738Y-93345714D02*
X206992738Y-94345714D01*
X206992738Y-93393333D02*
X206897500Y-93345714D01*
X206707023Y-93345714D01*
X206611785Y-93393333D01*
X206564166Y-93440952D01*
X206516547Y-93536190D01*
X206516547Y-93821904D01*
X206564166Y-93917142D01*
X206611785Y-93964761D01*
X206707023Y-94012380D01*
X206897500Y-94012380D01*
X206992738Y-93964761D01*
X206183214Y-93345714D02*
X205945119Y-94012380D01*
X205707023Y-93345714D02*
X205945119Y-94012380D01*
X206040357Y-94250476D01*
X206087976Y-94298095D01*
X206183214Y-94345714D01*
X205326071Y-94012380D02*
X205326071Y-93345714D01*
X205326071Y-93536190D02*
X205278452Y-93440952D01*
X205230833Y-93393333D01*
X205135595Y-93345714D01*
X205040357Y-93345714D01*
X204707023Y-94012380D02*
X204707023Y-93345714D01*
X204707023Y-93012380D02*
X204754642Y-93060000D01*
X204707023Y-93107619D01*
X204659404Y-93060000D01*
X204707023Y-93012380D01*
X204707023Y-93107619D01*
X203802261Y-93345714D02*
X203802261Y-94155238D01*
X203849880Y-94250476D01*
X203897500Y-94298095D01*
X203992738Y-94345714D01*
X204135595Y-94345714D01*
X204230833Y-94298095D01*
X203802261Y-93964761D02*
X203897500Y-94012380D01*
X204087976Y-94012380D01*
X204183214Y-93964761D01*
X204230833Y-93917142D01*
X204278452Y-93821904D01*
X204278452Y-93536190D01*
X204230833Y-93440952D01*
X204183214Y-93393333D01*
X204087976Y-93345714D01*
X203897500Y-93345714D01*
X203802261Y-93393333D01*
X203326071Y-94012380D02*
X203326071Y-93012380D01*
X202897500Y-94012380D02*
X202897500Y-93488571D01*
X202945119Y-93393333D01*
X203040357Y-93345714D01*
X203183214Y-93345714D01*
X203278452Y-93393333D01*
X203326071Y-93440952D01*
X202564166Y-93345714D02*
X202183214Y-93345714D01*
X202421309Y-93012380D02*
X202421309Y-93869523D01*
X202373690Y-93964761D01*
X202278452Y-94012380D01*
X202183214Y-94012380D01*
X200802261Y-94393333D02*
X200849880Y-94345714D01*
X200945119Y-94202857D01*
X200992738Y-94107619D01*
X201040357Y-93964761D01*
X201087976Y-93726666D01*
X201087976Y-93536190D01*
X201040357Y-93298095D01*
X200992738Y-93155238D01*
X200945119Y-93060000D01*
X200849880Y-92917142D01*
X200802261Y-92869523D01*
X199849880Y-93917142D02*
X199897500Y-93964761D01*
X200040357Y-94012380D01*
X200135595Y-94012380D01*
X200278452Y-93964761D01*
X200373690Y-93869523D01*
X200421309Y-93774285D01*
X200468928Y-93583809D01*
X200468928Y-93440952D01*
X200421309Y-93250476D01*
X200373690Y-93155238D01*
X200278452Y-93060000D01*
X200135595Y-93012380D01*
X200040357Y-93012380D01*
X199897500Y-93060000D01*
X199849880Y-93107619D01*
X199516547Y-94393333D02*
X199468928Y-94345714D01*
X199373690Y-94202857D01*
X199326071Y-94107619D01*
X199278452Y-93964761D01*
X199230833Y-93726666D01*
X199230833Y-93536190D01*
X199278452Y-93298095D01*
X199326071Y-93155238D01*
X199373690Y-93060000D01*
X199468928Y-92917142D01*
X199516547Y-92869523D01*
X198040357Y-93107619D02*
X197992738Y-93060000D01*
X197897500Y-93012380D01*
X197659404Y-93012380D01*
X197564166Y-93060000D01*
X197516547Y-93107619D01*
X197468928Y-93202857D01*
X197468928Y-93298095D01*
X197516547Y-93440952D01*
X198087976Y-94012380D01*
X197468928Y-94012380D01*
X196849880Y-93012380D02*
X196754642Y-93012380D01*
X196659404Y-93060000D01*
X196611785Y-93107619D01*
X196564166Y-93202857D01*
X196516547Y-93393333D01*
X196516547Y-93631428D01*
X196564166Y-93821904D01*
X196611785Y-93917142D01*
X196659404Y-93964761D01*
X196754642Y-94012380D01*
X196849880Y-94012380D01*
X196945119Y-93964761D01*
X196992738Y-93917142D01*
X197040357Y-93821904D01*
X197087976Y-93631428D01*
X197087976Y-93393333D01*
X197040357Y-93202857D01*
X196992738Y-93107619D01*
X196945119Y-93060000D01*
X196849880Y-93012380D01*
X196135595Y-93107619D02*
X196087976Y-93060000D01*
X195992738Y-93012380D01*
X195754642Y-93012380D01*
X195659404Y-93060000D01*
X195611785Y-93107619D01*
X195564166Y-93202857D01*
X195564166Y-93298095D01*
X195611785Y-93440952D01*
X196183214Y-94012380D01*
X195564166Y-94012380D01*
X194945119Y-93012380D02*
X194849880Y-93012380D01*
X194754642Y-93060000D01*
X194707023Y-93107619D01*
X194659404Y-93202857D01*
X194611785Y-93393333D01*
X194611785Y-93631428D01*
X194659404Y-93821904D01*
X194707023Y-93917142D01*
X194754642Y-93964761D01*
X194849880Y-94012380D01*
X194945119Y-94012380D01*
X195040357Y-93964761D01*
X195087976Y-93917142D01*
X195135595Y-93821904D01*
X195183214Y-93631428D01*
X195183214Y-93393333D01*
X195135595Y-93202857D01*
X195087976Y-93107619D01*
X195040357Y-93060000D01*
X194945119Y-93012380D01*
X193468928Y-93964761D02*
X193326071Y-94012380D01*
X193087976Y-94012380D01*
X192992738Y-93964761D01*
X192945119Y-93917142D01*
X192897500Y-93821904D01*
X192897500Y-93726666D01*
X192945119Y-93631428D01*
X192992738Y-93583809D01*
X193087976Y-93536190D01*
X193278452Y-93488571D01*
X193373690Y-93440952D01*
X193421309Y-93393333D01*
X193468928Y-93298095D01*
X193468928Y-93202857D01*
X193421309Y-93107619D01*
X193373690Y-93060000D01*
X193278452Y-93012380D01*
X193040357Y-93012380D01*
X192897500Y-93060000D01*
X192087976Y-93964761D02*
X192183214Y-94012380D01*
X192373690Y-94012380D01*
X192468928Y-93964761D01*
X192516547Y-93869523D01*
X192516547Y-93488571D01*
X192468928Y-93393333D01*
X192373690Y-93345714D01*
X192183214Y-93345714D01*
X192087976Y-93393333D01*
X192040357Y-93488571D01*
X192040357Y-93583809D01*
X192516547Y-93679047D01*
X191611785Y-94012380D02*
X191611785Y-93345714D01*
X191611785Y-93536190D02*
X191564166Y-93440952D01*
X191516547Y-93393333D01*
X191421309Y-93345714D01*
X191326071Y-93345714D01*
X190564166Y-93345714D02*
X190564166Y-94155238D01*
X190611785Y-94250476D01*
X190659404Y-94298095D01*
X190754642Y-94345714D01*
X190897500Y-94345714D01*
X190992738Y-94298095D01*
X190564166Y-93964761D02*
X190659404Y-94012380D01*
X190849880Y-94012380D01*
X190945119Y-93964761D01*
X190992738Y-93917142D01*
X191040357Y-93821904D01*
X191040357Y-93536190D01*
X190992738Y-93440952D01*
X190945119Y-93393333D01*
X190849880Y-93345714D01*
X190659404Y-93345714D01*
X190564166Y-93393333D01*
X189707023Y-93964761D02*
X189802261Y-94012380D01*
X189992738Y-94012380D01*
X190087976Y-93964761D01*
X190135595Y-93869523D01*
X190135595Y-93488571D01*
X190087976Y-93393333D01*
X189992738Y-93345714D01*
X189802261Y-93345714D01*
X189707023Y-93393333D01*
X189659404Y-93488571D01*
X189659404Y-93583809D01*
X190135595Y-93679047D01*
X189326071Y-93345714D02*
X189087976Y-94012380D01*
X188849880Y-93345714D02*
X189087976Y-94012380D01*
X189183214Y-94250476D01*
X189230833Y-94298095D01*
X189326071Y-94345714D01*
X187707023Y-94012380D02*
X187707023Y-93012380D01*
X187135595Y-94012380D02*
X187564166Y-93440952D01*
X187135595Y-93012380D02*
X187707023Y-93583809D01*
X186707023Y-94012380D02*
X186707023Y-93345714D01*
X186707023Y-93012380D02*
X186754642Y-93060000D01*
X186707023Y-93107619D01*
X186659404Y-93060000D01*
X186707023Y-93012380D01*
X186707023Y-93107619D01*
X186278452Y-93964761D02*
X186183214Y-94012380D01*
X185992738Y-94012380D01*
X185897500Y-93964761D01*
X185849880Y-93869523D01*
X185849880Y-93821904D01*
X185897500Y-93726666D01*
X185992738Y-93679047D01*
X186135595Y-93679047D01*
X186230833Y-93631428D01*
X186278452Y-93536190D01*
X186278452Y-93488571D01*
X186230833Y-93393333D01*
X186135595Y-93345714D01*
X185992738Y-93345714D01*
X185897500Y-93393333D01*
X185040357Y-93964761D02*
X185135595Y-94012380D01*
X185326071Y-94012380D01*
X185421309Y-93964761D01*
X185468928Y-93869523D01*
X185468928Y-93488571D01*
X185421309Y-93393333D01*
X185326071Y-93345714D01*
X185135595Y-93345714D01*
X185040357Y-93393333D01*
X184992738Y-93488571D01*
X184992738Y-93583809D01*
X185468928Y-93679047D01*
X184421309Y-94012380D02*
X184516547Y-93964761D01*
X184564166Y-93869523D01*
X184564166Y-93012380D01*
X183659404Y-93964761D02*
X183754642Y-94012380D01*
X183945119Y-94012380D01*
X184040357Y-93964761D01*
X184087976Y-93869523D01*
X184087976Y-93488571D01*
X184040357Y-93393333D01*
X183945119Y-93345714D01*
X183754642Y-93345714D01*
X183659404Y-93393333D01*
X183611785Y-93488571D01*
X183611785Y-93583809D01*
X184087976Y-93679047D01*
X183278452Y-93345714D02*
X183040357Y-94012380D01*
X182802261Y-93345714D01*
X207992738Y-96439880D02*
X207992738Y-95439880D01*
X207754642Y-95439880D01*
X207611785Y-95487500D01*
X207516547Y-95582738D01*
X207468928Y-95677976D01*
X207421309Y-95868452D01*
X207421309Y-96011309D01*
X207468928Y-96201785D01*
X207516547Y-96297023D01*
X207611785Y-96392261D01*
X207754642Y-96439880D01*
X207992738Y-96439880D01*
X206611785Y-96392261D02*
X206707023Y-96439880D01*
X206897500Y-96439880D01*
X206992738Y-96392261D01*
X207040357Y-96297023D01*
X207040357Y-95916071D01*
X206992738Y-95820833D01*
X206897500Y-95773214D01*
X206707023Y-95773214D01*
X206611785Y-95820833D01*
X206564166Y-95916071D01*
X206564166Y-96011309D01*
X207040357Y-96106547D01*
X206183214Y-96392261D02*
X206087976Y-96439880D01*
X205897500Y-96439880D01*
X205802261Y-96392261D01*
X205754642Y-96297023D01*
X205754642Y-96249404D01*
X205802261Y-96154166D01*
X205897500Y-96106547D01*
X206040357Y-96106547D01*
X206135595Y-96058928D01*
X206183214Y-95963690D01*
X206183214Y-95916071D01*
X206135595Y-95820833D01*
X206040357Y-95773214D01*
X205897500Y-95773214D01*
X205802261Y-95820833D01*
X205326071Y-96439880D02*
X205326071Y-95773214D01*
X205326071Y-95439880D02*
X205373690Y-95487500D01*
X205326071Y-95535119D01*
X205278452Y-95487500D01*
X205326071Y-95439880D01*
X205326071Y-95535119D01*
X204421309Y-95773214D02*
X204421309Y-96582738D01*
X204468928Y-96677976D01*
X204516547Y-96725595D01*
X204611785Y-96773214D01*
X204754642Y-96773214D01*
X204849880Y-96725595D01*
X204421309Y-96392261D02*
X204516547Y-96439880D01*
X204707023Y-96439880D01*
X204802261Y-96392261D01*
X204849880Y-96344642D01*
X204897500Y-96249404D01*
X204897500Y-95963690D01*
X204849880Y-95868452D01*
X204802261Y-95820833D01*
X204707023Y-95773214D01*
X204516547Y-95773214D01*
X204421309Y-95820833D01*
X203945119Y-95773214D02*
X203945119Y-96439880D01*
X203945119Y-95868452D02*
X203897500Y-95820833D01*
X203802261Y-95773214D01*
X203659404Y-95773214D01*
X203564166Y-95820833D01*
X203516547Y-95916071D01*
X203516547Y-96439880D01*
X202421309Y-95773214D02*
X202040357Y-95773214D01*
X202278452Y-96439880D02*
X202278452Y-95582738D01*
X202230833Y-95487500D01*
X202135595Y-95439880D01*
X202040357Y-95439880D01*
X201707023Y-96439880D02*
X201707023Y-95773214D01*
X201707023Y-95439880D02*
X201754642Y-95487500D01*
X201707023Y-95535119D01*
X201659404Y-95487500D01*
X201707023Y-95439880D01*
X201707023Y-95535119D01*
X201087976Y-96439880D02*
X201183214Y-96392261D01*
X201230833Y-96297023D01*
X201230833Y-95439880D01*
X200326071Y-96392261D02*
X200421309Y-96439880D01*
X200611785Y-96439880D01*
X200707023Y-96392261D01*
X200754642Y-96297023D01*
X200754642Y-95916071D01*
X200707023Y-95820833D01*
X200611785Y-95773214D01*
X200421309Y-95773214D01*
X200326071Y-95820833D01*
X200278452Y-95916071D01*
X200278452Y-96011309D01*
X200754642Y-96106547D01*
X199897500Y-96392261D02*
X199802261Y-96439880D01*
X199611785Y-96439880D01*
X199516547Y-96392261D01*
X199468928Y-96297023D01*
X199468928Y-96249404D01*
X199516547Y-96154166D01*
X199611785Y-96106547D01*
X199754642Y-96106547D01*
X199849880Y-96058928D01*
X199897500Y-95963690D01*
X199897500Y-95916071D01*
X199849880Y-95820833D01*
X199754642Y-95773214D01*
X199611785Y-95773214D01*
X199516547Y-95820833D01*
X197849880Y-96439880D02*
X197849880Y-95916071D01*
X197897500Y-95820833D01*
X197992738Y-95773214D01*
X198183214Y-95773214D01*
X198278452Y-95820833D01*
X197849880Y-96392261D02*
X197945119Y-96439880D01*
X198183214Y-96439880D01*
X198278452Y-96392261D01*
X198326071Y-96297023D01*
X198326071Y-96201785D01*
X198278452Y-96106547D01*
X198183214Y-96058928D01*
X197945119Y-96058928D01*
X197849880Y-96011309D01*
X197373690Y-95773214D02*
X197373690Y-96439880D01*
X197373690Y-95868452D02*
X197326071Y-95820833D01*
X197230833Y-95773214D01*
X197087976Y-95773214D01*
X196992738Y-95820833D01*
X196945119Y-95916071D01*
X196945119Y-96439880D01*
X196040357Y-96439880D02*
X196040357Y-95439880D01*
X196040357Y-96392261D02*
X196135595Y-96439880D01*
X196326071Y-96439880D01*
X196421309Y-96392261D01*
X196468928Y-96344642D01*
X196516547Y-96249404D01*
X196516547Y-95963690D01*
X196468928Y-95868452D01*
X196421309Y-95820833D01*
X196326071Y-95773214D01*
X196135595Y-95773214D01*
X196040357Y-95820833D01*
X194373690Y-96439880D02*
X194373690Y-95439880D01*
X194373690Y-96392261D02*
X194468928Y-96439880D01*
X194659404Y-96439880D01*
X194754642Y-96392261D01*
X194802261Y-96344642D01*
X194849880Y-96249404D01*
X194849880Y-95963690D01*
X194802261Y-95868452D01*
X194754642Y-95820833D01*
X194659404Y-95773214D01*
X194468928Y-95773214D01*
X194373690Y-95820833D01*
X193754642Y-96439880D02*
X193849880Y-96392261D01*
X193897500Y-96344642D01*
X193945119Y-96249404D01*
X193945119Y-95963690D01*
X193897500Y-95868452D01*
X193849880Y-95820833D01*
X193754642Y-95773214D01*
X193611785Y-95773214D01*
X193516547Y-95820833D01*
X193468928Y-95868452D01*
X193421309Y-95963690D01*
X193421309Y-96249404D01*
X193468928Y-96344642D01*
X193516547Y-96392261D01*
X193611785Y-96439880D01*
X193754642Y-96439880D01*
X192564166Y-96392261D02*
X192659404Y-96439880D01*
X192849880Y-96439880D01*
X192945119Y-96392261D01*
X192992738Y-96344642D01*
X193040357Y-96249404D01*
X193040357Y-95963690D01*
X192992738Y-95868452D01*
X192945119Y-95820833D01*
X192849880Y-95773214D01*
X192659404Y-95773214D01*
X192564166Y-95820833D01*
X191707023Y-95773214D02*
X191707023Y-96439880D01*
X192135595Y-95773214D02*
X192135595Y-96297023D01*
X192087976Y-96392261D01*
X191992738Y-96439880D01*
X191849880Y-96439880D01*
X191754642Y-96392261D01*
X191707023Y-96344642D01*
X191230833Y-96439880D02*
X191230833Y-95773214D01*
X191230833Y-95868452D02*
X191183214Y-95820833D01*
X191087976Y-95773214D01*
X190945119Y-95773214D01*
X190849880Y-95820833D01*
X190802261Y-95916071D01*
X190802261Y-96439880D01*
X190802261Y-95916071D02*
X190754642Y-95820833D01*
X190659404Y-95773214D01*
X190516547Y-95773214D01*
X190421309Y-95820833D01*
X190373690Y-95916071D01*
X190373690Y-96439880D01*
X189516547Y-96392261D02*
X189611785Y-96439880D01*
X189802261Y-96439880D01*
X189897500Y-96392261D01*
X189945119Y-96297023D01*
X189945119Y-95916071D01*
X189897500Y-95820833D01*
X189802261Y-95773214D01*
X189611785Y-95773214D01*
X189516547Y-95820833D01*
X189468928Y-95916071D01*
X189468928Y-96011309D01*
X189945119Y-96106547D01*
X189040357Y-95773214D02*
X189040357Y-96439880D01*
X189040357Y-95868452D02*
X188992738Y-95820833D01*
X188897500Y-95773214D01*
X188754642Y-95773214D01*
X188659404Y-95820833D01*
X188611785Y-95916071D01*
X188611785Y-96439880D01*
X188278452Y-95773214D02*
X187897500Y-95773214D01*
X188135595Y-95439880D02*
X188135595Y-96297023D01*
X188087976Y-96392261D01*
X187992738Y-96439880D01*
X187897500Y-96439880D01*
X187135595Y-96439880D02*
X187135595Y-95916071D01*
X187183214Y-95820833D01*
X187278452Y-95773214D01*
X187468928Y-95773214D01*
X187564166Y-95820833D01*
X187135595Y-96392261D02*
X187230833Y-96439880D01*
X187468928Y-96439880D01*
X187564166Y-96392261D01*
X187611785Y-96297023D01*
X187611785Y-96201785D01*
X187564166Y-96106547D01*
X187468928Y-96058928D01*
X187230833Y-96058928D01*
X187135595Y-96011309D01*
X186802261Y-95773214D02*
X186421309Y-95773214D01*
X186659404Y-95439880D02*
X186659404Y-96297023D01*
X186611785Y-96392261D01*
X186516547Y-96439880D01*
X186421309Y-96439880D01*
X186087976Y-96439880D02*
X186087976Y-95773214D01*
X186087976Y-95439880D02*
X186135595Y-95487500D01*
X186087976Y-95535119D01*
X186040357Y-95487500D01*
X186087976Y-95439880D01*
X186087976Y-95535119D01*
X185468928Y-96439880D02*
X185564166Y-96392261D01*
X185611785Y-96344642D01*
X185659404Y-96249404D01*
X185659404Y-95963690D01*
X185611785Y-95868452D01*
X185564166Y-95820833D01*
X185468928Y-95773214D01*
X185326071Y-95773214D01*
X185230833Y-95820833D01*
X185183214Y-95868452D01*
X185135595Y-95963690D01*
X185135595Y-96249404D01*
X185183214Y-96344642D01*
X185230833Y-96392261D01*
X185326071Y-96439880D01*
X185468928Y-96439880D01*
X184707023Y-95773214D02*
X184707023Y-96439880D01*
X184707023Y-95868452D02*
X184659404Y-95820833D01*
X184564166Y-95773214D01*
X184421309Y-95773214D01*
X184326071Y-95820833D01*
X184278452Y-95916071D01*
X184278452Y-96439880D01*
X183802261Y-96344642D02*
X183754642Y-96392261D01*
X183802261Y-96439880D01*
X183849880Y-96392261D01*
X183802261Y-96344642D01*
X183802261Y-96439880D01*
X183802261Y-95820833D02*
X183754642Y-95868452D01*
X183802261Y-95916071D01*
X183849880Y-95868452D01*
X183802261Y-95820833D01*
X183802261Y-95916071D01*
X206445119Y-97473214D02*
X206445119Y-98282738D01*
X206492738Y-98377976D01*
X206540357Y-98425595D01*
X206635595Y-98473214D01*
X206778452Y-98473214D01*
X206873690Y-98425595D01*
X206445119Y-98092261D02*
X206540357Y-98139880D01*
X206730833Y-98139880D01*
X206826071Y-98092261D01*
X206873690Y-98044642D01*
X206921309Y-97949404D01*
X206921309Y-97663690D01*
X206873690Y-97568452D01*
X206826071Y-97520833D01*
X206730833Y-97473214D01*
X206540357Y-97473214D01*
X206445119Y-97520833D01*
X205968928Y-98139880D02*
X205968928Y-97473214D01*
X205968928Y-97139880D02*
X206016547Y-97187500D01*
X205968928Y-97235119D01*
X205921309Y-97187500D01*
X205968928Y-97139880D01*
X205968928Y-97235119D01*
X205635595Y-97473214D02*
X205254642Y-97473214D01*
X205492738Y-97139880D02*
X205492738Y-97997023D01*
X205445119Y-98092261D01*
X205349880Y-98139880D01*
X205254642Y-98139880D01*
X204921309Y-98139880D02*
X204921309Y-97139880D01*
X204492738Y-98139880D02*
X204492738Y-97616071D01*
X204540357Y-97520833D01*
X204635595Y-97473214D01*
X204778452Y-97473214D01*
X204873690Y-97520833D01*
X204921309Y-97568452D01*
X203587976Y-97473214D02*
X203587976Y-98139880D01*
X204016547Y-97473214D02*
X204016547Y-97997023D01*
X203968928Y-98092261D01*
X203873690Y-98139880D01*
X203730833Y-98139880D01*
X203635595Y-98092261D01*
X203587976Y-98044642D01*
X203111785Y-98139880D02*
X203111785Y-97139880D01*
X203111785Y-97520833D02*
X203016547Y-97473214D01*
X202826071Y-97473214D01*
X202730833Y-97520833D01*
X202683214Y-97568452D01*
X202635595Y-97663690D01*
X202635595Y-97949404D01*
X202683214Y-98044642D01*
X202730833Y-98092261D01*
X202826071Y-98139880D01*
X203016547Y-98139880D01*
X203111785Y-98092261D01*
X202207023Y-98044642D02*
X202159404Y-98092261D01*
X202207023Y-98139880D01*
X202254642Y-98092261D01*
X202207023Y-98044642D01*
X202207023Y-98139880D01*
X201302261Y-98092261D02*
X201397500Y-98139880D01*
X201587976Y-98139880D01*
X201683214Y-98092261D01*
X201730833Y-98044642D01*
X201778452Y-97949404D01*
X201778452Y-97663690D01*
X201730833Y-97568452D01*
X201683214Y-97520833D01*
X201587976Y-97473214D01*
X201397500Y-97473214D01*
X201302261Y-97520833D01*
X200730833Y-98139880D02*
X200826071Y-98092261D01*
X200873690Y-98044642D01*
X200921309Y-97949404D01*
X200921309Y-97663690D01*
X200873690Y-97568452D01*
X200826071Y-97520833D01*
X200730833Y-97473214D01*
X200587976Y-97473214D01*
X200492738Y-97520833D01*
X200445119Y-97568452D01*
X200397500Y-97663690D01*
X200397500Y-97949404D01*
X200445119Y-98044642D01*
X200492738Y-98092261D01*
X200587976Y-98139880D01*
X200730833Y-98139880D01*
X199968928Y-98139880D02*
X199968928Y-97473214D01*
X199968928Y-97568452D02*
X199921309Y-97520833D01*
X199826071Y-97473214D01*
X199683214Y-97473214D01*
X199587976Y-97520833D01*
X199540357Y-97616071D01*
X199540357Y-98139880D01*
X199540357Y-97616071D02*
X199492738Y-97520833D01*
X199397500Y-97473214D01*
X199254642Y-97473214D01*
X199159404Y-97520833D01*
X199111785Y-97616071D01*
X199111785Y-98139880D01*
X197921309Y-97092261D02*
X198778452Y-98377976D01*
X197635595Y-98092261D02*
X197540357Y-98139880D01*
X197349880Y-98139880D01*
X197254642Y-98092261D01*
X197207023Y-97997023D01*
X197207023Y-97949404D01*
X197254642Y-97854166D01*
X197349880Y-97806547D01*
X197492738Y-97806547D01*
X197587976Y-97758928D01*
X197635595Y-97663690D01*
X197635595Y-97616071D01*
X197587976Y-97520833D01*
X197492738Y-97473214D01*
X197349880Y-97473214D01*
X197254642Y-97520833D01*
X196778452Y-98139880D02*
X196778452Y-97139880D01*
X196683214Y-97758928D02*
X196397500Y-98139880D01*
X196397500Y-97473214D02*
X196778452Y-97854166D01*
X195968928Y-98139880D02*
X195968928Y-97473214D01*
X195968928Y-97139880D02*
X196016547Y-97187500D01*
X195968928Y-97235119D01*
X195921309Y-97187500D01*
X195968928Y-97139880D01*
X195968928Y-97235119D01*
X195540357Y-98092261D02*
X195445119Y-98139880D01*
X195254642Y-98139880D01*
X195159404Y-98092261D01*
X195111785Y-97997023D01*
X195111785Y-97949404D01*
X195159404Y-97854166D01*
X195254642Y-97806547D01*
X195397500Y-97806547D01*
X195492738Y-97758928D01*
X195540357Y-97663690D01*
X195540357Y-97616071D01*
X195492738Y-97520833D01*
X195397500Y-97473214D01*
X195254642Y-97473214D01*
X195159404Y-97520833D01*
X194302261Y-98092261D02*
X194397500Y-98139880D01*
X194587976Y-98139880D01*
X194683214Y-98092261D01*
X194730833Y-97997023D01*
X194730833Y-97616071D01*
X194683214Y-97520833D01*
X194587976Y-97473214D01*
X194397500Y-97473214D01*
X194302261Y-97520833D01*
X194254642Y-97616071D01*
X194254642Y-97711309D01*
X194730833Y-97806547D01*
X193683214Y-98139880D02*
X193778452Y-98092261D01*
X193826071Y-97997023D01*
X193826071Y-97139880D01*
X192921309Y-98092261D02*
X193016547Y-98139880D01*
X193207023Y-98139880D01*
X193302261Y-98092261D01*
X193349880Y-97997023D01*
X193349880Y-97616071D01*
X193302261Y-97520833D01*
X193207023Y-97473214D01*
X193016547Y-97473214D01*
X192921309Y-97520833D01*
X192873690Y-97616071D01*
X192873690Y-97711309D01*
X193349880Y-97806547D01*
X192540357Y-97473214D02*
X192302261Y-98139880D01*
X192064166Y-97473214D01*
X190968928Y-97092261D02*
X191826071Y-98377976D01*
X190778452Y-97473214D02*
X190397500Y-97473214D01*
X190635595Y-97139880D02*
X190635595Y-97997023D01*
X190587976Y-98092261D01*
X190492738Y-98139880D01*
X190397500Y-98139880D01*
X190064166Y-98139880D02*
X190064166Y-97473214D01*
X190064166Y-97139880D02*
X190111785Y-97187500D01*
X190064166Y-97235119D01*
X190016547Y-97187500D01*
X190064166Y-97139880D01*
X190064166Y-97235119D01*
X189587976Y-97473214D02*
X189587976Y-98139880D01*
X189587976Y-97568452D02*
X189540357Y-97520833D01*
X189445119Y-97473214D01*
X189302261Y-97473214D01*
X189207023Y-97520833D01*
X189159404Y-97616071D01*
X189159404Y-98139880D01*
X188778452Y-97473214D02*
X188540357Y-98139880D01*
X188302261Y-97473214D02*
X188540357Y-98139880D01*
X188635595Y-98377976D01*
X188683214Y-98425595D01*
X188778452Y-98473214D01*
X188159404Y-98235119D02*
X187397500Y-98235119D01*
X187254642Y-97473214D02*
X186730833Y-97473214D01*
X187254642Y-98139880D01*
X186730833Y-98139880D01*
X186207023Y-97568452D02*
X186302261Y-97520833D01*
X186349880Y-97473214D01*
X186397500Y-97377976D01*
X186397500Y-97330357D01*
X186349880Y-97235119D01*
X186302261Y-97187500D01*
X186207023Y-97139880D01*
X186016547Y-97139880D01*
X185921309Y-97187500D01*
X185873690Y-97235119D01*
X185826071Y-97330357D01*
X185826071Y-97377976D01*
X185873690Y-97473214D01*
X185921309Y-97520833D01*
X186016547Y-97568452D01*
X186207023Y-97568452D01*
X186302261Y-97616071D01*
X186349880Y-97663690D01*
X186397500Y-97758928D01*
X186397500Y-97949404D01*
X186349880Y-98044642D01*
X186302261Y-98092261D01*
X186207023Y-98139880D01*
X186016547Y-98139880D01*
X185921309Y-98092261D01*
X185873690Y-98044642D01*
X185826071Y-97949404D01*
X185826071Y-97758928D01*
X185873690Y-97663690D01*
X185921309Y-97616071D01*
X186016547Y-97568452D01*
X185207023Y-97139880D02*
X185111785Y-97139880D01*
X185016547Y-97187500D01*
X184968928Y-97235119D01*
X184921309Y-97330357D01*
X184873690Y-97520833D01*
X184873690Y-97758928D01*
X184921309Y-97949404D01*
X184968928Y-98044642D01*
X185016547Y-98092261D01*
X185111785Y-98139880D01*
X185207023Y-98139880D01*
X185302261Y-98092261D01*
X185349880Y-98044642D01*
X185397500Y-97949404D01*
X185445119Y-97758928D01*
X185445119Y-97520833D01*
X185397500Y-97330357D01*
X185349880Y-97235119D01*
X185302261Y-97187500D01*
X185207023Y-97139880D01*
D11*
X212769404Y-110979047D02*
X211969404Y-110979047D01*
X212350357Y-111360000D02*
X212350357Y-111626666D01*
X212769404Y-111740952D02*
X212769404Y-111360000D01*
X211969404Y-111360000D01*
X211969404Y-111740952D01*
X211969404Y-112236190D02*
X211969404Y-112388571D01*
X212007500Y-112464761D01*
X212083690Y-112540952D01*
X212236071Y-112579047D01*
X212502738Y-112579047D01*
X212655119Y-112540952D01*
X212731309Y-112464761D01*
X212769404Y-112388571D01*
X212769404Y-112236190D01*
X212731309Y-112160000D01*
X212655119Y-112083809D01*
X212502738Y-112045714D01*
X212236071Y-112045714D01*
X212083690Y-112083809D01*
X212007500Y-112160000D01*
X211969404Y-112236190D01*
X212769404Y-113747619D02*
X211969404Y-113747619D01*
X212350357Y-114128571D02*
X212350357Y-114395238D01*
X212769404Y-114509523D02*
X212769404Y-114128571D01*
X211969404Y-114128571D01*
X211969404Y-114509523D01*
X212769404Y-114852380D02*
X211969404Y-114852380D01*
X211969404Y-120905714D02*
X211969404Y-121248571D01*
X212769404Y-121077142D02*
X211969404Y-121077142D01*
X211969404Y-121391428D02*
X212769404Y-121791428D01*
X211969404Y-121791428D02*
X212769404Y-121391428D01*
X212769404Y-122020000D02*
X211969404Y-122020000D01*
X211969404Y-122162857D01*
X212007500Y-122248571D01*
X212083690Y-122305714D01*
X212159880Y-122334285D01*
X212312261Y-122362857D01*
X212426547Y-122362857D01*
X212578928Y-122334285D01*
X212655119Y-122305714D01*
X212731309Y-122248571D01*
X212769404Y-122162857D01*
X212769404Y-122020000D01*
X212540833Y-122591428D02*
X212540833Y-122877142D01*
X212769404Y-122534285D02*
X211969404Y-122734285D01*
X212769404Y-122934285D01*
X206254404Y-120862857D02*
X206254404Y-121205714D01*
X207054404Y-121034285D02*
X206254404Y-121034285D01*
X206254404Y-121348571D02*
X207054404Y-121748571D01*
X206254404Y-121748571D02*
X207054404Y-121348571D01*
X207054404Y-121977142D02*
X206254404Y-121977142D01*
X206254404Y-122120000D01*
X206292500Y-122205714D01*
X206368690Y-122262857D01*
X206444880Y-122291428D01*
X206597261Y-122320000D01*
X206711547Y-122320000D01*
X206863928Y-122291428D01*
X206940119Y-122262857D01*
X207016309Y-122205714D01*
X207054404Y-122120000D01*
X207054404Y-121977142D01*
X206635357Y-122777142D02*
X206673452Y-122862857D01*
X206711547Y-122891428D01*
X206787738Y-122920000D01*
X206902023Y-122920000D01*
X206978214Y-122891428D01*
X207016309Y-122862857D01*
X207054404Y-122805714D01*
X207054404Y-122577142D01*
X206254404Y-122577142D01*
X206254404Y-122777142D01*
X206292500Y-122834285D01*
X206330595Y-122862857D01*
X206406785Y-122891428D01*
X206482976Y-122891428D01*
X206559166Y-122862857D01*
X206597261Y-122834285D01*
X206635357Y-122777142D01*
X206635357Y-122577142D01*
X207054404Y-118680000D02*
X206673452Y-118480000D01*
X207054404Y-118337142D02*
X206254404Y-118337142D01*
X206254404Y-118565714D01*
X206292500Y-118622857D01*
X206330595Y-118651428D01*
X206406785Y-118680000D01*
X206521071Y-118680000D01*
X206597261Y-118651428D01*
X206635357Y-118622857D01*
X206673452Y-118565714D01*
X206673452Y-118337142D01*
X206254404Y-118880000D02*
X207054404Y-119280000D01*
X206254404Y-119280000D02*
X207054404Y-118880000D01*
X207054404Y-119508571D02*
X206254404Y-119508571D01*
X206254404Y-119651428D01*
X206292500Y-119737142D01*
X206368690Y-119794285D01*
X206444880Y-119822857D01*
X206597261Y-119851428D01*
X206711547Y-119851428D01*
X206863928Y-119822857D01*
X206940119Y-119794285D01*
X207016309Y-119737142D01*
X207054404Y-119651428D01*
X207054404Y-119508571D01*
X206635357Y-120308571D02*
X206673452Y-120394285D01*
X206711547Y-120422857D01*
X206787738Y-120451428D01*
X206902023Y-120451428D01*
X206978214Y-120422857D01*
X207016309Y-120394285D01*
X207054404Y-120337142D01*
X207054404Y-120108571D01*
X206254404Y-120108571D01*
X206254404Y-120308571D01*
X206292500Y-120365714D01*
X206330595Y-120394285D01*
X206406785Y-120422857D01*
X206482976Y-120422857D01*
X206559166Y-120394285D01*
X206597261Y-120365714D01*
X206635357Y-120308571D01*
X206635357Y-120108571D01*
X212769404Y-118722857D02*
X212388452Y-118522857D01*
X212769404Y-118380000D02*
X211969404Y-118380000D01*
X211969404Y-118608571D01*
X212007500Y-118665714D01*
X212045595Y-118694285D01*
X212121785Y-118722857D01*
X212236071Y-118722857D01*
X212312261Y-118694285D01*
X212350357Y-118665714D01*
X212388452Y-118608571D01*
X212388452Y-118380000D01*
X211969404Y-118922857D02*
X212769404Y-119322857D01*
X211969404Y-119322857D02*
X212769404Y-118922857D01*
X212769404Y-119551428D02*
X211969404Y-119551428D01*
X211969404Y-119694285D01*
X212007500Y-119780000D01*
X212083690Y-119837142D01*
X212159880Y-119865714D01*
X212312261Y-119894285D01*
X212426547Y-119894285D01*
X212578928Y-119865714D01*
X212655119Y-119837142D01*
X212731309Y-119780000D01*
X212769404Y-119694285D01*
X212769404Y-119551428D01*
X212540833Y-120122857D02*
X212540833Y-120408571D01*
X212769404Y-120065714D02*
X211969404Y-120265714D01*
X212769404Y-120465714D01*
X211954000Y-80165714D02*
X211954000Y-80765714D01*
X213010714Y-80651428D02*
X213048809Y-80622857D01*
X213086904Y-80537142D01*
X213086904Y-80480000D01*
X213048809Y-80394285D01*
X212972619Y-80337142D01*
X212896428Y-80308571D01*
X212744047Y-80280000D01*
X212629761Y-80280000D01*
X212477380Y-80308571D01*
X212401190Y-80337142D01*
X212325000Y-80394285D01*
X212286904Y-80480000D01*
X212286904Y-80537142D01*
X212325000Y-80622857D01*
X212363095Y-80651428D01*
X211954000Y-80765714D02*
X211954000Y-81222857D01*
X212286904Y-80822857D02*
X212286904Y-81165714D01*
X213086904Y-80994285D02*
X212286904Y-80994285D01*
X211954000Y-81222857D02*
X211954000Y-81794285D01*
X213048809Y-81337142D02*
X213086904Y-81422857D01*
X213086904Y-81565714D01*
X213048809Y-81622857D01*
X213010714Y-81651428D01*
X212934523Y-81680000D01*
X212858333Y-81680000D01*
X212782142Y-81651428D01*
X212744047Y-81622857D01*
X212705952Y-81565714D01*
X212667857Y-81451428D01*
X212629761Y-81394285D01*
X212591666Y-81365714D01*
X212515476Y-81337142D01*
X212439285Y-81337142D01*
X212363095Y-81365714D01*
X212325000Y-81394285D01*
X212286904Y-81451428D01*
X212286904Y-81594285D01*
X212325000Y-81680000D01*
X211954000Y-81794285D02*
X211954000Y-82394285D01*
X212667857Y-82137142D02*
X212705952Y-82222857D01*
X212744047Y-82251428D01*
X212820238Y-82280000D01*
X212934523Y-82280000D01*
X213010714Y-82251428D01*
X213048809Y-82222857D01*
X213086904Y-82165714D01*
X213086904Y-81937142D01*
X212286904Y-81937142D01*
X212286904Y-82137142D01*
X212325000Y-82194285D01*
X212363095Y-82222857D01*
X212439285Y-82251428D01*
X212515476Y-82251428D01*
X212591666Y-82222857D01*
X212629761Y-82194285D01*
X212667857Y-82137142D01*
X212667857Y-81937142D01*
X212286904Y-82762857D02*
X212286904Y-83105714D01*
X213086904Y-82934285D02*
X212286904Y-82934285D01*
X212286904Y-83248571D02*
X213086904Y-83648571D01*
X212286904Y-83648571D02*
X213086904Y-83248571D01*
X213086904Y-83877142D02*
X212286904Y-83877142D01*
X212286904Y-84020000D01*
X212325000Y-84105714D01*
X212401190Y-84162857D01*
X212477380Y-84191428D01*
X212629761Y-84220000D01*
X212744047Y-84220000D01*
X212896428Y-84191428D01*
X212972619Y-84162857D01*
X213048809Y-84105714D01*
X213086904Y-84020000D01*
X213086904Y-83877142D01*
X212667857Y-84677142D02*
X212705952Y-84762857D01*
X212744047Y-84791428D01*
X212820238Y-84820000D01*
X212934523Y-84820000D01*
X213010714Y-84791428D01*
X213048809Y-84762857D01*
X213086904Y-84705714D01*
X213086904Y-84477142D01*
X212286904Y-84477142D01*
X212286904Y-84677142D01*
X212325000Y-84734285D01*
X212363095Y-84762857D01*
X212439285Y-84791428D01*
X212515476Y-84791428D01*
X212591666Y-84762857D01*
X212629761Y-84734285D01*
X212667857Y-84677142D01*
X212667857Y-84477142D01*
X213086904Y-85660000D02*
X212705952Y-85460000D01*
X213086904Y-85317142D02*
X212286904Y-85317142D01*
X212286904Y-85545714D01*
X212325000Y-85602857D01*
X212363095Y-85631428D01*
X212439285Y-85660000D01*
X212553571Y-85660000D01*
X212629761Y-85631428D01*
X212667857Y-85602857D01*
X212705952Y-85545714D01*
X212705952Y-85317142D01*
X212286904Y-85860000D02*
X213086904Y-86260000D01*
X212286904Y-86260000D02*
X213086904Y-85860000D01*
X213086904Y-86488571D02*
X212286904Y-86488571D01*
X212286904Y-86631428D01*
X212325000Y-86717142D01*
X212401190Y-86774285D01*
X212477380Y-86802857D01*
X212629761Y-86831428D01*
X212744047Y-86831428D01*
X212896428Y-86802857D01*
X212972619Y-86774285D01*
X213048809Y-86717142D01*
X213086904Y-86631428D01*
X213086904Y-86488571D01*
X212667857Y-87288571D02*
X212705952Y-87374285D01*
X212744047Y-87402857D01*
X212820238Y-87431428D01*
X212934523Y-87431428D01*
X213010714Y-87402857D01*
X213048809Y-87374285D01*
X213086904Y-87317142D01*
X213086904Y-87088571D01*
X212286904Y-87088571D01*
X212286904Y-87288571D01*
X212325000Y-87345714D01*
X212363095Y-87374285D01*
X212439285Y-87402857D01*
X212515476Y-87402857D01*
X212591666Y-87374285D01*
X212629761Y-87345714D01*
X212667857Y-87288571D01*
X212667857Y-87088571D01*
X212286904Y-88785714D02*
X212286904Y-88500000D01*
X212667857Y-88471428D01*
X212629761Y-88500000D01*
X212591666Y-88557142D01*
X212591666Y-88700000D01*
X212629761Y-88757142D01*
X212667857Y-88785714D01*
X212744047Y-88814285D01*
X212934523Y-88814285D01*
X213010714Y-88785714D01*
X213048809Y-88757142D01*
X213086904Y-88700000D01*
X213086904Y-88557142D01*
X213048809Y-88500000D01*
X213010714Y-88471428D01*
X212286904Y-88985714D02*
X213086904Y-89185714D01*
X212286904Y-89385714D01*
X211954000Y-90325714D02*
X211954000Y-90925714D01*
X213086904Y-90811428D02*
X212705952Y-90611428D01*
X213086904Y-90468571D02*
X212286904Y-90468571D01*
X212286904Y-90697142D01*
X212325000Y-90754285D01*
X212363095Y-90782857D01*
X212439285Y-90811428D01*
X212553571Y-90811428D01*
X212629761Y-90782857D01*
X212667857Y-90754285D01*
X212705952Y-90697142D01*
X212705952Y-90468571D01*
X211954000Y-90925714D02*
X211954000Y-91382857D01*
X212286904Y-90982857D02*
X212286904Y-91325714D01*
X213086904Y-91154285D02*
X212286904Y-91154285D01*
X211954000Y-91382857D02*
X211954000Y-91954285D01*
X213048809Y-91497142D02*
X213086904Y-91582857D01*
X213086904Y-91725714D01*
X213048809Y-91782857D01*
X213010714Y-91811428D01*
X212934523Y-91840000D01*
X212858333Y-91840000D01*
X212782142Y-91811428D01*
X212744047Y-91782857D01*
X212705952Y-91725714D01*
X212667857Y-91611428D01*
X212629761Y-91554285D01*
X212591666Y-91525714D01*
X212515476Y-91497142D01*
X212439285Y-91497142D01*
X212363095Y-91525714D01*
X212325000Y-91554285D01*
X212286904Y-91611428D01*
X212286904Y-91754285D01*
X212325000Y-91840000D01*
X211954000Y-91954285D02*
X211954000Y-92554285D01*
X212667857Y-92297142D02*
X212705952Y-92382857D01*
X212744047Y-92411428D01*
X212820238Y-92440000D01*
X212934523Y-92440000D01*
X213010714Y-92411428D01*
X213048809Y-92382857D01*
X213086904Y-92325714D01*
X213086904Y-92097142D01*
X212286904Y-92097142D01*
X212286904Y-92297142D01*
X212325000Y-92354285D01*
X212363095Y-92382857D01*
X212439285Y-92411428D01*
X212515476Y-92411428D01*
X212591666Y-92382857D01*
X212629761Y-92354285D01*
X212667857Y-92297142D01*
X212667857Y-92097142D01*
X213125000Y-94589523D02*
X213163095Y-94665714D01*
X213163095Y-94780000D01*
X213125000Y-94894285D01*
X213048809Y-94970476D01*
X212972619Y-95008571D01*
X212820238Y-95046666D01*
X212705952Y-95046666D01*
X212553571Y-95008571D01*
X212477380Y-94970476D01*
X212401190Y-94894285D01*
X212363095Y-94780000D01*
X212363095Y-94703809D01*
X212401190Y-94589523D01*
X212439285Y-94551428D01*
X212705952Y-94551428D01*
X212705952Y-94703809D01*
X212363095Y-94208571D02*
X213163095Y-94208571D01*
X212363095Y-93751428D01*
X213163095Y-93751428D01*
X212363095Y-93370476D02*
X213163095Y-93370476D01*
X213163095Y-93180000D01*
X213125000Y-93065714D01*
X213048809Y-92989523D01*
X212972619Y-92951428D01*
X212820238Y-92913333D01*
X212705952Y-92913333D01*
X212553571Y-92951428D01*
X212477380Y-92989523D01*
X212401190Y-93065714D01*
X212363095Y-93180000D01*
X212363095Y-93370476D01*
X155549523Y-79292500D02*
X155625714Y-79254404D01*
X155740000Y-79254404D01*
X155854285Y-79292500D01*
X155930476Y-79368690D01*
X155968571Y-79444880D01*
X156006666Y-79597261D01*
X156006666Y-79711547D01*
X155968571Y-79863928D01*
X155930476Y-79940119D01*
X155854285Y-80016309D01*
X155740000Y-80054404D01*
X155663809Y-80054404D01*
X155549523Y-80016309D01*
X155511428Y-79978214D01*
X155511428Y-79711547D01*
X155663809Y-79711547D01*
X155168571Y-80054404D02*
X155168571Y-79254404D01*
X154711428Y-80054404D01*
X154711428Y-79254404D01*
X154330476Y-80054404D02*
X154330476Y-79254404D01*
X154140000Y-79254404D01*
X154025714Y-79292500D01*
X153949523Y-79368690D01*
X153911428Y-79444880D01*
X153873333Y-79597261D01*
X153873333Y-79711547D01*
X153911428Y-79863928D01*
X153949523Y-79940119D01*
X154025714Y-80016309D01*
X154140000Y-80054404D01*
X154330476Y-80054404D01*
X165709523Y-79292500D02*
X165785714Y-79254404D01*
X165900000Y-79254404D01*
X166014285Y-79292500D01*
X166090476Y-79368690D01*
X166128571Y-79444880D01*
X166166666Y-79597261D01*
X166166666Y-79711547D01*
X166128571Y-79863928D01*
X166090476Y-79940119D01*
X166014285Y-80016309D01*
X165900000Y-80054404D01*
X165823809Y-80054404D01*
X165709523Y-80016309D01*
X165671428Y-79978214D01*
X165671428Y-79711547D01*
X165823809Y-79711547D01*
X165328571Y-80054404D02*
X165328571Y-79254404D01*
X164871428Y-80054404D01*
X164871428Y-79254404D01*
X164490476Y-80054404D02*
X164490476Y-79254404D01*
X164300000Y-79254404D01*
X164185714Y-79292500D01*
X164109523Y-79368690D01*
X164071428Y-79444880D01*
X164033333Y-79597261D01*
X164033333Y-79711547D01*
X164071428Y-79863928D01*
X164109523Y-79940119D01*
X164185714Y-80016309D01*
X164300000Y-80054404D01*
X164490476Y-80054404D01*
X158365714Y-79254404D02*
X157994285Y-79254404D01*
X158194285Y-79559166D01*
X158108571Y-79559166D01*
X158051428Y-79597261D01*
X158022857Y-79635357D01*
X157994285Y-79711547D01*
X157994285Y-79902023D01*
X158022857Y-79978214D01*
X158051428Y-80016309D01*
X158108571Y-80054404D01*
X158280000Y-80054404D01*
X158337142Y-80016309D01*
X158365714Y-79978214D01*
X157737142Y-79978214D02*
X157708571Y-80016309D01*
X157737142Y-80054404D01*
X157765714Y-80016309D01*
X157737142Y-79978214D01*
X157737142Y-80054404D01*
X157508571Y-79254404D02*
X157137142Y-79254404D01*
X157337142Y-79559166D01*
X157251428Y-79559166D01*
X157194285Y-79597261D01*
X157165714Y-79635357D01*
X157137142Y-79711547D01*
X157137142Y-79902023D01*
X157165714Y-79978214D01*
X157194285Y-80016309D01*
X157251428Y-80054404D01*
X157422857Y-80054404D01*
X157480000Y-80016309D01*
X157508571Y-79978214D01*
X156965714Y-79254404D02*
X156765714Y-80054404D01*
X156565714Y-79254404D01*
X165714285Y-84969404D02*
X165371428Y-84969404D01*
X165542857Y-85769404D02*
X165542857Y-84969404D01*
X165171428Y-85769404D02*
X165171428Y-84969404D01*
X165028571Y-84969404D01*
X164942857Y-85007500D01*
X164885714Y-85083690D01*
X164857142Y-85159880D01*
X164828571Y-85312261D01*
X164828571Y-85426547D01*
X164857142Y-85578928D01*
X164885714Y-85655119D01*
X164942857Y-85731309D01*
X165028571Y-85769404D01*
X165171428Y-85769404D01*
X164571428Y-85769404D02*
X164571428Y-84969404D01*
X160820000Y-84969404D02*
X160477142Y-84969404D01*
X160648571Y-85769404D02*
X160648571Y-84969404D01*
X160277142Y-85769404D02*
X160277142Y-84969404D01*
X160077142Y-85540833D01*
X159877142Y-84969404D01*
X159877142Y-85769404D01*
X159620000Y-85731309D02*
X159534285Y-85769404D01*
X159391428Y-85769404D01*
X159334285Y-85731309D01*
X159305714Y-85693214D01*
X159277142Y-85617023D01*
X159277142Y-85540833D01*
X159305714Y-85464642D01*
X159334285Y-85426547D01*
X159391428Y-85388452D01*
X159505714Y-85350357D01*
X159562857Y-85312261D01*
X159591428Y-85274166D01*
X159620000Y-85197976D01*
X159620000Y-85121785D01*
X159591428Y-85045595D01*
X159562857Y-85007500D01*
X159505714Y-84969404D01*
X159362857Y-84969404D01*
X159277142Y-85007500D01*
X158265714Y-84969404D02*
X157922857Y-84969404D01*
X158094285Y-85769404D02*
X158094285Y-84969404D01*
X157722857Y-85769404D02*
X157722857Y-84969404D01*
X157580000Y-84969404D01*
X157494285Y-85007500D01*
X157437142Y-85083690D01*
X157408571Y-85159880D01*
X157380000Y-85312261D01*
X157380000Y-85426547D01*
X157408571Y-85578928D01*
X157437142Y-85655119D01*
X157494285Y-85731309D01*
X157580000Y-85769404D01*
X157722857Y-85769404D01*
X157008571Y-84969404D02*
X156894285Y-84969404D01*
X156837142Y-85007500D01*
X156780000Y-85083690D01*
X156751428Y-85236071D01*
X156751428Y-85502738D01*
X156780000Y-85655119D01*
X156837142Y-85731309D01*
X156894285Y-85769404D01*
X157008571Y-85769404D01*
X157065714Y-85731309D01*
X157122857Y-85655119D01*
X157151428Y-85502738D01*
X157151428Y-85236071D01*
X157122857Y-85083690D01*
X157065714Y-85007500D01*
X157008571Y-84969404D01*
X155711428Y-84969404D02*
X155368571Y-84969404D01*
X155540000Y-85769404D02*
X155540000Y-84969404D01*
X154825714Y-85693214D02*
X154854285Y-85731309D01*
X154940000Y-85769404D01*
X154997142Y-85769404D01*
X155082857Y-85731309D01*
X155140000Y-85655119D01*
X155168571Y-85578928D01*
X155197142Y-85426547D01*
X155197142Y-85312261D01*
X155168571Y-85159880D01*
X155140000Y-85083690D01*
X155082857Y-85007500D01*
X154997142Y-84969404D01*
X154940000Y-84969404D01*
X154854285Y-85007500D01*
X154825714Y-85045595D01*
X154568571Y-85769404D02*
X154568571Y-84969404D01*
X154225714Y-85769404D02*
X154482857Y-85312261D01*
X154225714Y-84969404D02*
X154568571Y-85426547D01*
X183870476Y-80054404D02*
X183870476Y-79254404D01*
X183565714Y-79254404D01*
X183489523Y-79292500D01*
X183451428Y-79330595D01*
X183413333Y-79406785D01*
X183413333Y-79521071D01*
X183451428Y-79597261D01*
X183489523Y-79635357D01*
X183565714Y-79673452D01*
X183870476Y-79673452D01*
X182803809Y-79635357D02*
X182689523Y-79673452D01*
X182651428Y-79711547D01*
X182613333Y-79787738D01*
X182613333Y-79902023D01*
X182651428Y-79978214D01*
X182689523Y-80016309D01*
X182765714Y-80054404D01*
X183070476Y-80054404D01*
X183070476Y-79254404D01*
X182803809Y-79254404D01*
X182727619Y-79292500D01*
X182689523Y-79330595D01*
X182651428Y-79406785D01*
X182651428Y-79482976D01*
X182689523Y-79559166D01*
X182727619Y-79597261D01*
X182803809Y-79635357D01*
X183070476Y-79635357D01*
X182346666Y-79254404D02*
X181813333Y-79254404D01*
X182156190Y-80054404D01*
X186410476Y-80054404D02*
X186410476Y-79254404D01*
X186105714Y-79254404D01*
X186029523Y-79292500D01*
X185991428Y-79330595D01*
X185953333Y-79406785D01*
X185953333Y-79521071D01*
X185991428Y-79597261D01*
X186029523Y-79635357D01*
X186105714Y-79673452D01*
X186410476Y-79673452D01*
X185343809Y-79635357D02*
X185229523Y-79673452D01*
X185191428Y-79711547D01*
X185153333Y-79787738D01*
X185153333Y-79902023D01*
X185191428Y-79978214D01*
X185229523Y-80016309D01*
X185305714Y-80054404D01*
X185610476Y-80054404D01*
X185610476Y-79254404D01*
X185343809Y-79254404D01*
X185267619Y-79292500D01*
X185229523Y-79330595D01*
X185191428Y-79406785D01*
X185191428Y-79482976D01*
X185229523Y-79559166D01*
X185267619Y-79597261D01*
X185343809Y-79635357D01*
X185610476Y-79635357D01*
X184467619Y-79254404D02*
X184620000Y-79254404D01*
X184696190Y-79292500D01*
X184734285Y-79330595D01*
X184810476Y-79444880D01*
X184848571Y-79597261D01*
X184848571Y-79902023D01*
X184810476Y-79978214D01*
X184772380Y-80016309D01*
X184696190Y-80054404D01*
X184543809Y-80054404D01*
X184467619Y-80016309D01*
X184429523Y-79978214D01*
X184391428Y-79902023D01*
X184391428Y-79711547D01*
X184429523Y-79635357D01*
X184467619Y-79597261D01*
X184543809Y-79559166D01*
X184696190Y-79559166D01*
X184772380Y-79597261D01*
X184810476Y-79635357D01*
X184848571Y-79711547D01*
X188950476Y-80054404D02*
X188950476Y-79254404D01*
X188645714Y-79254404D01*
X188569523Y-79292500D01*
X188531428Y-79330595D01*
X188493333Y-79406785D01*
X188493333Y-79521071D01*
X188531428Y-79597261D01*
X188569523Y-79635357D01*
X188645714Y-79673452D01*
X188950476Y-79673452D01*
X187883809Y-79635357D02*
X187769523Y-79673452D01*
X187731428Y-79711547D01*
X187693333Y-79787738D01*
X187693333Y-79902023D01*
X187731428Y-79978214D01*
X187769523Y-80016309D01*
X187845714Y-80054404D01*
X188150476Y-80054404D01*
X188150476Y-79254404D01*
X187883809Y-79254404D01*
X187807619Y-79292500D01*
X187769523Y-79330595D01*
X187731428Y-79406785D01*
X187731428Y-79482976D01*
X187769523Y-79559166D01*
X187807619Y-79597261D01*
X187883809Y-79635357D01*
X188150476Y-79635357D01*
X186969523Y-79254404D02*
X187350476Y-79254404D01*
X187388571Y-79635357D01*
X187350476Y-79597261D01*
X187274285Y-79559166D01*
X187083809Y-79559166D01*
X187007619Y-79597261D01*
X186969523Y-79635357D01*
X186931428Y-79711547D01*
X186931428Y-79902023D01*
X186969523Y-79978214D01*
X187007619Y-80016309D01*
X187083809Y-80054404D01*
X187274285Y-80054404D01*
X187350476Y-80016309D01*
X187388571Y-79978214D01*
X191490476Y-80054404D02*
X191490476Y-79254404D01*
X191185714Y-79254404D01*
X191109523Y-79292500D01*
X191071428Y-79330595D01*
X191033333Y-79406785D01*
X191033333Y-79521071D01*
X191071428Y-79597261D01*
X191109523Y-79635357D01*
X191185714Y-79673452D01*
X191490476Y-79673452D01*
X190423809Y-79635357D02*
X190309523Y-79673452D01*
X190271428Y-79711547D01*
X190233333Y-79787738D01*
X190233333Y-79902023D01*
X190271428Y-79978214D01*
X190309523Y-80016309D01*
X190385714Y-80054404D01*
X190690476Y-80054404D01*
X190690476Y-79254404D01*
X190423809Y-79254404D01*
X190347619Y-79292500D01*
X190309523Y-79330595D01*
X190271428Y-79406785D01*
X190271428Y-79482976D01*
X190309523Y-79559166D01*
X190347619Y-79597261D01*
X190423809Y-79635357D01*
X190690476Y-79635357D01*
X189547619Y-79521071D02*
X189547619Y-80054404D01*
X189738095Y-79216309D02*
X189928571Y-79787738D01*
X189433333Y-79787738D01*
X194030476Y-80054404D02*
X194030476Y-79254404D01*
X193725714Y-79254404D01*
X193649523Y-79292500D01*
X193611428Y-79330595D01*
X193573333Y-79406785D01*
X193573333Y-79521071D01*
X193611428Y-79597261D01*
X193649523Y-79635357D01*
X193725714Y-79673452D01*
X194030476Y-79673452D01*
X192963809Y-79635357D02*
X192849523Y-79673452D01*
X192811428Y-79711547D01*
X192773333Y-79787738D01*
X192773333Y-79902023D01*
X192811428Y-79978214D01*
X192849523Y-80016309D01*
X192925714Y-80054404D01*
X193230476Y-80054404D01*
X193230476Y-79254404D01*
X192963809Y-79254404D01*
X192887619Y-79292500D01*
X192849523Y-79330595D01*
X192811428Y-79406785D01*
X192811428Y-79482976D01*
X192849523Y-79559166D01*
X192887619Y-79597261D01*
X192963809Y-79635357D01*
X193230476Y-79635357D01*
X192506666Y-79254404D02*
X192011428Y-79254404D01*
X192278095Y-79559166D01*
X192163809Y-79559166D01*
X192087619Y-79597261D01*
X192049523Y-79635357D01*
X192011428Y-79711547D01*
X192011428Y-79902023D01*
X192049523Y-79978214D01*
X192087619Y-80016309D01*
X192163809Y-80054404D01*
X192392380Y-80054404D01*
X192468571Y-80016309D01*
X192506666Y-79978214D01*
X196570476Y-80054404D02*
X196570476Y-79254404D01*
X196265714Y-79254404D01*
X196189523Y-79292500D01*
X196151428Y-79330595D01*
X196113333Y-79406785D01*
X196113333Y-79521071D01*
X196151428Y-79597261D01*
X196189523Y-79635357D01*
X196265714Y-79673452D01*
X196570476Y-79673452D01*
X195503809Y-79635357D02*
X195389523Y-79673452D01*
X195351428Y-79711547D01*
X195313333Y-79787738D01*
X195313333Y-79902023D01*
X195351428Y-79978214D01*
X195389523Y-80016309D01*
X195465714Y-80054404D01*
X195770476Y-80054404D01*
X195770476Y-79254404D01*
X195503809Y-79254404D01*
X195427619Y-79292500D01*
X195389523Y-79330595D01*
X195351428Y-79406785D01*
X195351428Y-79482976D01*
X195389523Y-79559166D01*
X195427619Y-79597261D01*
X195503809Y-79635357D01*
X195770476Y-79635357D01*
X195008571Y-79330595D02*
X194970476Y-79292500D01*
X194894285Y-79254404D01*
X194703809Y-79254404D01*
X194627619Y-79292500D01*
X194589523Y-79330595D01*
X194551428Y-79406785D01*
X194551428Y-79482976D01*
X194589523Y-79597261D01*
X195046666Y-80054404D01*
X194551428Y-80054404D01*
X199110476Y-80054404D02*
X199110476Y-79254404D01*
X198805714Y-79254404D01*
X198729523Y-79292500D01*
X198691428Y-79330595D01*
X198653333Y-79406785D01*
X198653333Y-79521071D01*
X198691428Y-79597261D01*
X198729523Y-79635357D01*
X198805714Y-79673452D01*
X199110476Y-79673452D01*
X198043809Y-79635357D02*
X197929523Y-79673452D01*
X197891428Y-79711547D01*
X197853333Y-79787738D01*
X197853333Y-79902023D01*
X197891428Y-79978214D01*
X197929523Y-80016309D01*
X198005714Y-80054404D01*
X198310476Y-80054404D01*
X198310476Y-79254404D01*
X198043809Y-79254404D01*
X197967619Y-79292500D01*
X197929523Y-79330595D01*
X197891428Y-79406785D01*
X197891428Y-79482976D01*
X197929523Y-79559166D01*
X197967619Y-79597261D01*
X198043809Y-79635357D01*
X198310476Y-79635357D01*
X197091428Y-80054404D02*
X197548571Y-80054404D01*
X197320000Y-80054404D02*
X197320000Y-79254404D01*
X197396190Y-79368690D01*
X197472380Y-79444880D01*
X197548571Y-79482976D01*
X201650476Y-80054404D02*
X201650476Y-79254404D01*
X201345714Y-79254404D01*
X201269523Y-79292500D01*
X201231428Y-79330595D01*
X201193333Y-79406785D01*
X201193333Y-79521071D01*
X201231428Y-79597261D01*
X201269523Y-79635357D01*
X201345714Y-79673452D01*
X201650476Y-79673452D01*
X200583809Y-79635357D02*
X200469523Y-79673452D01*
X200431428Y-79711547D01*
X200393333Y-79787738D01*
X200393333Y-79902023D01*
X200431428Y-79978214D01*
X200469523Y-80016309D01*
X200545714Y-80054404D01*
X200850476Y-80054404D01*
X200850476Y-79254404D01*
X200583809Y-79254404D01*
X200507619Y-79292500D01*
X200469523Y-79330595D01*
X200431428Y-79406785D01*
X200431428Y-79482976D01*
X200469523Y-79559166D01*
X200507619Y-79597261D01*
X200583809Y-79635357D01*
X200850476Y-79635357D01*
X199898095Y-79254404D02*
X199821904Y-79254404D01*
X199745714Y-79292500D01*
X199707619Y-79330595D01*
X199669523Y-79406785D01*
X199631428Y-79559166D01*
X199631428Y-79749642D01*
X199669523Y-79902023D01*
X199707619Y-79978214D01*
X199745714Y-80016309D01*
X199821904Y-80054404D01*
X199898095Y-80054404D01*
X199974285Y-80016309D01*
X200012380Y-79978214D01*
X200050476Y-79902023D01*
X200088571Y-79749642D01*
X200088571Y-79559166D01*
X200050476Y-79406785D01*
X200012380Y-79330595D01*
X199974285Y-79292500D01*
X199898095Y-79254404D01*
X193973333Y-86086904D02*
X193973333Y-85286904D01*
X193668571Y-85286904D01*
X193592380Y-85325000D01*
X193554285Y-85363095D01*
X193516190Y-85439285D01*
X193516190Y-85553571D01*
X193554285Y-85629761D01*
X193592380Y-85667857D01*
X193668571Y-85705952D01*
X193973333Y-85705952D01*
X193211428Y-85858333D02*
X192830476Y-85858333D01*
X193287619Y-86086904D02*
X193020952Y-85286904D01*
X192754285Y-86086904D01*
X192563809Y-85286904D02*
X192030476Y-85286904D01*
X192373333Y-86086904D01*
X191433333Y-86086904D02*
X191433333Y-85286904D01*
X191128571Y-85286904D01*
X191052380Y-85325000D01*
X191014285Y-85363095D01*
X190976190Y-85439285D01*
X190976190Y-85553571D01*
X191014285Y-85629761D01*
X191052380Y-85667857D01*
X191128571Y-85705952D01*
X191433333Y-85705952D01*
X190671428Y-85858333D02*
X190290476Y-85858333D01*
X190747619Y-86086904D02*
X190480952Y-85286904D01*
X190214285Y-86086904D01*
X189604761Y-85286904D02*
X189757142Y-85286904D01*
X189833333Y-85325000D01*
X189871428Y-85363095D01*
X189947619Y-85477380D01*
X189985714Y-85629761D01*
X189985714Y-85934523D01*
X189947619Y-86010714D01*
X189909523Y-86048809D01*
X189833333Y-86086904D01*
X189680952Y-86086904D01*
X189604761Y-86048809D01*
X189566666Y-86010714D01*
X189528571Y-85934523D01*
X189528571Y-85744047D01*
X189566666Y-85667857D01*
X189604761Y-85629761D01*
X189680952Y-85591666D01*
X189833333Y-85591666D01*
X189909523Y-85629761D01*
X189947619Y-85667857D01*
X189985714Y-85744047D01*
X188893333Y-86086904D02*
X188893333Y-85286904D01*
X188588571Y-85286904D01*
X188512380Y-85325000D01*
X188474285Y-85363095D01*
X188436190Y-85439285D01*
X188436190Y-85553571D01*
X188474285Y-85629761D01*
X188512380Y-85667857D01*
X188588571Y-85705952D01*
X188893333Y-85705952D01*
X188131428Y-85858333D02*
X187750476Y-85858333D01*
X188207619Y-86086904D02*
X187940952Y-85286904D01*
X187674285Y-86086904D01*
X187026666Y-85286904D02*
X187407619Y-85286904D01*
X187445714Y-85667857D01*
X187407619Y-85629761D01*
X187331428Y-85591666D01*
X187140952Y-85591666D01*
X187064761Y-85629761D01*
X187026666Y-85667857D01*
X186988571Y-85744047D01*
X186988571Y-85934523D01*
X187026666Y-86010714D01*
X187064761Y-86048809D01*
X187140952Y-86086904D01*
X187331428Y-86086904D01*
X187407619Y-86048809D01*
X187445714Y-86010714D01*
X186353333Y-86086904D02*
X186353333Y-85286904D01*
X186048571Y-85286904D01*
X185972380Y-85325000D01*
X185934285Y-85363095D01*
X185896190Y-85439285D01*
X185896190Y-85553571D01*
X185934285Y-85629761D01*
X185972380Y-85667857D01*
X186048571Y-85705952D01*
X186353333Y-85705952D01*
X185591428Y-85858333D02*
X185210476Y-85858333D01*
X185667619Y-86086904D02*
X185400952Y-85286904D01*
X185134285Y-86086904D01*
X184524761Y-85553571D02*
X184524761Y-86086904D01*
X184715238Y-85248809D02*
X184905714Y-85820238D01*
X184410476Y-85820238D01*
X183813333Y-86086904D02*
X183813333Y-85286904D01*
X183508571Y-85286904D01*
X183432380Y-85325000D01*
X183394285Y-85363095D01*
X183356190Y-85439285D01*
X183356190Y-85553571D01*
X183394285Y-85629761D01*
X183432380Y-85667857D01*
X183508571Y-85705952D01*
X183813333Y-85705952D01*
X183051428Y-85858333D02*
X182670476Y-85858333D01*
X183127619Y-86086904D02*
X182860952Y-85286904D01*
X182594285Y-86086904D01*
X182403809Y-85286904D02*
X181908571Y-85286904D01*
X182175238Y-85591666D01*
X182060952Y-85591666D01*
X181984761Y-85629761D01*
X181946666Y-85667857D01*
X181908571Y-85744047D01*
X181908571Y-85934523D01*
X181946666Y-86010714D01*
X181984761Y-86048809D01*
X182060952Y-86086904D01*
X182289523Y-86086904D01*
X182365714Y-86048809D01*
X182403809Y-86010714D01*
X181273333Y-86086904D02*
X181273333Y-85286904D01*
X180968571Y-85286904D01*
X180892380Y-85325000D01*
X180854285Y-85363095D01*
X180816190Y-85439285D01*
X180816190Y-85553571D01*
X180854285Y-85629761D01*
X180892380Y-85667857D01*
X180968571Y-85705952D01*
X181273333Y-85705952D01*
X180511428Y-85858333D02*
X180130476Y-85858333D01*
X180587619Y-86086904D02*
X180320952Y-85286904D01*
X180054285Y-86086904D01*
X179825714Y-85363095D02*
X179787619Y-85325000D01*
X179711428Y-85286904D01*
X179520952Y-85286904D01*
X179444761Y-85325000D01*
X179406666Y-85363095D01*
X179368571Y-85439285D01*
X179368571Y-85515476D01*
X179406666Y-85629761D01*
X179863809Y-86086904D01*
X179368571Y-86086904D01*
X178733333Y-86086904D02*
X178733333Y-85286904D01*
X178428571Y-85286904D01*
X178352380Y-85325000D01*
X178314285Y-85363095D01*
X178276190Y-85439285D01*
X178276190Y-85553571D01*
X178314285Y-85629761D01*
X178352380Y-85667857D01*
X178428571Y-85705952D01*
X178733333Y-85705952D01*
X177971428Y-85858333D02*
X177590476Y-85858333D01*
X178047619Y-86086904D02*
X177780952Y-85286904D01*
X177514285Y-86086904D01*
X176828571Y-86086904D02*
X177285714Y-86086904D01*
X177057142Y-86086904D02*
X177057142Y-85286904D01*
X177133333Y-85401190D01*
X177209523Y-85477380D01*
X177285714Y-85515476D01*
X176193333Y-86086904D02*
X176193333Y-85286904D01*
X175888571Y-85286904D01*
X175812380Y-85325000D01*
X175774285Y-85363095D01*
X175736190Y-85439285D01*
X175736190Y-85553571D01*
X175774285Y-85629761D01*
X175812380Y-85667857D01*
X175888571Y-85705952D01*
X176193333Y-85705952D01*
X175431428Y-85858333D02*
X175050476Y-85858333D01*
X175507619Y-86086904D02*
X175240952Y-85286904D01*
X174974285Y-86086904D01*
X174555238Y-85286904D02*
X174479047Y-85286904D01*
X174402857Y-85325000D01*
X174364761Y-85363095D01*
X174326666Y-85439285D01*
X174288571Y-85591666D01*
X174288571Y-85782142D01*
X174326666Y-85934523D01*
X174364761Y-86010714D01*
X174402857Y-86048809D01*
X174479047Y-86086904D01*
X174555238Y-86086904D01*
X174631428Y-86048809D01*
X174669523Y-86010714D01*
X174707619Y-85934523D01*
X174745714Y-85782142D01*
X174745714Y-85591666D01*
X174707619Y-85439285D01*
X174669523Y-85363095D01*
X174631428Y-85325000D01*
X174555238Y-85286904D01*
X173837500Y-85286904D02*
X173637500Y-86086904D01*
X173437500Y-85286904D01*
X172894642Y-86010714D02*
X172923214Y-86048809D01*
X173008928Y-86086904D01*
X173066071Y-86086904D01*
X173151785Y-86048809D01*
X173208928Y-85972619D01*
X173237500Y-85896428D01*
X173266071Y-85744047D01*
X173266071Y-85629761D01*
X173237500Y-85477380D01*
X173208928Y-85401190D01*
X173151785Y-85325000D01*
X173066071Y-85286904D01*
X173008928Y-85286904D01*
X172923214Y-85325000D01*
X172894642Y-85363095D01*
X172294642Y-86010714D02*
X172323214Y-86048809D01*
X172408928Y-86086904D01*
X172466071Y-86086904D01*
X172551785Y-86048809D01*
X172608928Y-85972619D01*
X172637500Y-85896428D01*
X172666071Y-85744047D01*
X172666071Y-85629761D01*
X172637500Y-85477380D01*
X172608928Y-85401190D01*
X172551785Y-85325000D01*
X172466071Y-85286904D01*
X172408928Y-85286904D01*
X172323214Y-85325000D01*
X172294642Y-85363095D01*
X204266666Y-79254404D02*
X204000000Y-80054404D01*
X203733333Y-79254404D01*
X203009523Y-79978214D02*
X203047619Y-80016309D01*
X203161904Y-80054404D01*
X203238095Y-80054404D01*
X203352380Y-80016309D01*
X203428571Y-79940119D01*
X203466666Y-79863928D01*
X203504761Y-79711547D01*
X203504761Y-79597261D01*
X203466666Y-79444880D01*
X203428571Y-79368690D01*
X203352380Y-79292500D01*
X203238095Y-79254404D01*
X203161904Y-79254404D01*
X203047619Y-79292500D01*
X203009523Y-79330595D01*
X202209523Y-79978214D02*
X202247619Y-80016309D01*
X202361904Y-80054404D01*
X202438095Y-80054404D01*
X202552380Y-80016309D01*
X202628571Y-79940119D01*
X202666666Y-79863928D01*
X202704761Y-79711547D01*
X202704761Y-79597261D01*
X202666666Y-79444880D01*
X202628571Y-79368690D01*
X202552380Y-79292500D01*
X202438095Y-79254404D01*
X202361904Y-79254404D01*
X202247619Y-79292500D01*
X202209523Y-79330595D01*
X201269523Y-85325000D02*
X201345714Y-85286904D01*
X201460000Y-85286904D01*
X201574285Y-85325000D01*
X201650476Y-85401190D01*
X201688571Y-85477380D01*
X201726666Y-85629761D01*
X201726666Y-85744047D01*
X201688571Y-85896428D01*
X201650476Y-85972619D01*
X201574285Y-86048809D01*
X201460000Y-86086904D01*
X201383809Y-86086904D01*
X201269523Y-86048809D01*
X201231428Y-86010714D01*
X201231428Y-85744047D01*
X201383809Y-85744047D01*
X200888571Y-86086904D02*
X200888571Y-85286904D01*
X200431428Y-86086904D01*
X200431428Y-85286904D01*
X200050476Y-86086904D02*
X200050476Y-85286904D01*
X199860000Y-85286904D01*
X199745714Y-85325000D01*
X199669523Y-85401190D01*
X199631428Y-85477380D01*
X199593333Y-85629761D01*
X199593333Y-85744047D01*
X199631428Y-85896428D01*
X199669523Y-85972619D01*
X199745714Y-86048809D01*
X199860000Y-86086904D01*
X200050476Y-86086904D01*
X203809523Y-85325000D02*
X203885714Y-85286904D01*
X204000000Y-85286904D01*
X204114285Y-85325000D01*
X204190476Y-85401190D01*
X204228571Y-85477380D01*
X204266666Y-85629761D01*
X204266666Y-85744047D01*
X204228571Y-85896428D01*
X204190476Y-85972619D01*
X204114285Y-86048809D01*
X204000000Y-86086904D01*
X203923809Y-86086904D01*
X203809523Y-86048809D01*
X203771428Y-86010714D01*
X203771428Y-85744047D01*
X203923809Y-85744047D01*
X203428571Y-86086904D02*
X203428571Y-85286904D01*
X202971428Y-86086904D01*
X202971428Y-85286904D01*
X202590476Y-86086904D02*
X202590476Y-85286904D01*
X202400000Y-85286904D01*
X202285714Y-85325000D01*
X202209523Y-85401190D01*
X202171428Y-85477380D01*
X202133333Y-85629761D01*
X202133333Y-85744047D01*
X202171428Y-85896428D01*
X202209523Y-85972619D01*
X202285714Y-86048809D01*
X202400000Y-86086904D01*
X202590476Y-86086904D01*
X175869523Y-79292500D02*
X175945714Y-79254404D01*
X176060000Y-79254404D01*
X176174285Y-79292500D01*
X176250476Y-79368690D01*
X176288571Y-79444880D01*
X176326666Y-79597261D01*
X176326666Y-79711547D01*
X176288571Y-79863928D01*
X176250476Y-79940119D01*
X176174285Y-80016309D01*
X176060000Y-80054404D01*
X175983809Y-80054404D01*
X175869523Y-80016309D01*
X175831428Y-79978214D01*
X175831428Y-79711547D01*
X175983809Y-79711547D01*
X175488571Y-80054404D02*
X175488571Y-79254404D01*
X175031428Y-80054404D01*
X175031428Y-79254404D01*
X174650476Y-80054404D02*
X174650476Y-79254404D01*
X174460000Y-79254404D01*
X174345714Y-79292500D01*
X174269523Y-79368690D01*
X174231428Y-79444880D01*
X174193333Y-79597261D01*
X174193333Y-79711547D01*
X174231428Y-79863928D01*
X174269523Y-79940119D01*
X174345714Y-80016309D01*
X174460000Y-80054404D01*
X174650476Y-80054404D01*
X173329523Y-79292500D02*
X173405714Y-79254404D01*
X173520000Y-79254404D01*
X173634285Y-79292500D01*
X173710476Y-79368690D01*
X173748571Y-79444880D01*
X173786666Y-79597261D01*
X173786666Y-79711547D01*
X173748571Y-79863928D01*
X173710476Y-79940119D01*
X173634285Y-80016309D01*
X173520000Y-80054404D01*
X173443809Y-80054404D01*
X173329523Y-80016309D01*
X173291428Y-79978214D01*
X173291428Y-79711547D01*
X173443809Y-79711547D01*
X172948571Y-80054404D02*
X172948571Y-79254404D01*
X172491428Y-80054404D01*
X172491428Y-79254404D01*
X172110476Y-80054404D02*
X172110476Y-79254404D01*
X171920000Y-79254404D01*
X171805714Y-79292500D01*
X171729523Y-79368690D01*
X171691428Y-79444880D01*
X171653333Y-79597261D01*
X171653333Y-79711547D01*
X171691428Y-79863928D01*
X171729523Y-79940119D01*
X171805714Y-80016309D01*
X171920000Y-80054404D01*
X172110476Y-80054404D01*
X196580000Y-85858333D02*
X196294285Y-85858333D01*
X196637142Y-86086904D02*
X196437142Y-85286904D01*
X196237142Y-86086904D01*
X195694285Y-86086904D02*
X195894285Y-85705952D01*
X196037142Y-86086904D02*
X196037142Y-85286904D01*
X195808571Y-85286904D01*
X195751428Y-85325000D01*
X195722857Y-85363095D01*
X195694285Y-85439285D01*
X195694285Y-85553571D01*
X195722857Y-85629761D01*
X195751428Y-85667857D01*
X195808571Y-85705952D01*
X196037142Y-85705952D01*
X195437142Y-86086904D02*
X195437142Y-85286904D01*
X195294285Y-85286904D01*
X195208571Y-85325000D01*
X195151428Y-85401190D01*
X195122857Y-85477380D01*
X195094285Y-85629761D01*
X195094285Y-85744047D01*
X195122857Y-85896428D01*
X195151428Y-85972619D01*
X195208571Y-86048809D01*
X195294285Y-86086904D01*
X195437142Y-86086904D01*
X194722857Y-85705952D02*
X194722857Y-86086904D01*
X194922857Y-85286904D02*
X194722857Y-85705952D01*
X194522857Y-85286904D01*
X199191428Y-84954000D02*
X198677142Y-84954000D01*
X199077142Y-85858333D02*
X198791428Y-85858333D01*
X199134285Y-86086904D02*
X198934285Y-85286904D01*
X198734285Y-86086904D01*
X198677142Y-84954000D02*
X198105714Y-84954000D01*
X198562857Y-86048809D02*
X198477142Y-86086904D01*
X198334285Y-86086904D01*
X198277142Y-86048809D01*
X198248571Y-86010714D01*
X198220000Y-85934523D01*
X198220000Y-85858333D01*
X198248571Y-85782142D01*
X198277142Y-85744047D01*
X198334285Y-85705952D01*
X198448571Y-85667857D01*
X198505714Y-85629761D01*
X198534285Y-85591666D01*
X198562857Y-85515476D01*
X198562857Y-85439285D01*
X198534285Y-85363095D01*
X198505714Y-85325000D01*
X198448571Y-85286904D01*
X198305714Y-85286904D01*
X198220000Y-85325000D01*
X198105714Y-84954000D02*
X197648571Y-84954000D01*
X198048571Y-85286904D02*
X197705714Y-85286904D01*
X197877142Y-86086904D02*
X197877142Y-85286904D01*
X197648571Y-84954000D02*
X197048571Y-84954000D01*
X197305714Y-85667857D02*
X197220000Y-85705952D01*
X197191428Y-85744047D01*
X197162857Y-85820238D01*
X197162857Y-85934523D01*
X197191428Y-86010714D01*
X197220000Y-86048809D01*
X197277142Y-86086904D01*
X197505714Y-86086904D01*
X197505714Y-85286904D01*
X197305714Y-85286904D01*
X197248571Y-85325000D01*
X197220000Y-85363095D01*
X197191428Y-85439285D01*
X197191428Y-85515476D01*
X197220000Y-85591666D01*
X197248571Y-85629761D01*
X197305714Y-85667857D01*
X197505714Y-85667857D01*
X178914285Y-79112000D02*
X178314285Y-79112000D01*
X178571428Y-79825857D02*
X178485714Y-79863952D01*
X178457142Y-79902047D01*
X178428571Y-79978238D01*
X178428571Y-80092523D01*
X178457142Y-80168714D01*
X178485714Y-80206809D01*
X178542857Y-80244904D01*
X178771428Y-80244904D01*
X178771428Y-79444904D01*
X178571428Y-79444904D01*
X178514285Y-79483000D01*
X178485714Y-79521095D01*
X178457142Y-79597285D01*
X178457142Y-79673476D01*
X178485714Y-79749666D01*
X178514285Y-79787761D01*
X178571428Y-79825857D01*
X178771428Y-79825857D01*
X178314285Y-79112000D02*
X177742857Y-79112000D01*
X178200000Y-80206809D02*
X178114285Y-80244904D01*
X177971428Y-80244904D01*
X177914285Y-80206809D01*
X177885714Y-80168714D01*
X177857142Y-80092523D01*
X177857142Y-80016333D01*
X177885714Y-79940142D01*
X177914285Y-79902047D01*
X177971428Y-79863952D01*
X178085714Y-79825857D01*
X178142857Y-79787761D01*
X178171428Y-79749666D01*
X178200000Y-79673476D01*
X178200000Y-79597285D01*
X178171428Y-79521095D01*
X178142857Y-79483000D01*
X178085714Y-79444904D01*
X177942857Y-79444904D01*
X177857142Y-79483000D01*
X177742857Y-79112000D02*
X177285714Y-79112000D01*
X177685714Y-79444904D02*
X177342857Y-79444904D01*
X177514285Y-80244904D02*
X177514285Y-79444904D01*
X177285714Y-79112000D02*
X176685714Y-79112000D01*
X176942857Y-79825857D02*
X176857142Y-79863952D01*
X176828571Y-79902047D01*
X176800000Y-79978238D01*
X176800000Y-80092523D01*
X176828571Y-80168714D01*
X176857142Y-80206809D01*
X176914285Y-80244904D01*
X177142857Y-80244904D01*
X177142857Y-79444904D01*
X176942857Y-79444904D01*
X176885714Y-79483000D01*
X176857142Y-79521095D01*
X176828571Y-79597285D01*
X176828571Y-79673476D01*
X176857142Y-79749666D01*
X176885714Y-79787761D01*
X176942857Y-79825857D01*
X177142857Y-79825857D01*
X181154285Y-79635357D02*
X181068571Y-79673452D01*
X181040000Y-79711547D01*
X181011428Y-79787738D01*
X181011428Y-79902023D01*
X181040000Y-79978214D01*
X181068571Y-80016309D01*
X181125714Y-80054404D01*
X181354285Y-80054404D01*
X181354285Y-79254404D01*
X181154285Y-79254404D01*
X181097142Y-79292500D01*
X181068571Y-79330595D01*
X181040000Y-79406785D01*
X181040000Y-79482976D01*
X181068571Y-79559166D01*
X181097142Y-79597261D01*
X181154285Y-79635357D01*
X181354285Y-79635357D01*
X180411428Y-80054404D02*
X180611428Y-79673452D01*
X180754285Y-80054404D02*
X180754285Y-79254404D01*
X180525714Y-79254404D01*
X180468571Y-79292500D01*
X180440000Y-79330595D01*
X180411428Y-79406785D01*
X180411428Y-79521071D01*
X180440000Y-79597261D01*
X180468571Y-79635357D01*
X180525714Y-79673452D01*
X180754285Y-79673452D01*
X180154285Y-80054404D02*
X180154285Y-79254404D01*
X180011428Y-79254404D01*
X179925714Y-79292500D01*
X179868571Y-79368690D01*
X179840000Y-79444880D01*
X179811428Y-79597261D01*
X179811428Y-79711547D01*
X179840000Y-79863928D01*
X179868571Y-79940119D01*
X179925714Y-80016309D01*
X180011428Y-80054404D01*
X180154285Y-80054404D01*
X179440000Y-79673452D02*
X179440000Y-80054404D01*
X179640000Y-79254404D02*
X179440000Y-79673452D01*
X179240000Y-79254404D01*
X191571428Y-122101500D02*
X191285714Y-122101500D01*
X191428571Y-123234404D02*
X191428571Y-122434404D01*
X191285714Y-122101500D02*
X190657142Y-122101500D01*
X191028571Y-122434404D02*
X190914285Y-122434404D01*
X190857142Y-122472500D01*
X190800000Y-122548690D01*
X190771428Y-122701071D01*
X190771428Y-122967738D01*
X190800000Y-123120119D01*
X190857142Y-123196309D01*
X190914285Y-123234404D01*
X191028571Y-123234404D01*
X191085714Y-123196309D01*
X191142857Y-123120119D01*
X191171428Y-122967738D01*
X191171428Y-122701071D01*
X191142857Y-122548690D01*
X191085714Y-122472500D01*
X191028571Y-122434404D01*
X190657142Y-122101500D02*
X190057142Y-122101500D01*
X190171428Y-123234404D02*
X190371428Y-122853452D01*
X190514285Y-123234404D02*
X190514285Y-122434404D01*
X190285714Y-122434404D01*
X190228571Y-122472500D01*
X190200000Y-122510595D01*
X190171428Y-122586785D01*
X190171428Y-122701071D01*
X190200000Y-122777261D01*
X190228571Y-122815357D01*
X190285714Y-122853452D01*
X190514285Y-122853452D01*
X190057142Y-122101500D02*
X189428571Y-122101500D01*
X189514285Y-123310595D02*
X189571428Y-123272500D01*
X189628571Y-123196309D01*
X189714285Y-123082023D01*
X189771428Y-123043928D01*
X189828571Y-123043928D01*
X189800000Y-123234404D02*
X189857142Y-123196309D01*
X189914285Y-123120119D01*
X189942857Y-122967738D01*
X189942857Y-122701071D01*
X189914285Y-122548690D01*
X189857142Y-122472500D01*
X189800000Y-122434404D01*
X189685714Y-122434404D01*
X189628571Y-122472500D01*
X189571428Y-122548690D01*
X189542857Y-122701071D01*
X189542857Y-122967738D01*
X189571428Y-123120119D01*
X189628571Y-123196309D01*
X189685714Y-123234404D01*
X189800000Y-123234404D01*
X191566666Y-120514000D02*
X190728571Y-120514000D01*
X191376190Y-121646904D02*
X191376190Y-120846904D01*
X190919047Y-121646904D01*
X190919047Y-120846904D01*
X190728571Y-120514000D02*
X189814285Y-120514000D01*
X190538095Y-121646904D02*
X190538095Y-120846904D01*
X190271428Y-121418333D01*
X190004761Y-120846904D01*
X190004761Y-121646904D01*
X189814285Y-120514000D02*
X189433333Y-120514000D01*
X189623809Y-121646904D02*
X189623809Y-120846904D01*
X188931428Y-120514000D02*
X188245714Y-120514000D01*
X188845714Y-120846904D02*
X188702857Y-121646904D01*
X188588571Y-121075476D01*
X188474285Y-121646904D01*
X188331428Y-120846904D01*
X188245714Y-120514000D02*
X187731428Y-120514000D01*
X188131428Y-121418333D02*
X187845714Y-121418333D01*
X188188571Y-121646904D02*
X187988571Y-120846904D01*
X187788571Y-121646904D01*
X187731428Y-120514000D02*
X187445714Y-120514000D01*
X187588571Y-121646904D02*
X187588571Y-120846904D01*
X187445714Y-120514000D02*
X186988571Y-120514000D01*
X187388571Y-120846904D02*
X187045714Y-120846904D01*
X187217142Y-121646904D02*
X187217142Y-120846904D01*
X188760000Y-122101500D02*
X187960000Y-122101500D01*
X188112380Y-123234404D02*
X188379047Y-122853452D01*
X188569523Y-123234404D02*
X188569523Y-122434404D01*
X188264761Y-122434404D01*
X188188571Y-122472500D01*
X188150476Y-122510595D01*
X188112380Y-122586785D01*
X188112380Y-122701071D01*
X188150476Y-122777261D01*
X188188571Y-122815357D01*
X188264761Y-122853452D01*
X188569523Y-122853452D01*
X187960000Y-122101500D02*
X187160000Y-122101500D01*
X187769523Y-123234404D02*
X187769523Y-122434404D01*
X187579047Y-122434404D01*
X187464761Y-122472500D01*
X187388571Y-122548690D01*
X187350476Y-122624880D01*
X187312380Y-122777261D01*
X187312380Y-122891547D01*
X187350476Y-123043928D01*
X187388571Y-123120119D01*
X187464761Y-123196309D01*
X187579047Y-123234404D01*
X187769523Y-123234404D01*
X186277142Y-122101500D02*
X185362857Y-122101500D01*
X186162857Y-122434404D02*
X185972380Y-123234404D01*
X185820000Y-122662976D01*
X185667619Y-123234404D01*
X185477142Y-122434404D01*
X185362857Y-122101500D02*
X184562857Y-122101500D01*
X184715238Y-123234404D02*
X184981904Y-122853452D01*
X185172380Y-123234404D02*
X185172380Y-122434404D01*
X184867619Y-122434404D01*
X184791428Y-122472500D01*
X184753333Y-122510595D01*
X184715238Y-122586785D01*
X184715238Y-122701071D01*
X184753333Y-122777261D01*
X184791428Y-122815357D01*
X184867619Y-122853452D01*
X185172380Y-122853452D01*
X186605714Y-120514000D02*
X186005714Y-120514000D01*
X186262857Y-121227857D02*
X186177142Y-121265952D01*
X186148571Y-121304047D01*
X186120000Y-121380238D01*
X186120000Y-121494523D01*
X186148571Y-121570714D01*
X186177142Y-121608809D01*
X186234285Y-121646904D01*
X186462857Y-121646904D01*
X186462857Y-120846904D01*
X186262857Y-120846904D01*
X186205714Y-120885000D01*
X186177142Y-120923095D01*
X186148571Y-120999285D01*
X186148571Y-121075476D01*
X186177142Y-121151666D01*
X186205714Y-121189761D01*
X186262857Y-121227857D01*
X186462857Y-121227857D01*
X186005714Y-120514000D02*
X185405714Y-120514000D01*
X185520000Y-121646904D02*
X185720000Y-121265952D01*
X185862857Y-121646904D02*
X185862857Y-120846904D01*
X185634285Y-120846904D01*
X185577142Y-120885000D01*
X185548571Y-120923095D01*
X185520000Y-120999285D01*
X185520000Y-121113571D01*
X185548571Y-121189761D01*
X185577142Y-121227857D01*
X185634285Y-121265952D01*
X185862857Y-121265952D01*
X185405714Y-120514000D02*
X184862857Y-120514000D01*
X185262857Y-121227857D02*
X185062857Y-121227857D01*
X184977142Y-121646904D02*
X185262857Y-121646904D01*
X185262857Y-120846904D01*
X184977142Y-120846904D01*
X184862857Y-120514000D02*
X184234285Y-120514000D01*
X184320000Y-121723095D02*
X184377142Y-121685000D01*
X184434285Y-121608809D01*
X184520000Y-121494523D01*
X184577142Y-121456428D01*
X184634285Y-121456428D01*
X184605714Y-121646904D02*
X184662857Y-121608809D01*
X184720000Y-121532619D01*
X184748571Y-121380238D01*
X184748571Y-121113571D01*
X184720000Y-120961190D01*
X184662857Y-120885000D01*
X184605714Y-120846904D01*
X184491428Y-120846904D01*
X184434285Y-120885000D01*
X184377142Y-120961190D01*
X184348571Y-121113571D01*
X184348571Y-121380238D01*
X184377142Y-121532619D01*
X184434285Y-121608809D01*
X184491428Y-121646904D01*
X184605714Y-121646904D01*
X184108571Y-122101500D02*
X183422857Y-122101500D01*
X183965714Y-123234404D02*
X183965714Y-122434404D01*
X183765714Y-123005833D01*
X183565714Y-122434404D01*
X183565714Y-123234404D01*
X183422857Y-122101500D02*
X182822857Y-122101500D01*
X182937142Y-123234404D02*
X183137142Y-122853452D01*
X183280000Y-123234404D02*
X183280000Y-122434404D01*
X183051428Y-122434404D01*
X182994285Y-122472500D01*
X182965714Y-122510595D01*
X182937142Y-122586785D01*
X182937142Y-122701071D01*
X182965714Y-122777261D01*
X182994285Y-122815357D01*
X183051428Y-122853452D01*
X183280000Y-122853452D01*
X182822857Y-122101500D02*
X182280000Y-122101500D01*
X182680000Y-122815357D02*
X182480000Y-122815357D01*
X182394285Y-123234404D02*
X182680000Y-123234404D01*
X182680000Y-122434404D01*
X182394285Y-122434404D01*
X182280000Y-122101500D02*
X181651428Y-122101500D01*
X181737142Y-123310595D02*
X181794285Y-123272500D01*
X181851428Y-123196309D01*
X181937142Y-123082023D01*
X181994285Y-123043928D01*
X182051428Y-123043928D01*
X182022857Y-123234404D02*
X182080000Y-123196309D01*
X182137142Y-123120119D01*
X182165714Y-122967738D01*
X182165714Y-122701071D01*
X182137142Y-122548690D01*
X182080000Y-122472500D01*
X182022857Y-122434404D01*
X181908571Y-122434404D01*
X181851428Y-122472500D01*
X181794285Y-122548690D01*
X181765714Y-122701071D01*
X181765714Y-122967738D01*
X181794285Y-123120119D01*
X181851428Y-123196309D01*
X181908571Y-123234404D01*
X182022857Y-123234404D01*
X183922857Y-120514000D02*
X183294285Y-120514000D01*
X183780000Y-121646904D02*
X183780000Y-120846904D01*
X183780000Y-121227857D02*
X183437142Y-121227857D01*
X183437142Y-121646904D02*
X183437142Y-120846904D01*
X183294285Y-120514000D02*
X182780000Y-120514000D01*
X183180000Y-121418333D02*
X182894285Y-121418333D01*
X183237142Y-121646904D02*
X183037142Y-120846904D01*
X182837142Y-121646904D01*
X182780000Y-120514000D02*
X182294285Y-120514000D01*
X182351428Y-121646904D02*
X182637142Y-121646904D01*
X182637142Y-120846904D01*
X182294285Y-120514000D02*
X181837142Y-120514000D01*
X182237142Y-120846904D02*
X181894285Y-120846904D01*
X182065714Y-121646904D02*
X182065714Y-120846904D01*
X181497142Y-120514000D02*
X180897142Y-120514000D01*
X181154285Y-121227857D02*
X181068571Y-121265952D01*
X181040000Y-121304047D01*
X181011428Y-121380238D01*
X181011428Y-121494523D01*
X181040000Y-121570714D01*
X181068571Y-121608809D01*
X181125714Y-121646904D01*
X181354285Y-121646904D01*
X181354285Y-120846904D01*
X181154285Y-120846904D01*
X181097142Y-120885000D01*
X181068571Y-120923095D01*
X181040000Y-120999285D01*
X181040000Y-121075476D01*
X181068571Y-121151666D01*
X181097142Y-121189761D01*
X181154285Y-121227857D01*
X181354285Y-121227857D01*
X180897142Y-120514000D02*
X180382857Y-120514000D01*
X180782857Y-121418333D02*
X180497142Y-121418333D01*
X180840000Y-121646904D02*
X180640000Y-120846904D01*
X180440000Y-121646904D01*
X180382857Y-120514000D02*
X179782857Y-120514000D01*
X179897142Y-121570714D02*
X179925714Y-121608809D01*
X180011428Y-121646904D01*
X180068571Y-121646904D01*
X180154285Y-121608809D01*
X180211428Y-121532619D01*
X180240000Y-121456428D01*
X180268571Y-121304047D01*
X180268571Y-121189761D01*
X180240000Y-121037380D01*
X180211428Y-120961190D01*
X180154285Y-120885000D01*
X180068571Y-120846904D01*
X180011428Y-120846904D01*
X179925714Y-120885000D01*
X179897142Y-120923095D01*
X179782857Y-120514000D02*
X179182857Y-120514000D01*
X179640000Y-121646904D02*
X179640000Y-120846904D01*
X179297142Y-121646904D02*
X179554285Y-121189761D01*
X179297142Y-120846904D02*
X179640000Y-121304047D01*
X181025714Y-122101500D02*
X180740000Y-122101500D01*
X180882857Y-123234404D02*
X180882857Y-122434404D01*
X180740000Y-122101500D02*
X180111428Y-122101500D01*
X180597142Y-123234404D02*
X180597142Y-122434404D01*
X180254285Y-123234404D01*
X180254285Y-122434404D01*
X180111428Y-122101500D02*
X179654285Y-122101500D01*
X180054285Y-122434404D02*
X179711428Y-122434404D01*
X179882857Y-123234404D02*
X179882857Y-122434404D01*
X178814285Y-120846904D02*
X178814285Y-121494523D01*
X178785714Y-121570714D01*
X178757142Y-121608809D01*
X178700000Y-121646904D01*
X178585714Y-121646904D01*
X178528571Y-121608809D01*
X178500000Y-121570714D01*
X178471428Y-121494523D01*
X178471428Y-120846904D01*
X177842857Y-121570714D02*
X177871428Y-121608809D01*
X177957142Y-121646904D01*
X178014285Y-121646904D01*
X178100000Y-121608809D01*
X178157142Y-121532619D01*
X178185714Y-121456428D01*
X178214285Y-121304047D01*
X178214285Y-121189761D01*
X178185714Y-121037380D01*
X178157142Y-120961190D01*
X178100000Y-120885000D01*
X178014285Y-120846904D01*
X177957142Y-120846904D01*
X177871428Y-120885000D01*
X177842857Y-120923095D01*
X177300000Y-121646904D02*
X177585714Y-121646904D01*
X177585714Y-120846904D01*
X177100000Y-121646904D02*
X177100000Y-120846904D01*
X176757142Y-121646904D02*
X177014285Y-121189761D01*
X176757142Y-120846904D02*
X177100000Y-121304047D01*
X178457142Y-123158214D02*
X178485714Y-123196309D01*
X178571428Y-123234404D01*
X178628571Y-123234404D01*
X178714285Y-123196309D01*
X178771428Y-123120119D01*
X178800000Y-123043928D01*
X178828571Y-122891547D01*
X178828571Y-122777261D01*
X178800000Y-122624880D01*
X178771428Y-122548690D01*
X178714285Y-122472500D01*
X178628571Y-122434404D01*
X178571428Y-122434404D01*
X178485714Y-122472500D01*
X178457142Y-122510595D01*
X177857142Y-123158214D02*
X177885714Y-123196309D01*
X177971428Y-123234404D01*
X178028571Y-123234404D01*
X178114285Y-123196309D01*
X178171428Y-123120119D01*
X178200000Y-123043928D01*
X178228571Y-122891547D01*
X178228571Y-122777261D01*
X178200000Y-122624880D01*
X178171428Y-122548690D01*
X178114285Y-122472500D01*
X178028571Y-122434404D01*
X177971428Y-122434404D01*
X177885714Y-122472500D01*
X177857142Y-122510595D01*
X177314285Y-123234404D02*
X177600000Y-123234404D01*
X177600000Y-122434404D01*
X177114285Y-123234404D02*
X177114285Y-122434404D01*
X176771428Y-123234404D02*
X177028571Y-122777261D01*
X176771428Y-122434404D02*
X177114285Y-122891547D01*
X176617142Y-122101500D02*
X176017142Y-122101500D01*
X176131428Y-123234404D02*
X176331428Y-122853452D01*
X176474285Y-123234404D02*
X176474285Y-122434404D01*
X176245714Y-122434404D01*
X176188571Y-122472500D01*
X176160000Y-122510595D01*
X176131428Y-122586785D01*
X176131428Y-122701071D01*
X176160000Y-122777261D01*
X176188571Y-122815357D01*
X176245714Y-122853452D01*
X176474285Y-122853452D01*
X176017142Y-122101500D02*
X175474285Y-122101500D01*
X175874285Y-122815357D02*
X175674285Y-122815357D01*
X175588571Y-123234404D02*
X175874285Y-123234404D01*
X175874285Y-122434404D01*
X175588571Y-122434404D01*
X175474285Y-122101500D02*
X174902857Y-122101500D01*
X175360000Y-123196309D02*
X175274285Y-123234404D01*
X175131428Y-123234404D01*
X175074285Y-123196309D01*
X175045714Y-123158214D01*
X175017142Y-123082023D01*
X175017142Y-123005833D01*
X175045714Y-122929642D01*
X175074285Y-122891547D01*
X175131428Y-122853452D01*
X175245714Y-122815357D01*
X175302857Y-122777261D01*
X175331428Y-122739166D01*
X175360000Y-122662976D01*
X175360000Y-122586785D01*
X175331428Y-122510595D01*
X175302857Y-122472500D01*
X175245714Y-122434404D01*
X175102857Y-122434404D01*
X175017142Y-122472500D01*
X174902857Y-122101500D02*
X174360000Y-122101500D01*
X174760000Y-122815357D02*
X174560000Y-122815357D01*
X174474285Y-123234404D02*
X174760000Y-123234404D01*
X174760000Y-122434404D01*
X174474285Y-122434404D01*
X174360000Y-122101500D02*
X173902857Y-122101500D01*
X174302857Y-122434404D02*
X173960000Y-122434404D01*
X174131428Y-123234404D02*
X174131428Y-122434404D01*
X173877142Y-120514000D02*
X173277142Y-120514000D01*
X173391428Y-121646904D02*
X173591428Y-121265952D01*
X173734285Y-121646904D02*
X173734285Y-120846904D01*
X173505714Y-120846904D01*
X173448571Y-120885000D01*
X173420000Y-120923095D01*
X173391428Y-120999285D01*
X173391428Y-121113571D01*
X173420000Y-121189761D01*
X173448571Y-121227857D01*
X173505714Y-121265952D01*
X173734285Y-121265952D01*
X173277142Y-120514000D02*
X172762857Y-120514000D01*
X172934285Y-121227857D02*
X173134285Y-121227857D01*
X173134285Y-121646904D02*
X173134285Y-120846904D01*
X172848571Y-120846904D01*
X172762857Y-120514000D02*
X172191428Y-120514000D01*
X172648571Y-121608809D02*
X172562857Y-121646904D01*
X172420000Y-121646904D01*
X172362857Y-121608809D01*
X172334285Y-121570714D01*
X172305714Y-121494523D01*
X172305714Y-121418333D01*
X172334285Y-121342142D01*
X172362857Y-121304047D01*
X172420000Y-121265952D01*
X172534285Y-121227857D01*
X172591428Y-121189761D01*
X172620000Y-121151666D01*
X172648571Y-121075476D01*
X172648571Y-120999285D01*
X172620000Y-120923095D01*
X172591428Y-120885000D01*
X172534285Y-120846904D01*
X172391428Y-120846904D01*
X172305714Y-120885000D01*
X172191428Y-120514000D02*
X171562857Y-120514000D01*
X172048571Y-121646904D02*
X172048571Y-120846904D01*
X172048571Y-121227857D02*
X171705714Y-121227857D01*
X171705714Y-121646904D02*
X171705714Y-120846904D01*
X173558095Y-122101500D02*
X172643809Y-122101500D01*
X173367619Y-123234404D02*
X173367619Y-122434404D01*
X173100952Y-123005833D01*
X172834285Y-122434404D01*
X172834285Y-123234404D01*
X172643809Y-122101500D02*
X171881904Y-122101500D01*
X172034285Y-123234404D02*
X172491428Y-123234404D01*
X172262857Y-123234404D02*
X172262857Y-122434404D01*
X172339047Y-122548690D01*
X172415238Y-122624880D01*
X172491428Y-122662976D01*
X171246666Y-120846904D02*
X170980000Y-121646904D01*
X170713333Y-120846904D01*
X169989523Y-121570714D02*
X170027619Y-121608809D01*
X170141904Y-121646904D01*
X170218095Y-121646904D01*
X170332380Y-121608809D01*
X170408571Y-121532619D01*
X170446666Y-121456428D01*
X170484761Y-121304047D01*
X170484761Y-121189761D01*
X170446666Y-121037380D01*
X170408571Y-120961190D01*
X170332380Y-120885000D01*
X170218095Y-120846904D01*
X170141904Y-120846904D01*
X170027619Y-120885000D01*
X169989523Y-120923095D01*
X169189523Y-121570714D02*
X169227619Y-121608809D01*
X169341904Y-121646904D01*
X169418095Y-121646904D01*
X169532380Y-121608809D01*
X169608571Y-121532619D01*
X169646666Y-121456428D01*
X169684761Y-121304047D01*
X169684761Y-121189761D01*
X169646666Y-121037380D01*
X169608571Y-120961190D01*
X169532380Y-120885000D01*
X169418095Y-120846904D01*
X169341904Y-120846904D01*
X169227619Y-120885000D01*
X169189523Y-120923095D01*
X171246666Y-122434404D02*
X170980000Y-123234404D01*
X170713333Y-122434404D01*
X169989523Y-123158214D02*
X170027619Y-123196309D01*
X170141904Y-123234404D01*
X170218095Y-123234404D01*
X170332380Y-123196309D01*
X170408571Y-123120119D01*
X170446666Y-123043928D01*
X170484761Y-122891547D01*
X170484761Y-122777261D01*
X170446666Y-122624880D01*
X170408571Y-122548690D01*
X170332380Y-122472500D01*
X170218095Y-122434404D01*
X170141904Y-122434404D01*
X170027619Y-122472500D01*
X169989523Y-122510595D01*
X169189523Y-123158214D02*
X169227619Y-123196309D01*
X169341904Y-123234404D01*
X169418095Y-123234404D01*
X169532380Y-123196309D01*
X169608571Y-123120119D01*
X169646666Y-123043928D01*
X169684761Y-122891547D01*
X169684761Y-122777261D01*
X169646666Y-122624880D01*
X169608571Y-122548690D01*
X169532380Y-122472500D01*
X169418095Y-122434404D01*
X169341904Y-122434404D01*
X169227619Y-122472500D01*
X169189523Y-122510595D01*
X168249523Y-120885000D02*
X168325714Y-120846904D01*
X168440000Y-120846904D01*
X168554285Y-120885000D01*
X168630476Y-120961190D01*
X168668571Y-121037380D01*
X168706666Y-121189761D01*
X168706666Y-121304047D01*
X168668571Y-121456428D01*
X168630476Y-121532619D01*
X168554285Y-121608809D01*
X168440000Y-121646904D01*
X168363809Y-121646904D01*
X168249523Y-121608809D01*
X168211428Y-121570714D01*
X168211428Y-121304047D01*
X168363809Y-121304047D01*
X167868571Y-121646904D02*
X167868571Y-120846904D01*
X167411428Y-121646904D01*
X167411428Y-120846904D01*
X167030476Y-121646904D02*
X167030476Y-120846904D01*
X166840000Y-120846904D01*
X166725714Y-120885000D01*
X166649523Y-120961190D01*
X166611428Y-121037380D01*
X166573333Y-121189761D01*
X166573333Y-121304047D01*
X166611428Y-121456428D01*
X166649523Y-121532619D01*
X166725714Y-121608809D01*
X166840000Y-121646904D01*
X167030476Y-121646904D01*
X168249523Y-122472500D02*
X168325714Y-122434404D01*
X168440000Y-122434404D01*
X168554285Y-122472500D01*
X168630476Y-122548690D01*
X168668571Y-122624880D01*
X168706666Y-122777261D01*
X168706666Y-122891547D01*
X168668571Y-123043928D01*
X168630476Y-123120119D01*
X168554285Y-123196309D01*
X168440000Y-123234404D01*
X168363809Y-123234404D01*
X168249523Y-123196309D01*
X168211428Y-123158214D01*
X168211428Y-122891547D01*
X168363809Y-122891547D01*
X167868571Y-123234404D02*
X167868571Y-122434404D01*
X167411428Y-123234404D01*
X167411428Y-122434404D01*
X167030476Y-123234404D02*
X167030476Y-122434404D01*
X166840000Y-122434404D01*
X166725714Y-122472500D01*
X166649523Y-122548690D01*
X166611428Y-122624880D01*
X166573333Y-122777261D01*
X166573333Y-122891547D01*
X166611428Y-123043928D01*
X166649523Y-123120119D01*
X166725714Y-123196309D01*
X166840000Y-123234404D01*
X167030476Y-123234404D01*
X193630476Y-125774404D02*
X193630476Y-124974404D01*
X193440000Y-124974404D01*
X193325714Y-125012500D01*
X193249523Y-125088690D01*
X193211428Y-125164880D01*
X193173333Y-125317261D01*
X193173333Y-125431547D01*
X193211428Y-125583928D01*
X193249523Y-125660119D01*
X193325714Y-125736309D01*
X193440000Y-125774404D01*
X193630476Y-125774404D01*
X192678095Y-124974404D02*
X192601904Y-124974404D01*
X192525714Y-125012500D01*
X192487619Y-125050595D01*
X192449523Y-125126785D01*
X192411428Y-125279166D01*
X192411428Y-125469642D01*
X192449523Y-125622023D01*
X192487619Y-125698214D01*
X192525714Y-125736309D01*
X192601904Y-125774404D01*
X192678095Y-125774404D01*
X192754285Y-125736309D01*
X192792380Y-125698214D01*
X192830476Y-125622023D01*
X192868571Y-125469642D01*
X192868571Y-125279166D01*
X192830476Y-125126785D01*
X192792380Y-125050595D01*
X192754285Y-125012500D01*
X192678095Y-124974404D01*
X196170476Y-125774404D02*
X196170476Y-124974404D01*
X195980000Y-124974404D01*
X195865714Y-125012500D01*
X195789523Y-125088690D01*
X195751428Y-125164880D01*
X195713333Y-125317261D01*
X195713333Y-125431547D01*
X195751428Y-125583928D01*
X195789523Y-125660119D01*
X195865714Y-125736309D01*
X195980000Y-125774404D01*
X196170476Y-125774404D01*
X194951428Y-125774404D02*
X195408571Y-125774404D01*
X195180000Y-125774404D02*
X195180000Y-124974404D01*
X195256190Y-125088690D01*
X195332380Y-125164880D01*
X195408571Y-125202976D01*
X198710476Y-125774404D02*
X198710476Y-124974404D01*
X198520000Y-124974404D01*
X198405714Y-125012500D01*
X198329523Y-125088690D01*
X198291428Y-125164880D01*
X198253333Y-125317261D01*
X198253333Y-125431547D01*
X198291428Y-125583928D01*
X198329523Y-125660119D01*
X198405714Y-125736309D01*
X198520000Y-125774404D01*
X198710476Y-125774404D01*
X197948571Y-125050595D02*
X197910476Y-125012500D01*
X197834285Y-124974404D01*
X197643809Y-124974404D01*
X197567619Y-125012500D01*
X197529523Y-125050595D01*
X197491428Y-125126785D01*
X197491428Y-125202976D01*
X197529523Y-125317261D01*
X197986666Y-125774404D01*
X197491428Y-125774404D01*
X201250476Y-125774404D02*
X201250476Y-124974404D01*
X201060000Y-124974404D01*
X200945714Y-125012500D01*
X200869523Y-125088690D01*
X200831428Y-125164880D01*
X200793333Y-125317261D01*
X200793333Y-125431547D01*
X200831428Y-125583928D01*
X200869523Y-125660119D01*
X200945714Y-125736309D01*
X201060000Y-125774404D01*
X201250476Y-125774404D01*
X200526666Y-124974404D02*
X200031428Y-124974404D01*
X200298095Y-125279166D01*
X200183809Y-125279166D01*
X200107619Y-125317261D01*
X200069523Y-125355357D01*
X200031428Y-125431547D01*
X200031428Y-125622023D01*
X200069523Y-125698214D01*
X200107619Y-125736309D01*
X200183809Y-125774404D01*
X200412380Y-125774404D01*
X200488571Y-125736309D01*
X200526666Y-125698214D01*
X203790476Y-125774404D02*
X203790476Y-124974404D01*
X203600000Y-124974404D01*
X203485714Y-125012500D01*
X203409523Y-125088690D01*
X203371428Y-125164880D01*
X203333333Y-125317261D01*
X203333333Y-125431547D01*
X203371428Y-125583928D01*
X203409523Y-125660119D01*
X203485714Y-125736309D01*
X203600000Y-125774404D01*
X203790476Y-125774404D01*
X202647619Y-125241071D02*
X202647619Y-125774404D01*
X202838095Y-124936309D02*
X203028571Y-125507738D01*
X202533333Y-125507738D01*
X206330476Y-125774404D02*
X206330476Y-124974404D01*
X206140000Y-124974404D01*
X206025714Y-125012500D01*
X205949523Y-125088690D01*
X205911428Y-125164880D01*
X205873333Y-125317261D01*
X205873333Y-125431547D01*
X205911428Y-125583928D01*
X205949523Y-125660119D01*
X206025714Y-125736309D01*
X206140000Y-125774404D01*
X206330476Y-125774404D01*
X205149523Y-124974404D02*
X205530476Y-124974404D01*
X205568571Y-125355357D01*
X205530476Y-125317261D01*
X205454285Y-125279166D01*
X205263809Y-125279166D01*
X205187619Y-125317261D01*
X205149523Y-125355357D01*
X205111428Y-125431547D01*
X205111428Y-125622023D01*
X205149523Y-125698214D01*
X205187619Y-125736309D01*
X205263809Y-125774404D01*
X205454285Y-125774404D01*
X205530476Y-125736309D01*
X205568571Y-125698214D01*
X208870476Y-125774404D02*
X208870476Y-124974404D01*
X208680000Y-124974404D01*
X208565714Y-125012500D01*
X208489523Y-125088690D01*
X208451428Y-125164880D01*
X208413333Y-125317261D01*
X208413333Y-125431547D01*
X208451428Y-125583928D01*
X208489523Y-125660119D01*
X208565714Y-125736309D01*
X208680000Y-125774404D01*
X208870476Y-125774404D01*
X207727619Y-124974404D02*
X207880000Y-124974404D01*
X207956190Y-125012500D01*
X207994285Y-125050595D01*
X208070476Y-125164880D01*
X208108571Y-125317261D01*
X208108571Y-125622023D01*
X208070476Y-125698214D01*
X208032380Y-125736309D01*
X207956190Y-125774404D01*
X207803809Y-125774404D01*
X207727619Y-125736309D01*
X207689523Y-125698214D01*
X207651428Y-125622023D01*
X207651428Y-125431547D01*
X207689523Y-125355357D01*
X207727619Y-125317261D01*
X207803809Y-125279166D01*
X207956190Y-125279166D01*
X208032380Y-125317261D01*
X208070476Y-125355357D01*
X208108571Y-125431547D01*
X211410476Y-125774404D02*
X211410476Y-124974404D01*
X211220000Y-124974404D01*
X211105714Y-125012500D01*
X211029523Y-125088690D01*
X210991428Y-125164880D01*
X210953333Y-125317261D01*
X210953333Y-125431547D01*
X210991428Y-125583928D01*
X211029523Y-125660119D01*
X211105714Y-125736309D01*
X211220000Y-125774404D01*
X211410476Y-125774404D01*
X210686666Y-124974404D02*
X210153333Y-124974404D01*
X210496190Y-125774404D01*
X165671428Y-125545833D02*
X165290476Y-125545833D01*
X165747619Y-125774404D02*
X165480952Y-124974404D01*
X165214285Y-125774404D01*
X164795238Y-124974404D02*
X164719047Y-124974404D01*
X164642857Y-125012500D01*
X164604761Y-125050595D01*
X164566666Y-125126785D01*
X164528571Y-125279166D01*
X164528571Y-125469642D01*
X164566666Y-125622023D01*
X164604761Y-125698214D01*
X164642857Y-125736309D01*
X164719047Y-125774404D01*
X164795238Y-125774404D01*
X164871428Y-125736309D01*
X164909523Y-125698214D01*
X164947619Y-125622023D01*
X164985714Y-125469642D01*
X164985714Y-125279166D01*
X164947619Y-125126785D01*
X164909523Y-125050595D01*
X164871428Y-125012500D01*
X164795238Y-124974404D01*
X163131428Y-125545833D02*
X162750476Y-125545833D01*
X163207619Y-125774404D02*
X162940952Y-124974404D01*
X162674285Y-125774404D01*
X161988571Y-125774404D02*
X162445714Y-125774404D01*
X162217142Y-125774404D02*
X162217142Y-124974404D01*
X162293333Y-125088690D01*
X162369523Y-125164880D01*
X162445714Y-125202976D01*
X160591428Y-125545833D02*
X160210476Y-125545833D01*
X160667619Y-125774404D02*
X160400952Y-124974404D01*
X160134285Y-125774404D01*
X159905714Y-125050595D02*
X159867619Y-125012500D01*
X159791428Y-124974404D01*
X159600952Y-124974404D01*
X159524761Y-125012500D01*
X159486666Y-125050595D01*
X159448571Y-125126785D01*
X159448571Y-125202976D01*
X159486666Y-125317261D01*
X159943809Y-125774404D01*
X159448571Y-125774404D01*
X158051428Y-125545833D02*
X157670476Y-125545833D01*
X158127619Y-125774404D02*
X157860952Y-124974404D01*
X157594285Y-125774404D01*
X157403809Y-124974404D02*
X156908571Y-124974404D01*
X157175238Y-125279166D01*
X157060952Y-125279166D01*
X156984761Y-125317261D01*
X156946666Y-125355357D01*
X156908571Y-125431547D01*
X156908571Y-125622023D01*
X156946666Y-125698214D01*
X156984761Y-125736309D01*
X157060952Y-125774404D01*
X157289523Y-125774404D01*
X157365714Y-125736309D01*
X157403809Y-125698214D01*
X155511428Y-125545833D02*
X155130476Y-125545833D01*
X155587619Y-125774404D02*
X155320952Y-124974404D01*
X155054285Y-125774404D01*
X154444761Y-125241071D02*
X154444761Y-125774404D01*
X154635238Y-124936309D02*
X154825714Y-125507738D01*
X154330476Y-125507738D01*
X152971428Y-125545833D02*
X152590476Y-125545833D01*
X153047619Y-125774404D02*
X152780952Y-124974404D01*
X152514285Y-125774404D01*
X151866666Y-124974404D02*
X152247619Y-124974404D01*
X152285714Y-125355357D01*
X152247619Y-125317261D01*
X152171428Y-125279166D01*
X151980952Y-125279166D01*
X151904761Y-125317261D01*
X151866666Y-125355357D01*
X151828571Y-125431547D01*
X151828571Y-125622023D01*
X151866666Y-125698214D01*
X151904761Y-125736309D01*
X151980952Y-125774404D01*
X152171428Y-125774404D01*
X152247619Y-125736309D01*
X152285714Y-125698214D01*
X150431428Y-125545833D02*
X150050476Y-125545833D01*
X150507619Y-125774404D02*
X150240952Y-124974404D01*
X149974285Y-125774404D01*
X149364761Y-124974404D02*
X149517142Y-124974404D01*
X149593333Y-125012500D01*
X149631428Y-125050595D01*
X149707619Y-125164880D01*
X149745714Y-125317261D01*
X149745714Y-125622023D01*
X149707619Y-125698214D01*
X149669523Y-125736309D01*
X149593333Y-125774404D01*
X149440952Y-125774404D01*
X149364761Y-125736309D01*
X149326666Y-125698214D01*
X149288571Y-125622023D01*
X149288571Y-125431547D01*
X149326666Y-125355357D01*
X149364761Y-125317261D01*
X149440952Y-125279166D01*
X149593333Y-125279166D01*
X149669523Y-125317261D01*
X149707619Y-125355357D01*
X149745714Y-125431547D01*
X147891428Y-125545833D02*
X147510476Y-125545833D01*
X147967619Y-125774404D02*
X147700952Y-124974404D01*
X147434285Y-125774404D01*
X147243809Y-124974404D02*
X146710476Y-124974404D01*
X147053333Y-125774404D01*
X145351428Y-125545833D02*
X144970476Y-125545833D01*
X145427619Y-125774404D02*
X145160952Y-124974404D01*
X144894285Y-125774404D01*
X144513333Y-125317261D02*
X144589523Y-125279166D01*
X144627619Y-125241071D01*
X144665714Y-125164880D01*
X144665714Y-125126785D01*
X144627619Y-125050595D01*
X144589523Y-125012500D01*
X144513333Y-124974404D01*
X144360952Y-124974404D01*
X144284761Y-125012500D01*
X144246666Y-125050595D01*
X144208571Y-125126785D01*
X144208571Y-125164880D01*
X144246666Y-125241071D01*
X144284761Y-125279166D01*
X144360952Y-125317261D01*
X144513333Y-125317261D01*
X144589523Y-125355357D01*
X144627619Y-125393452D01*
X144665714Y-125469642D01*
X144665714Y-125622023D01*
X144627619Y-125698214D01*
X144589523Y-125736309D01*
X144513333Y-125774404D01*
X144360952Y-125774404D01*
X144284761Y-125736309D01*
X144246666Y-125698214D01*
X144208571Y-125622023D01*
X144208571Y-125469642D01*
X144246666Y-125393452D01*
X144284761Y-125355357D01*
X144360952Y-125317261D01*
X142811428Y-125545833D02*
X142430476Y-125545833D01*
X142887619Y-125774404D02*
X142620952Y-124974404D01*
X142354285Y-125774404D01*
X142049523Y-125774404D02*
X141897142Y-125774404D01*
X141820952Y-125736309D01*
X141782857Y-125698214D01*
X141706666Y-125583928D01*
X141668571Y-125431547D01*
X141668571Y-125126785D01*
X141706666Y-125050595D01*
X141744761Y-125012500D01*
X141820952Y-124974404D01*
X141973333Y-124974404D01*
X142049523Y-125012500D01*
X142087619Y-125050595D01*
X142125714Y-125126785D01*
X142125714Y-125317261D01*
X142087619Y-125393452D01*
X142049523Y-125431547D01*
X141973333Y-125469642D01*
X141820952Y-125469642D01*
X141744761Y-125431547D01*
X141706666Y-125393452D01*
X141668571Y-125317261D01*
X140652380Y-125545833D02*
X140271428Y-125545833D01*
X140728571Y-125774404D02*
X140461904Y-124974404D01*
X140195238Y-125774404D01*
X139509523Y-125774404D02*
X139966666Y-125774404D01*
X139738095Y-125774404D02*
X139738095Y-124974404D01*
X139814285Y-125088690D01*
X139890476Y-125164880D01*
X139966666Y-125202976D01*
X139014285Y-124974404D02*
X138938095Y-124974404D01*
X138861904Y-125012500D01*
X138823809Y-125050595D01*
X138785714Y-125126785D01*
X138747619Y-125279166D01*
X138747619Y-125469642D01*
X138785714Y-125622023D01*
X138823809Y-125698214D01*
X138861904Y-125736309D01*
X138938095Y-125774404D01*
X139014285Y-125774404D01*
X139090476Y-125736309D01*
X139128571Y-125698214D01*
X139166666Y-125622023D01*
X139204761Y-125469642D01*
X139204761Y-125279166D01*
X139166666Y-125126785D01*
X139128571Y-125050595D01*
X139090476Y-125012500D01*
X139014285Y-124974404D01*
X138112380Y-125545833D02*
X137731428Y-125545833D01*
X138188571Y-125774404D02*
X137921904Y-124974404D01*
X137655238Y-125774404D01*
X136969523Y-125774404D02*
X137426666Y-125774404D01*
X137198095Y-125774404D02*
X137198095Y-124974404D01*
X137274285Y-125088690D01*
X137350476Y-125164880D01*
X137426666Y-125202976D01*
X136207619Y-125774404D02*
X136664761Y-125774404D01*
X136436190Y-125774404D02*
X136436190Y-124974404D01*
X136512380Y-125088690D01*
X136588571Y-125164880D01*
X136664761Y-125202976D01*
X135572380Y-125545833D02*
X135191428Y-125545833D01*
X135648571Y-125774404D02*
X135381904Y-124974404D01*
X135115238Y-125774404D01*
X134429523Y-125774404D02*
X134886666Y-125774404D01*
X134658095Y-125774404D02*
X134658095Y-124974404D01*
X134734285Y-125088690D01*
X134810476Y-125164880D01*
X134886666Y-125202976D01*
X134124761Y-125050595D02*
X134086666Y-125012500D01*
X134010476Y-124974404D01*
X133820000Y-124974404D01*
X133743809Y-125012500D01*
X133705714Y-125050595D01*
X133667619Y-125126785D01*
X133667619Y-125202976D01*
X133705714Y-125317261D01*
X134162857Y-125774404D01*
X133667619Y-125774404D01*
X133032380Y-125545833D02*
X132651428Y-125545833D01*
X133108571Y-125774404D02*
X132841904Y-124974404D01*
X132575238Y-125774404D01*
X131889523Y-125774404D02*
X132346666Y-125774404D01*
X132118095Y-125774404D02*
X132118095Y-124974404D01*
X132194285Y-125088690D01*
X132270476Y-125164880D01*
X132346666Y-125202976D01*
X131622857Y-124974404D02*
X131127619Y-124974404D01*
X131394285Y-125279166D01*
X131280000Y-125279166D01*
X131203809Y-125317261D01*
X131165714Y-125355357D01*
X131127619Y-125431547D01*
X131127619Y-125622023D01*
X131165714Y-125698214D01*
X131203809Y-125736309D01*
X131280000Y-125774404D01*
X131508571Y-125774404D01*
X131584761Y-125736309D01*
X131622857Y-125698214D01*
X130492380Y-125545833D02*
X130111428Y-125545833D01*
X130568571Y-125774404D02*
X130301904Y-124974404D01*
X130035238Y-125774404D01*
X129349523Y-125774404D02*
X129806666Y-125774404D01*
X129578095Y-125774404D02*
X129578095Y-124974404D01*
X129654285Y-125088690D01*
X129730476Y-125164880D01*
X129806666Y-125202976D01*
X128663809Y-125241071D02*
X128663809Y-125774404D01*
X128854285Y-124936309D02*
X129044761Y-125507738D01*
X128549523Y-125507738D01*
X127952380Y-125545833D02*
X127571428Y-125545833D01*
X128028571Y-125774404D02*
X127761904Y-124974404D01*
X127495238Y-125774404D01*
X126809523Y-125774404D02*
X127266666Y-125774404D01*
X127038095Y-125774404D02*
X127038095Y-124974404D01*
X127114285Y-125088690D01*
X127190476Y-125164880D01*
X127266666Y-125202976D01*
X126085714Y-124974404D02*
X126466666Y-124974404D01*
X126504761Y-125355357D01*
X126466666Y-125317261D01*
X126390476Y-125279166D01*
X126200000Y-125279166D01*
X126123809Y-125317261D01*
X126085714Y-125355357D01*
X126047619Y-125431547D01*
X126047619Y-125622023D01*
X126085714Y-125698214D01*
X126123809Y-125736309D01*
X126200000Y-125774404D01*
X126390476Y-125774404D01*
X126466666Y-125736309D01*
X126504761Y-125698214D01*
D12*
X151908211Y-114525370D02*
G75*
G03X156410000Y-117372000I8111789J7845370D01*
G01*
X168131789Y-98834630D02*
G75*
G03X163630000Y-95988000I-8111789J-7845370D01*
G01*
X151908211Y-98834630D02*
G75*
G02X156410000Y-95988000I8111789J-7845370D01*
G01*
X168131789Y-114525370D02*
G75*
G02X163630000Y-117372000I-8111789J7845370D01*
G01*
X158120000Y-120990000D02*
X156410000Y-120990000D01*
X156410000Y-117372000D02*
X156410000Y-120990000D01*
X151910000Y-110540000D02*
X151910000Y-114527300D01*
X154110000Y-108340000D02*
X151910000Y-110540000D01*
X154110000Y-105020000D02*
X154110000Y-108340000D01*
X154110000Y-105020000D02*
X151910000Y-102820000D01*
X151910000Y-98832700D02*
X151910000Y-102820000D01*
X158120000Y-92370000D02*
X156410000Y-92370000D01*
X156410000Y-92370000D02*
X156410000Y-95988000D01*
X163630000Y-95988000D02*
X163630000Y-92370000D01*
X161920000Y-92370000D02*
X163630000Y-92370000D01*
X168130000Y-114527300D02*
X168130000Y-98832700D01*
X161920000Y-120990000D02*
X163630000Y-120990000D01*
X163630000Y-120990000D02*
X163630000Y-117372000D01*
X203660000Y-114740000D02*
X196725000Y-114740000D01*
X196725000Y-114740000D02*
X196725000Y-111320000D01*
X196725000Y-111320000D02*
X203660000Y-111320000D01*
X172210000Y-109048733D02*
X172210000Y-109391267D01*
X173230000Y-109048733D02*
X173230000Y-109391267D01*
X193550000Y-104311267D02*
X193550000Y-103968733D01*
X192530000Y-104311267D02*
X192530000Y-103968733D01*
X178945000Y-90316233D02*
X178945000Y-90658767D01*
X177925000Y-90316233D02*
X177925000Y-90658767D01*
X128780000Y-122091267D02*
X128780000Y-121748733D01*
X127760000Y-122091267D02*
X127760000Y-121748733D01*
X136400000Y-121748733D02*
X136400000Y-122091267D01*
X135380000Y-121748733D02*
X135380000Y-122091267D01*
X132280000Y-124020000D02*
X131880000Y-124020000D01*
X133680000Y-122920000D02*
X133680000Y-120020000D01*
X133680000Y-120020000D02*
X133080000Y-120020000D01*
X130480000Y-122920000D02*
X130480000Y-120020000D01*
X130480000Y-120020000D02*
X131080000Y-120020000D01*
X133880000Y-123820000D02*
X133880000Y-124520000D01*
X133880000Y-124520000D02*
X133180000Y-124520000D01*
D11*
X142305000Y-106435000D02*
X142305000Y-106710000D01*
X134555000Y-106435000D02*
X134555000Y-106790000D01*
X134555000Y-117085000D02*
X134555000Y-116730000D01*
X142305000Y-117085000D02*
X142305000Y-116730000D01*
X142305000Y-106435000D02*
X134555000Y-106435000D01*
X142305000Y-117085000D02*
X134555000Y-117085000D01*
X142305000Y-106710000D02*
X143830000Y-106710000D01*
D12*
X147512500Y-112858733D02*
X147512500Y-113201267D01*
X146492500Y-112858733D02*
X146492500Y-113201267D01*
X142068733Y-91950000D02*
X142411267Y-91950000D01*
X142068733Y-90930000D02*
X142411267Y-90930000D01*
X147148733Y-91950000D02*
X147491267Y-91950000D01*
X147148733Y-90930000D02*
X147491267Y-90930000D01*
X142411267Y-86870000D02*
X142068733Y-86870000D01*
X142411267Y-85850000D02*
X142068733Y-85850000D01*
X147491267Y-85850000D02*
X147148733Y-85850000D01*
X147491267Y-86870000D02*
X147148733Y-86870000D01*
X176335000Y-86235000D02*
X176335000Y-93170000D01*
X172915000Y-86235000D02*
X176335000Y-86235000D01*
X172915000Y-93170000D02*
X172915000Y-86235000D01*
X171007500Y-95078733D02*
X171007500Y-95421267D01*
X169987500Y-95078733D02*
X169987500Y-95421267D01*
X164660000Y-93170000D02*
X164660000Y-86235000D01*
X164660000Y-86235000D02*
X168080000Y-86235000D01*
X168080000Y-86235000D02*
X168080000Y-93170000D01*
X175560000Y-103650000D02*
G75*
G03X176260000Y-102950000I0J700000D01*
G01*
X174260000Y-102950000D02*
G75*
G03X174960000Y-103650000I700000J0D01*
G01*
X174960000Y-99550000D02*
G75*
G03X174260000Y-100250000I0J-700000D01*
G01*
X176260000Y-100250000D02*
G75*
G03X175560000Y-99550000I-700000J0D01*
G01*
X176260000Y-103000000D02*
X176260000Y-100200000D01*
X175560000Y-99550000D02*
X174960000Y-99550000D01*
X174260000Y-100200000D02*
X174260000Y-103000000D01*
X174960000Y-103650000D02*
X175560000Y-103650000D01*
X172420000Y-103650000D02*
X173020000Y-103650000D01*
X171720000Y-100200000D02*
X171720000Y-103000000D01*
X173020000Y-99550000D02*
X172420000Y-99550000D01*
X173720000Y-103000000D02*
X173720000Y-100200000D01*
X173720000Y-100250000D02*
G75*
G03X173020000Y-99550000I-700000J0D01*
G01*
X172420000Y-99550000D02*
G75*
G03X171720000Y-100250000I0J-700000D01*
G01*
X171720000Y-102950000D02*
G75*
G03X172420000Y-103650000I700000J0D01*
G01*
X173020000Y-103650000D02*
G75*
G03X173720000Y-102950000I0J700000D01*
G01*
X169797500Y-85360000D02*
G75*
G03X169097500Y-86060000I0J-700000D01*
G01*
X169097500Y-86660000D02*
G75*
G03X169797500Y-87360000I700000J0D01*
G01*
X171197500Y-87360000D02*
G75*
G03X171897500Y-86660000I0J700000D01*
G01*
X171897500Y-86060000D02*
G75*
G03X171197500Y-85360000I-700000J0D01*
G01*
X171897500Y-86660000D02*
X171897500Y-86060000D01*
X169797500Y-87360000D02*
X171197500Y-87360000D01*
X169097500Y-86060000D02*
X169097500Y-86660000D01*
X171197500Y-85360000D02*
X169797500Y-85360000D01*
X172107500Y-89270000D02*
X172107500Y-91070000D01*
X168887500Y-91070000D02*
X168887500Y-88620000D01*
X129175000Y-111060000D02*
X129175000Y-112460000D01*
X129875000Y-113160000D02*
X130475000Y-113160000D01*
X131175000Y-112460000D02*
X131175000Y-111060000D01*
X130475000Y-110360000D02*
X129875000Y-110360000D01*
X129875000Y-110360000D02*
G75*
G03X129175000Y-111060000I0J-700000D01*
G01*
X131175000Y-111060000D02*
G75*
G03X130475000Y-110360000I-700000J0D01*
G01*
X130475000Y-113160000D02*
G75*
G03X131175000Y-112460000I0J700000D01*
G01*
X129175000Y-112460000D02*
G75*
G03X129875000Y-113160000I700000J0D01*
G01*
X148002500Y-108520000D02*
G75*
G03X147302500Y-107820000I-700000J0D01*
G01*
X146702500Y-107820000D02*
G75*
G03X146002500Y-108520000I0J-700000D01*
G01*
X146002500Y-109920000D02*
G75*
G03X146702500Y-110620000I700000J0D01*
G01*
X147302500Y-110620000D02*
G75*
G03X148002500Y-109920000I0J700000D01*
G01*
X146702500Y-110620000D02*
X147302500Y-110620000D01*
X146002500Y-108520000D02*
X146002500Y-109920000D01*
X147302500Y-107820000D02*
X146702500Y-107820000D01*
X148002500Y-109920000D02*
X148002500Y-108520000D01*
X155450000Y-87458733D02*
X155450000Y-87801267D01*
X154430000Y-87458733D02*
X154430000Y-87801267D01*
X157990000Y-87801267D02*
X157990000Y-87458733D01*
X156970000Y-87801267D02*
X156970000Y-87458733D01*
X159510000Y-87801267D02*
X159510000Y-87458733D01*
X160530000Y-87801267D02*
X160530000Y-87458733D01*
X163070000Y-87801267D02*
X163070000Y-87458733D01*
X162050000Y-87801267D02*
X162050000Y-87458733D01*
D11*
X153612857Y-121291428D02*
X153650952Y-121405714D01*
X153689047Y-121443809D01*
X153765238Y-121481904D01*
X153879523Y-121481904D01*
X153955714Y-121443809D01*
X153993809Y-121405714D01*
X154031904Y-121329523D01*
X154031904Y-121024761D01*
X153231904Y-121024761D01*
X153231904Y-121291428D01*
X153270000Y-121367619D01*
X153308095Y-121405714D01*
X153384285Y-121443809D01*
X153460476Y-121443809D01*
X153536666Y-121405714D01*
X153574761Y-121367619D01*
X153612857Y-121291428D01*
X153612857Y-121024761D01*
X153231904Y-121710476D02*
X153231904Y-122167619D01*
X154031904Y-121939047D02*
X153231904Y-121939047D01*
X154031904Y-122853333D02*
X154031904Y-122396190D01*
X154031904Y-122624761D02*
X153231904Y-122624761D01*
X153346190Y-122548571D01*
X153422380Y-122472380D01*
X153460476Y-122396190D01*
X155225714Y-120170907D02*
X155263809Y-120128050D01*
X155301904Y-120009002D01*
X155301904Y-119932812D01*
X155263809Y-119823288D01*
X155187619Y-119756622D01*
X155111428Y-119728050D01*
X154959047Y-119709002D01*
X154844761Y-119723288D01*
X154692380Y-119780431D01*
X154616190Y-119828050D01*
X154540000Y-119913764D01*
X154501904Y-120032812D01*
X154501904Y-120109002D01*
X154540000Y-120218526D01*
X154578095Y-120251860D01*
X155301904Y-120961383D02*
X154920952Y-120742336D01*
X155301904Y-120504241D02*
X154501904Y-120604241D01*
X154501904Y-120909002D01*
X154540000Y-120980431D01*
X154578095Y-121013764D01*
X154654285Y-121042336D01*
X154768571Y-121028050D01*
X154844761Y-120980431D01*
X154882857Y-120937574D01*
X154920952Y-120856622D01*
X154920952Y-120551860D01*
X154578095Y-121356622D02*
X154540000Y-121399479D01*
X154501904Y-121480431D01*
X154501904Y-121670907D01*
X154540000Y-121742336D01*
X154578095Y-121775669D01*
X154654285Y-121804241D01*
X154730476Y-121794717D01*
X154844761Y-121742336D01*
X155301904Y-121228050D01*
X155301904Y-121723288D01*
X154501904Y-122318526D02*
X154501904Y-122394717D01*
X154540000Y-122466145D01*
X154578095Y-122499479D01*
X154654285Y-122528050D01*
X154806666Y-122547098D01*
X154997142Y-122523288D01*
X155149523Y-122466145D01*
X155225714Y-122418526D01*
X155263809Y-122375669D01*
X155301904Y-122294717D01*
X155301904Y-122218526D01*
X155263809Y-122147098D01*
X155225714Y-122113764D01*
X155149523Y-122085193D01*
X154997142Y-122066145D01*
X154806666Y-122089955D01*
X154654285Y-122147098D01*
X154578095Y-122194717D01*
X154540000Y-122237574D01*
X154501904Y-122318526D01*
X154501904Y-122851860D02*
X154501904Y-123347098D01*
X154806666Y-123042336D01*
X154806666Y-123156622D01*
X154844761Y-123228050D01*
X154882857Y-123261383D01*
X154959047Y-123289955D01*
X155149523Y-123266145D01*
X155225714Y-123218526D01*
X155263809Y-123175669D01*
X155301904Y-123094717D01*
X155301904Y-122866145D01*
X155263809Y-122794717D01*
X155225714Y-122761383D01*
X154578095Y-123642336D02*
X154540000Y-123685193D01*
X154501904Y-123766145D01*
X154501904Y-123956622D01*
X154540000Y-124028050D01*
X154578095Y-124061383D01*
X154654285Y-124089955D01*
X154730476Y-124080431D01*
X154844761Y-124028050D01*
X155301904Y-123513764D01*
X155301904Y-124009002D01*
X203079285Y-110775714D02*
X203117380Y-110813809D01*
X203231666Y-110851904D01*
X203307857Y-110851904D01*
X203422142Y-110813809D01*
X203498333Y-110737619D01*
X203536428Y-110661428D01*
X203574523Y-110509047D01*
X203574523Y-110394761D01*
X203536428Y-110242380D01*
X203498333Y-110166190D01*
X203422142Y-110090000D01*
X203307857Y-110051904D01*
X203231666Y-110051904D01*
X203117380Y-110090000D01*
X203079285Y-110128095D01*
X202774523Y-110128095D02*
X202736428Y-110090000D01*
X202660238Y-110051904D01*
X202469761Y-110051904D01*
X202393571Y-110090000D01*
X202355476Y-110128095D01*
X202317380Y-110204285D01*
X202317380Y-110280476D01*
X202355476Y-110394761D01*
X202812619Y-110851904D01*
X202317380Y-110851904D01*
X201555476Y-110851904D02*
X202012619Y-110851904D01*
X201784047Y-110851904D02*
X201784047Y-110051904D01*
X201860238Y-110166190D01*
X201936428Y-110242380D01*
X202012619Y-110280476D01*
X200021592Y-110318571D02*
X200088258Y-110851904D01*
X200173973Y-110013809D02*
X200435877Y-110585238D01*
X199940639Y-110585238D01*
X199645401Y-110051904D02*
X199112068Y-110051904D01*
X199554925Y-110851904D01*
X198497782Y-110318571D02*
X198564449Y-110851904D01*
X198840639Y-110318571D02*
X198893020Y-110737619D01*
X198864449Y-110813809D01*
X198793020Y-110851904D01*
X198678735Y-110851904D01*
X198597782Y-110813809D01*
X198554925Y-110775714D01*
X197864449Y-110432857D02*
X198131116Y-110432857D01*
X198183497Y-110851904D02*
X198083497Y-110051904D01*
X197702544Y-110051904D01*
X171575714Y-109086666D02*
X171613809Y-109048571D01*
X171651904Y-108934285D01*
X171651904Y-108858095D01*
X171613809Y-108743809D01*
X171537619Y-108667619D01*
X171461428Y-108629523D01*
X171309047Y-108591428D01*
X171194761Y-108591428D01*
X171042380Y-108629523D01*
X170966190Y-108667619D01*
X170890000Y-108743809D01*
X170851904Y-108858095D01*
X170851904Y-108934285D01*
X170890000Y-109048571D01*
X170928095Y-109086666D01*
X171651904Y-109848571D02*
X171651904Y-109391428D01*
X171651904Y-109620000D02*
X170851904Y-109620000D01*
X170966190Y-109543809D01*
X171042380Y-109467619D01*
X171080476Y-109391428D01*
X174511904Y-107899479D02*
X174511904Y-107442336D01*
X174511904Y-107670907D02*
X173711904Y-107770907D01*
X173826190Y-107680431D01*
X173902380Y-107594717D01*
X173940476Y-107513764D01*
X173711904Y-108494717D02*
X173711904Y-108570907D01*
X173750000Y-108642336D01*
X173788095Y-108675669D01*
X173864285Y-108704241D01*
X174016666Y-108723288D01*
X174207142Y-108699479D01*
X174359523Y-108642336D01*
X174435714Y-108594717D01*
X174473809Y-108551860D01*
X174511904Y-108470907D01*
X174511904Y-108394717D01*
X174473809Y-108323288D01*
X174435714Y-108289955D01*
X174359523Y-108261383D01*
X174207142Y-108242336D01*
X174016666Y-108266145D01*
X173864285Y-108323288D01*
X173788095Y-108370907D01*
X173750000Y-108413764D01*
X173711904Y-108494717D01*
X173711904Y-109256622D02*
X173711904Y-109332812D01*
X173750000Y-109404241D01*
X173788095Y-109437574D01*
X173864285Y-109466145D01*
X174016666Y-109485193D01*
X174207142Y-109461383D01*
X174359523Y-109404241D01*
X174435714Y-109356622D01*
X174473809Y-109313764D01*
X174511904Y-109232812D01*
X174511904Y-109156622D01*
X174473809Y-109085193D01*
X174435714Y-109051860D01*
X174359523Y-109023288D01*
X174207142Y-109004241D01*
X174016666Y-109028050D01*
X173864285Y-109085193D01*
X173788095Y-109132812D01*
X173750000Y-109175669D01*
X173711904Y-109256622D01*
X173978571Y-109832812D02*
X174511904Y-109766145D01*
X174054761Y-109823288D02*
X174016666Y-109866145D01*
X173978571Y-109947098D01*
X173978571Y-110061383D01*
X174016666Y-110132812D01*
X174092857Y-110161383D01*
X174511904Y-110109002D01*
X174092857Y-110809002D02*
X174092857Y-110542336D01*
X174511904Y-110489955D02*
X173711904Y-110589955D01*
X173711904Y-110970907D01*
X194595714Y-101784166D02*
X194633809Y-101746071D01*
X194671904Y-101631785D01*
X194671904Y-101555595D01*
X194633809Y-101441309D01*
X194557619Y-101365119D01*
X194481428Y-101327023D01*
X194329047Y-101288928D01*
X194214761Y-101288928D01*
X194062380Y-101327023D01*
X193986190Y-101365119D01*
X193910000Y-101441309D01*
X193871904Y-101555595D01*
X193871904Y-101631785D01*
X193910000Y-101746071D01*
X193948095Y-101784166D01*
X193871904Y-102050833D02*
X193871904Y-102584166D01*
X194671904Y-102241309D01*
X194671904Y-103771979D02*
X194671904Y-103314836D01*
X194671904Y-103543407D02*
X193871904Y-103643407D01*
X193986190Y-103552931D01*
X194062380Y-103467217D01*
X194100476Y-103386264D01*
X193871904Y-104367217D02*
X193871904Y-104443407D01*
X193910000Y-104514836D01*
X193948095Y-104548169D01*
X194024285Y-104576741D01*
X194176666Y-104595788D01*
X194367142Y-104571979D01*
X194519523Y-104514836D01*
X194595714Y-104467217D01*
X194633809Y-104424360D01*
X194671904Y-104343407D01*
X194671904Y-104267217D01*
X194633809Y-104195788D01*
X194595714Y-104162455D01*
X194519523Y-104133883D01*
X194367142Y-104114836D01*
X194176666Y-104138645D01*
X194024285Y-104195788D01*
X193948095Y-104243407D01*
X193910000Y-104286264D01*
X193871904Y-104367217D01*
X193871904Y-105129122D02*
X193871904Y-105205312D01*
X193910000Y-105276741D01*
X193948095Y-105310074D01*
X194024285Y-105338645D01*
X194176666Y-105357693D01*
X194367142Y-105333883D01*
X194519523Y-105276741D01*
X194595714Y-105229122D01*
X194633809Y-105186264D01*
X194671904Y-105105312D01*
X194671904Y-105029122D01*
X194633809Y-104957693D01*
X194595714Y-104924360D01*
X194519523Y-104895788D01*
X194367142Y-104876741D01*
X194176666Y-104900550D01*
X194024285Y-104957693D01*
X193948095Y-105005312D01*
X193910000Y-105048169D01*
X193871904Y-105129122D01*
X194138571Y-105705312D02*
X194671904Y-105638645D01*
X194214761Y-105695788D02*
X194176666Y-105738645D01*
X194138571Y-105819598D01*
X194138571Y-105933883D01*
X194176666Y-106005312D01*
X194252857Y-106033883D01*
X194671904Y-105981502D01*
X194252857Y-106681502D02*
X194252857Y-106414836D01*
X194671904Y-106362455D02*
X193871904Y-106462455D01*
X193871904Y-106843407D01*
X179990714Y-87814166D02*
X180028809Y-87776071D01*
X180066904Y-87661785D01*
X180066904Y-87585595D01*
X180028809Y-87471309D01*
X179952619Y-87395119D01*
X179876428Y-87357023D01*
X179724047Y-87318928D01*
X179609761Y-87318928D01*
X179457380Y-87357023D01*
X179381190Y-87395119D01*
X179305000Y-87471309D01*
X179266904Y-87585595D01*
X179266904Y-87661785D01*
X179305000Y-87776071D01*
X179343095Y-87814166D01*
X179609761Y-88271309D02*
X179571666Y-88195119D01*
X179533571Y-88157023D01*
X179457380Y-88118928D01*
X179419285Y-88118928D01*
X179343095Y-88157023D01*
X179305000Y-88195119D01*
X179266904Y-88271309D01*
X179266904Y-88423690D01*
X179305000Y-88499880D01*
X179343095Y-88537976D01*
X179419285Y-88576071D01*
X179457380Y-88576071D01*
X179533571Y-88537976D01*
X179571666Y-88499880D01*
X179609761Y-88423690D01*
X179609761Y-88271309D01*
X179647857Y-88195119D01*
X179685952Y-88157023D01*
X179762142Y-88118928D01*
X179914523Y-88118928D01*
X179990714Y-88157023D01*
X180028809Y-88195119D01*
X180066904Y-88271309D01*
X180066904Y-88423690D01*
X180028809Y-88499880D01*
X179990714Y-88537976D01*
X179914523Y-88576071D01*
X179762142Y-88576071D01*
X179685952Y-88537976D01*
X179647857Y-88499880D01*
X179609761Y-88423690D01*
X180066904Y-90119479D02*
X180066904Y-89662336D01*
X180066904Y-89890907D02*
X179266904Y-89990907D01*
X179381190Y-89900431D01*
X179457380Y-89814717D01*
X179495476Y-89733764D01*
X179266904Y-90714717D02*
X179266904Y-90790907D01*
X179305000Y-90862336D01*
X179343095Y-90895669D01*
X179419285Y-90924241D01*
X179571666Y-90943288D01*
X179762142Y-90919479D01*
X179914523Y-90862336D01*
X179990714Y-90814717D01*
X180028809Y-90771860D01*
X180066904Y-90690907D01*
X180066904Y-90614717D01*
X180028809Y-90543288D01*
X179990714Y-90509955D01*
X179914523Y-90481383D01*
X179762142Y-90462336D01*
X179571666Y-90486145D01*
X179419285Y-90543288D01*
X179343095Y-90590907D01*
X179305000Y-90633764D01*
X179266904Y-90714717D01*
X179266904Y-91476622D02*
X179266904Y-91552812D01*
X179305000Y-91624241D01*
X179343095Y-91657574D01*
X179419285Y-91686145D01*
X179571666Y-91705193D01*
X179762142Y-91681383D01*
X179914523Y-91624241D01*
X179990714Y-91576622D01*
X180028809Y-91533764D01*
X180066904Y-91452812D01*
X180066904Y-91376622D01*
X180028809Y-91305193D01*
X179990714Y-91271860D01*
X179914523Y-91243288D01*
X179762142Y-91224241D01*
X179571666Y-91248050D01*
X179419285Y-91305193D01*
X179343095Y-91352812D01*
X179305000Y-91395669D01*
X179266904Y-91476622D01*
X179533571Y-92052812D02*
X180066904Y-91986145D01*
X179609761Y-92043288D02*
X179571666Y-92086145D01*
X179533571Y-92167098D01*
X179533571Y-92281383D01*
X179571666Y-92352812D01*
X179647857Y-92381383D01*
X180066904Y-92329002D01*
X179647857Y-93029002D02*
X179647857Y-92762336D01*
X180066904Y-92709955D02*
X179266904Y-92809955D01*
X179266904Y-93190907D01*
X127996904Y-118230714D02*
X127615952Y-117964047D01*
X127996904Y-117773571D02*
X127196904Y-117773571D01*
X127196904Y-118078333D01*
X127235000Y-118154523D01*
X127273095Y-118192619D01*
X127349285Y-118230714D01*
X127463571Y-118230714D01*
X127539761Y-118192619D01*
X127577857Y-118154523D01*
X127615952Y-118078333D01*
X127615952Y-117773571D01*
X127273095Y-118535476D02*
X127235000Y-118573571D01*
X127196904Y-118649761D01*
X127196904Y-118840238D01*
X127235000Y-118916428D01*
X127273095Y-118954523D01*
X127349285Y-118992619D01*
X127425476Y-118992619D01*
X127539761Y-118954523D01*
X127996904Y-118497380D01*
X127996904Y-118992619D01*
X127196904Y-119716428D02*
X127196904Y-119335476D01*
X127577857Y-119297380D01*
X127539761Y-119335476D01*
X127501666Y-119411666D01*
X127501666Y-119602142D01*
X127539761Y-119678333D01*
X127577857Y-119716428D01*
X127654047Y-119754523D01*
X127844523Y-119754523D01*
X127920714Y-119716428D01*
X127958809Y-119678333D01*
X127996904Y-119602142D01*
X127996904Y-119411666D01*
X127958809Y-119335476D01*
X127920714Y-119297380D01*
X129266904Y-118186383D02*
X129266904Y-117729241D01*
X129266904Y-117957812D02*
X128466904Y-118057812D01*
X128581190Y-117967336D01*
X128657380Y-117881622D01*
X128695476Y-117800669D01*
X128466904Y-118781622D02*
X128466904Y-118857812D01*
X128505000Y-118929241D01*
X128543095Y-118962574D01*
X128619285Y-118991145D01*
X128771666Y-119010193D01*
X128962142Y-118986383D01*
X129114523Y-118929241D01*
X129190714Y-118881622D01*
X129228809Y-118838764D01*
X129266904Y-118757812D01*
X129266904Y-118681622D01*
X129228809Y-118610193D01*
X129190714Y-118576860D01*
X129114523Y-118548288D01*
X128962142Y-118529241D01*
X128771666Y-118553050D01*
X128619285Y-118610193D01*
X128543095Y-118657812D01*
X128505000Y-118700669D01*
X128466904Y-118781622D01*
X129266904Y-119291145D02*
X128466904Y-119391145D01*
X128962142Y-119405431D02*
X129266904Y-119595907D01*
X128733571Y-119662574D02*
X129038333Y-119319717D01*
X138156904Y-121405714D02*
X137775952Y-121139047D01*
X138156904Y-120948571D02*
X137356904Y-120948571D01*
X137356904Y-121253333D01*
X137395000Y-121329523D01*
X137433095Y-121367619D01*
X137509285Y-121405714D01*
X137623571Y-121405714D01*
X137699761Y-121367619D01*
X137737857Y-121329523D01*
X137775952Y-121253333D01*
X137775952Y-120948571D01*
X137433095Y-121710476D02*
X137395000Y-121748571D01*
X137356904Y-121824761D01*
X137356904Y-122015238D01*
X137395000Y-122091428D01*
X137433095Y-122129523D01*
X137509285Y-122167619D01*
X137585476Y-122167619D01*
X137699761Y-122129523D01*
X138156904Y-121672380D01*
X138156904Y-122167619D01*
X137356904Y-122853333D02*
X137356904Y-122700952D01*
X137395000Y-122624761D01*
X137433095Y-122586666D01*
X137547380Y-122510476D01*
X137699761Y-122472380D01*
X138004523Y-122472380D01*
X138080714Y-122510476D01*
X138118809Y-122548571D01*
X138156904Y-122624761D01*
X138156904Y-122777142D01*
X138118809Y-122853333D01*
X138080714Y-122891428D01*
X138004523Y-122929523D01*
X137814047Y-122929523D01*
X137737857Y-122891428D01*
X137699761Y-122853333D01*
X137661666Y-122777142D01*
X137661666Y-122624761D01*
X137699761Y-122548571D01*
X137737857Y-122510476D01*
X137814047Y-122472380D01*
X138703095Y-120423288D02*
X138665000Y-120466145D01*
X138626904Y-120547098D01*
X138626904Y-120737574D01*
X138665000Y-120809002D01*
X138703095Y-120842336D01*
X138779285Y-120870907D01*
X138855476Y-120861383D01*
X138969761Y-120809002D01*
X139426904Y-120294717D01*
X139426904Y-120789955D01*
X139426904Y-121170907D02*
X139426904Y-121323288D01*
X139388809Y-121404241D01*
X139350714Y-121447098D01*
X139236428Y-121537574D01*
X139084047Y-121594717D01*
X138779285Y-121632812D01*
X138703095Y-121604241D01*
X138665000Y-121570907D01*
X138626904Y-121499479D01*
X138626904Y-121347098D01*
X138665000Y-121266145D01*
X138703095Y-121223288D01*
X138779285Y-121175669D01*
X138969761Y-121151860D01*
X139045952Y-121180431D01*
X139084047Y-121213764D01*
X139122142Y-121285193D01*
X139122142Y-121437574D01*
X139084047Y-121518526D01*
X139045952Y-121561383D01*
X138969761Y-121609002D01*
X139350714Y-121904241D02*
X139388809Y-121937574D01*
X139426904Y-121894717D01*
X139388809Y-121861383D01*
X139350714Y-121904241D01*
X139426904Y-121894717D01*
X138893571Y-122685193D02*
X139426904Y-122618526D01*
X138588809Y-122532812D02*
X139160238Y-122270907D01*
X139160238Y-122766145D01*
X139426904Y-123037574D02*
X138626904Y-123137574D01*
X139122142Y-123151860D02*
X139426904Y-123342336D01*
X138893571Y-123409002D02*
X139198333Y-123066145D01*
X131171904Y-117633809D02*
X130790952Y-117367142D01*
X131171904Y-117176666D02*
X130371904Y-117176666D01*
X130371904Y-117481428D01*
X130410000Y-117557619D01*
X130448095Y-117595714D01*
X130524285Y-117633809D01*
X130638571Y-117633809D01*
X130714761Y-117595714D01*
X130752857Y-117557619D01*
X130790952Y-117481428D01*
X130790952Y-117176666D01*
X130371904Y-117862380D02*
X131171904Y-118129047D01*
X130371904Y-118395714D01*
X131171904Y-119081428D02*
X131171904Y-118624285D01*
X131171904Y-118852857D02*
X130371904Y-118852857D01*
X130486190Y-118776666D01*
X130562380Y-118700476D01*
X130600476Y-118624285D01*
X131718095Y-117565669D02*
X131680000Y-117608526D01*
X131641904Y-117689479D01*
X131641904Y-117879955D01*
X131680000Y-117951383D01*
X131718095Y-117984717D01*
X131794285Y-118013288D01*
X131870476Y-118003764D01*
X131984761Y-117951383D01*
X132441904Y-117437098D01*
X132441904Y-117932336D01*
X132441904Y-118275193D02*
X131641904Y-118375193D01*
X132137142Y-118389479D02*
X132441904Y-118579955D01*
X131908571Y-118646622D02*
X132213333Y-118303764D01*
X143484523Y-104971904D02*
X143484523Y-105619523D01*
X143446428Y-105695714D01*
X143408333Y-105733809D01*
X143332142Y-105771904D01*
X143179761Y-105771904D01*
X143103571Y-105733809D01*
X143065476Y-105695714D01*
X143027380Y-105619523D01*
X143027380Y-104971904D01*
X142265476Y-104971904D02*
X142646428Y-104971904D01*
X142684523Y-105352857D01*
X142646428Y-105314761D01*
X142570238Y-105276666D01*
X142379761Y-105276666D01*
X142303571Y-105314761D01*
X142265476Y-105352857D01*
X142227380Y-105429047D01*
X142227380Y-105619523D01*
X142265476Y-105695714D01*
X142303571Y-105733809D01*
X142379761Y-105771904D01*
X142570238Y-105771904D01*
X142646428Y-105733809D01*
X142684523Y-105695714D01*
X141788616Y-118471904D02*
X141688616Y-117671904D01*
X141493377Y-118243333D01*
X141155282Y-117671904D01*
X141255282Y-118471904D01*
X140883854Y-118243333D02*
X140502901Y-118243333D01*
X140988616Y-118471904D02*
X140621949Y-117671904D01*
X140455282Y-118471904D01*
X140164806Y-117671904D02*
X139731473Y-118471904D01*
X139631473Y-117671904D02*
X140264806Y-118471904D01*
X138983854Y-117671904D02*
X139136235Y-117671904D01*
X139217187Y-117710000D01*
X139260044Y-117748095D01*
X139350520Y-117862380D01*
X139407663Y-118014761D01*
X139445758Y-118319523D01*
X139417187Y-118395714D01*
X139383854Y-118433809D01*
X139312425Y-118471904D01*
X139160044Y-118471904D01*
X139079092Y-118433809D01*
X139036235Y-118395714D01*
X138988616Y-118319523D01*
X138964806Y-118129047D01*
X138993377Y-118052857D01*
X139026711Y-118014761D01*
X139098139Y-117976666D01*
X139250520Y-117976666D01*
X139331473Y-118014761D01*
X139374330Y-118052857D01*
X139421949Y-118129047D01*
X138626711Y-118471904D02*
X138474330Y-118471904D01*
X138393377Y-118433809D01*
X138350520Y-118395714D01*
X138260044Y-118281428D01*
X138202901Y-118129047D01*
X138164806Y-117824285D01*
X138193377Y-117748095D01*
X138226711Y-117710000D01*
X138298139Y-117671904D01*
X138450520Y-117671904D01*
X138531473Y-117710000D01*
X138574330Y-117748095D01*
X138621949Y-117824285D01*
X138645758Y-118014761D01*
X138617187Y-118090952D01*
X138583854Y-118129047D01*
X138512425Y-118167142D01*
X138360044Y-118167142D01*
X138279092Y-118129047D01*
X138236235Y-118090952D01*
X138188616Y-118014761D01*
X137483854Y-118471904D02*
X137940997Y-118471904D01*
X137712425Y-118471904D02*
X137612425Y-117671904D01*
X137702901Y-117786190D01*
X137788616Y-117862380D01*
X137869568Y-117900476D01*
X137217187Y-118471904D02*
X136731473Y-117938571D01*
X137150520Y-117938571D02*
X136798139Y-118471904D01*
X136469568Y-117671904D02*
X136379092Y-118471904D01*
X136155282Y-117900476D01*
X136074330Y-118471904D01*
X135783854Y-117671904D01*
X135526711Y-118052857D02*
X135260044Y-118052857D01*
X135198139Y-118471904D02*
X135579092Y-118471904D01*
X135479092Y-117671904D01*
X135098139Y-117671904D01*
X145858214Y-112896666D02*
X145896309Y-112858571D01*
X145934404Y-112744285D01*
X145934404Y-112668095D01*
X145896309Y-112553809D01*
X145820119Y-112477619D01*
X145743928Y-112439523D01*
X145591547Y-112401428D01*
X145477261Y-112401428D01*
X145324880Y-112439523D01*
X145248690Y-112477619D01*
X145172500Y-112553809D01*
X145134404Y-112668095D01*
X145134404Y-112744285D01*
X145172500Y-112858571D01*
X145210595Y-112896666D01*
X145134404Y-113620476D02*
X145134404Y-113239523D01*
X145515357Y-113201428D01*
X145477261Y-113239523D01*
X145439166Y-113315714D01*
X145439166Y-113506190D01*
X145477261Y-113582380D01*
X145515357Y-113620476D01*
X145591547Y-113658571D01*
X145782023Y-113658571D01*
X145858214Y-113620476D01*
X145896309Y-113582380D01*
X145934404Y-113506190D01*
X145934404Y-113315714D01*
X145896309Y-113239523D01*
X145858214Y-113201428D01*
X148794404Y-111709479D02*
X148794404Y-111252336D01*
X148794404Y-111480907D02*
X147994404Y-111580907D01*
X148108690Y-111490431D01*
X148184880Y-111404717D01*
X148222976Y-111323764D01*
X147994404Y-112304717D02*
X147994404Y-112380907D01*
X148032500Y-112452336D01*
X148070595Y-112485669D01*
X148146785Y-112514241D01*
X148299166Y-112533288D01*
X148489642Y-112509479D01*
X148642023Y-112452336D01*
X148718214Y-112404717D01*
X148756309Y-112361860D01*
X148794404Y-112280907D01*
X148794404Y-112204717D01*
X148756309Y-112133288D01*
X148718214Y-112099955D01*
X148642023Y-112071383D01*
X148489642Y-112052336D01*
X148299166Y-112076145D01*
X148146785Y-112133288D01*
X148070595Y-112180907D01*
X148032500Y-112223764D01*
X147994404Y-112304717D01*
X147994404Y-113066622D02*
X147994404Y-113142812D01*
X148032500Y-113214241D01*
X148070595Y-113247574D01*
X148146785Y-113276145D01*
X148299166Y-113295193D01*
X148489642Y-113271383D01*
X148642023Y-113214241D01*
X148718214Y-113166622D01*
X148756309Y-113123764D01*
X148794404Y-113042812D01*
X148794404Y-112966622D01*
X148756309Y-112895193D01*
X148718214Y-112861860D01*
X148642023Y-112833288D01*
X148489642Y-112814241D01*
X148299166Y-112838050D01*
X148146785Y-112895193D01*
X148070595Y-112942812D01*
X148032500Y-112985669D01*
X147994404Y-113066622D01*
X148261071Y-113642812D02*
X148794404Y-113576145D01*
X148337261Y-113633288D02*
X148299166Y-113676145D01*
X148261071Y-113757098D01*
X148261071Y-113871383D01*
X148299166Y-113942812D01*
X148375357Y-113971383D01*
X148794404Y-113919002D01*
X148375357Y-114619002D02*
X148375357Y-114352336D01*
X148794404Y-114299955D02*
X147994404Y-114399955D01*
X147994404Y-114780907D01*
X142373333Y-90455714D02*
X142411428Y-90493809D01*
X142525714Y-90531904D01*
X142601904Y-90531904D01*
X142716190Y-90493809D01*
X142792380Y-90417619D01*
X142830476Y-90341428D01*
X142868571Y-90189047D01*
X142868571Y-90074761D01*
X142830476Y-89922380D01*
X142792380Y-89846190D01*
X142716190Y-89770000D01*
X142601904Y-89731904D01*
X142525714Y-89731904D01*
X142411428Y-89770000D01*
X142373333Y-89808095D01*
X141992380Y-90531904D02*
X141840000Y-90531904D01*
X141763809Y-90493809D01*
X141725714Y-90455714D01*
X141649523Y-90341428D01*
X141611428Y-90189047D01*
X141611428Y-89884285D01*
X141649523Y-89808095D01*
X141687619Y-89770000D01*
X141763809Y-89731904D01*
X141916190Y-89731904D01*
X141992380Y-89770000D01*
X142030476Y-89808095D01*
X142068571Y-89884285D01*
X142068571Y-90074761D01*
X142030476Y-90150952D01*
X141992380Y-90189047D01*
X141916190Y-90227142D01*
X141763809Y-90227142D01*
X141687619Y-90189047D01*
X141649523Y-90150952D01*
X141611428Y-90074761D01*
X143560520Y-93071904D02*
X144017663Y-93071904D01*
X143789092Y-93071904D02*
X143689092Y-92271904D01*
X143779568Y-92386190D01*
X143865282Y-92462380D01*
X143946235Y-92500476D01*
X142965282Y-92271904D02*
X142889092Y-92271904D01*
X142817663Y-92310000D01*
X142784330Y-92348095D01*
X142755758Y-92424285D01*
X142736711Y-92576666D01*
X142760520Y-92767142D01*
X142817663Y-92919523D01*
X142865282Y-92995714D01*
X142908139Y-93033809D01*
X142989092Y-93071904D01*
X143065282Y-93071904D01*
X143136711Y-93033809D01*
X143170044Y-92995714D01*
X143198616Y-92919523D01*
X143217663Y-92767142D01*
X143193854Y-92576666D01*
X143136711Y-92424285D01*
X143089092Y-92348095D01*
X143046235Y-92310000D01*
X142965282Y-92271904D01*
X142203377Y-92271904D02*
X142127187Y-92271904D01*
X142055758Y-92310000D01*
X142022425Y-92348095D01*
X141993854Y-92424285D01*
X141974806Y-92576666D01*
X141998616Y-92767142D01*
X142055758Y-92919523D01*
X142103377Y-92995714D01*
X142146235Y-93033809D01*
X142227187Y-93071904D01*
X142303377Y-93071904D01*
X142374806Y-93033809D01*
X142408139Y-92995714D01*
X142436711Y-92919523D01*
X142455758Y-92767142D01*
X142431949Y-92576666D01*
X142374806Y-92424285D01*
X142327187Y-92348095D01*
X142284330Y-92310000D01*
X142203377Y-92271904D01*
X141627187Y-92538571D02*
X141693854Y-93071904D01*
X141636711Y-92614761D02*
X141593854Y-92576666D01*
X141512901Y-92538571D01*
X141398616Y-92538571D01*
X141327187Y-92576666D01*
X141298616Y-92652857D01*
X141350997Y-93071904D01*
X140650997Y-92652857D02*
X140917663Y-92652857D01*
X140970044Y-93071904D02*
X140870044Y-92271904D01*
X140489092Y-92271904D01*
X147834285Y-90455714D02*
X147872380Y-90493809D01*
X147986666Y-90531904D01*
X148062857Y-90531904D01*
X148177142Y-90493809D01*
X148253333Y-90417619D01*
X148291428Y-90341428D01*
X148329523Y-90189047D01*
X148329523Y-90074761D01*
X148291428Y-89922380D01*
X148253333Y-89846190D01*
X148177142Y-89770000D01*
X148062857Y-89731904D01*
X147986666Y-89731904D01*
X147872380Y-89770000D01*
X147834285Y-89808095D01*
X147072380Y-90531904D02*
X147529523Y-90531904D01*
X147300952Y-90531904D02*
X147300952Y-89731904D01*
X147377142Y-89846190D01*
X147453333Y-89922380D01*
X147529523Y-89960476D01*
X146577142Y-89731904D02*
X146500952Y-89731904D01*
X146424761Y-89770000D01*
X146386666Y-89808095D01*
X146348571Y-89884285D01*
X146310476Y-90036666D01*
X146310476Y-90227142D01*
X146348571Y-90379523D01*
X146386666Y-90455714D01*
X146424761Y-90493809D01*
X146500952Y-90531904D01*
X146577142Y-90531904D01*
X146653333Y-90493809D01*
X146691428Y-90455714D01*
X146729523Y-90379523D01*
X146767619Y-90227142D01*
X146767619Y-90036666D01*
X146729523Y-89884285D01*
X146691428Y-89808095D01*
X146653333Y-89770000D01*
X146577142Y-89731904D01*
X148640520Y-93071904D02*
X149097663Y-93071904D01*
X148869092Y-93071904D02*
X148769092Y-92271904D01*
X148859568Y-92386190D01*
X148945282Y-92462380D01*
X149026235Y-92500476D01*
X148045282Y-92271904D02*
X147969092Y-92271904D01*
X147897663Y-92310000D01*
X147864330Y-92348095D01*
X147835758Y-92424285D01*
X147816711Y-92576666D01*
X147840520Y-92767142D01*
X147897663Y-92919523D01*
X147945282Y-92995714D01*
X147988139Y-93033809D01*
X148069092Y-93071904D01*
X148145282Y-93071904D01*
X148216711Y-93033809D01*
X148250044Y-92995714D01*
X148278616Y-92919523D01*
X148297663Y-92767142D01*
X148273854Y-92576666D01*
X148216711Y-92424285D01*
X148169092Y-92348095D01*
X148126235Y-92310000D01*
X148045282Y-92271904D01*
X147283377Y-92271904D02*
X147207187Y-92271904D01*
X147135758Y-92310000D01*
X147102425Y-92348095D01*
X147073854Y-92424285D01*
X147054806Y-92576666D01*
X147078616Y-92767142D01*
X147135758Y-92919523D01*
X147183377Y-92995714D01*
X147226235Y-93033809D01*
X147307187Y-93071904D01*
X147383377Y-93071904D01*
X147454806Y-93033809D01*
X147488139Y-92995714D01*
X147516711Y-92919523D01*
X147535758Y-92767142D01*
X147511949Y-92576666D01*
X147454806Y-92424285D01*
X147407187Y-92348095D01*
X147364330Y-92310000D01*
X147283377Y-92271904D01*
X146707187Y-92538571D02*
X146773854Y-93071904D01*
X146716711Y-92614761D02*
X146673854Y-92576666D01*
X146592901Y-92538571D01*
X146478616Y-92538571D01*
X146407187Y-92576666D01*
X146378616Y-92652857D01*
X146430997Y-93071904D01*
X145730997Y-92652857D02*
X145997663Y-92652857D01*
X146050044Y-93071904D02*
X145950044Y-92271904D01*
X145569092Y-92271904D01*
X142754285Y-85375714D02*
X142792380Y-85413809D01*
X142906666Y-85451904D01*
X142982857Y-85451904D01*
X143097142Y-85413809D01*
X143173333Y-85337619D01*
X143211428Y-85261428D01*
X143249523Y-85109047D01*
X143249523Y-84994761D01*
X143211428Y-84842380D01*
X143173333Y-84766190D01*
X143097142Y-84690000D01*
X142982857Y-84651904D01*
X142906666Y-84651904D01*
X142792380Y-84690000D01*
X142754285Y-84728095D01*
X141992380Y-85451904D02*
X142449523Y-85451904D01*
X142220952Y-85451904D02*
X142220952Y-84651904D01*
X142297142Y-84766190D01*
X142373333Y-84842380D01*
X142449523Y-84880476D01*
X141230476Y-85451904D02*
X141687619Y-85451904D01*
X141459047Y-85451904D02*
X141459047Y-84651904D01*
X141535238Y-84766190D01*
X141611428Y-84842380D01*
X141687619Y-84880476D01*
X143560520Y-87991904D02*
X144017663Y-87991904D01*
X143789092Y-87991904D02*
X143689092Y-87191904D01*
X143779568Y-87306190D01*
X143865282Y-87382380D01*
X143946235Y-87420476D01*
X142965282Y-87191904D02*
X142889092Y-87191904D01*
X142817663Y-87230000D01*
X142784330Y-87268095D01*
X142755758Y-87344285D01*
X142736711Y-87496666D01*
X142760520Y-87687142D01*
X142817663Y-87839523D01*
X142865282Y-87915714D01*
X142908139Y-87953809D01*
X142989092Y-87991904D01*
X143065282Y-87991904D01*
X143136711Y-87953809D01*
X143170044Y-87915714D01*
X143198616Y-87839523D01*
X143217663Y-87687142D01*
X143193854Y-87496666D01*
X143136711Y-87344285D01*
X143089092Y-87268095D01*
X143046235Y-87230000D01*
X142965282Y-87191904D01*
X142203377Y-87191904D02*
X142127187Y-87191904D01*
X142055758Y-87230000D01*
X142022425Y-87268095D01*
X141993854Y-87344285D01*
X141974806Y-87496666D01*
X141998616Y-87687142D01*
X142055758Y-87839523D01*
X142103377Y-87915714D01*
X142146235Y-87953809D01*
X142227187Y-87991904D01*
X142303377Y-87991904D01*
X142374806Y-87953809D01*
X142408139Y-87915714D01*
X142436711Y-87839523D01*
X142455758Y-87687142D01*
X142431949Y-87496666D01*
X142374806Y-87344285D01*
X142327187Y-87268095D01*
X142284330Y-87230000D01*
X142203377Y-87191904D01*
X141627187Y-87458571D02*
X141693854Y-87991904D01*
X141636711Y-87534761D02*
X141593854Y-87496666D01*
X141512901Y-87458571D01*
X141398616Y-87458571D01*
X141327187Y-87496666D01*
X141298616Y-87572857D01*
X141350997Y-87991904D01*
X140650997Y-87572857D02*
X140917663Y-87572857D01*
X140970044Y-87991904D02*
X140870044Y-87191904D01*
X140489092Y-87191904D01*
X147834285Y-85375714D02*
X147872380Y-85413809D01*
X147986666Y-85451904D01*
X148062857Y-85451904D01*
X148177142Y-85413809D01*
X148253333Y-85337619D01*
X148291428Y-85261428D01*
X148329523Y-85109047D01*
X148329523Y-84994761D01*
X148291428Y-84842380D01*
X148253333Y-84766190D01*
X148177142Y-84690000D01*
X148062857Y-84651904D01*
X147986666Y-84651904D01*
X147872380Y-84690000D01*
X147834285Y-84728095D01*
X147072380Y-85451904D02*
X147529523Y-85451904D01*
X147300952Y-85451904D02*
X147300952Y-84651904D01*
X147377142Y-84766190D01*
X147453333Y-84842380D01*
X147529523Y-84880476D01*
X146767619Y-84728095D02*
X146729523Y-84690000D01*
X146653333Y-84651904D01*
X146462857Y-84651904D01*
X146386666Y-84690000D01*
X146348571Y-84728095D01*
X146310476Y-84804285D01*
X146310476Y-84880476D01*
X146348571Y-84994761D01*
X146805714Y-85451904D01*
X146310476Y-85451904D01*
X148640520Y-87991904D02*
X149097663Y-87991904D01*
X148869092Y-87991904D02*
X148769092Y-87191904D01*
X148859568Y-87306190D01*
X148945282Y-87382380D01*
X149026235Y-87420476D01*
X148045282Y-87191904D02*
X147969092Y-87191904D01*
X147897663Y-87230000D01*
X147864330Y-87268095D01*
X147835758Y-87344285D01*
X147816711Y-87496666D01*
X147840520Y-87687142D01*
X147897663Y-87839523D01*
X147945282Y-87915714D01*
X147988139Y-87953809D01*
X148069092Y-87991904D01*
X148145282Y-87991904D01*
X148216711Y-87953809D01*
X148250044Y-87915714D01*
X148278616Y-87839523D01*
X148297663Y-87687142D01*
X148273854Y-87496666D01*
X148216711Y-87344285D01*
X148169092Y-87268095D01*
X148126235Y-87230000D01*
X148045282Y-87191904D01*
X147283377Y-87191904D02*
X147207187Y-87191904D01*
X147135758Y-87230000D01*
X147102425Y-87268095D01*
X147073854Y-87344285D01*
X147054806Y-87496666D01*
X147078616Y-87687142D01*
X147135758Y-87839523D01*
X147183377Y-87915714D01*
X147226235Y-87953809D01*
X147307187Y-87991904D01*
X147383377Y-87991904D01*
X147454806Y-87953809D01*
X147488139Y-87915714D01*
X147516711Y-87839523D01*
X147535758Y-87687142D01*
X147511949Y-87496666D01*
X147454806Y-87344285D01*
X147407187Y-87268095D01*
X147364330Y-87230000D01*
X147283377Y-87191904D01*
X146707187Y-87458571D02*
X146773854Y-87991904D01*
X146716711Y-87534761D02*
X146673854Y-87496666D01*
X146592901Y-87458571D01*
X146478616Y-87458571D01*
X146407187Y-87496666D01*
X146378616Y-87572857D01*
X146430997Y-87991904D01*
X145730997Y-87572857D02*
X145997663Y-87572857D01*
X146050044Y-87991904D02*
X145950044Y-87191904D01*
X145569092Y-87191904D01*
X177450714Y-87115714D02*
X177488809Y-87077619D01*
X177526904Y-86963333D01*
X177526904Y-86887142D01*
X177488809Y-86772857D01*
X177412619Y-86696666D01*
X177336428Y-86658571D01*
X177184047Y-86620476D01*
X177069761Y-86620476D01*
X176917380Y-86658571D01*
X176841190Y-86696666D01*
X176765000Y-86772857D01*
X176726904Y-86887142D01*
X176726904Y-86963333D01*
X176765000Y-87077619D01*
X176803095Y-87115714D01*
X177526904Y-87877619D02*
X177526904Y-87420476D01*
X177526904Y-87649047D02*
X176726904Y-87649047D01*
X176841190Y-87572857D01*
X176917380Y-87496666D01*
X176955476Y-87420476D01*
X177526904Y-88258571D02*
X177526904Y-88410952D01*
X177488809Y-88487142D01*
X177450714Y-88525238D01*
X177336428Y-88601428D01*
X177184047Y-88639523D01*
X176879285Y-88639523D01*
X176803095Y-88601428D01*
X176765000Y-88563333D01*
X176726904Y-88487142D01*
X176726904Y-88334761D01*
X176765000Y-88258571D01*
X176803095Y-88220476D01*
X176879285Y-88182380D01*
X177069761Y-88182380D01*
X177145952Y-88220476D01*
X177184047Y-88258571D01*
X177222142Y-88334761D01*
X177222142Y-88487142D01*
X177184047Y-88563333D01*
X177145952Y-88601428D01*
X177069761Y-88639523D01*
X177526904Y-91535357D02*
X177526904Y-91078214D01*
X177526904Y-91306785D02*
X176726904Y-91306785D01*
X176841190Y-91230595D01*
X176917380Y-91154404D01*
X176955476Y-91078214D01*
X176726904Y-92030595D02*
X176726904Y-92106785D01*
X176765000Y-92182976D01*
X176803095Y-92221071D01*
X176879285Y-92259166D01*
X177031666Y-92297261D01*
X177222142Y-92297261D01*
X177374523Y-92259166D01*
X177450714Y-92221071D01*
X177488809Y-92182976D01*
X177526904Y-92106785D01*
X177526904Y-92030595D01*
X177488809Y-91954404D01*
X177450714Y-91916309D01*
X177374523Y-91878214D01*
X177222142Y-91840119D01*
X177031666Y-91840119D01*
X176879285Y-91878214D01*
X176803095Y-91916309D01*
X176765000Y-91954404D01*
X176726904Y-92030595D01*
X176993571Y-92982976D02*
X177526904Y-92982976D01*
X176993571Y-92640119D02*
X177412619Y-92640119D01*
X177488809Y-92678214D01*
X177526904Y-92754404D01*
X177526904Y-92868690D01*
X177488809Y-92944880D01*
X177450714Y-92982976D01*
X177107857Y-93630595D02*
X177107857Y-93363928D01*
X177526904Y-93363928D02*
X176726904Y-93363928D01*
X176726904Y-93744880D01*
X169353214Y-94735714D02*
X169391309Y-94697619D01*
X169429404Y-94583333D01*
X169429404Y-94507142D01*
X169391309Y-94392857D01*
X169315119Y-94316666D01*
X169238928Y-94278571D01*
X169086547Y-94240476D01*
X168972261Y-94240476D01*
X168819880Y-94278571D01*
X168743690Y-94316666D01*
X168667500Y-94392857D01*
X168629404Y-94507142D01*
X168629404Y-94583333D01*
X168667500Y-94697619D01*
X168705595Y-94735714D01*
X169429404Y-95497619D02*
X169429404Y-95040476D01*
X169429404Y-95269047D02*
X168629404Y-95269047D01*
X168743690Y-95192857D01*
X168819880Y-95116666D01*
X168857976Y-95040476D01*
X168972261Y-95954761D02*
X168934166Y-95878571D01*
X168896071Y-95840476D01*
X168819880Y-95802380D01*
X168781785Y-95802380D01*
X168705595Y-95840476D01*
X168667500Y-95878571D01*
X168629404Y-95954761D01*
X168629404Y-96107142D01*
X168667500Y-96183333D01*
X168705595Y-96221428D01*
X168781785Y-96259523D01*
X168819880Y-96259523D01*
X168896071Y-96221428D01*
X168934166Y-96183333D01*
X168972261Y-96107142D01*
X168972261Y-95954761D01*
X169010357Y-95878571D01*
X169048452Y-95840476D01*
X169124642Y-95802380D01*
X169277023Y-95802380D01*
X169353214Y-95840476D01*
X169391309Y-95878571D01*
X169429404Y-95954761D01*
X169429404Y-96107142D01*
X169391309Y-96183333D01*
X169353214Y-96221428D01*
X169277023Y-96259523D01*
X169124642Y-96259523D01*
X169048452Y-96221428D01*
X169010357Y-96183333D01*
X168972261Y-96107142D01*
X172289404Y-94310431D02*
X172289404Y-93853288D01*
X172289404Y-94081860D02*
X171489404Y-94181860D01*
X171603690Y-94091383D01*
X171679880Y-94005669D01*
X171717976Y-93924717D01*
X171489404Y-94905669D02*
X171489404Y-94981860D01*
X171527500Y-95053288D01*
X171565595Y-95086622D01*
X171641785Y-95115193D01*
X171794166Y-95134241D01*
X171984642Y-95110431D01*
X172137023Y-95053288D01*
X172213214Y-95005669D01*
X172251309Y-94962812D01*
X172289404Y-94881860D01*
X172289404Y-94805669D01*
X172251309Y-94734241D01*
X172213214Y-94700907D01*
X172137023Y-94672336D01*
X171984642Y-94653288D01*
X171794166Y-94677098D01*
X171641785Y-94734241D01*
X171565595Y-94781860D01*
X171527500Y-94824717D01*
X171489404Y-94905669D01*
X171756071Y-95481860D02*
X172289404Y-95415193D01*
X171832261Y-95472336D02*
X171794166Y-95515193D01*
X171756071Y-95596145D01*
X171756071Y-95710431D01*
X171794166Y-95781860D01*
X171870357Y-95810431D01*
X172289404Y-95758050D01*
X171870357Y-96458050D02*
X171870357Y-96191383D01*
X172289404Y-96139002D02*
X171489404Y-96239002D01*
X171489404Y-96619955D01*
X164115714Y-85845714D02*
X164153809Y-85807619D01*
X164191904Y-85693333D01*
X164191904Y-85617142D01*
X164153809Y-85502857D01*
X164077619Y-85426666D01*
X164001428Y-85388571D01*
X163849047Y-85350476D01*
X163734761Y-85350476D01*
X163582380Y-85388571D01*
X163506190Y-85426666D01*
X163430000Y-85502857D01*
X163391904Y-85617142D01*
X163391904Y-85693333D01*
X163430000Y-85807619D01*
X163468095Y-85845714D01*
X163468095Y-86150476D02*
X163430000Y-86188571D01*
X163391904Y-86264761D01*
X163391904Y-86455238D01*
X163430000Y-86531428D01*
X163468095Y-86569523D01*
X163544285Y-86607619D01*
X163620476Y-86607619D01*
X163734761Y-86569523D01*
X164191904Y-86112380D01*
X164191904Y-86607619D01*
X163391904Y-87102857D02*
X163391904Y-87179047D01*
X163430000Y-87255238D01*
X163468095Y-87293333D01*
X163544285Y-87331428D01*
X163696666Y-87369523D01*
X163887142Y-87369523D01*
X164039523Y-87331428D01*
X164115714Y-87293333D01*
X164153809Y-87255238D01*
X164191904Y-87179047D01*
X164191904Y-87102857D01*
X164153809Y-87026666D01*
X164115714Y-86988571D01*
X164039523Y-86950476D01*
X163887142Y-86912380D01*
X163696666Y-86912380D01*
X163544285Y-86950476D01*
X163468095Y-86988571D01*
X163430000Y-87026666D01*
X163391904Y-87102857D01*
X164191904Y-88277931D02*
X164191904Y-87820788D01*
X164191904Y-88049360D02*
X163391904Y-88149360D01*
X163506190Y-88058883D01*
X163582380Y-87973169D01*
X163620476Y-87892217D01*
X163391904Y-88873169D02*
X163391904Y-88949360D01*
X163430000Y-89020788D01*
X163468095Y-89054122D01*
X163544285Y-89082693D01*
X163696666Y-89101741D01*
X163887142Y-89077931D01*
X164039523Y-89020788D01*
X164115714Y-88973169D01*
X164153809Y-88930312D01*
X164191904Y-88849360D01*
X164191904Y-88773169D01*
X164153809Y-88701741D01*
X164115714Y-88668407D01*
X164039523Y-88639836D01*
X163887142Y-88620788D01*
X163696666Y-88644598D01*
X163544285Y-88701741D01*
X163468095Y-88749360D01*
X163430000Y-88792217D01*
X163391904Y-88873169D01*
X163658571Y-89792217D02*
X164191904Y-89725550D01*
X163658571Y-89449360D02*
X164077619Y-89396979D01*
X164153809Y-89425550D01*
X164191904Y-89496979D01*
X164191904Y-89611264D01*
X164153809Y-89692217D01*
X164115714Y-89735074D01*
X163772857Y-90425550D02*
X163772857Y-90158883D01*
X164191904Y-90106502D02*
X163391904Y-90206502D01*
X163391904Y-90587455D01*
X177679404Y-97758333D02*
X178250833Y-97758333D01*
X178365119Y-97720238D01*
X178441309Y-97644047D01*
X178479404Y-97529761D01*
X178479404Y-97453571D01*
X178479404Y-98139285D02*
X177679404Y-98139285D01*
X177679404Y-98444047D01*
X177717500Y-98520238D01*
X177755595Y-98558333D01*
X177831785Y-98596428D01*
X177946071Y-98596428D01*
X178022261Y-98558333D01*
X178060357Y-98520238D01*
X178098452Y-98444047D01*
X178098452Y-98139285D01*
X178479404Y-99358333D02*
X178479404Y-98901190D01*
X178479404Y-99129761D02*
X177679404Y-99129761D01*
X177793690Y-99053571D01*
X177869880Y-98977380D01*
X177907976Y-98901190D01*
X178403214Y-100866979D02*
X178441309Y-100824122D01*
X178479404Y-100705074D01*
X178479404Y-100628883D01*
X178441309Y-100519360D01*
X178365119Y-100452693D01*
X178288928Y-100424122D01*
X178136547Y-100405074D01*
X178022261Y-100419360D01*
X177869880Y-100476502D01*
X177793690Y-100524122D01*
X177717500Y-100609836D01*
X177679404Y-100728883D01*
X177679404Y-100805074D01*
X177717500Y-100914598D01*
X177755595Y-100947931D01*
X178479404Y-101200312D02*
X177679404Y-101300312D01*
X178060357Y-101252693D02*
X178060357Y-101709836D01*
X178479404Y-101657455D02*
X177679404Y-101757455D01*
X178555595Y-101838407D02*
X178555595Y-102447931D01*
X178250833Y-102638407D02*
X178250833Y-103019360D01*
X178479404Y-102533645D02*
X177679404Y-102900312D01*
X178479404Y-103066979D01*
X178555595Y-103133645D02*
X178555595Y-103743169D01*
X178403214Y-104409836D02*
X178441309Y-104366979D01*
X178479404Y-104247931D01*
X178479404Y-104171741D01*
X178441309Y-104062217D01*
X178365119Y-103995550D01*
X178288928Y-103966979D01*
X178136547Y-103947931D01*
X178022261Y-103962217D01*
X177869880Y-104019360D01*
X177793690Y-104066979D01*
X177717500Y-104152693D01*
X177679404Y-104271741D01*
X177679404Y-104347931D01*
X177717500Y-104457455D01*
X177755595Y-104490788D01*
X178479404Y-105124122D02*
X178479404Y-104743169D01*
X177679404Y-104843169D01*
X178479404Y-105390788D02*
X177679404Y-105490788D01*
X178479404Y-105847931D02*
X178022261Y-105562217D01*
X177679404Y-105947931D02*
X178136547Y-105433645D01*
X175621904Y-104428571D02*
X175621904Y-103971428D01*
X175621904Y-104200000D02*
X174821904Y-104200000D01*
X174936190Y-104123809D01*
X175012380Y-104047619D01*
X175050476Y-103971428D01*
X174821904Y-98733333D02*
X174821904Y-99228571D01*
X175126666Y-98961904D01*
X175126666Y-99076190D01*
X175164761Y-99152380D01*
X175202857Y-99190476D01*
X175279047Y-99228571D01*
X175469523Y-99228571D01*
X175545714Y-99190476D01*
X175583809Y-99152380D01*
X175621904Y-99076190D01*
X175621904Y-98847619D01*
X175583809Y-98771428D01*
X175545714Y-98733333D01*
X170376904Y-97758333D02*
X170948333Y-97758333D01*
X171062619Y-97720238D01*
X171138809Y-97644047D01*
X171176904Y-97529761D01*
X171176904Y-97453571D01*
X171176904Y-98139285D02*
X170376904Y-98139285D01*
X170376904Y-98444047D01*
X170415000Y-98520238D01*
X170453095Y-98558333D01*
X170529285Y-98596428D01*
X170643571Y-98596428D01*
X170719761Y-98558333D01*
X170757857Y-98520238D01*
X170795952Y-98444047D01*
X170795952Y-98139285D01*
X170453095Y-98901190D02*
X170415000Y-98939285D01*
X170376904Y-99015476D01*
X170376904Y-99205952D01*
X170415000Y-99282142D01*
X170453095Y-99320238D01*
X170529285Y-99358333D01*
X170605476Y-99358333D01*
X170719761Y-99320238D01*
X171176904Y-98863095D01*
X171176904Y-99358333D01*
X171100714Y-100809836D02*
X171138809Y-100766979D01*
X171176904Y-100647931D01*
X171176904Y-100571741D01*
X171138809Y-100462217D01*
X171062619Y-100395550D01*
X170986428Y-100366979D01*
X170834047Y-100347931D01*
X170719761Y-100362217D01*
X170567380Y-100419360D01*
X170491190Y-100466979D01*
X170415000Y-100552693D01*
X170376904Y-100671741D01*
X170376904Y-100747931D01*
X170415000Y-100857455D01*
X170453095Y-100890788D01*
X171176904Y-101143169D02*
X170376904Y-101243169D01*
X170757857Y-101195550D02*
X170757857Y-101652693D01*
X171176904Y-101600312D02*
X170376904Y-101700312D01*
X171253095Y-101781264D02*
X171253095Y-102390788D01*
X170757857Y-102909836D02*
X170795952Y-103019360D01*
X170834047Y-103052693D01*
X170910238Y-103081264D01*
X171024523Y-103066979D01*
X171100714Y-103019360D01*
X171138809Y-102976502D01*
X171176904Y-102895550D01*
X171176904Y-102590788D01*
X170376904Y-102690788D01*
X170376904Y-102957455D01*
X170415000Y-103028883D01*
X170453095Y-103062217D01*
X170529285Y-103090788D01*
X170605476Y-103081264D01*
X170681666Y-103033645D01*
X170719761Y-102990788D01*
X170757857Y-102909836D01*
X170757857Y-102643169D01*
X171253095Y-103190788D02*
X171253095Y-103800312D01*
X171100714Y-104466979D02*
X171138809Y-104424122D01*
X171176904Y-104305074D01*
X171176904Y-104228883D01*
X171138809Y-104119360D01*
X171062619Y-104052693D01*
X170986428Y-104024122D01*
X170834047Y-104005074D01*
X170719761Y-104019360D01*
X170567380Y-104076502D01*
X170491190Y-104124122D01*
X170415000Y-104209836D01*
X170376904Y-104328883D01*
X170376904Y-104405074D01*
X170415000Y-104514598D01*
X170453095Y-104547931D01*
X171176904Y-105181264D02*
X171176904Y-104800312D01*
X170376904Y-104900312D01*
X171176904Y-105447931D02*
X170376904Y-105547931D01*
X171176904Y-105905074D02*
X170719761Y-105619360D01*
X170376904Y-106005074D02*
X170834047Y-105490788D01*
X172281904Y-98733333D02*
X172281904Y-99228571D01*
X172586666Y-98961904D01*
X172586666Y-99076190D01*
X172624761Y-99152380D01*
X172662857Y-99190476D01*
X172739047Y-99228571D01*
X172929523Y-99228571D01*
X173005714Y-99190476D01*
X173043809Y-99152380D01*
X173081904Y-99076190D01*
X173081904Y-98847619D01*
X173043809Y-98771428D01*
X173005714Y-98733333D01*
X173081904Y-104428571D02*
X173081904Y-103971428D01*
X173081904Y-104200000D02*
X172281904Y-104200000D01*
X172396190Y-104123809D01*
X172472380Y-104047619D01*
X172510476Y-103971428D01*
X171164166Y-83064404D02*
X171164166Y-83635833D01*
X171202261Y-83750119D01*
X171278452Y-83826309D01*
X171392738Y-83864404D01*
X171468928Y-83864404D01*
X170783214Y-83864404D02*
X170783214Y-83064404D01*
X170478452Y-83064404D01*
X170402261Y-83102500D01*
X170364166Y-83140595D01*
X170326071Y-83216785D01*
X170326071Y-83331071D01*
X170364166Y-83407261D01*
X170402261Y-83445357D01*
X170478452Y-83483452D01*
X170783214Y-83483452D01*
X170059404Y-83064404D02*
X169564166Y-83064404D01*
X169830833Y-83369166D01*
X169716547Y-83369166D01*
X169640357Y-83407261D01*
X169602261Y-83445357D01*
X169564166Y-83521547D01*
X169564166Y-83712023D01*
X169602261Y-83788214D01*
X169640357Y-83826309D01*
X169716547Y-83864404D01*
X169945119Y-83864404D01*
X170021309Y-83826309D01*
X170059404Y-83788214D01*
X171011473Y-85134404D02*
X171392425Y-85134404D01*
X171292425Y-84334404D01*
X170744806Y-85134404D02*
X170644806Y-84334404D01*
X170454330Y-84334404D01*
X170344806Y-84372500D01*
X170278139Y-84448690D01*
X170249568Y-84524880D01*
X170230520Y-84677261D01*
X170244806Y-84791547D01*
X170301949Y-84943928D01*
X170349568Y-85020119D01*
X170435282Y-85096309D01*
X170554330Y-85134404D01*
X170744806Y-85134404D01*
X169692425Y-84334404D02*
X169540044Y-84334404D01*
X169468616Y-84372500D01*
X169401949Y-84448690D01*
X169382901Y-84601071D01*
X169416235Y-84867738D01*
X169473377Y-85020119D01*
X169559092Y-85096309D01*
X169640044Y-85134404D01*
X169792425Y-85134404D01*
X169863854Y-85096309D01*
X169930520Y-85020119D01*
X169949568Y-84867738D01*
X169916235Y-84601071D01*
X169859092Y-84448690D01*
X169773377Y-84372500D01*
X169692425Y-84334404D01*
X169306711Y-85210595D02*
X168697187Y-85210595D01*
X168178139Y-84715357D02*
X168068616Y-84753452D01*
X168035282Y-84791547D01*
X168006711Y-84867738D01*
X168020997Y-84982023D01*
X168068616Y-85058214D01*
X168111473Y-85096309D01*
X168192425Y-85134404D01*
X168497187Y-85134404D01*
X168397187Y-84334404D01*
X168130520Y-84334404D01*
X168059092Y-84372500D01*
X168025758Y-84410595D01*
X167997187Y-84486785D01*
X168006711Y-84562976D01*
X168054330Y-84639166D01*
X168097187Y-84677261D01*
X168178139Y-84715357D01*
X168444806Y-84715357D01*
X167497187Y-84753452D02*
X167544806Y-85134404D01*
X167711473Y-84334404D02*
X167497187Y-84753452D01*
X167178139Y-84334404D01*
X167011473Y-85134404D02*
X166911473Y-84334404D01*
X166606711Y-84334404D01*
X166535282Y-84372500D01*
X166501949Y-84410595D01*
X166473377Y-84486785D01*
X166487663Y-84601071D01*
X166535282Y-84677261D01*
X166578139Y-84715357D01*
X166659092Y-84753452D01*
X166963854Y-84753452D01*
X168789404Y-92417976D02*
X169437023Y-92417976D01*
X169513214Y-92456071D01*
X169551309Y-92494166D01*
X169589404Y-92570357D01*
X169589404Y-92722738D01*
X169551309Y-92798928D01*
X169513214Y-92837023D01*
X169437023Y-92875119D01*
X168789404Y-92875119D01*
X168789404Y-93179880D02*
X168789404Y-93713214D01*
X169589404Y-93370357D01*
X181636354Y-94494404D02*
X181179211Y-94494404D01*
X181507782Y-95294404D02*
X181407782Y-94494404D01*
X181012544Y-95294404D02*
X180912544Y-94494404D01*
X180607782Y-94494404D01*
X180536354Y-94532500D01*
X180503020Y-94570595D01*
X180474449Y-94646785D01*
X180488735Y-94761071D01*
X180536354Y-94837261D01*
X180579211Y-94875357D01*
X180660163Y-94913452D01*
X180964925Y-94913452D01*
X180245877Y-95256309D02*
X180136354Y-95294404D01*
X179945877Y-95294404D01*
X179864925Y-95256309D01*
X179822068Y-95218214D01*
X179774449Y-95142023D01*
X179764925Y-95065833D01*
X179793497Y-94989642D01*
X179826830Y-94951547D01*
X179898258Y-94913452D01*
X180045877Y-94875357D01*
X180117306Y-94837261D01*
X180150639Y-94799166D01*
X180179211Y-94722976D01*
X180169687Y-94646785D01*
X180122068Y-94570595D01*
X180079211Y-94532500D01*
X179998258Y-94494404D01*
X179807782Y-94494404D01*
X179698258Y-94532500D01*
X179426830Y-94494404D02*
X178893497Y-94494404D01*
X179336354Y-95294404D01*
X178650639Y-95294404D02*
X178498258Y-95294404D01*
X178417306Y-95256309D01*
X178374449Y-95218214D01*
X178283973Y-95103928D01*
X178226830Y-94951547D01*
X178188735Y-94646785D01*
X178217306Y-94570595D01*
X178250639Y-94532500D01*
X178322068Y-94494404D01*
X178474449Y-94494404D01*
X178555401Y-94532500D01*
X178598258Y-94570595D01*
X178645877Y-94646785D01*
X178669687Y-94837261D01*
X178641116Y-94913452D01*
X178607782Y-94951547D01*
X178536354Y-94989642D01*
X178383973Y-94989642D01*
X178303020Y-94951547D01*
X178260163Y-94913452D01*
X178212544Y-94837261D01*
X177903020Y-94494404D02*
X177407782Y-94494404D01*
X177712544Y-94799166D01*
X177598258Y-94799166D01*
X177526830Y-94837261D01*
X177493497Y-94875357D01*
X177464925Y-94951547D01*
X177488735Y-95142023D01*
X177536354Y-95218214D01*
X177579211Y-95256309D01*
X177660163Y-95294404D01*
X177888735Y-95294404D01*
X177960163Y-95256309D01*
X177993497Y-95218214D01*
X177141116Y-94494404D02*
X176645877Y-94494404D01*
X176950639Y-94799166D01*
X176836354Y-94799166D01*
X176764925Y-94837261D01*
X176731592Y-94875357D01*
X176703020Y-94951547D01*
X176726830Y-95142023D01*
X176774449Y-95218214D01*
X176817306Y-95256309D01*
X176898258Y-95294404D01*
X177126830Y-95294404D01*
X177198258Y-95256309D01*
X177231592Y-95218214D01*
X176379211Y-94494404D02*
X175883973Y-94494404D01*
X176188735Y-94799166D01*
X176074449Y-94799166D01*
X176003020Y-94837261D01*
X175969687Y-94875357D01*
X175941116Y-94951547D01*
X175964925Y-95142023D01*
X176012544Y-95218214D01*
X176055401Y-95256309D01*
X176136354Y-95294404D01*
X176364925Y-95294404D01*
X176436354Y-95256309D01*
X176469687Y-95218214D01*
X175603020Y-94989642D02*
X174993497Y-94989642D01*
X174598258Y-94875357D02*
X174331592Y-94875357D01*
X174269687Y-95294404D02*
X174650639Y-95294404D01*
X174550639Y-94494404D01*
X174169687Y-94494404D01*
X173926830Y-95294404D02*
X173826830Y-94494404D01*
X173522068Y-94494404D01*
X173450639Y-94532500D01*
X173417306Y-94570595D01*
X173388735Y-94646785D01*
X173403020Y-94761071D01*
X173450639Y-94837261D01*
X173493497Y-94875357D01*
X173574449Y-94913452D01*
X173879211Y-94913452D01*
X126561904Y-111093333D02*
X127133333Y-111093333D01*
X127247619Y-111055238D01*
X127323809Y-110979047D01*
X127361904Y-110864761D01*
X127361904Y-110788571D01*
X127361904Y-111474285D02*
X126561904Y-111474285D01*
X126561904Y-111779047D01*
X126600000Y-111855238D01*
X126638095Y-111893333D01*
X126714285Y-111931428D01*
X126828571Y-111931428D01*
X126904761Y-111893333D01*
X126942857Y-111855238D01*
X126980952Y-111779047D01*
X126980952Y-111474285D01*
X126828571Y-112617142D02*
X127361904Y-112617142D01*
X126523809Y-112426666D02*
X127095238Y-112236190D01*
X127095238Y-112731428D01*
X128631904Y-110039479D02*
X128250952Y-109820431D01*
X128631904Y-109582336D02*
X127831904Y-109682336D01*
X127831904Y-109987098D01*
X127870000Y-110058526D01*
X127908095Y-110091860D01*
X127984285Y-110120431D01*
X128098571Y-110106145D01*
X128174761Y-110058526D01*
X128212857Y-110015669D01*
X128250952Y-109934717D01*
X128250952Y-109629955D01*
X128403333Y-110372812D02*
X128403333Y-110753764D01*
X128631904Y-110268050D02*
X127831904Y-110634717D01*
X128631904Y-110801383D01*
X128631904Y-111068050D02*
X127831904Y-111168050D01*
X128403333Y-111363288D01*
X127831904Y-111701383D01*
X128631904Y-111601383D01*
X128708095Y-111782336D02*
X128708095Y-112391860D01*
X128555714Y-113058526D02*
X128593809Y-113015669D01*
X128631904Y-112896622D01*
X128631904Y-112820431D01*
X128593809Y-112710907D01*
X128517619Y-112644241D01*
X128441428Y-112615669D01*
X128289047Y-112596622D01*
X128174761Y-112610907D01*
X128022380Y-112668050D01*
X127946190Y-112715669D01*
X127870000Y-112801383D01*
X127831904Y-112920431D01*
X127831904Y-112996622D01*
X127870000Y-113106145D01*
X127908095Y-113139479D01*
X128593809Y-113358526D02*
X128631904Y-113468050D01*
X128631904Y-113658526D01*
X128593809Y-113739479D01*
X128555714Y-113782336D01*
X128479523Y-113829955D01*
X128403333Y-113839479D01*
X128327142Y-113810907D01*
X128289047Y-113777574D01*
X128250952Y-113706145D01*
X128212857Y-113558526D01*
X128174761Y-113487098D01*
X128136666Y-113453764D01*
X128060476Y-113425193D01*
X127984285Y-113434717D01*
X127908095Y-113482336D01*
X127870000Y-113525193D01*
X127831904Y-113606145D01*
X127831904Y-113796622D01*
X127870000Y-113906145D01*
X144659404Y-108553333D02*
X145230833Y-108553333D01*
X145345119Y-108515238D01*
X145421309Y-108439047D01*
X145459404Y-108324761D01*
X145459404Y-108248571D01*
X145459404Y-108934285D02*
X144659404Y-108934285D01*
X144659404Y-109239047D01*
X144697500Y-109315238D01*
X144735595Y-109353333D01*
X144811785Y-109391428D01*
X144926071Y-109391428D01*
X145002261Y-109353333D01*
X145040357Y-109315238D01*
X145078452Y-109239047D01*
X145078452Y-108934285D01*
X144659404Y-110115238D02*
X144659404Y-109734285D01*
X145040357Y-109696190D01*
X145002261Y-109734285D01*
X144964166Y-109810476D01*
X144964166Y-110000952D01*
X145002261Y-110077142D01*
X145040357Y-110115238D01*
X145116547Y-110153333D01*
X145307023Y-110153333D01*
X145383214Y-110115238D01*
X145421309Y-110077142D01*
X145459404Y-110000952D01*
X145459404Y-109810476D01*
X145421309Y-109734285D01*
X145383214Y-109696190D01*
X148469404Y-107770907D02*
X149269404Y-107937574D01*
X148469404Y-108304241D01*
X149269404Y-108928050D02*
X148888452Y-108709002D01*
X149269404Y-108470907D02*
X148469404Y-108570907D01*
X148469404Y-108875669D01*
X148507500Y-108947098D01*
X148545595Y-108980431D01*
X148621785Y-109009002D01*
X148736071Y-108994717D01*
X148812261Y-108947098D01*
X148850357Y-108904241D01*
X148888452Y-108823288D01*
X148888452Y-108518526D01*
X149040833Y-109261383D02*
X149040833Y-109642336D01*
X149269404Y-109156622D02*
X148469404Y-109523288D01*
X149269404Y-109689955D01*
X149269404Y-109956622D02*
X148469404Y-110056622D01*
X149040833Y-110251860D01*
X148469404Y-110589955D01*
X149269404Y-110489955D01*
X154031904Y-85845714D02*
X153650952Y-85579047D01*
X154031904Y-85388571D02*
X153231904Y-85388571D01*
X153231904Y-85693333D01*
X153270000Y-85769523D01*
X153308095Y-85807619D01*
X153384285Y-85845714D01*
X153498571Y-85845714D01*
X153574761Y-85807619D01*
X153612857Y-85769523D01*
X153650952Y-85693333D01*
X153650952Y-85388571D01*
X153308095Y-86150476D02*
X153270000Y-86188571D01*
X153231904Y-86264761D01*
X153231904Y-86455238D01*
X153270000Y-86531428D01*
X153308095Y-86569523D01*
X153384285Y-86607619D01*
X153460476Y-86607619D01*
X153574761Y-86569523D01*
X154031904Y-86112380D01*
X154031904Y-86607619D01*
X154031904Y-87369523D02*
X154031904Y-86912380D01*
X154031904Y-87140952D02*
X153231904Y-87140952D01*
X153346190Y-87064761D01*
X153422380Y-86988571D01*
X153460476Y-86912380D01*
X154031904Y-88341383D02*
X154031904Y-87884241D01*
X154031904Y-88112812D02*
X153231904Y-88212812D01*
X153346190Y-88122336D01*
X153422380Y-88036622D01*
X153460476Y-87955669D01*
X153231904Y-88936622D02*
X153231904Y-89012812D01*
X153270000Y-89084241D01*
X153308095Y-89117574D01*
X153384285Y-89146145D01*
X153536666Y-89165193D01*
X153727142Y-89141383D01*
X153879523Y-89084241D01*
X153955714Y-89036622D01*
X153993809Y-88993764D01*
X154031904Y-88912812D01*
X154031904Y-88836622D01*
X153993809Y-88765193D01*
X153955714Y-88731860D01*
X153879523Y-88703288D01*
X153727142Y-88684241D01*
X153536666Y-88708050D01*
X153384285Y-88765193D01*
X153308095Y-88812812D01*
X153270000Y-88855669D01*
X153231904Y-88936622D01*
X154031904Y-89446145D02*
X153231904Y-89546145D01*
X153727142Y-89560431D02*
X154031904Y-89750907D01*
X153498571Y-89817574D02*
X153803333Y-89474717D01*
X156571904Y-85845714D02*
X156190952Y-85579047D01*
X156571904Y-85388571D02*
X155771904Y-85388571D01*
X155771904Y-85693333D01*
X155810000Y-85769523D01*
X155848095Y-85807619D01*
X155924285Y-85845714D01*
X156038571Y-85845714D01*
X156114761Y-85807619D01*
X156152857Y-85769523D01*
X156190952Y-85693333D01*
X156190952Y-85388571D01*
X155848095Y-86150476D02*
X155810000Y-86188571D01*
X155771904Y-86264761D01*
X155771904Y-86455238D01*
X155810000Y-86531428D01*
X155848095Y-86569523D01*
X155924285Y-86607619D01*
X156000476Y-86607619D01*
X156114761Y-86569523D01*
X156571904Y-86112380D01*
X156571904Y-86607619D01*
X155848095Y-86912380D02*
X155810000Y-86950476D01*
X155771904Y-87026666D01*
X155771904Y-87217142D01*
X155810000Y-87293333D01*
X155848095Y-87331428D01*
X155924285Y-87369523D01*
X156000476Y-87369523D01*
X156114761Y-87331428D01*
X156571904Y-86874285D01*
X156571904Y-87369523D01*
X156571904Y-88341383D02*
X156571904Y-87884241D01*
X156571904Y-88112812D02*
X155771904Y-88212812D01*
X155886190Y-88122336D01*
X155962380Y-88036622D01*
X156000476Y-87955669D01*
X155771904Y-88936622D02*
X155771904Y-89012812D01*
X155810000Y-89084241D01*
X155848095Y-89117574D01*
X155924285Y-89146145D01*
X156076666Y-89165193D01*
X156267142Y-89141383D01*
X156419523Y-89084241D01*
X156495714Y-89036622D01*
X156533809Y-88993764D01*
X156571904Y-88912812D01*
X156571904Y-88836622D01*
X156533809Y-88765193D01*
X156495714Y-88731860D01*
X156419523Y-88703288D01*
X156267142Y-88684241D01*
X156076666Y-88708050D01*
X155924285Y-88765193D01*
X155848095Y-88812812D01*
X155810000Y-88855669D01*
X155771904Y-88936622D01*
X156571904Y-89446145D02*
X155771904Y-89546145D01*
X156267142Y-89560431D02*
X156571904Y-89750907D01*
X156038571Y-89817574D02*
X156343333Y-89474717D01*
X159111904Y-85845714D02*
X158730952Y-85579047D01*
X159111904Y-85388571D02*
X158311904Y-85388571D01*
X158311904Y-85693333D01*
X158350000Y-85769523D01*
X158388095Y-85807619D01*
X158464285Y-85845714D01*
X158578571Y-85845714D01*
X158654761Y-85807619D01*
X158692857Y-85769523D01*
X158730952Y-85693333D01*
X158730952Y-85388571D01*
X158388095Y-86150476D02*
X158350000Y-86188571D01*
X158311904Y-86264761D01*
X158311904Y-86455238D01*
X158350000Y-86531428D01*
X158388095Y-86569523D01*
X158464285Y-86607619D01*
X158540476Y-86607619D01*
X158654761Y-86569523D01*
X159111904Y-86112380D01*
X159111904Y-86607619D01*
X158311904Y-86874285D02*
X158311904Y-87369523D01*
X158616666Y-87102857D01*
X158616666Y-87217142D01*
X158654761Y-87293333D01*
X158692857Y-87331428D01*
X158769047Y-87369523D01*
X158959523Y-87369523D01*
X159035714Y-87331428D01*
X159073809Y-87293333D01*
X159111904Y-87217142D01*
X159111904Y-86988571D01*
X159073809Y-86912380D01*
X159035714Y-86874285D01*
X159111904Y-88341383D02*
X159111904Y-87884241D01*
X159111904Y-88112812D02*
X158311904Y-88212812D01*
X158426190Y-88122336D01*
X158502380Y-88036622D01*
X158540476Y-87955669D01*
X158311904Y-88936622D02*
X158311904Y-89012812D01*
X158350000Y-89084241D01*
X158388095Y-89117574D01*
X158464285Y-89146145D01*
X158616666Y-89165193D01*
X158807142Y-89141383D01*
X158959523Y-89084241D01*
X159035714Y-89036622D01*
X159073809Y-88993764D01*
X159111904Y-88912812D01*
X159111904Y-88836622D01*
X159073809Y-88765193D01*
X159035714Y-88731860D01*
X158959523Y-88703288D01*
X158807142Y-88684241D01*
X158616666Y-88708050D01*
X158464285Y-88765193D01*
X158388095Y-88812812D01*
X158350000Y-88855669D01*
X158311904Y-88936622D01*
X159111904Y-89446145D02*
X158311904Y-89546145D01*
X158807142Y-89560431D02*
X159111904Y-89750907D01*
X158578571Y-89817574D02*
X158883333Y-89474717D01*
X161651904Y-85845714D02*
X161270952Y-85579047D01*
X161651904Y-85388571D02*
X160851904Y-85388571D01*
X160851904Y-85693333D01*
X160890000Y-85769523D01*
X160928095Y-85807619D01*
X161004285Y-85845714D01*
X161118571Y-85845714D01*
X161194761Y-85807619D01*
X161232857Y-85769523D01*
X161270952Y-85693333D01*
X161270952Y-85388571D01*
X160928095Y-86150476D02*
X160890000Y-86188571D01*
X160851904Y-86264761D01*
X160851904Y-86455238D01*
X160890000Y-86531428D01*
X160928095Y-86569523D01*
X161004285Y-86607619D01*
X161080476Y-86607619D01*
X161194761Y-86569523D01*
X161651904Y-86112380D01*
X161651904Y-86607619D01*
X161118571Y-87293333D02*
X161651904Y-87293333D01*
X160813809Y-87102857D02*
X161385238Y-86912380D01*
X161385238Y-87407619D01*
X161651904Y-88341383D02*
X161651904Y-87884241D01*
X161651904Y-88112812D02*
X160851904Y-88212812D01*
X160966190Y-88122336D01*
X161042380Y-88036622D01*
X161080476Y-87955669D01*
X160851904Y-88936622D02*
X160851904Y-89012812D01*
X160890000Y-89084241D01*
X160928095Y-89117574D01*
X161004285Y-89146145D01*
X161156666Y-89165193D01*
X161347142Y-89141383D01*
X161499523Y-89084241D01*
X161575714Y-89036622D01*
X161613809Y-88993764D01*
X161651904Y-88912812D01*
X161651904Y-88836622D01*
X161613809Y-88765193D01*
X161575714Y-88731860D01*
X161499523Y-88703288D01*
X161347142Y-88684241D01*
X161156666Y-88708050D01*
X161004285Y-88765193D01*
X160928095Y-88812812D01*
X160890000Y-88855669D01*
X160851904Y-88936622D01*
X161651904Y-89446145D02*
X160851904Y-89546145D01*
X161347142Y-89560431D02*
X161651904Y-89750907D01*
X161118571Y-89817574D02*
X161423333Y-89474717D01*
M02*
