G04 #@! TF.GenerationSoftware,KiCad,Pcbnew,(5.1.0)-1*
G04 #@! TF.CreationDate,2020-07-20T11:56:29-07:00*
G04 #@! TF.ProjectId,Tiny_Z80,54696e79-5f5a-4383-902e-6b696361645f,rev?*
G04 #@! TF.SameCoordinates,Original*
G04 #@! TF.FileFunction,Soldermask,Bot*
G04 #@! TF.FilePolarity,Negative*
%FSLAX46Y46*%
G04 Gerber Fmt 4.6, Leading zero omitted, Abs format (unit mm)*
G04 Created by KiCad (PCBNEW (5.1.0)-1) date 2020-07-20 11:56:29*
%MOMM*%
%LPD*%
G04 APERTURE LIST*
%ADD10C,0.100000*%
G04 APERTURE END LIST*
D10*
G36*
X193277142Y-126218242D02*
G01*
X193425101Y-126279529D01*
X193558255Y-126368499D01*
X193671501Y-126481745D01*
X193760471Y-126614899D01*
X193821758Y-126762858D01*
X193853000Y-126919925D01*
X193853000Y-127080075D01*
X193821758Y-127237142D01*
X193760471Y-127385101D01*
X193671501Y-127518255D01*
X193558255Y-127631501D01*
X193425101Y-127720471D01*
X193277142Y-127781758D01*
X193120075Y-127813000D01*
X192959925Y-127813000D01*
X192802858Y-127781758D01*
X192654899Y-127720471D01*
X192521745Y-127631501D01*
X192408499Y-127518255D01*
X192319529Y-127385101D01*
X192258242Y-127237142D01*
X192227000Y-127080075D01*
X192227000Y-126919925D01*
X192258242Y-126762858D01*
X192319529Y-126614899D01*
X192408499Y-126481745D01*
X192521745Y-126368499D01*
X192654899Y-126279529D01*
X192802858Y-126218242D01*
X192959925Y-126187000D01*
X193120075Y-126187000D01*
X193277142Y-126218242D01*
X193277142Y-126218242D01*
G37*
G36*
X190737142Y-126218242D02*
G01*
X190885101Y-126279529D01*
X191018255Y-126368499D01*
X191131501Y-126481745D01*
X191220471Y-126614899D01*
X191281758Y-126762858D01*
X191313000Y-126919925D01*
X191313000Y-127080075D01*
X191281758Y-127237142D01*
X191220471Y-127385101D01*
X191131501Y-127518255D01*
X191018255Y-127631501D01*
X190885101Y-127720471D01*
X190737142Y-127781758D01*
X190580075Y-127813000D01*
X190419925Y-127813000D01*
X190262858Y-127781758D01*
X190114899Y-127720471D01*
X189981745Y-127631501D01*
X189868499Y-127518255D01*
X189779529Y-127385101D01*
X189718242Y-127237142D01*
X189687000Y-127080075D01*
X189687000Y-126919925D01*
X189718242Y-126762858D01*
X189779529Y-126614899D01*
X189868499Y-126481745D01*
X189981745Y-126368499D01*
X190114899Y-126279529D01*
X190262858Y-126218242D01*
X190419925Y-126187000D01*
X190580075Y-126187000D01*
X190737142Y-126218242D01*
X190737142Y-126218242D01*
G37*
G36*
X211057142Y-126218242D02*
G01*
X211205101Y-126279529D01*
X211338255Y-126368499D01*
X211451501Y-126481745D01*
X211540471Y-126614899D01*
X211601758Y-126762858D01*
X211633000Y-126919925D01*
X211633000Y-127080075D01*
X211601758Y-127237142D01*
X211540471Y-127385101D01*
X211451501Y-127518255D01*
X211338255Y-127631501D01*
X211205101Y-127720471D01*
X211057142Y-127781758D01*
X210900075Y-127813000D01*
X210739925Y-127813000D01*
X210582858Y-127781758D01*
X210434899Y-127720471D01*
X210301745Y-127631501D01*
X210188499Y-127518255D01*
X210099529Y-127385101D01*
X210038242Y-127237142D01*
X210007000Y-127080075D01*
X210007000Y-126919925D01*
X210038242Y-126762858D01*
X210099529Y-126614899D01*
X210188499Y-126481745D01*
X210301745Y-126368499D01*
X210434899Y-126279529D01*
X210582858Y-126218242D01*
X210739925Y-126187000D01*
X210900075Y-126187000D01*
X211057142Y-126218242D01*
X211057142Y-126218242D01*
G37*
G36*
X208517142Y-126218242D02*
G01*
X208665101Y-126279529D01*
X208798255Y-126368499D01*
X208911501Y-126481745D01*
X209000471Y-126614899D01*
X209061758Y-126762858D01*
X209093000Y-126919925D01*
X209093000Y-127080075D01*
X209061758Y-127237142D01*
X209000471Y-127385101D01*
X208911501Y-127518255D01*
X208798255Y-127631501D01*
X208665101Y-127720471D01*
X208517142Y-127781758D01*
X208360075Y-127813000D01*
X208199925Y-127813000D01*
X208042858Y-127781758D01*
X207894899Y-127720471D01*
X207761745Y-127631501D01*
X207648499Y-127518255D01*
X207559529Y-127385101D01*
X207498242Y-127237142D01*
X207467000Y-127080075D01*
X207467000Y-126919925D01*
X207498242Y-126762858D01*
X207559529Y-126614899D01*
X207648499Y-126481745D01*
X207761745Y-126368499D01*
X207894899Y-126279529D01*
X208042858Y-126218242D01*
X208199925Y-126187000D01*
X208360075Y-126187000D01*
X208517142Y-126218242D01*
X208517142Y-126218242D01*
G37*
G36*
X205977142Y-126218242D02*
G01*
X206125101Y-126279529D01*
X206258255Y-126368499D01*
X206371501Y-126481745D01*
X206460471Y-126614899D01*
X206521758Y-126762858D01*
X206553000Y-126919925D01*
X206553000Y-127080075D01*
X206521758Y-127237142D01*
X206460471Y-127385101D01*
X206371501Y-127518255D01*
X206258255Y-127631501D01*
X206125101Y-127720471D01*
X205977142Y-127781758D01*
X205820075Y-127813000D01*
X205659925Y-127813000D01*
X205502858Y-127781758D01*
X205354899Y-127720471D01*
X205221745Y-127631501D01*
X205108499Y-127518255D01*
X205019529Y-127385101D01*
X204958242Y-127237142D01*
X204927000Y-127080075D01*
X204927000Y-126919925D01*
X204958242Y-126762858D01*
X205019529Y-126614899D01*
X205108499Y-126481745D01*
X205221745Y-126368499D01*
X205354899Y-126279529D01*
X205502858Y-126218242D01*
X205659925Y-126187000D01*
X205820075Y-126187000D01*
X205977142Y-126218242D01*
X205977142Y-126218242D01*
G37*
G36*
X203437142Y-126218242D02*
G01*
X203585101Y-126279529D01*
X203718255Y-126368499D01*
X203831501Y-126481745D01*
X203920471Y-126614899D01*
X203981758Y-126762858D01*
X204013000Y-126919925D01*
X204013000Y-127080075D01*
X203981758Y-127237142D01*
X203920471Y-127385101D01*
X203831501Y-127518255D01*
X203718255Y-127631501D01*
X203585101Y-127720471D01*
X203437142Y-127781758D01*
X203280075Y-127813000D01*
X203119925Y-127813000D01*
X202962858Y-127781758D01*
X202814899Y-127720471D01*
X202681745Y-127631501D01*
X202568499Y-127518255D01*
X202479529Y-127385101D01*
X202418242Y-127237142D01*
X202387000Y-127080075D01*
X202387000Y-126919925D01*
X202418242Y-126762858D01*
X202479529Y-126614899D01*
X202568499Y-126481745D01*
X202681745Y-126368499D01*
X202814899Y-126279529D01*
X202962858Y-126218242D01*
X203119925Y-126187000D01*
X203280075Y-126187000D01*
X203437142Y-126218242D01*
X203437142Y-126218242D01*
G37*
G36*
X200897142Y-126218242D02*
G01*
X201045101Y-126279529D01*
X201178255Y-126368499D01*
X201291501Y-126481745D01*
X201380471Y-126614899D01*
X201441758Y-126762858D01*
X201473000Y-126919925D01*
X201473000Y-127080075D01*
X201441758Y-127237142D01*
X201380471Y-127385101D01*
X201291501Y-127518255D01*
X201178255Y-127631501D01*
X201045101Y-127720471D01*
X200897142Y-127781758D01*
X200740075Y-127813000D01*
X200579925Y-127813000D01*
X200422858Y-127781758D01*
X200274899Y-127720471D01*
X200141745Y-127631501D01*
X200028499Y-127518255D01*
X199939529Y-127385101D01*
X199878242Y-127237142D01*
X199847000Y-127080075D01*
X199847000Y-126919925D01*
X199878242Y-126762858D01*
X199939529Y-126614899D01*
X200028499Y-126481745D01*
X200141745Y-126368499D01*
X200274899Y-126279529D01*
X200422858Y-126218242D01*
X200579925Y-126187000D01*
X200740075Y-126187000D01*
X200897142Y-126218242D01*
X200897142Y-126218242D01*
G37*
G36*
X198357142Y-126218242D02*
G01*
X198505101Y-126279529D01*
X198638255Y-126368499D01*
X198751501Y-126481745D01*
X198840471Y-126614899D01*
X198901758Y-126762858D01*
X198933000Y-126919925D01*
X198933000Y-127080075D01*
X198901758Y-127237142D01*
X198840471Y-127385101D01*
X198751501Y-127518255D01*
X198638255Y-127631501D01*
X198505101Y-127720471D01*
X198357142Y-127781758D01*
X198200075Y-127813000D01*
X198039925Y-127813000D01*
X197882858Y-127781758D01*
X197734899Y-127720471D01*
X197601745Y-127631501D01*
X197488499Y-127518255D01*
X197399529Y-127385101D01*
X197338242Y-127237142D01*
X197307000Y-127080075D01*
X197307000Y-126919925D01*
X197338242Y-126762858D01*
X197399529Y-126614899D01*
X197488499Y-126481745D01*
X197601745Y-126368499D01*
X197734899Y-126279529D01*
X197882858Y-126218242D01*
X198039925Y-126187000D01*
X198200075Y-126187000D01*
X198357142Y-126218242D01*
X198357142Y-126218242D01*
G37*
G36*
X195817142Y-126218242D02*
G01*
X195965101Y-126279529D01*
X196098255Y-126368499D01*
X196211501Y-126481745D01*
X196300471Y-126614899D01*
X196361758Y-126762858D01*
X196393000Y-126919925D01*
X196393000Y-127080075D01*
X196361758Y-127237142D01*
X196300471Y-127385101D01*
X196211501Y-127518255D01*
X196098255Y-127631501D01*
X195965101Y-127720471D01*
X195817142Y-127781758D01*
X195660075Y-127813000D01*
X195499925Y-127813000D01*
X195342858Y-127781758D01*
X195194899Y-127720471D01*
X195061745Y-127631501D01*
X194948499Y-127518255D01*
X194859529Y-127385101D01*
X194798242Y-127237142D01*
X194767000Y-127080075D01*
X194767000Y-126919925D01*
X194798242Y-126762858D01*
X194859529Y-126614899D01*
X194948499Y-126481745D01*
X195061745Y-126368499D01*
X195194899Y-126279529D01*
X195342858Y-126218242D01*
X195499925Y-126187000D01*
X195660075Y-126187000D01*
X195817142Y-126218242D01*
X195817142Y-126218242D01*
G37*
G36*
X167877142Y-126218242D02*
G01*
X168025101Y-126279529D01*
X168158255Y-126368499D01*
X168271501Y-126481745D01*
X168360471Y-126614899D01*
X168421758Y-126762858D01*
X168453000Y-126919925D01*
X168453000Y-127080075D01*
X168421758Y-127237142D01*
X168360471Y-127385101D01*
X168271501Y-127518255D01*
X168158255Y-127631501D01*
X168025101Y-127720471D01*
X167877142Y-127781758D01*
X167720075Y-127813000D01*
X167559925Y-127813000D01*
X167402858Y-127781758D01*
X167254899Y-127720471D01*
X167121745Y-127631501D01*
X167008499Y-127518255D01*
X166919529Y-127385101D01*
X166858242Y-127237142D01*
X166827000Y-127080075D01*
X166827000Y-126919925D01*
X166858242Y-126762858D01*
X166919529Y-126614899D01*
X167008499Y-126481745D01*
X167121745Y-126368499D01*
X167254899Y-126279529D01*
X167402858Y-126218242D01*
X167559925Y-126187000D01*
X167720075Y-126187000D01*
X167877142Y-126218242D01*
X167877142Y-126218242D01*
G37*
G36*
X188197142Y-126218242D02*
G01*
X188345101Y-126279529D01*
X188478255Y-126368499D01*
X188591501Y-126481745D01*
X188680471Y-126614899D01*
X188741758Y-126762858D01*
X188773000Y-126919925D01*
X188773000Y-127080075D01*
X188741758Y-127237142D01*
X188680471Y-127385101D01*
X188591501Y-127518255D01*
X188478255Y-127631501D01*
X188345101Y-127720471D01*
X188197142Y-127781758D01*
X188040075Y-127813000D01*
X187879925Y-127813000D01*
X187722858Y-127781758D01*
X187574899Y-127720471D01*
X187441745Y-127631501D01*
X187328499Y-127518255D01*
X187239529Y-127385101D01*
X187178242Y-127237142D01*
X187147000Y-127080075D01*
X187147000Y-126919925D01*
X187178242Y-126762858D01*
X187239529Y-126614899D01*
X187328499Y-126481745D01*
X187441745Y-126368499D01*
X187574899Y-126279529D01*
X187722858Y-126218242D01*
X187879925Y-126187000D01*
X188040075Y-126187000D01*
X188197142Y-126218242D01*
X188197142Y-126218242D01*
G37*
G36*
X185657142Y-126218242D02*
G01*
X185805101Y-126279529D01*
X185938255Y-126368499D01*
X186051501Y-126481745D01*
X186140471Y-126614899D01*
X186201758Y-126762858D01*
X186233000Y-126919925D01*
X186233000Y-127080075D01*
X186201758Y-127237142D01*
X186140471Y-127385101D01*
X186051501Y-127518255D01*
X185938255Y-127631501D01*
X185805101Y-127720471D01*
X185657142Y-127781758D01*
X185500075Y-127813000D01*
X185339925Y-127813000D01*
X185182858Y-127781758D01*
X185034899Y-127720471D01*
X184901745Y-127631501D01*
X184788499Y-127518255D01*
X184699529Y-127385101D01*
X184638242Y-127237142D01*
X184607000Y-127080075D01*
X184607000Y-126919925D01*
X184638242Y-126762858D01*
X184699529Y-126614899D01*
X184788499Y-126481745D01*
X184901745Y-126368499D01*
X185034899Y-126279529D01*
X185182858Y-126218242D01*
X185339925Y-126187000D01*
X185500075Y-126187000D01*
X185657142Y-126218242D01*
X185657142Y-126218242D01*
G37*
G36*
X183117142Y-126218242D02*
G01*
X183265101Y-126279529D01*
X183398255Y-126368499D01*
X183511501Y-126481745D01*
X183600471Y-126614899D01*
X183661758Y-126762858D01*
X183693000Y-126919925D01*
X183693000Y-127080075D01*
X183661758Y-127237142D01*
X183600471Y-127385101D01*
X183511501Y-127518255D01*
X183398255Y-127631501D01*
X183265101Y-127720471D01*
X183117142Y-127781758D01*
X182960075Y-127813000D01*
X182799925Y-127813000D01*
X182642858Y-127781758D01*
X182494899Y-127720471D01*
X182361745Y-127631501D01*
X182248499Y-127518255D01*
X182159529Y-127385101D01*
X182098242Y-127237142D01*
X182067000Y-127080075D01*
X182067000Y-126919925D01*
X182098242Y-126762858D01*
X182159529Y-126614899D01*
X182248499Y-126481745D01*
X182361745Y-126368499D01*
X182494899Y-126279529D01*
X182642858Y-126218242D01*
X182799925Y-126187000D01*
X182960075Y-126187000D01*
X183117142Y-126218242D01*
X183117142Y-126218242D01*
G37*
G36*
X180577142Y-126218242D02*
G01*
X180725101Y-126279529D01*
X180858255Y-126368499D01*
X180971501Y-126481745D01*
X181060471Y-126614899D01*
X181121758Y-126762858D01*
X181153000Y-126919925D01*
X181153000Y-127080075D01*
X181121758Y-127237142D01*
X181060471Y-127385101D01*
X180971501Y-127518255D01*
X180858255Y-127631501D01*
X180725101Y-127720471D01*
X180577142Y-127781758D01*
X180420075Y-127813000D01*
X180259925Y-127813000D01*
X180102858Y-127781758D01*
X179954899Y-127720471D01*
X179821745Y-127631501D01*
X179708499Y-127518255D01*
X179619529Y-127385101D01*
X179558242Y-127237142D01*
X179527000Y-127080075D01*
X179527000Y-126919925D01*
X179558242Y-126762858D01*
X179619529Y-126614899D01*
X179708499Y-126481745D01*
X179821745Y-126368499D01*
X179954899Y-126279529D01*
X180102858Y-126218242D01*
X180259925Y-126187000D01*
X180420075Y-126187000D01*
X180577142Y-126218242D01*
X180577142Y-126218242D01*
G37*
G36*
X178037142Y-126218242D02*
G01*
X178185101Y-126279529D01*
X178318255Y-126368499D01*
X178431501Y-126481745D01*
X178520471Y-126614899D01*
X178581758Y-126762858D01*
X178613000Y-126919925D01*
X178613000Y-127080075D01*
X178581758Y-127237142D01*
X178520471Y-127385101D01*
X178431501Y-127518255D01*
X178318255Y-127631501D01*
X178185101Y-127720471D01*
X178037142Y-127781758D01*
X177880075Y-127813000D01*
X177719925Y-127813000D01*
X177562858Y-127781758D01*
X177414899Y-127720471D01*
X177281745Y-127631501D01*
X177168499Y-127518255D01*
X177079529Y-127385101D01*
X177018242Y-127237142D01*
X176987000Y-127080075D01*
X176987000Y-126919925D01*
X177018242Y-126762858D01*
X177079529Y-126614899D01*
X177168499Y-126481745D01*
X177281745Y-126368499D01*
X177414899Y-126279529D01*
X177562858Y-126218242D01*
X177719925Y-126187000D01*
X177880075Y-126187000D01*
X178037142Y-126218242D01*
X178037142Y-126218242D01*
G37*
G36*
X175497142Y-126218242D02*
G01*
X175645101Y-126279529D01*
X175778255Y-126368499D01*
X175891501Y-126481745D01*
X175980471Y-126614899D01*
X176041758Y-126762858D01*
X176073000Y-126919925D01*
X176073000Y-127080075D01*
X176041758Y-127237142D01*
X175980471Y-127385101D01*
X175891501Y-127518255D01*
X175778255Y-127631501D01*
X175645101Y-127720471D01*
X175497142Y-127781758D01*
X175340075Y-127813000D01*
X175179925Y-127813000D01*
X175022858Y-127781758D01*
X174874899Y-127720471D01*
X174741745Y-127631501D01*
X174628499Y-127518255D01*
X174539529Y-127385101D01*
X174478242Y-127237142D01*
X174447000Y-127080075D01*
X174447000Y-126919925D01*
X174478242Y-126762858D01*
X174539529Y-126614899D01*
X174628499Y-126481745D01*
X174741745Y-126368499D01*
X174874899Y-126279529D01*
X175022858Y-126218242D01*
X175179925Y-126187000D01*
X175340075Y-126187000D01*
X175497142Y-126218242D01*
X175497142Y-126218242D01*
G37*
G36*
X172957142Y-126218242D02*
G01*
X173105101Y-126279529D01*
X173238255Y-126368499D01*
X173351501Y-126481745D01*
X173440471Y-126614899D01*
X173501758Y-126762858D01*
X173533000Y-126919925D01*
X173533000Y-127080075D01*
X173501758Y-127237142D01*
X173440471Y-127385101D01*
X173351501Y-127518255D01*
X173238255Y-127631501D01*
X173105101Y-127720471D01*
X172957142Y-127781758D01*
X172800075Y-127813000D01*
X172639925Y-127813000D01*
X172482858Y-127781758D01*
X172334899Y-127720471D01*
X172201745Y-127631501D01*
X172088499Y-127518255D01*
X171999529Y-127385101D01*
X171938242Y-127237142D01*
X171907000Y-127080075D01*
X171907000Y-126919925D01*
X171938242Y-126762858D01*
X171999529Y-126614899D01*
X172088499Y-126481745D01*
X172201745Y-126368499D01*
X172334899Y-126279529D01*
X172482858Y-126218242D01*
X172639925Y-126187000D01*
X172800075Y-126187000D01*
X172957142Y-126218242D01*
X172957142Y-126218242D01*
G37*
G36*
X147557142Y-126218242D02*
G01*
X147705101Y-126279529D01*
X147838255Y-126368499D01*
X147951501Y-126481745D01*
X148040471Y-126614899D01*
X148101758Y-126762858D01*
X148133000Y-126919925D01*
X148133000Y-127080075D01*
X148101758Y-127237142D01*
X148040471Y-127385101D01*
X147951501Y-127518255D01*
X147838255Y-127631501D01*
X147705101Y-127720471D01*
X147557142Y-127781758D01*
X147400075Y-127813000D01*
X147239925Y-127813000D01*
X147082858Y-127781758D01*
X146934899Y-127720471D01*
X146801745Y-127631501D01*
X146688499Y-127518255D01*
X146599529Y-127385101D01*
X146538242Y-127237142D01*
X146507000Y-127080075D01*
X146507000Y-126919925D01*
X146538242Y-126762858D01*
X146599529Y-126614899D01*
X146688499Y-126481745D01*
X146801745Y-126368499D01*
X146934899Y-126279529D01*
X147082858Y-126218242D01*
X147239925Y-126187000D01*
X147400075Y-126187000D01*
X147557142Y-126218242D01*
X147557142Y-126218242D01*
G37*
G36*
X129777142Y-126218242D02*
G01*
X129925101Y-126279529D01*
X130058255Y-126368499D01*
X130171501Y-126481745D01*
X130260471Y-126614899D01*
X130321758Y-126762858D01*
X130353000Y-126919925D01*
X130353000Y-127080075D01*
X130321758Y-127237142D01*
X130260471Y-127385101D01*
X130171501Y-127518255D01*
X130058255Y-127631501D01*
X129925101Y-127720471D01*
X129777142Y-127781758D01*
X129620075Y-127813000D01*
X129459925Y-127813000D01*
X129302858Y-127781758D01*
X129154899Y-127720471D01*
X129021745Y-127631501D01*
X128908499Y-127518255D01*
X128819529Y-127385101D01*
X128758242Y-127237142D01*
X128727000Y-127080075D01*
X128727000Y-126919925D01*
X128758242Y-126762858D01*
X128819529Y-126614899D01*
X128908499Y-126481745D01*
X129021745Y-126368499D01*
X129154899Y-126279529D01*
X129302858Y-126218242D01*
X129459925Y-126187000D01*
X129620075Y-126187000D01*
X129777142Y-126218242D01*
X129777142Y-126218242D01*
G37*
G36*
X127813000Y-127813000D02*
G01*
X126187000Y-127813000D01*
X126187000Y-126187000D01*
X127813000Y-126187000D01*
X127813000Y-127813000D01*
X127813000Y-127813000D01*
G37*
G36*
X165337142Y-126218242D02*
G01*
X165485101Y-126279529D01*
X165618255Y-126368499D01*
X165731501Y-126481745D01*
X165820471Y-126614899D01*
X165881758Y-126762858D01*
X165913000Y-126919925D01*
X165913000Y-127080075D01*
X165881758Y-127237142D01*
X165820471Y-127385101D01*
X165731501Y-127518255D01*
X165618255Y-127631501D01*
X165485101Y-127720471D01*
X165337142Y-127781758D01*
X165180075Y-127813000D01*
X165019925Y-127813000D01*
X164862858Y-127781758D01*
X164714899Y-127720471D01*
X164581745Y-127631501D01*
X164468499Y-127518255D01*
X164379529Y-127385101D01*
X164318242Y-127237142D01*
X164287000Y-127080075D01*
X164287000Y-126919925D01*
X164318242Y-126762858D01*
X164379529Y-126614899D01*
X164468499Y-126481745D01*
X164581745Y-126368499D01*
X164714899Y-126279529D01*
X164862858Y-126218242D01*
X165019925Y-126187000D01*
X165180075Y-126187000D01*
X165337142Y-126218242D01*
X165337142Y-126218242D01*
G37*
G36*
X162797142Y-126218242D02*
G01*
X162945101Y-126279529D01*
X163078255Y-126368499D01*
X163191501Y-126481745D01*
X163280471Y-126614899D01*
X163341758Y-126762858D01*
X163373000Y-126919925D01*
X163373000Y-127080075D01*
X163341758Y-127237142D01*
X163280471Y-127385101D01*
X163191501Y-127518255D01*
X163078255Y-127631501D01*
X162945101Y-127720471D01*
X162797142Y-127781758D01*
X162640075Y-127813000D01*
X162479925Y-127813000D01*
X162322858Y-127781758D01*
X162174899Y-127720471D01*
X162041745Y-127631501D01*
X161928499Y-127518255D01*
X161839529Y-127385101D01*
X161778242Y-127237142D01*
X161747000Y-127080075D01*
X161747000Y-126919925D01*
X161778242Y-126762858D01*
X161839529Y-126614899D01*
X161928499Y-126481745D01*
X162041745Y-126368499D01*
X162174899Y-126279529D01*
X162322858Y-126218242D01*
X162479925Y-126187000D01*
X162640075Y-126187000D01*
X162797142Y-126218242D01*
X162797142Y-126218242D01*
G37*
G36*
X160257142Y-126218242D02*
G01*
X160405101Y-126279529D01*
X160538255Y-126368499D01*
X160651501Y-126481745D01*
X160740471Y-126614899D01*
X160801758Y-126762858D01*
X160833000Y-126919925D01*
X160833000Y-127080075D01*
X160801758Y-127237142D01*
X160740471Y-127385101D01*
X160651501Y-127518255D01*
X160538255Y-127631501D01*
X160405101Y-127720471D01*
X160257142Y-127781758D01*
X160100075Y-127813000D01*
X159939925Y-127813000D01*
X159782858Y-127781758D01*
X159634899Y-127720471D01*
X159501745Y-127631501D01*
X159388499Y-127518255D01*
X159299529Y-127385101D01*
X159238242Y-127237142D01*
X159207000Y-127080075D01*
X159207000Y-126919925D01*
X159238242Y-126762858D01*
X159299529Y-126614899D01*
X159388499Y-126481745D01*
X159501745Y-126368499D01*
X159634899Y-126279529D01*
X159782858Y-126218242D01*
X159939925Y-126187000D01*
X160100075Y-126187000D01*
X160257142Y-126218242D01*
X160257142Y-126218242D01*
G37*
G36*
X157717142Y-126218242D02*
G01*
X157865101Y-126279529D01*
X157998255Y-126368499D01*
X158111501Y-126481745D01*
X158200471Y-126614899D01*
X158261758Y-126762858D01*
X158293000Y-126919925D01*
X158293000Y-127080075D01*
X158261758Y-127237142D01*
X158200471Y-127385101D01*
X158111501Y-127518255D01*
X157998255Y-127631501D01*
X157865101Y-127720471D01*
X157717142Y-127781758D01*
X157560075Y-127813000D01*
X157399925Y-127813000D01*
X157242858Y-127781758D01*
X157094899Y-127720471D01*
X156961745Y-127631501D01*
X156848499Y-127518255D01*
X156759529Y-127385101D01*
X156698242Y-127237142D01*
X156667000Y-127080075D01*
X156667000Y-126919925D01*
X156698242Y-126762858D01*
X156759529Y-126614899D01*
X156848499Y-126481745D01*
X156961745Y-126368499D01*
X157094899Y-126279529D01*
X157242858Y-126218242D01*
X157399925Y-126187000D01*
X157560075Y-126187000D01*
X157717142Y-126218242D01*
X157717142Y-126218242D01*
G37*
G36*
X155177142Y-126218242D02*
G01*
X155325101Y-126279529D01*
X155458255Y-126368499D01*
X155571501Y-126481745D01*
X155660471Y-126614899D01*
X155721758Y-126762858D01*
X155753000Y-126919925D01*
X155753000Y-127080075D01*
X155721758Y-127237142D01*
X155660471Y-127385101D01*
X155571501Y-127518255D01*
X155458255Y-127631501D01*
X155325101Y-127720471D01*
X155177142Y-127781758D01*
X155020075Y-127813000D01*
X154859925Y-127813000D01*
X154702858Y-127781758D01*
X154554899Y-127720471D01*
X154421745Y-127631501D01*
X154308499Y-127518255D01*
X154219529Y-127385101D01*
X154158242Y-127237142D01*
X154127000Y-127080075D01*
X154127000Y-126919925D01*
X154158242Y-126762858D01*
X154219529Y-126614899D01*
X154308499Y-126481745D01*
X154421745Y-126368499D01*
X154554899Y-126279529D01*
X154702858Y-126218242D01*
X154859925Y-126187000D01*
X155020075Y-126187000D01*
X155177142Y-126218242D01*
X155177142Y-126218242D01*
G37*
G36*
X152637142Y-126218242D02*
G01*
X152785101Y-126279529D01*
X152918255Y-126368499D01*
X153031501Y-126481745D01*
X153120471Y-126614899D01*
X153181758Y-126762858D01*
X153213000Y-126919925D01*
X153213000Y-127080075D01*
X153181758Y-127237142D01*
X153120471Y-127385101D01*
X153031501Y-127518255D01*
X152918255Y-127631501D01*
X152785101Y-127720471D01*
X152637142Y-127781758D01*
X152480075Y-127813000D01*
X152319925Y-127813000D01*
X152162858Y-127781758D01*
X152014899Y-127720471D01*
X151881745Y-127631501D01*
X151768499Y-127518255D01*
X151679529Y-127385101D01*
X151618242Y-127237142D01*
X151587000Y-127080075D01*
X151587000Y-126919925D01*
X151618242Y-126762858D01*
X151679529Y-126614899D01*
X151768499Y-126481745D01*
X151881745Y-126368499D01*
X152014899Y-126279529D01*
X152162858Y-126218242D01*
X152319925Y-126187000D01*
X152480075Y-126187000D01*
X152637142Y-126218242D01*
X152637142Y-126218242D01*
G37*
G36*
X150097142Y-126218242D02*
G01*
X150245101Y-126279529D01*
X150378255Y-126368499D01*
X150491501Y-126481745D01*
X150580471Y-126614899D01*
X150641758Y-126762858D01*
X150673000Y-126919925D01*
X150673000Y-127080075D01*
X150641758Y-127237142D01*
X150580471Y-127385101D01*
X150491501Y-127518255D01*
X150378255Y-127631501D01*
X150245101Y-127720471D01*
X150097142Y-127781758D01*
X149940075Y-127813000D01*
X149779925Y-127813000D01*
X149622858Y-127781758D01*
X149474899Y-127720471D01*
X149341745Y-127631501D01*
X149228499Y-127518255D01*
X149139529Y-127385101D01*
X149078242Y-127237142D01*
X149047000Y-127080075D01*
X149047000Y-126919925D01*
X149078242Y-126762858D01*
X149139529Y-126614899D01*
X149228499Y-126481745D01*
X149341745Y-126368499D01*
X149474899Y-126279529D01*
X149622858Y-126218242D01*
X149779925Y-126187000D01*
X149940075Y-126187000D01*
X150097142Y-126218242D01*
X150097142Y-126218242D01*
G37*
G36*
X145017142Y-126218242D02*
G01*
X145165101Y-126279529D01*
X145298255Y-126368499D01*
X145411501Y-126481745D01*
X145500471Y-126614899D01*
X145561758Y-126762858D01*
X145593000Y-126919925D01*
X145593000Y-127080075D01*
X145561758Y-127237142D01*
X145500471Y-127385101D01*
X145411501Y-127518255D01*
X145298255Y-127631501D01*
X145165101Y-127720471D01*
X145017142Y-127781758D01*
X144860075Y-127813000D01*
X144699925Y-127813000D01*
X144542858Y-127781758D01*
X144394899Y-127720471D01*
X144261745Y-127631501D01*
X144148499Y-127518255D01*
X144059529Y-127385101D01*
X143998242Y-127237142D01*
X143967000Y-127080075D01*
X143967000Y-126919925D01*
X143998242Y-126762858D01*
X144059529Y-126614899D01*
X144148499Y-126481745D01*
X144261745Y-126368499D01*
X144394899Y-126279529D01*
X144542858Y-126218242D01*
X144699925Y-126187000D01*
X144860075Y-126187000D01*
X145017142Y-126218242D01*
X145017142Y-126218242D01*
G37*
G36*
X142477142Y-126218242D02*
G01*
X142625101Y-126279529D01*
X142758255Y-126368499D01*
X142871501Y-126481745D01*
X142960471Y-126614899D01*
X143021758Y-126762858D01*
X143053000Y-126919925D01*
X143053000Y-127080075D01*
X143021758Y-127237142D01*
X142960471Y-127385101D01*
X142871501Y-127518255D01*
X142758255Y-127631501D01*
X142625101Y-127720471D01*
X142477142Y-127781758D01*
X142320075Y-127813000D01*
X142159925Y-127813000D01*
X142002858Y-127781758D01*
X141854899Y-127720471D01*
X141721745Y-127631501D01*
X141608499Y-127518255D01*
X141519529Y-127385101D01*
X141458242Y-127237142D01*
X141427000Y-127080075D01*
X141427000Y-126919925D01*
X141458242Y-126762858D01*
X141519529Y-126614899D01*
X141608499Y-126481745D01*
X141721745Y-126368499D01*
X141854899Y-126279529D01*
X142002858Y-126218242D01*
X142159925Y-126187000D01*
X142320075Y-126187000D01*
X142477142Y-126218242D01*
X142477142Y-126218242D01*
G37*
G36*
X139937142Y-126218242D02*
G01*
X140085101Y-126279529D01*
X140218255Y-126368499D01*
X140331501Y-126481745D01*
X140420471Y-126614899D01*
X140481758Y-126762858D01*
X140513000Y-126919925D01*
X140513000Y-127080075D01*
X140481758Y-127237142D01*
X140420471Y-127385101D01*
X140331501Y-127518255D01*
X140218255Y-127631501D01*
X140085101Y-127720471D01*
X139937142Y-127781758D01*
X139780075Y-127813000D01*
X139619925Y-127813000D01*
X139462858Y-127781758D01*
X139314899Y-127720471D01*
X139181745Y-127631501D01*
X139068499Y-127518255D01*
X138979529Y-127385101D01*
X138918242Y-127237142D01*
X138887000Y-127080075D01*
X138887000Y-126919925D01*
X138918242Y-126762858D01*
X138979529Y-126614899D01*
X139068499Y-126481745D01*
X139181745Y-126368499D01*
X139314899Y-126279529D01*
X139462858Y-126218242D01*
X139619925Y-126187000D01*
X139780075Y-126187000D01*
X139937142Y-126218242D01*
X139937142Y-126218242D01*
G37*
G36*
X137397142Y-126218242D02*
G01*
X137545101Y-126279529D01*
X137678255Y-126368499D01*
X137791501Y-126481745D01*
X137880471Y-126614899D01*
X137941758Y-126762858D01*
X137973000Y-126919925D01*
X137973000Y-127080075D01*
X137941758Y-127237142D01*
X137880471Y-127385101D01*
X137791501Y-127518255D01*
X137678255Y-127631501D01*
X137545101Y-127720471D01*
X137397142Y-127781758D01*
X137240075Y-127813000D01*
X137079925Y-127813000D01*
X136922858Y-127781758D01*
X136774899Y-127720471D01*
X136641745Y-127631501D01*
X136528499Y-127518255D01*
X136439529Y-127385101D01*
X136378242Y-127237142D01*
X136347000Y-127080075D01*
X136347000Y-126919925D01*
X136378242Y-126762858D01*
X136439529Y-126614899D01*
X136528499Y-126481745D01*
X136641745Y-126368499D01*
X136774899Y-126279529D01*
X136922858Y-126218242D01*
X137079925Y-126187000D01*
X137240075Y-126187000D01*
X137397142Y-126218242D01*
X137397142Y-126218242D01*
G37*
G36*
X134857142Y-126218242D02*
G01*
X135005101Y-126279529D01*
X135138255Y-126368499D01*
X135251501Y-126481745D01*
X135340471Y-126614899D01*
X135401758Y-126762858D01*
X135433000Y-126919925D01*
X135433000Y-127080075D01*
X135401758Y-127237142D01*
X135340471Y-127385101D01*
X135251501Y-127518255D01*
X135138255Y-127631501D01*
X135005101Y-127720471D01*
X134857142Y-127781758D01*
X134700075Y-127813000D01*
X134539925Y-127813000D01*
X134382858Y-127781758D01*
X134234899Y-127720471D01*
X134101745Y-127631501D01*
X133988499Y-127518255D01*
X133899529Y-127385101D01*
X133838242Y-127237142D01*
X133807000Y-127080075D01*
X133807000Y-126919925D01*
X133838242Y-126762858D01*
X133899529Y-126614899D01*
X133988499Y-126481745D01*
X134101745Y-126368499D01*
X134234899Y-126279529D01*
X134382858Y-126218242D01*
X134539925Y-126187000D01*
X134700075Y-126187000D01*
X134857142Y-126218242D01*
X134857142Y-126218242D01*
G37*
G36*
X132317142Y-126218242D02*
G01*
X132465101Y-126279529D01*
X132598255Y-126368499D01*
X132711501Y-126481745D01*
X132800471Y-126614899D01*
X132861758Y-126762858D01*
X132893000Y-126919925D01*
X132893000Y-127080075D01*
X132861758Y-127237142D01*
X132800471Y-127385101D01*
X132711501Y-127518255D01*
X132598255Y-127631501D01*
X132465101Y-127720471D01*
X132317142Y-127781758D01*
X132160075Y-127813000D01*
X131999925Y-127813000D01*
X131842858Y-127781758D01*
X131694899Y-127720471D01*
X131561745Y-127631501D01*
X131448499Y-127518255D01*
X131359529Y-127385101D01*
X131298242Y-127237142D01*
X131267000Y-127080075D01*
X131267000Y-126919925D01*
X131298242Y-126762858D01*
X131359529Y-126614899D01*
X131448499Y-126481745D01*
X131561745Y-126368499D01*
X131694899Y-126279529D01*
X131842858Y-126218242D01*
X131999925Y-126187000D01*
X132160075Y-126187000D01*
X132317142Y-126218242D01*
X132317142Y-126218242D01*
G37*
G36*
X170417142Y-126218242D02*
G01*
X170565101Y-126279529D01*
X170698255Y-126368499D01*
X170811501Y-126481745D01*
X170900471Y-126614899D01*
X170961758Y-126762858D01*
X170993000Y-126919925D01*
X170993000Y-127080075D01*
X170961758Y-127237142D01*
X170900471Y-127385101D01*
X170811501Y-127518255D01*
X170698255Y-127631501D01*
X170565101Y-127720471D01*
X170417142Y-127781758D01*
X170260075Y-127813000D01*
X170099925Y-127813000D01*
X169942858Y-127781758D01*
X169794899Y-127720471D01*
X169661745Y-127631501D01*
X169548499Y-127518255D01*
X169459529Y-127385101D01*
X169398242Y-127237142D01*
X169367000Y-127080075D01*
X169367000Y-126919925D01*
X169398242Y-126762858D01*
X169459529Y-126614899D01*
X169548499Y-126481745D01*
X169661745Y-126368499D01*
X169794899Y-126279529D01*
X169942858Y-126218242D01*
X170099925Y-126187000D01*
X170260075Y-126187000D01*
X170417142Y-126218242D01*
X170417142Y-126218242D01*
G37*
G36*
X190737142Y-123678242D02*
G01*
X190885101Y-123739529D01*
X191018255Y-123828499D01*
X191131501Y-123941745D01*
X191220471Y-124074899D01*
X191281758Y-124222858D01*
X191313000Y-124379925D01*
X191313000Y-124540075D01*
X191281758Y-124697142D01*
X191220471Y-124845101D01*
X191131501Y-124978255D01*
X191018255Y-125091501D01*
X190885101Y-125180471D01*
X190737142Y-125241758D01*
X190580075Y-125273000D01*
X190419925Y-125273000D01*
X190262858Y-125241758D01*
X190114899Y-125180471D01*
X189981745Y-125091501D01*
X189868499Y-124978255D01*
X189779529Y-124845101D01*
X189718242Y-124697142D01*
X189687000Y-124540075D01*
X189687000Y-124379925D01*
X189718242Y-124222858D01*
X189779529Y-124074899D01*
X189868499Y-123941745D01*
X189981745Y-123828499D01*
X190114899Y-123739529D01*
X190262858Y-123678242D01*
X190419925Y-123647000D01*
X190580075Y-123647000D01*
X190737142Y-123678242D01*
X190737142Y-123678242D01*
G37*
G36*
X175497142Y-123678242D02*
G01*
X175645101Y-123739529D01*
X175778255Y-123828499D01*
X175891501Y-123941745D01*
X175980471Y-124074899D01*
X176041758Y-124222858D01*
X176073000Y-124379925D01*
X176073000Y-124540075D01*
X176041758Y-124697142D01*
X175980471Y-124845101D01*
X175891501Y-124978255D01*
X175778255Y-125091501D01*
X175645101Y-125180471D01*
X175497142Y-125241758D01*
X175340075Y-125273000D01*
X175179925Y-125273000D01*
X175022858Y-125241758D01*
X174874899Y-125180471D01*
X174741745Y-125091501D01*
X174628499Y-124978255D01*
X174539529Y-124845101D01*
X174478242Y-124697142D01*
X174447000Y-124540075D01*
X174447000Y-124379925D01*
X174478242Y-124222858D01*
X174539529Y-124074899D01*
X174628499Y-123941745D01*
X174741745Y-123828499D01*
X174874899Y-123739529D01*
X175022858Y-123678242D01*
X175179925Y-123647000D01*
X175340075Y-123647000D01*
X175497142Y-123678242D01*
X175497142Y-123678242D01*
G37*
G36*
X180577142Y-123678242D02*
G01*
X180725101Y-123739529D01*
X180858255Y-123828499D01*
X180971501Y-123941745D01*
X181060471Y-124074899D01*
X181121758Y-124222858D01*
X181153000Y-124379925D01*
X181153000Y-124540075D01*
X181121758Y-124697142D01*
X181060471Y-124845101D01*
X180971501Y-124978255D01*
X180858255Y-125091501D01*
X180725101Y-125180471D01*
X180577142Y-125241758D01*
X180420075Y-125273000D01*
X180259925Y-125273000D01*
X180102858Y-125241758D01*
X179954899Y-125180471D01*
X179821745Y-125091501D01*
X179708499Y-124978255D01*
X179619529Y-124845101D01*
X179558242Y-124697142D01*
X179527000Y-124540075D01*
X179527000Y-124379925D01*
X179558242Y-124222858D01*
X179619529Y-124074899D01*
X179708499Y-123941745D01*
X179821745Y-123828499D01*
X179954899Y-123739529D01*
X180102858Y-123678242D01*
X180259925Y-123647000D01*
X180420075Y-123647000D01*
X180577142Y-123678242D01*
X180577142Y-123678242D01*
G37*
G36*
X183117142Y-123678242D02*
G01*
X183265101Y-123739529D01*
X183398255Y-123828499D01*
X183511501Y-123941745D01*
X183600471Y-124074899D01*
X183661758Y-124222858D01*
X183693000Y-124379925D01*
X183693000Y-124540075D01*
X183661758Y-124697142D01*
X183600471Y-124845101D01*
X183511501Y-124978255D01*
X183398255Y-125091501D01*
X183265101Y-125180471D01*
X183117142Y-125241758D01*
X182960075Y-125273000D01*
X182799925Y-125273000D01*
X182642858Y-125241758D01*
X182494899Y-125180471D01*
X182361745Y-125091501D01*
X182248499Y-124978255D01*
X182159529Y-124845101D01*
X182098242Y-124697142D01*
X182067000Y-124540075D01*
X182067000Y-124379925D01*
X182098242Y-124222858D01*
X182159529Y-124074899D01*
X182248499Y-123941745D01*
X182361745Y-123828499D01*
X182494899Y-123739529D01*
X182642858Y-123678242D01*
X182799925Y-123647000D01*
X182960075Y-123647000D01*
X183117142Y-123678242D01*
X183117142Y-123678242D01*
G37*
G36*
X185657142Y-123678242D02*
G01*
X185805101Y-123739529D01*
X185938255Y-123828499D01*
X186051501Y-123941745D01*
X186140471Y-124074899D01*
X186201758Y-124222858D01*
X186233000Y-124379925D01*
X186233000Y-124540075D01*
X186201758Y-124697142D01*
X186140471Y-124845101D01*
X186051501Y-124978255D01*
X185938255Y-125091501D01*
X185805101Y-125180471D01*
X185657142Y-125241758D01*
X185500075Y-125273000D01*
X185339925Y-125273000D01*
X185182858Y-125241758D01*
X185034899Y-125180471D01*
X184901745Y-125091501D01*
X184788499Y-124978255D01*
X184699529Y-124845101D01*
X184638242Y-124697142D01*
X184607000Y-124540075D01*
X184607000Y-124379925D01*
X184638242Y-124222858D01*
X184699529Y-124074899D01*
X184788499Y-123941745D01*
X184901745Y-123828499D01*
X185034899Y-123739529D01*
X185182858Y-123678242D01*
X185339925Y-123647000D01*
X185500075Y-123647000D01*
X185657142Y-123678242D01*
X185657142Y-123678242D01*
G37*
G36*
X178037142Y-123678242D02*
G01*
X178185101Y-123739529D01*
X178318255Y-123828499D01*
X178431501Y-123941745D01*
X178520471Y-124074899D01*
X178581758Y-124222858D01*
X178613000Y-124379925D01*
X178613000Y-124540075D01*
X178581758Y-124697142D01*
X178520471Y-124845101D01*
X178431501Y-124978255D01*
X178318255Y-125091501D01*
X178185101Y-125180471D01*
X178037142Y-125241758D01*
X177880075Y-125273000D01*
X177719925Y-125273000D01*
X177562858Y-125241758D01*
X177414899Y-125180471D01*
X177281745Y-125091501D01*
X177168499Y-124978255D01*
X177079529Y-124845101D01*
X177018242Y-124697142D01*
X176987000Y-124540075D01*
X176987000Y-124379925D01*
X177018242Y-124222858D01*
X177079529Y-124074899D01*
X177168499Y-123941745D01*
X177281745Y-123828499D01*
X177414899Y-123739529D01*
X177562858Y-123678242D01*
X177719925Y-123647000D01*
X177880075Y-123647000D01*
X178037142Y-123678242D01*
X178037142Y-123678242D01*
G37*
G36*
X172957142Y-123678242D02*
G01*
X173105101Y-123739529D01*
X173238255Y-123828499D01*
X173351501Y-123941745D01*
X173440471Y-124074899D01*
X173501758Y-124222858D01*
X173533000Y-124379925D01*
X173533000Y-124540075D01*
X173501758Y-124697142D01*
X173440471Y-124845101D01*
X173351501Y-124978255D01*
X173238255Y-125091501D01*
X173105101Y-125180471D01*
X172957142Y-125241758D01*
X172800075Y-125273000D01*
X172639925Y-125273000D01*
X172482858Y-125241758D01*
X172334899Y-125180471D01*
X172201745Y-125091501D01*
X172088499Y-124978255D01*
X171999529Y-124845101D01*
X171938242Y-124697142D01*
X171907000Y-124540075D01*
X171907000Y-124379925D01*
X171938242Y-124222858D01*
X171999529Y-124074899D01*
X172088499Y-123941745D01*
X172201745Y-123828499D01*
X172334899Y-123739529D01*
X172482858Y-123678242D01*
X172639925Y-123647000D01*
X172800075Y-123647000D01*
X172957142Y-123678242D01*
X172957142Y-123678242D01*
G37*
G36*
X170417142Y-123678242D02*
G01*
X170565101Y-123739529D01*
X170698255Y-123828499D01*
X170811501Y-123941745D01*
X170900471Y-124074899D01*
X170961758Y-124222858D01*
X170993000Y-124379925D01*
X170993000Y-124540075D01*
X170961758Y-124697142D01*
X170900471Y-124845101D01*
X170811501Y-124978255D01*
X170698255Y-125091501D01*
X170565101Y-125180471D01*
X170417142Y-125241758D01*
X170260075Y-125273000D01*
X170099925Y-125273000D01*
X169942858Y-125241758D01*
X169794899Y-125180471D01*
X169661745Y-125091501D01*
X169548499Y-124978255D01*
X169459529Y-124845101D01*
X169398242Y-124697142D01*
X169367000Y-124540075D01*
X169367000Y-124379925D01*
X169398242Y-124222858D01*
X169459529Y-124074899D01*
X169548499Y-123941745D01*
X169661745Y-123828499D01*
X169794899Y-123739529D01*
X169942858Y-123678242D01*
X170099925Y-123647000D01*
X170260075Y-123647000D01*
X170417142Y-123678242D01*
X170417142Y-123678242D01*
G37*
G36*
X168453000Y-125273000D02*
G01*
X166827000Y-125273000D01*
X166827000Y-123647000D01*
X168453000Y-123647000D01*
X168453000Y-125273000D01*
X168453000Y-125273000D01*
G37*
G36*
X188197142Y-123678242D02*
G01*
X188345101Y-123739529D01*
X188478255Y-123828499D01*
X188591501Y-123941745D01*
X188680471Y-124074899D01*
X188741758Y-124222858D01*
X188773000Y-124379925D01*
X188773000Y-124540075D01*
X188741758Y-124697142D01*
X188680471Y-124845101D01*
X188591501Y-124978255D01*
X188478255Y-125091501D01*
X188345101Y-125180471D01*
X188197142Y-125241758D01*
X188040075Y-125273000D01*
X187879925Y-125273000D01*
X187722858Y-125241758D01*
X187574899Y-125180471D01*
X187441745Y-125091501D01*
X187328499Y-124978255D01*
X187239529Y-124845101D01*
X187178242Y-124697142D01*
X187147000Y-124540075D01*
X187147000Y-124379925D01*
X187178242Y-124222858D01*
X187239529Y-124074899D01*
X187328499Y-123941745D01*
X187441745Y-123828499D01*
X187574899Y-123739529D01*
X187722858Y-123678242D01*
X187879925Y-123647000D01*
X188040075Y-123647000D01*
X188197142Y-123678242D01*
X188197142Y-123678242D01*
G37*
G36*
X133731000Y-124371000D02*
G01*
X132429000Y-124371000D01*
X132429000Y-123069000D01*
X133731000Y-123069000D01*
X133731000Y-124371000D01*
X133731000Y-124371000D01*
G37*
G36*
X131731000Y-124371000D02*
G01*
X130429000Y-124371000D01*
X130429000Y-123069000D01*
X131731000Y-123069000D01*
X131731000Y-124371000D01*
X131731000Y-124371000D01*
G37*
G36*
X128634499Y-122223445D02*
G01*
X128671995Y-122234820D01*
X128706554Y-122253292D01*
X128736847Y-122278153D01*
X128761708Y-122308446D01*
X128780180Y-122343005D01*
X128791555Y-122380501D01*
X128796000Y-122425638D01*
X128796000Y-123164362D01*
X128791555Y-123209499D01*
X128780180Y-123246995D01*
X128761708Y-123281554D01*
X128736847Y-123311847D01*
X128706554Y-123336708D01*
X128671995Y-123355180D01*
X128634499Y-123366555D01*
X128589362Y-123371000D01*
X127950638Y-123371000D01*
X127905501Y-123366555D01*
X127868005Y-123355180D01*
X127833446Y-123336708D01*
X127803153Y-123311847D01*
X127778292Y-123281554D01*
X127759820Y-123246995D01*
X127748445Y-123209499D01*
X127744000Y-123164362D01*
X127744000Y-122425638D01*
X127748445Y-122380501D01*
X127759820Y-122343005D01*
X127778292Y-122308446D01*
X127803153Y-122278153D01*
X127833446Y-122253292D01*
X127868005Y-122234820D01*
X127905501Y-122223445D01*
X127950638Y-122219000D01*
X128589362Y-122219000D01*
X128634499Y-122223445D01*
X128634499Y-122223445D01*
G37*
G36*
X136254499Y-122223445D02*
G01*
X136291995Y-122234820D01*
X136326554Y-122253292D01*
X136356847Y-122278153D01*
X136381708Y-122308446D01*
X136400180Y-122343005D01*
X136411555Y-122380501D01*
X136416000Y-122425638D01*
X136416000Y-123164362D01*
X136411555Y-123209499D01*
X136400180Y-123246995D01*
X136381708Y-123281554D01*
X136356847Y-123311847D01*
X136326554Y-123336708D01*
X136291995Y-123355180D01*
X136254499Y-123366555D01*
X136209362Y-123371000D01*
X135570638Y-123371000D01*
X135525501Y-123366555D01*
X135488005Y-123355180D01*
X135453446Y-123336708D01*
X135423153Y-123311847D01*
X135398292Y-123281554D01*
X135379820Y-123246995D01*
X135368445Y-123209499D01*
X135364000Y-123164362D01*
X135364000Y-122425638D01*
X135368445Y-122380501D01*
X135379820Y-122343005D01*
X135398292Y-122308446D01*
X135423153Y-122278153D01*
X135453446Y-122253292D01*
X135488005Y-122234820D01*
X135525501Y-122223445D01*
X135570638Y-122219000D01*
X136209362Y-122219000D01*
X136254499Y-122223445D01*
X136254499Y-122223445D01*
G37*
G36*
X208517142Y-121138242D02*
G01*
X208665101Y-121199529D01*
X208798255Y-121288499D01*
X208911501Y-121401745D01*
X209000471Y-121534899D01*
X209061758Y-121682858D01*
X209093000Y-121839925D01*
X209093000Y-122000075D01*
X209061758Y-122157142D01*
X209000471Y-122305101D01*
X208911501Y-122438255D01*
X208798255Y-122551501D01*
X208665101Y-122640471D01*
X208517142Y-122701758D01*
X208360075Y-122733000D01*
X208199925Y-122733000D01*
X208042858Y-122701758D01*
X207894899Y-122640471D01*
X207761745Y-122551501D01*
X207648499Y-122438255D01*
X207559529Y-122305101D01*
X207498242Y-122157142D01*
X207467000Y-122000075D01*
X207467000Y-121839925D01*
X207498242Y-121682858D01*
X207559529Y-121534899D01*
X207648499Y-121401745D01*
X207761745Y-121288499D01*
X207894899Y-121199529D01*
X208042858Y-121138242D01*
X208199925Y-121107000D01*
X208360075Y-121107000D01*
X208517142Y-121138242D01*
X208517142Y-121138242D01*
G37*
G36*
X211633000Y-122733000D02*
G01*
X210007000Y-122733000D01*
X210007000Y-121107000D01*
X211633000Y-121107000D01*
X211633000Y-122733000D01*
X211633000Y-122733000D01*
G37*
G36*
X161826000Y-122681000D02*
G01*
X158214000Y-122681000D01*
X158214000Y-120039000D01*
X161826000Y-120039000D01*
X161826000Y-122681000D01*
X161826000Y-122681000D01*
G37*
G36*
X128634499Y-120473445D02*
G01*
X128671995Y-120484820D01*
X128706554Y-120503292D01*
X128736847Y-120528153D01*
X128761708Y-120558446D01*
X128780180Y-120593005D01*
X128791555Y-120630501D01*
X128796000Y-120675638D01*
X128796000Y-121414362D01*
X128791555Y-121459499D01*
X128780180Y-121496995D01*
X128761708Y-121531554D01*
X128736847Y-121561847D01*
X128706554Y-121586708D01*
X128671995Y-121605180D01*
X128634499Y-121616555D01*
X128589362Y-121621000D01*
X127950638Y-121621000D01*
X127905501Y-121616555D01*
X127868005Y-121605180D01*
X127833446Y-121586708D01*
X127803153Y-121561847D01*
X127778292Y-121531554D01*
X127759820Y-121496995D01*
X127748445Y-121459499D01*
X127744000Y-121414362D01*
X127744000Y-120675638D01*
X127748445Y-120630501D01*
X127759820Y-120593005D01*
X127778292Y-120558446D01*
X127803153Y-120528153D01*
X127833446Y-120503292D01*
X127868005Y-120484820D01*
X127905501Y-120473445D01*
X127950638Y-120469000D01*
X128589362Y-120469000D01*
X128634499Y-120473445D01*
X128634499Y-120473445D01*
G37*
G36*
X136254499Y-120473445D02*
G01*
X136291995Y-120484820D01*
X136326554Y-120503292D01*
X136356847Y-120528153D01*
X136381708Y-120558446D01*
X136400180Y-120593005D01*
X136411555Y-120630501D01*
X136416000Y-120675638D01*
X136416000Y-121414362D01*
X136411555Y-121459499D01*
X136400180Y-121496995D01*
X136381708Y-121531554D01*
X136356847Y-121561847D01*
X136326554Y-121586708D01*
X136291995Y-121605180D01*
X136254499Y-121616555D01*
X136209362Y-121621000D01*
X135570638Y-121621000D01*
X135525501Y-121616555D01*
X135488005Y-121605180D01*
X135453446Y-121586708D01*
X135423153Y-121561847D01*
X135398292Y-121531554D01*
X135379820Y-121496995D01*
X135368445Y-121459499D01*
X135364000Y-121414362D01*
X135364000Y-120675638D01*
X135368445Y-120630501D01*
X135379820Y-120593005D01*
X135398292Y-120558446D01*
X135423153Y-120528153D01*
X135453446Y-120503292D01*
X135488005Y-120484820D01*
X135525501Y-120473445D01*
X135570638Y-120469000D01*
X136209362Y-120469000D01*
X136254499Y-120473445D01*
X136254499Y-120473445D01*
G37*
G36*
X132931000Y-121271000D02*
G01*
X131229000Y-121271000D01*
X131229000Y-119669000D01*
X132931000Y-119669000D01*
X132931000Y-121271000D01*
X132931000Y-121271000D01*
G37*
G36*
X211057142Y-118598242D02*
G01*
X211205101Y-118659529D01*
X211338255Y-118748499D01*
X211451501Y-118861745D01*
X211540471Y-118994899D01*
X211601758Y-119142858D01*
X211633000Y-119299925D01*
X211633000Y-119460075D01*
X211601758Y-119617142D01*
X211540471Y-119765101D01*
X211451501Y-119898255D01*
X211338255Y-120011501D01*
X211205101Y-120100471D01*
X211057142Y-120161758D01*
X210900075Y-120193000D01*
X210739925Y-120193000D01*
X210582858Y-120161758D01*
X210434899Y-120100471D01*
X210301745Y-120011501D01*
X210188499Y-119898255D01*
X210099529Y-119765101D01*
X210038242Y-119617142D01*
X210007000Y-119460075D01*
X210007000Y-119299925D01*
X210038242Y-119142858D01*
X210099529Y-118994899D01*
X210188499Y-118861745D01*
X210301745Y-118748499D01*
X210434899Y-118659529D01*
X210582858Y-118598242D01*
X210739925Y-118567000D01*
X210900075Y-118567000D01*
X211057142Y-118598242D01*
X211057142Y-118598242D01*
G37*
G36*
X208517142Y-118598242D02*
G01*
X208665101Y-118659529D01*
X208798255Y-118748499D01*
X208911501Y-118861745D01*
X209000471Y-118994899D01*
X209061758Y-119142858D01*
X209093000Y-119299925D01*
X209093000Y-119460075D01*
X209061758Y-119617142D01*
X209000471Y-119765101D01*
X208911501Y-119898255D01*
X208798255Y-120011501D01*
X208665101Y-120100471D01*
X208517142Y-120161758D01*
X208360075Y-120193000D01*
X208199925Y-120193000D01*
X208042858Y-120161758D01*
X207894899Y-120100471D01*
X207761745Y-120011501D01*
X207648499Y-119898255D01*
X207559529Y-119765101D01*
X207498242Y-119617142D01*
X207467000Y-119460075D01*
X207467000Y-119299925D01*
X207498242Y-119142858D01*
X207559529Y-118994899D01*
X207648499Y-118861745D01*
X207761745Y-118748499D01*
X207894899Y-118659529D01*
X208042858Y-118598242D01*
X208199925Y-118567000D01*
X208360075Y-118567000D01*
X208517142Y-118598242D01*
X208517142Y-118598242D01*
G37*
G36*
X211057142Y-116058242D02*
G01*
X211205101Y-116119529D01*
X211338255Y-116208499D01*
X211451501Y-116321745D01*
X211540471Y-116454899D01*
X211601758Y-116602858D01*
X211633000Y-116759925D01*
X211633000Y-116920075D01*
X211601758Y-117077142D01*
X211540471Y-117225101D01*
X211451501Y-117358255D01*
X211338255Y-117471501D01*
X211205101Y-117560471D01*
X211057142Y-117621758D01*
X210900075Y-117653000D01*
X210739925Y-117653000D01*
X210582858Y-117621758D01*
X210434899Y-117560471D01*
X210301745Y-117471501D01*
X210188499Y-117358255D01*
X210099529Y-117225101D01*
X210038242Y-117077142D01*
X210007000Y-116920075D01*
X210007000Y-116759925D01*
X210038242Y-116602858D01*
X210099529Y-116454899D01*
X210188499Y-116321745D01*
X210301745Y-116208499D01*
X210434899Y-116119529D01*
X210582858Y-116058242D01*
X210739925Y-116027000D01*
X210900075Y-116027000D01*
X211057142Y-116058242D01*
X211057142Y-116058242D01*
G37*
G36*
X208517142Y-116058242D02*
G01*
X208665101Y-116119529D01*
X208798255Y-116208499D01*
X208911501Y-116321745D01*
X209000471Y-116454899D01*
X209061758Y-116602858D01*
X209093000Y-116759925D01*
X209093000Y-116920075D01*
X209061758Y-117077142D01*
X209000471Y-117225101D01*
X208911501Y-117358255D01*
X208798255Y-117471501D01*
X208665101Y-117560471D01*
X208517142Y-117621758D01*
X208360075Y-117653000D01*
X208199925Y-117653000D01*
X208042858Y-117621758D01*
X207894899Y-117560471D01*
X207761745Y-117471501D01*
X207648499Y-117358255D01*
X207559529Y-117225101D01*
X207498242Y-117077142D01*
X207467000Y-116920075D01*
X207467000Y-116759925D01*
X207498242Y-116602858D01*
X207559529Y-116454899D01*
X207648499Y-116321745D01*
X207761745Y-116208499D01*
X207894899Y-116119529D01*
X208042858Y-116058242D01*
X208199925Y-116027000D01*
X208360075Y-116027000D01*
X208517142Y-116058242D01*
X208517142Y-116058242D01*
G37*
G36*
X134581000Y-116556000D02*
G01*
X132979000Y-116556000D01*
X132979000Y-115854000D01*
X134581000Y-115854000D01*
X134581000Y-116556000D01*
X134581000Y-116556000D01*
G37*
G36*
X143881000Y-116556000D02*
G01*
X142279000Y-116556000D01*
X142279000Y-115854000D01*
X143881000Y-115854000D01*
X143881000Y-116556000D01*
X143881000Y-116556000D01*
G37*
G36*
X143881000Y-115286000D02*
G01*
X142279000Y-115286000D01*
X142279000Y-114584000D01*
X143881000Y-114584000D01*
X143881000Y-115286000D01*
X143881000Y-115286000D01*
G37*
G36*
X134581000Y-115286000D02*
G01*
X132979000Y-115286000D01*
X132979000Y-114584000D01*
X134581000Y-114584000D01*
X134581000Y-115286000D01*
X134581000Y-115286000D01*
G37*
G36*
X208517142Y-113518242D02*
G01*
X208665101Y-113579529D01*
X208798255Y-113668499D01*
X208911501Y-113781745D01*
X209000471Y-113914899D01*
X209061758Y-114062858D01*
X209093000Y-114219925D01*
X209093000Y-114380075D01*
X209061758Y-114537142D01*
X209000471Y-114685101D01*
X208911501Y-114818255D01*
X208798255Y-114931501D01*
X208665101Y-115020471D01*
X208517142Y-115081758D01*
X208360075Y-115113000D01*
X208199925Y-115113000D01*
X208042858Y-115081758D01*
X207894899Y-115020471D01*
X207761745Y-114931501D01*
X207648499Y-114818255D01*
X207559529Y-114685101D01*
X207498242Y-114537142D01*
X207467000Y-114380075D01*
X207467000Y-114219925D01*
X207498242Y-114062858D01*
X207559529Y-113914899D01*
X207648499Y-113781745D01*
X207761745Y-113668499D01*
X207894899Y-113579529D01*
X208042858Y-113518242D01*
X208199925Y-113487000D01*
X208360075Y-113487000D01*
X208517142Y-113518242D01*
X208517142Y-113518242D01*
G37*
G36*
X211057142Y-113518242D02*
G01*
X211205101Y-113579529D01*
X211338255Y-113668499D01*
X211451501Y-113781745D01*
X211540471Y-113914899D01*
X211601758Y-114062858D01*
X211633000Y-114219925D01*
X211633000Y-114380075D01*
X211601758Y-114537142D01*
X211540471Y-114685101D01*
X211451501Y-114818255D01*
X211338255Y-114931501D01*
X211205101Y-115020471D01*
X211057142Y-115081758D01*
X210900075Y-115113000D01*
X210739925Y-115113000D01*
X210582858Y-115081758D01*
X210434899Y-115020471D01*
X210301745Y-114931501D01*
X210188499Y-114818255D01*
X210099529Y-114685101D01*
X210038242Y-114537142D01*
X210007000Y-114380075D01*
X210007000Y-114219925D01*
X210038242Y-114062858D01*
X210099529Y-113914899D01*
X210188499Y-113781745D01*
X210301745Y-113668499D01*
X210434899Y-113579529D01*
X210582858Y-113518242D01*
X210739925Y-113487000D01*
X210900075Y-113487000D01*
X211057142Y-113518242D01*
X211057142Y-113518242D01*
G37*
G36*
X147366999Y-113333445D02*
G01*
X147404495Y-113344820D01*
X147439054Y-113363292D01*
X147469347Y-113388153D01*
X147494208Y-113418446D01*
X147512680Y-113453005D01*
X147524055Y-113490501D01*
X147528500Y-113535638D01*
X147528500Y-114274362D01*
X147524055Y-114319499D01*
X147512680Y-114356995D01*
X147494208Y-114391554D01*
X147469347Y-114421847D01*
X147439054Y-114446708D01*
X147404495Y-114465180D01*
X147366999Y-114476555D01*
X147321862Y-114481000D01*
X146683138Y-114481000D01*
X146638001Y-114476555D01*
X146600505Y-114465180D01*
X146565946Y-114446708D01*
X146535653Y-114421847D01*
X146510792Y-114391554D01*
X146492320Y-114356995D01*
X146480945Y-114319499D01*
X146476500Y-114274362D01*
X146476500Y-113535638D01*
X146480945Y-113490501D01*
X146492320Y-113453005D01*
X146510792Y-113418446D01*
X146535653Y-113388153D01*
X146565946Y-113363292D01*
X146600505Y-113344820D01*
X146638001Y-113333445D01*
X146683138Y-113329000D01*
X147321862Y-113329000D01*
X147366999Y-113333445D01*
X147366999Y-113333445D01*
G37*
G36*
X204253786Y-111807746D02*
G01*
X204284461Y-111817051D01*
X204312729Y-111832161D01*
X204337506Y-111852494D01*
X204357839Y-111877271D01*
X204372949Y-111905539D01*
X204382254Y-111936214D01*
X204386000Y-111974251D01*
X204386000Y-114085749D01*
X204382254Y-114123786D01*
X204372949Y-114154461D01*
X204357839Y-114182729D01*
X204337506Y-114207506D01*
X204312729Y-114227839D01*
X204284461Y-114242949D01*
X204253786Y-114252254D01*
X204215749Y-114256000D01*
X202204251Y-114256000D01*
X202166214Y-114252254D01*
X202135539Y-114242949D01*
X202107271Y-114227839D01*
X202082494Y-114207506D01*
X202062161Y-114182729D01*
X202047051Y-114154461D01*
X202037746Y-114123786D01*
X202034000Y-114085749D01*
X202034000Y-111974251D01*
X202037746Y-111936214D01*
X202047051Y-111905539D01*
X202062161Y-111877271D01*
X202082494Y-111852494D01*
X202107271Y-111832161D01*
X202135539Y-111817051D01*
X202166214Y-111807746D01*
X202204251Y-111804000D01*
X204215749Y-111804000D01*
X204253786Y-111807746D01*
X204253786Y-111807746D01*
G37*
G36*
X199153786Y-111807746D02*
G01*
X199184461Y-111817051D01*
X199212729Y-111832161D01*
X199237506Y-111852494D01*
X199257839Y-111877271D01*
X199272949Y-111905539D01*
X199282254Y-111936214D01*
X199286000Y-111974251D01*
X199286000Y-114085749D01*
X199282254Y-114123786D01*
X199272949Y-114154461D01*
X199257839Y-114182729D01*
X199237506Y-114207506D01*
X199212729Y-114227839D01*
X199184461Y-114242949D01*
X199153786Y-114252254D01*
X199115749Y-114256000D01*
X197104251Y-114256000D01*
X197066214Y-114252254D01*
X197035539Y-114242949D01*
X197007271Y-114227839D01*
X196982494Y-114207506D01*
X196962161Y-114182729D01*
X196947051Y-114154461D01*
X196937746Y-114123786D01*
X196934000Y-114085749D01*
X196934000Y-111974251D01*
X196937746Y-111936214D01*
X196947051Y-111905539D01*
X196962161Y-111877271D01*
X196982494Y-111852494D01*
X197007271Y-111832161D01*
X197035539Y-111817051D01*
X197066214Y-111807746D01*
X197104251Y-111804000D01*
X199115749Y-111804000D01*
X199153786Y-111807746D01*
X199153786Y-111807746D01*
G37*
G36*
X143881000Y-114016000D02*
G01*
X142279000Y-114016000D01*
X142279000Y-113314000D01*
X143881000Y-113314000D01*
X143881000Y-114016000D01*
X143881000Y-114016000D01*
G37*
G36*
X134581000Y-114016000D02*
G01*
X132979000Y-114016000D01*
X132979000Y-113314000D01*
X134581000Y-113314000D01*
X134581000Y-114016000D01*
X134581000Y-114016000D01*
G37*
G36*
X130437199Y-110559954D02*
G01*
X130449450Y-110560556D01*
X130467869Y-110560556D01*
X130490149Y-110562750D01*
X130574233Y-110579476D01*
X130595660Y-110585976D01*
X130674858Y-110618780D01*
X130680303Y-110621691D01*
X130680309Y-110621693D01*
X130689169Y-110626429D01*
X130689173Y-110626432D01*
X130694614Y-110629340D01*
X130765899Y-110676971D01*
X130783204Y-110691172D01*
X130843828Y-110751796D01*
X130858029Y-110769101D01*
X130905660Y-110840386D01*
X130908568Y-110845827D01*
X130908571Y-110845831D01*
X130913307Y-110854691D01*
X130913309Y-110854697D01*
X130916220Y-110860142D01*
X130949024Y-110939340D01*
X130955524Y-110960767D01*
X130972250Y-111044851D01*
X130974444Y-111067131D01*
X130974444Y-111085550D01*
X130975046Y-111097801D01*
X130976852Y-111116139D01*
X130976852Y-111603860D01*
X130975263Y-111619999D01*
X130972348Y-111629608D01*
X130967610Y-111638472D01*
X130961237Y-111646237D01*
X130948794Y-111656448D01*
X130938425Y-111663378D01*
X130921098Y-111680705D01*
X130907485Y-111701080D01*
X130898109Y-111723720D01*
X130893329Y-111747753D01*
X130893330Y-111772257D01*
X130898112Y-111796290D01*
X130907490Y-111818929D01*
X130921105Y-111839302D01*
X130938432Y-111856629D01*
X130948802Y-111863558D01*
X130961237Y-111873763D01*
X130967610Y-111881528D01*
X130972348Y-111890392D01*
X130975263Y-111900001D01*
X130976852Y-111916140D01*
X130976852Y-112403862D01*
X130975046Y-112422199D01*
X130974444Y-112434450D01*
X130974444Y-112452869D01*
X130972250Y-112475149D01*
X130955524Y-112559233D01*
X130949024Y-112580660D01*
X130916220Y-112659858D01*
X130913309Y-112665303D01*
X130913307Y-112665309D01*
X130908571Y-112674169D01*
X130908568Y-112674173D01*
X130905660Y-112679614D01*
X130858029Y-112750899D01*
X130843828Y-112768204D01*
X130783204Y-112828828D01*
X130765899Y-112843029D01*
X130694614Y-112890660D01*
X130689173Y-112893568D01*
X130689169Y-112893571D01*
X130680309Y-112898307D01*
X130680303Y-112898309D01*
X130674858Y-112901220D01*
X130595660Y-112934024D01*
X130574233Y-112940524D01*
X130490149Y-112957250D01*
X130467869Y-112959444D01*
X130449450Y-112959444D01*
X130437199Y-112960046D01*
X130418862Y-112961852D01*
X129931138Y-112961852D01*
X129912801Y-112960046D01*
X129900550Y-112959444D01*
X129882131Y-112959444D01*
X129859851Y-112957250D01*
X129775767Y-112940524D01*
X129754340Y-112934024D01*
X129675142Y-112901220D01*
X129669697Y-112898309D01*
X129669691Y-112898307D01*
X129660831Y-112893571D01*
X129660827Y-112893568D01*
X129655386Y-112890660D01*
X129584101Y-112843029D01*
X129566796Y-112828828D01*
X129506172Y-112768204D01*
X129491971Y-112750899D01*
X129444340Y-112679614D01*
X129441432Y-112674173D01*
X129441429Y-112674169D01*
X129436693Y-112665309D01*
X129436691Y-112665303D01*
X129433780Y-112659858D01*
X129400976Y-112580660D01*
X129394476Y-112559233D01*
X129377750Y-112475149D01*
X129375556Y-112452869D01*
X129375556Y-112434450D01*
X129374954Y-112422199D01*
X129373148Y-112403862D01*
X129373148Y-111916140D01*
X129374737Y-111900001D01*
X129377652Y-111890392D01*
X129382390Y-111881528D01*
X129388763Y-111873763D01*
X129401206Y-111863552D01*
X129411575Y-111856622D01*
X129428902Y-111839295D01*
X129442515Y-111818920D01*
X129451891Y-111796280D01*
X129456671Y-111772247D01*
X129456670Y-111747743D01*
X129451888Y-111723710D01*
X129442510Y-111701071D01*
X129428895Y-111680698D01*
X129411568Y-111663371D01*
X129401198Y-111656442D01*
X129388763Y-111646237D01*
X129382390Y-111638472D01*
X129377652Y-111629608D01*
X129374737Y-111619999D01*
X129373148Y-111603860D01*
X129373148Y-111116139D01*
X129374954Y-111097801D01*
X129375556Y-111085550D01*
X129375556Y-111067131D01*
X129377750Y-111044851D01*
X129394476Y-110960767D01*
X129400976Y-110939340D01*
X129433780Y-110860142D01*
X129436691Y-110854697D01*
X129436693Y-110854691D01*
X129441429Y-110845831D01*
X129441432Y-110845827D01*
X129444340Y-110840386D01*
X129491971Y-110769101D01*
X129506172Y-110751796D01*
X129566796Y-110691172D01*
X129584101Y-110676971D01*
X129655386Y-110629340D01*
X129660827Y-110626432D01*
X129660831Y-110626429D01*
X129669691Y-110621693D01*
X129669697Y-110621691D01*
X129675142Y-110618780D01*
X129754340Y-110585976D01*
X129775767Y-110579476D01*
X129859851Y-110562750D01*
X129882131Y-110560556D01*
X129900550Y-110560556D01*
X129912801Y-110559954D01*
X129931139Y-110558148D01*
X130418861Y-110558148D01*
X130437199Y-110559954D01*
X130437199Y-110559954D01*
G37*
G36*
X134581000Y-112746000D02*
G01*
X132979000Y-112746000D01*
X132979000Y-112044000D01*
X134581000Y-112044000D01*
X134581000Y-112746000D01*
X134581000Y-112746000D01*
G37*
G36*
X143881000Y-112746000D02*
G01*
X142279000Y-112746000D01*
X142279000Y-112044000D01*
X143881000Y-112044000D01*
X143881000Y-112746000D01*
X143881000Y-112746000D01*
G37*
G36*
X147366999Y-111583445D02*
G01*
X147404495Y-111594820D01*
X147439054Y-111613292D01*
X147469347Y-111638153D01*
X147494208Y-111668446D01*
X147512680Y-111703005D01*
X147524055Y-111740501D01*
X147528500Y-111785638D01*
X147528500Y-112524362D01*
X147524055Y-112569499D01*
X147512680Y-112606995D01*
X147494208Y-112641554D01*
X147469347Y-112671847D01*
X147439054Y-112696708D01*
X147404495Y-112715180D01*
X147366999Y-112726555D01*
X147321862Y-112731000D01*
X146683138Y-112731000D01*
X146638001Y-112726555D01*
X146600505Y-112715180D01*
X146565946Y-112696708D01*
X146535653Y-112671847D01*
X146510792Y-112641554D01*
X146492320Y-112606995D01*
X146480945Y-112569499D01*
X146476500Y-112524362D01*
X146476500Y-111785638D01*
X146480945Y-111740501D01*
X146492320Y-111703005D01*
X146510792Y-111668446D01*
X146535653Y-111638153D01*
X146565946Y-111613292D01*
X146600505Y-111594820D01*
X146638001Y-111583445D01*
X146683138Y-111579000D01*
X147321862Y-111579000D01*
X147366999Y-111583445D01*
X147366999Y-111583445D01*
G37*
G36*
X211057142Y-110978242D02*
G01*
X211205101Y-111039529D01*
X211338255Y-111128499D01*
X211451501Y-111241745D01*
X211540471Y-111374899D01*
X211601758Y-111522858D01*
X211633000Y-111679925D01*
X211633000Y-111840075D01*
X211601758Y-111997142D01*
X211540471Y-112145101D01*
X211451501Y-112278255D01*
X211338255Y-112391501D01*
X211205101Y-112480471D01*
X211057142Y-112541758D01*
X210900075Y-112573000D01*
X210739925Y-112573000D01*
X210582858Y-112541758D01*
X210434899Y-112480471D01*
X210301745Y-112391501D01*
X210188499Y-112278255D01*
X210099529Y-112145101D01*
X210038242Y-111997142D01*
X210007000Y-111840075D01*
X210007000Y-111679925D01*
X210038242Y-111522858D01*
X210099529Y-111374899D01*
X210188499Y-111241745D01*
X210301745Y-111128499D01*
X210434899Y-111039529D01*
X210582858Y-110978242D01*
X210739925Y-110947000D01*
X210900075Y-110947000D01*
X211057142Y-110978242D01*
X211057142Y-110978242D01*
G37*
G36*
X208517142Y-110978242D02*
G01*
X208665101Y-111039529D01*
X208798255Y-111128499D01*
X208911501Y-111241745D01*
X209000471Y-111374899D01*
X209061758Y-111522858D01*
X209093000Y-111679925D01*
X209093000Y-111840075D01*
X209061758Y-111997142D01*
X209000471Y-112145101D01*
X208911501Y-112278255D01*
X208798255Y-112391501D01*
X208665101Y-112480471D01*
X208517142Y-112541758D01*
X208360075Y-112573000D01*
X208199925Y-112573000D01*
X208042858Y-112541758D01*
X207894899Y-112480471D01*
X207761745Y-112391501D01*
X207648499Y-112278255D01*
X207559529Y-112145101D01*
X207498242Y-111997142D01*
X207467000Y-111840075D01*
X207467000Y-111679925D01*
X207498242Y-111522858D01*
X207559529Y-111374899D01*
X207648499Y-111241745D01*
X207761745Y-111128499D01*
X207894899Y-111039529D01*
X208042858Y-110978242D01*
X208199925Y-110947000D01*
X208360075Y-110947000D01*
X208517142Y-110978242D01*
X208517142Y-110978242D01*
G37*
G36*
X134581000Y-111476000D02*
G01*
X132979000Y-111476000D01*
X132979000Y-110774000D01*
X134581000Y-110774000D01*
X134581000Y-111476000D01*
X134581000Y-111476000D01*
G37*
G36*
X143881000Y-111476000D02*
G01*
X142279000Y-111476000D01*
X142279000Y-110774000D01*
X143881000Y-110774000D01*
X143881000Y-111476000D01*
X143881000Y-111476000D01*
G37*
G36*
X173084499Y-109523445D02*
G01*
X173121995Y-109534820D01*
X173156554Y-109553292D01*
X173186847Y-109578153D01*
X173211708Y-109608446D01*
X173230180Y-109643005D01*
X173241555Y-109680501D01*
X173246000Y-109725638D01*
X173246000Y-110464362D01*
X173241555Y-110509499D01*
X173230180Y-110546995D01*
X173211708Y-110581554D01*
X173186847Y-110611847D01*
X173156554Y-110636708D01*
X173121995Y-110655180D01*
X173084499Y-110666555D01*
X173039362Y-110671000D01*
X172400638Y-110671000D01*
X172355501Y-110666555D01*
X172318005Y-110655180D01*
X172283446Y-110636708D01*
X172253153Y-110611847D01*
X172228292Y-110581554D01*
X172209820Y-110546995D01*
X172198445Y-110509499D01*
X172194000Y-110464362D01*
X172194000Y-109725638D01*
X172198445Y-109680501D01*
X172209820Y-109643005D01*
X172228292Y-109608446D01*
X172253153Y-109578153D01*
X172283446Y-109553292D01*
X172318005Y-109534820D01*
X172355501Y-109523445D01*
X172400638Y-109519000D01*
X173039362Y-109519000D01*
X173084499Y-109523445D01*
X173084499Y-109523445D01*
G37*
G36*
X147264699Y-108019954D02*
G01*
X147276950Y-108020556D01*
X147295369Y-108020556D01*
X147317649Y-108022750D01*
X147401733Y-108039476D01*
X147423160Y-108045976D01*
X147502358Y-108078780D01*
X147507803Y-108081691D01*
X147507809Y-108081693D01*
X147516669Y-108086429D01*
X147516673Y-108086432D01*
X147522114Y-108089340D01*
X147593399Y-108136971D01*
X147610704Y-108151172D01*
X147671328Y-108211796D01*
X147685529Y-108229101D01*
X147733160Y-108300386D01*
X147736068Y-108305827D01*
X147736071Y-108305831D01*
X147740807Y-108314691D01*
X147740809Y-108314697D01*
X147743720Y-108320142D01*
X147776524Y-108399340D01*
X147783024Y-108420767D01*
X147799750Y-108504851D01*
X147801944Y-108527131D01*
X147801944Y-108545550D01*
X147802546Y-108557801D01*
X147804352Y-108576139D01*
X147804352Y-109063860D01*
X147802763Y-109079999D01*
X147799848Y-109089608D01*
X147795110Y-109098472D01*
X147788737Y-109106237D01*
X147776294Y-109116448D01*
X147765925Y-109123378D01*
X147748598Y-109140705D01*
X147734985Y-109161080D01*
X147725609Y-109183720D01*
X147720829Y-109207753D01*
X147720830Y-109232257D01*
X147725612Y-109256290D01*
X147734990Y-109278929D01*
X147748605Y-109299302D01*
X147765932Y-109316629D01*
X147776302Y-109323558D01*
X147788737Y-109333763D01*
X147795110Y-109341528D01*
X147799848Y-109350392D01*
X147802763Y-109360001D01*
X147804352Y-109376140D01*
X147804352Y-109863862D01*
X147802546Y-109882199D01*
X147801944Y-109894450D01*
X147801944Y-109912869D01*
X147799750Y-109935149D01*
X147783024Y-110019233D01*
X147776524Y-110040660D01*
X147743720Y-110119858D01*
X147740809Y-110125303D01*
X147740807Y-110125309D01*
X147736071Y-110134169D01*
X147736068Y-110134173D01*
X147733160Y-110139614D01*
X147685529Y-110210899D01*
X147671328Y-110228204D01*
X147610704Y-110288828D01*
X147593399Y-110303029D01*
X147522114Y-110350660D01*
X147516673Y-110353568D01*
X147516669Y-110353571D01*
X147507809Y-110358307D01*
X147507803Y-110358309D01*
X147502358Y-110361220D01*
X147423160Y-110394024D01*
X147401733Y-110400524D01*
X147317649Y-110417250D01*
X147295369Y-110419444D01*
X147276950Y-110419444D01*
X147264699Y-110420046D01*
X147246362Y-110421852D01*
X146758638Y-110421852D01*
X146740301Y-110420046D01*
X146728050Y-110419444D01*
X146709631Y-110419444D01*
X146687351Y-110417250D01*
X146603267Y-110400524D01*
X146581840Y-110394024D01*
X146502642Y-110361220D01*
X146497197Y-110358309D01*
X146497191Y-110358307D01*
X146488331Y-110353571D01*
X146488327Y-110353568D01*
X146482886Y-110350660D01*
X146411601Y-110303029D01*
X146394296Y-110288828D01*
X146333672Y-110228204D01*
X146319471Y-110210899D01*
X146271840Y-110139614D01*
X146268932Y-110134173D01*
X146268929Y-110134169D01*
X146264193Y-110125309D01*
X146264191Y-110125303D01*
X146261280Y-110119858D01*
X146228476Y-110040660D01*
X146221976Y-110019233D01*
X146205250Y-109935149D01*
X146203056Y-109912869D01*
X146203056Y-109894450D01*
X146202454Y-109882199D01*
X146200648Y-109863862D01*
X146200648Y-109376140D01*
X146202237Y-109360001D01*
X146205152Y-109350392D01*
X146209890Y-109341528D01*
X146216263Y-109333763D01*
X146228706Y-109323552D01*
X146239075Y-109316622D01*
X146256402Y-109299295D01*
X146270015Y-109278920D01*
X146279391Y-109256280D01*
X146284171Y-109232247D01*
X146284170Y-109207743D01*
X146279388Y-109183710D01*
X146270010Y-109161071D01*
X146256395Y-109140698D01*
X146239068Y-109123371D01*
X146228698Y-109116442D01*
X146216263Y-109106237D01*
X146209890Y-109098472D01*
X146205152Y-109089608D01*
X146202237Y-109079999D01*
X146200648Y-109063860D01*
X146200648Y-108576139D01*
X146202454Y-108557801D01*
X146203056Y-108545550D01*
X146203056Y-108527131D01*
X146205250Y-108504851D01*
X146221976Y-108420767D01*
X146228476Y-108399340D01*
X146261280Y-108320142D01*
X146264191Y-108314697D01*
X146264193Y-108314691D01*
X146268929Y-108305831D01*
X146268932Y-108305827D01*
X146271840Y-108300386D01*
X146319471Y-108229101D01*
X146333672Y-108211796D01*
X146394296Y-108151172D01*
X146411601Y-108136971D01*
X146482886Y-108089340D01*
X146488327Y-108086432D01*
X146488331Y-108086429D01*
X146497191Y-108081693D01*
X146497197Y-108081691D01*
X146502642Y-108078780D01*
X146581840Y-108045976D01*
X146603267Y-108039476D01*
X146687351Y-108022750D01*
X146709631Y-108020556D01*
X146728050Y-108020556D01*
X146740301Y-108019954D01*
X146758639Y-108018148D01*
X147246361Y-108018148D01*
X147264699Y-108019954D01*
X147264699Y-108019954D01*
G37*
G36*
X134581000Y-110206000D02*
G01*
X132979000Y-110206000D01*
X132979000Y-109504000D01*
X134581000Y-109504000D01*
X134581000Y-110206000D01*
X134581000Y-110206000D01*
G37*
G36*
X143881000Y-110206000D02*
G01*
X142279000Y-110206000D01*
X142279000Y-109504000D01*
X143881000Y-109504000D01*
X143881000Y-110206000D01*
X143881000Y-110206000D01*
G37*
G36*
X134581000Y-108936000D02*
G01*
X132979000Y-108936000D01*
X132979000Y-108234000D01*
X134581000Y-108234000D01*
X134581000Y-108936000D01*
X134581000Y-108936000D01*
G37*
G36*
X143881000Y-108936000D02*
G01*
X142279000Y-108936000D01*
X142279000Y-108234000D01*
X143881000Y-108234000D01*
X143881000Y-108936000D01*
X143881000Y-108936000D01*
G37*
G36*
X173084499Y-107773445D02*
G01*
X173121995Y-107784820D01*
X173156554Y-107803292D01*
X173186847Y-107828153D01*
X173211708Y-107858446D01*
X173230180Y-107893005D01*
X173241555Y-107930501D01*
X173246000Y-107975638D01*
X173246000Y-108714362D01*
X173241555Y-108759499D01*
X173230180Y-108796995D01*
X173211708Y-108831554D01*
X173186847Y-108861847D01*
X173156554Y-108886708D01*
X173121995Y-108905180D01*
X173084499Y-108916555D01*
X173039362Y-108921000D01*
X172400638Y-108921000D01*
X172355501Y-108916555D01*
X172318005Y-108905180D01*
X172283446Y-108886708D01*
X172253153Y-108861847D01*
X172228292Y-108831554D01*
X172209820Y-108796995D01*
X172198445Y-108759499D01*
X172194000Y-108714362D01*
X172194000Y-107975638D01*
X172198445Y-107930501D01*
X172209820Y-107893005D01*
X172228292Y-107858446D01*
X172253153Y-107828153D01*
X172283446Y-107803292D01*
X172318005Y-107784820D01*
X172355501Y-107773445D01*
X172400638Y-107769000D01*
X173039362Y-107769000D01*
X173084499Y-107773445D01*
X173084499Y-107773445D01*
G37*
G36*
X143881000Y-107666000D02*
G01*
X142279000Y-107666000D01*
X142279000Y-106964000D01*
X143881000Y-106964000D01*
X143881000Y-107666000D01*
X143881000Y-107666000D01*
G37*
G36*
X134581000Y-107666000D02*
G01*
X132979000Y-107666000D01*
X132979000Y-106964000D01*
X134581000Y-106964000D01*
X134581000Y-107666000D01*
X134581000Y-107666000D01*
G37*
G36*
X212143642Y-105282281D02*
G01*
X212289414Y-105342662D01*
X212289416Y-105342663D01*
X212420608Y-105430322D01*
X212532178Y-105541892D01*
X212590655Y-105629410D01*
X212619838Y-105673086D01*
X212680219Y-105818858D01*
X212711000Y-105973607D01*
X212711000Y-106131393D01*
X212680219Y-106286142D01*
X212619838Y-106431914D01*
X212619837Y-106431916D01*
X212532178Y-106563108D01*
X212420608Y-106674678D01*
X212289416Y-106762337D01*
X212289415Y-106762338D01*
X212289414Y-106762338D01*
X212143642Y-106822719D01*
X211988893Y-106853500D01*
X211831107Y-106853500D01*
X211676358Y-106822719D01*
X211530586Y-106762338D01*
X211530585Y-106762338D01*
X211530584Y-106762337D01*
X211399392Y-106674678D01*
X211287822Y-106563108D01*
X211200163Y-106431916D01*
X211200162Y-106431914D01*
X211139781Y-106286142D01*
X211109000Y-106131393D01*
X211109000Y-105973607D01*
X211139781Y-105818858D01*
X211200162Y-105673086D01*
X211229345Y-105629410D01*
X211287822Y-105541892D01*
X211399392Y-105430322D01*
X211530584Y-105342663D01*
X211530586Y-105342662D01*
X211676358Y-105282281D01*
X211831107Y-105251500D01*
X211988893Y-105251500D01*
X212143642Y-105282281D01*
X212143642Y-105282281D01*
G37*
G36*
X209399890Y-104426517D02*
G01*
X209478359Y-104459020D01*
X209518364Y-104475591D01*
X209624988Y-104546835D01*
X209715665Y-104637512D01*
X209758755Y-104702000D01*
X209786910Y-104744138D01*
X209835983Y-104862610D01*
X209861000Y-104988381D01*
X209861000Y-105116619D01*
X209835983Y-105242390D01*
X209819460Y-105282281D01*
X209786909Y-105360864D01*
X209715665Y-105467488D01*
X209624988Y-105558165D01*
X209518364Y-105629409D01*
X209518363Y-105629410D01*
X209518362Y-105629410D01*
X209399890Y-105678483D01*
X209274119Y-105703500D01*
X209145881Y-105703500D01*
X209020110Y-105678483D01*
X208901638Y-105629410D01*
X208901637Y-105629410D01*
X208901636Y-105629409D01*
X208795012Y-105558165D01*
X208704335Y-105467488D01*
X208633091Y-105360864D01*
X208600541Y-105282281D01*
X208584017Y-105242390D01*
X208559000Y-105116619D01*
X208559000Y-104988381D01*
X208584017Y-104862610D01*
X208633090Y-104744138D01*
X208661246Y-104702000D01*
X208704335Y-104637512D01*
X208795012Y-104546835D01*
X208901636Y-104475591D01*
X208941642Y-104459020D01*
X209020110Y-104426517D01*
X209145881Y-104401500D01*
X209274119Y-104401500D01*
X209399890Y-104426517D01*
X209399890Y-104426517D01*
G37*
G36*
X193404499Y-104443445D02*
G01*
X193441995Y-104454820D01*
X193476554Y-104473292D01*
X193506847Y-104498153D01*
X193531708Y-104528446D01*
X193550180Y-104563005D01*
X193561555Y-104600501D01*
X193566000Y-104645638D01*
X193566000Y-105384362D01*
X193561555Y-105429499D01*
X193550180Y-105466995D01*
X193531708Y-105501554D01*
X193506847Y-105531847D01*
X193476554Y-105556708D01*
X193441995Y-105575180D01*
X193404499Y-105586555D01*
X193359362Y-105591000D01*
X192720638Y-105591000D01*
X192675501Y-105586555D01*
X192638005Y-105575180D01*
X192603446Y-105556708D01*
X192573153Y-105531847D01*
X192548292Y-105501554D01*
X192529820Y-105466995D01*
X192518445Y-105429499D01*
X192514000Y-105384362D01*
X192514000Y-104645638D01*
X192518445Y-104600501D01*
X192529820Y-104563005D01*
X192548292Y-104528446D01*
X192573153Y-104498153D01*
X192603446Y-104473292D01*
X192638005Y-104454820D01*
X192675501Y-104443445D01*
X192720638Y-104439000D01*
X193359362Y-104439000D01*
X193404499Y-104443445D01*
X193404499Y-104443445D01*
G37*
G36*
X193404499Y-102693445D02*
G01*
X193441995Y-102704820D01*
X193476554Y-102723292D01*
X193506847Y-102748153D01*
X193531708Y-102778446D01*
X193550180Y-102813005D01*
X193561555Y-102850501D01*
X193566000Y-102895638D01*
X193566000Y-103634362D01*
X193561555Y-103679499D01*
X193550180Y-103716995D01*
X193531708Y-103751554D01*
X193506847Y-103781847D01*
X193476554Y-103806708D01*
X193441995Y-103825180D01*
X193404499Y-103836555D01*
X193359362Y-103841000D01*
X192720638Y-103841000D01*
X192675501Y-103836555D01*
X192638005Y-103825180D01*
X192603446Y-103806708D01*
X192573153Y-103781847D01*
X192548292Y-103751554D01*
X192529820Y-103716995D01*
X192518445Y-103679499D01*
X192514000Y-103634362D01*
X192514000Y-102895638D01*
X192518445Y-102850501D01*
X192529820Y-102813005D01*
X192548292Y-102778446D01*
X192573153Y-102748153D01*
X192603446Y-102723292D01*
X192638005Y-102704820D01*
X192675501Y-102693445D01*
X192720638Y-102689000D01*
X193359362Y-102689000D01*
X193404499Y-102693445D01*
X193404499Y-102693445D01*
G37*
G36*
X172982199Y-99749954D02*
G01*
X172994450Y-99750556D01*
X173012869Y-99750556D01*
X173035149Y-99752750D01*
X173119233Y-99769476D01*
X173140660Y-99775976D01*
X173219858Y-99808780D01*
X173225303Y-99811691D01*
X173225309Y-99811693D01*
X173234169Y-99816429D01*
X173234173Y-99816432D01*
X173239614Y-99819340D01*
X173310899Y-99866971D01*
X173328204Y-99881172D01*
X173388828Y-99941796D01*
X173403029Y-99959101D01*
X173450660Y-100030386D01*
X173453568Y-100035827D01*
X173453571Y-100035831D01*
X173458307Y-100044691D01*
X173458309Y-100044697D01*
X173461220Y-100050142D01*
X173494024Y-100129340D01*
X173500524Y-100150767D01*
X173517250Y-100234851D01*
X173519444Y-100257131D01*
X173519444Y-100275550D01*
X173520046Y-100287801D01*
X173521852Y-100306139D01*
X173521852Y-100843860D01*
X173520263Y-100859999D01*
X173515855Y-100874528D01*
X173510394Y-100887711D01*
X173505612Y-100911745D01*
X173505611Y-100936249D01*
X173510391Y-100960282D01*
X173519768Y-100982921D01*
X173521000Y-100984765D01*
X173521000Y-102216050D01*
X173514525Y-102228164D01*
X173507412Y-102251613D01*
X173505010Y-102275999D01*
X173507412Y-102300385D01*
X173514525Y-102323834D01*
X173516848Y-102328746D01*
X173520263Y-102340001D01*
X173521852Y-102356140D01*
X173521852Y-102893862D01*
X173520046Y-102912199D01*
X173519444Y-102924450D01*
X173519444Y-102942869D01*
X173517250Y-102965149D01*
X173500524Y-103049233D01*
X173494024Y-103070660D01*
X173461220Y-103149858D01*
X173458309Y-103155303D01*
X173458307Y-103155309D01*
X173453571Y-103164169D01*
X173453568Y-103164173D01*
X173450660Y-103169614D01*
X173403029Y-103240899D01*
X173388828Y-103258204D01*
X173328204Y-103318828D01*
X173310899Y-103333029D01*
X173239614Y-103380660D01*
X173234173Y-103383568D01*
X173234169Y-103383571D01*
X173225309Y-103388307D01*
X173225303Y-103388309D01*
X173219858Y-103391220D01*
X173140660Y-103424024D01*
X173119233Y-103430524D01*
X173035149Y-103447250D01*
X173012869Y-103449444D01*
X172994450Y-103449444D01*
X172982199Y-103450046D01*
X172963862Y-103451852D01*
X172476138Y-103451852D01*
X172457801Y-103450046D01*
X172445550Y-103449444D01*
X172427131Y-103449444D01*
X172404851Y-103447250D01*
X172320767Y-103430524D01*
X172299340Y-103424024D01*
X172220142Y-103391220D01*
X172214697Y-103388309D01*
X172214691Y-103388307D01*
X172205831Y-103383571D01*
X172205827Y-103383568D01*
X172200386Y-103380660D01*
X172129101Y-103333029D01*
X172111796Y-103318828D01*
X172051172Y-103258204D01*
X172036971Y-103240899D01*
X171989340Y-103169614D01*
X171986432Y-103164173D01*
X171986429Y-103164169D01*
X171981693Y-103155309D01*
X171981691Y-103155303D01*
X171978780Y-103149858D01*
X171945976Y-103070660D01*
X171939476Y-103049233D01*
X171922750Y-102965149D01*
X171920556Y-102942869D01*
X171920556Y-102924450D01*
X171919954Y-102912199D01*
X171918148Y-102893862D01*
X171918148Y-102356140D01*
X171919737Y-102340001D01*
X171924145Y-102325472D01*
X171929606Y-102312289D01*
X171934388Y-102288255D01*
X171934389Y-102263751D01*
X171929609Y-102239718D01*
X171920232Y-102217079D01*
X171919000Y-102215235D01*
X171919000Y-100983950D01*
X171925475Y-100971836D01*
X171932588Y-100948387D01*
X171934990Y-100924001D01*
X171932588Y-100899615D01*
X171925475Y-100876166D01*
X171923152Y-100871254D01*
X171919737Y-100859999D01*
X171918148Y-100843860D01*
X171918148Y-100306139D01*
X171919954Y-100287801D01*
X171920556Y-100275550D01*
X171920556Y-100257131D01*
X171922750Y-100234851D01*
X171939476Y-100150767D01*
X171945976Y-100129340D01*
X171978780Y-100050142D01*
X171981691Y-100044697D01*
X171981693Y-100044691D01*
X171986429Y-100035831D01*
X171986432Y-100035827D01*
X171989340Y-100030386D01*
X172036971Y-99959101D01*
X172051172Y-99941796D01*
X172111796Y-99881172D01*
X172129101Y-99866971D01*
X172200386Y-99819340D01*
X172205827Y-99816432D01*
X172205831Y-99816429D01*
X172214691Y-99811693D01*
X172214697Y-99811691D01*
X172220142Y-99808780D01*
X172299340Y-99775976D01*
X172320767Y-99769476D01*
X172404851Y-99752750D01*
X172427131Y-99750556D01*
X172445550Y-99750556D01*
X172457801Y-99749954D01*
X172476139Y-99748148D01*
X172963861Y-99748148D01*
X172982199Y-99749954D01*
X172982199Y-99749954D01*
G37*
G36*
X175522199Y-99749954D02*
G01*
X175534450Y-99750556D01*
X175552869Y-99750556D01*
X175575149Y-99752750D01*
X175659233Y-99769476D01*
X175680660Y-99775976D01*
X175759858Y-99808780D01*
X175765303Y-99811691D01*
X175765309Y-99811693D01*
X175774169Y-99816429D01*
X175774173Y-99816432D01*
X175779614Y-99819340D01*
X175850899Y-99866971D01*
X175868204Y-99881172D01*
X175928828Y-99941796D01*
X175943029Y-99959101D01*
X175990660Y-100030386D01*
X175993568Y-100035827D01*
X175993571Y-100035831D01*
X175998307Y-100044691D01*
X175998309Y-100044697D01*
X176001220Y-100050142D01*
X176034024Y-100129340D01*
X176040524Y-100150767D01*
X176057250Y-100234851D01*
X176059444Y-100257131D01*
X176059444Y-100275550D01*
X176060046Y-100287801D01*
X176061852Y-100306139D01*
X176061852Y-100843860D01*
X176060263Y-100859999D01*
X176055855Y-100874528D01*
X176050394Y-100887711D01*
X176045612Y-100911745D01*
X176045611Y-100936249D01*
X176050391Y-100960282D01*
X176059768Y-100982921D01*
X176061000Y-100984765D01*
X176061000Y-102216050D01*
X176054525Y-102228164D01*
X176047412Y-102251613D01*
X176045010Y-102275999D01*
X176047412Y-102300385D01*
X176054525Y-102323834D01*
X176056848Y-102328746D01*
X176060263Y-102340001D01*
X176061852Y-102356140D01*
X176061852Y-102893862D01*
X176060046Y-102912199D01*
X176059444Y-102924450D01*
X176059444Y-102942869D01*
X176057250Y-102965149D01*
X176040524Y-103049233D01*
X176034024Y-103070660D01*
X176001220Y-103149858D01*
X175998309Y-103155303D01*
X175998307Y-103155309D01*
X175993571Y-103164169D01*
X175993568Y-103164173D01*
X175990660Y-103169614D01*
X175943029Y-103240899D01*
X175928828Y-103258204D01*
X175868204Y-103318828D01*
X175850899Y-103333029D01*
X175779614Y-103380660D01*
X175774173Y-103383568D01*
X175774169Y-103383571D01*
X175765309Y-103388307D01*
X175765303Y-103388309D01*
X175759858Y-103391220D01*
X175680660Y-103424024D01*
X175659233Y-103430524D01*
X175575149Y-103447250D01*
X175552869Y-103449444D01*
X175534450Y-103449444D01*
X175522199Y-103450046D01*
X175503862Y-103451852D01*
X175016138Y-103451852D01*
X174997801Y-103450046D01*
X174985550Y-103449444D01*
X174967131Y-103449444D01*
X174944851Y-103447250D01*
X174860767Y-103430524D01*
X174839340Y-103424024D01*
X174760142Y-103391220D01*
X174754697Y-103388309D01*
X174754691Y-103388307D01*
X174745831Y-103383571D01*
X174745827Y-103383568D01*
X174740386Y-103380660D01*
X174669101Y-103333029D01*
X174651796Y-103318828D01*
X174591172Y-103258204D01*
X174576971Y-103240899D01*
X174529340Y-103169614D01*
X174526432Y-103164173D01*
X174526429Y-103164169D01*
X174521693Y-103155309D01*
X174521691Y-103155303D01*
X174518780Y-103149858D01*
X174485976Y-103070660D01*
X174479476Y-103049233D01*
X174462750Y-102965149D01*
X174460556Y-102942869D01*
X174460556Y-102924450D01*
X174459954Y-102912199D01*
X174458148Y-102893862D01*
X174458148Y-102356140D01*
X174459737Y-102340001D01*
X174464145Y-102325472D01*
X174469606Y-102312289D01*
X174474388Y-102288255D01*
X174474389Y-102263751D01*
X174469609Y-102239718D01*
X174460232Y-102217079D01*
X174459000Y-102215235D01*
X174459000Y-100983950D01*
X174465475Y-100971836D01*
X174472588Y-100948387D01*
X174474990Y-100924001D01*
X174472588Y-100899615D01*
X174465475Y-100876166D01*
X174463152Y-100871254D01*
X174459737Y-100859999D01*
X174458148Y-100843860D01*
X174458148Y-100306139D01*
X174459954Y-100287801D01*
X174460556Y-100275550D01*
X174460556Y-100257131D01*
X174462750Y-100234851D01*
X174479476Y-100150767D01*
X174485976Y-100129340D01*
X174518780Y-100050142D01*
X174521691Y-100044697D01*
X174521693Y-100044691D01*
X174526429Y-100035831D01*
X174526432Y-100035827D01*
X174529340Y-100030386D01*
X174576971Y-99959101D01*
X174591172Y-99941796D01*
X174651796Y-99881172D01*
X174669101Y-99866971D01*
X174740386Y-99819340D01*
X174745827Y-99816432D01*
X174745831Y-99816429D01*
X174754691Y-99811693D01*
X174754697Y-99811691D01*
X174760142Y-99808780D01*
X174839340Y-99775976D01*
X174860767Y-99769476D01*
X174944851Y-99752750D01*
X174967131Y-99750556D01*
X174985550Y-99750556D01*
X174997801Y-99749954D01*
X175016139Y-99748148D01*
X175503861Y-99748148D01*
X175522199Y-99749954D01*
X175522199Y-99749954D01*
G37*
G36*
X209399890Y-99426517D02*
G01*
X209518364Y-99475591D01*
X209624988Y-99546835D01*
X209715665Y-99637512D01*
X209740499Y-99674678D01*
X209786910Y-99744138D01*
X209835983Y-99862610D01*
X209861000Y-99988381D01*
X209861000Y-100116619D01*
X209854208Y-100150767D01*
X209835983Y-100242390D01*
X209786909Y-100360864D01*
X209715665Y-100467488D01*
X209624988Y-100558165D01*
X209518364Y-100629409D01*
X209518363Y-100629410D01*
X209518362Y-100629410D01*
X209399890Y-100678483D01*
X209274119Y-100703500D01*
X209145881Y-100703500D01*
X209020110Y-100678483D01*
X208901638Y-100629410D01*
X208901637Y-100629410D01*
X208901636Y-100629409D01*
X208795012Y-100558165D01*
X208704335Y-100467488D01*
X208633091Y-100360864D01*
X208584017Y-100242390D01*
X208565792Y-100150767D01*
X208559000Y-100116619D01*
X208559000Y-99988381D01*
X208584017Y-99862610D01*
X208633090Y-99744138D01*
X208679502Y-99674678D01*
X208704335Y-99637512D01*
X208795012Y-99546835D01*
X208901636Y-99475591D01*
X209020110Y-99426517D01*
X209145881Y-99401500D01*
X209274119Y-99401500D01*
X209399890Y-99426517D01*
X209399890Y-99426517D01*
G37*
G36*
X212143642Y-98282281D02*
G01*
X212289414Y-98342662D01*
X212289416Y-98342663D01*
X212420608Y-98430322D01*
X212532178Y-98541892D01*
X212619837Y-98673084D01*
X212619838Y-98673086D01*
X212680219Y-98818858D01*
X212711000Y-98973607D01*
X212711000Y-99131393D01*
X212680219Y-99286142D01*
X212619838Y-99431914D01*
X212619837Y-99431916D01*
X212532178Y-99563108D01*
X212420608Y-99674678D01*
X212289416Y-99762337D01*
X212289415Y-99762338D01*
X212289414Y-99762338D01*
X212143642Y-99822719D01*
X211988893Y-99853500D01*
X211831107Y-99853500D01*
X211676358Y-99822719D01*
X211530586Y-99762338D01*
X211530585Y-99762338D01*
X211530584Y-99762337D01*
X211399392Y-99674678D01*
X211287822Y-99563108D01*
X211200163Y-99431916D01*
X211200162Y-99431914D01*
X211139781Y-99286142D01*
X211109000Y-99131393D01*
X211109000Y-98973607D01*
X211139781Y-98818858D01*
X211200162Y-98673086D01*
X211200163Y-98673084D01*
X211287822Y-98541892D01*
X211399392Y-98430322D01*
X211530584Y-98342663D01*
X211530586Y-98342662D01*
X211676358Y-98282281D01*
X211831107Y-98251500D01*
X211988893Y-98251500D01*
X212143642Y-98282281D01*
X212143642Y-98282281D01*
G37*
G36*
X130601056Y-94022298D02*
G01*
X130707379Y-94043447D01*
X131007842Y-94167903D01*
X131278251Y-94348585D01*
X131508215Y-94578549D01*
X131678979Y-94834115D01*
X131688898Y-94848960D01*
X131699257Y-94873969D01*
X131813353Y-95149421D01*
X131876800Y-95468391D01*
X131876800Y-95793609D01*
X131813353Y-96112579D01*
X131688897Y-96413042D01*
X131508215Y-96683451D01*
X131278251Y-96913415D01*
X131007842Y-97094097D01*
X130707379Y-97218553D01*
X130601056Y-97239702D01*
X130388411Y-97282000D01*
X130063189Y-97282000D01*
X129850544Y-97239702D01*
X129744221Y-97218553D01*
X129443758Y-97094097D01*
X129173349Y-96913415D01*
X128943385Y-96683451D01*
X128762703Y-96413042D01*
X128638247Y-96112579D01*
X128574800Y-95793609D01*
X128574800Y-95468391D01*
X128638247Y-95149421D01*
X128752343Y-94873969D01*
X128762702Y-94848960D01*
X128772621Y-94834115D01*
X128943385Y-94578549D01*
X129173349Y-94348585D01*
X129443758Y-94167903D01*
X129744221Y-94043447D01*
X129850544Y-94022298D01*
X130063189Y-93980000D01*
X130388411Y-93980000D01*
X130601056Y-94022298D01*
X130601056Y-94022298D01*
G37*
G36*
X170861999Y-95553445D02*
G01*
X170899495Y-95564820D01*
X170934054Y-95583292D01*
X170964347Y-95608153D01*
X170989208Y-95638446D01*
X171007680Y-95673005D01*
X171019055Y-95710501D01*
X171023500Y-95755638D01*
X171023500Y-96494362D01*
X171019055Y-96539499D01*
X171007680Y-96576995D01*
X170989208Y-96611554D01*
X170964347Y-96641847D01*
X170934054Y-96666708D01*
X170899495Y-96685180D01*
X170861999Y-96696555D01*
X170816862Y-96701000D01*
X170178138Y-96701000D01*
X170133001Y-96696555D01*
X170095505Y-96685180D01*
X170060946Y-96666708D01*
X170030653Y-96641847D01*
X170005792Y-96611554D01*
X169987320Y-96576995D01*
X169975945Y-96539499D01*
X169971500Y-96494362D01*
X169971500Y-95755638D01*
X169975945Y-95710501D01*
X169987320Y-95673005D01*
X170005792Y-95638446D01*
X170030653Y-95608153D01*
X170060946Y-95583292D01*
X170095505Y-95564820D01*
X170133001Y-95553445D01*
X170178138Y-95549000D01*
X170816862Y-95549000D01*
X170861999Y-95553445D01*
X170861999Y-95553445D01*
G37*
G36*
X170861999Y-93803445D02*
G01*
X170899495Y-93814820D01*
X170934054Y-93833292D01*
X170964347Y-93858153D01*
X170989208Y-93888446D01*
X171007680Y-93923005D01*
X171019055Y-93960501D01*
X171023500Y-94005638D01*
X171023500Y-94744362D01*
X171019055Y-94789499D01*
X171007680Y-94826995D01*
X170989208Y-94861554D01*
X170964347Y-94891847D01*
X170934054Y-94916708D01*
X170899495Y-94935180D01*
X170861999Y-94946555D01*
X170816862Y-94951000D01*
X170178138Y-94951000D01*
X170133001Y-94946555D01*
X170095505Y-94935180D01*
X170060946Y-94916708D01*
X170030653Y-94891847D01*
X170005792Y-94861554D01*
X169987320Y-94826995D01*
X169975945Y-94789499D01*
X169971500Y-94744362D01*
X169971500Y-94005638D01*
X169975945Y-93960501D01*
X169987320Y-93923005D01*
X170005792Y-93888446D01*
X170030653Y-93858153D01*
X170060946Y-93833292D01*
X170095505Y-93814820D01*
X170133001Y-93803445D01*
X170178138Y-93799000D01*
X170816862Y-93799000D01*
X170861999Y-93803445D01*
X170861999Y-93803445D01*
G37*
G36*
X211633000Y-94793000D02*
G01*
X210007000Y-94793000D01*
X210007000Y-93167000D01*
X211633000Y-93167000D01*
X211633000Y-94793000D01*
X211633000Y-94793000D01*
G37*
G36*
X167463786Y-91547746D02*
G01*
X167494461Y-91557051D01*
X167522729Y-91572161D01*
X167547506Y-91592494D01*
X167567839Y-91617271D01*
X167582949Y-91645539D01*
X167592254Y-91676214D01*
X167596000Y-91714251D01*
X167596000Y-93725749D01*
X167592254Y-93763786D01*
X167582949Y-93794461D01*
X167567839Y-93822729D01*
X167547506Y-93847506D01*
X167522729Y-93867839D01*
X167494461Y-93882949D01*
X167463786Y-93892254D01*
X167425749Y-93896000D01*
X165314251Y-93896000D01*
X165276214Y-93892254D01*
X165245539Y-93882949D01*
X165217271Y-93867839D01*
X165192494Y-93847506D01*
X165172161Y-93822729D01*
X165157051Y-93794461D01*
X165147746Y-93763786D01*
X165144000Y-93725749D01*
X165144000Y-91714251D01*
X165147746Y-91676214D01*
X165157051Y-91645539D01*
X165172161Y-91617271D01*
X165192494Y-91592494D01*
X165217271Y-91572161D01*
X165245539Y-91557051D01*
X165276214Y-91547746D01*
X165314251Y-91544000D01*
X167425749Y-91544000D01*
X167463786Y-91547746D01*
X167463786Y-91547746D01*
G37*
G36*
X175718786Y-91547746D02*
G01*
X175749461Y-91557051D01*
X175777729Y-91572161D01*
X175802506Y-91592494D01*
X175822839Y-91617271D01*
X175837949Y-91645539D01*
X175847254Y-91676214D01*
X175851000Y-91714251D01*
X175851000Y-93725749D01*
X175847254Y-93763786D01*
X175837949Y-93794461D01*
X175822839Y-93822729D01*
X175802506Y-93847506D01*
X175777729Y-93867839D01*
X175749461Y-93882949D01*
X175718786Y-93892254D01*
X175680749Y-93896000D01*
X173569251Y-93896000D01*
X173531214Y-93892254D01*
X173500539Y-93882949D01*
X173472271Y-93867839D01*
X173447494Y-93847506D01*
X173427161Y-93822729D01*
X173412051Y-93794461D01*
X173402746Y-93763786D01*
X173399000Y-93725749D01*
X173399000Y-91714251D01*
X173402746Y-91676214D01*
X173412051Y-91645539D01*
X173427161Y-91617271D01*
X173447494Y-91592494D01*
X173472271Y-91572161D01*
X173500539Y-91557051D01*
X173531214Y-91547746D01*
X173569251Y-91544000D01*
X175680749Y-91544000D01*
X175718786Y-91547746D01*
X175718786Y-91547746D01*
G37*
G36*
X161826000Y-93321000D02*
G01*
X158214000Y-93321000D01*
X158214000Y-90679000D01*
X161826000Y-90679000D01*
X161826000Y-93321000D01*
X161826000Y-93321000D01*
G37*
G36*
X211057142Y-90658242D02*
G01*
X211205101Y-90719529D01*
X211338255Y-90808499D01*
X211451501Y-90921745D01*
X211540471Y-91054899D01*
X211601758Y-91202858D01*
X211633000Y-91359925D01*
X211633000Y-91520075D01*
X211601758Y-91677142D01*
X211540471Y-91825101D01*
X211451501Y-91958255D01*
X211338255Y-92071501D01*
X211205101Y-92160471D01*
X211057142Y-92221758D01*
X210900075Y-92253000D01*
X210739925Y-92253000D01*
X210582858Y-92221758D01*
X210434899Y-92160471D01*
X210301745Y-92071501D01*
X210188499Y-91958255D01*
X210099529Y-91825101D01*
X210038242Y-91677142D01*
X210007000Y-91520075D01*
X210007000Y-91359925D01*
X210038242Y-91202858D01*
X210099529Y-91054899D01*
X210188499Y-90921745D01*
X210301745Y-90808499D01*
X210434899Y-90719529D01*
X210582858Y-90658242D01*
X210739925Y-90627000D01*
X210900075Y-90627000D01*
X211057142Y-90658242D01*
X211057142Y-90658242D01*
G37*
G36*
X141779499Y-90918445D02*
G01*
X141816995Y-90929820D01*
X141851554Y-90948292D01*
X141881847Y-90973153D01*
X141906708Y-91003446D01*
X141925180Y-91038005D01*
X141936555Y-91075501D01*
X141941000Y-91120638D01*
X141941000Y-91759362D01*
X141936555Y-91804499D01*
X141925180Y-91841995D01*
X141906708Y-91876554D01*
X141881847Y-91906847D01*
X141851554Y-91931708D01*
X141816995Y-91950180D01*
X141779499Y-91961555D01*
X141734362Y-91966000D01*
X140995638Y-91966000D01*
X140950501Y-91961555D01*
X140913005Y-91950180D01*
X140878446Y-91931708D01*
X140848153Y-91906847D01*
X140823292Y-91876554D01*
X140804820Y-91841995D01*
X140793445Y-91804499D01*
X140789000Y-91759362D01*
X140789000Y-91120638D01*
X140793445Y-91075501D01*
X140804820Y-91038005D01*
X140823292Y-91003446D01*
X140848153Y-90973153D01*
X140878446Y-90948292D01*
X140913005Y-90929820D01*
X140950501Y-90918445D01*
X140995638Y-90914000D01*
X141734362Y-90914000D01*
X141779499Y-90918445D01*
X141779499Y-90918445D01*
G37*
G36*
X143529499Y-90918445D02*
G01*
X143566995Y-90929820D01*
X143601554Y-90948292D01*
X143631847Y-90973153D01*
X143656708Y-91003446D01*
X143675180Y-91038005D01*
X143686555Y-91075501D01*
X143691000Y-91120638D01*
X143691000Y-91759362D01*
X143686555Y-91804499D01*
X143675180Y-91841995D01*
X143656708Y-91876554D01*
X143631847Y-91906847D01*
X143601554Y-91931708D01*
X143566995Y-91950180D01*
X143529499Y-91961555D01*
X143484362Y-91966000D01*
X142745638Y-91966000D01*
X142700501Y-91961555D01*
X142663005Y-91950180D01*
X142628446Y-91931708D01*
X142598153Y-91906847D01*
X142573292Y-91876554D01*
X142554820Y-91841995D01*
X142543445Y-91804499D01*
X142539000Y-91759362D01*
X142539000Y-91120638D01*
X142543445Y-91075501D01*
X142554820Y-91038005D01*
X142573292Y-91003446D01*
X142598153Y-90973153D01*
X142628446Y-90948292D01*
X142663005Y-90929820D01*
X142700501Y-90918445D01*
X142745638Y-90914000D01*
X143484362Y-90914000D01*
X143529499Y-90918445D01*
X143529499Y-90918445D01*
G37*
G36*
X148609499Y-90918445D02*
G01*
X148646995Y-90929820D01*
X148681554Y-90948292D01*
X148711847Y-90973153D01*
X148736708Y-91003446D01*
X148755180Y-91038005D01*
X148766555Y-91075501D01*
X148771000Y-91120638D01*
X148771000Y-91759362D01*
X148766555Y-91804499D01*
X148755180Y-91841995D01*
X148736708Y-91876554D01*
X148711847Y-91906847D01*
X148681554Y-91931708D01*
X148646995Y-91950180D01*
X148609499Y-91961555D01*
X148564362Y-91966000D01*
X147825638Y-91966000D01*
X147780501Y-91961555D01*
X147743005Y-91950180D01*
X147708446Y-91931708D01*
X147678153Y-91906847D01*
X147653292Y-91876554D01*
X147634820Y-91841995D01*
X147623445Y-91804499D01*
X147619000Y-91759362D01*
X147619000Y-91120638D01*
X147623445Y-91075501D01*
X147634820Y-91038005D01*
X147653292Y-91003446D01*
X147678153Y-90973153D01*
X147708446Y-90948292D01*
X147743005Y-90929820D01*
X147780501Y-90918445D01*
X147825638Y-90914000D01*
X148564362Y-90914000D01*
X148609499Y-90918445D01*
X148609499Y-90918445D01*
G37*
G36*
X146859499Y-90918445D02*
G01*
X146896995Y-90929820D01*
X146931554Y-90948292D01*
X146961847Y-90973153D01*
X146986708Y-91003446D01*
X147005180Y-91038005D01*
X147016555Y-91075501D01*
X147021000Y-91120638D01*
X147021000Y-91759362D01*
X147016555Y-91804499D01*
X147005180Y-91841995D01*
X146986708Y-91876554D01*
X146961847Y-91906847D01*
X146931554Y-91931708D01*
X146896995Y-91950180D01*
X146859499Y-91961555D01*
X146814362Y-91966000D01*
X146075638Y-91966000D01*
X146030501Y-91961555D01*
X145993005Y-91950180D01*
X145958446Y-91931708D01*
X145928153Y-91906847D01*
X145903292Y-91876554D01*
X145884820Y-91841995D01*
X145873445Y-91804499D01*
X145869000Y-91759362D01*
X145869000Y-91120638D01*
X145873445Y-91075501D01*
X145884820Y-91038005D01*
X145903292Y-91003446D01*
X145928153Y-90973153D01*
X145958446Y-90948292D01*
X145993005Y-90929820D01*
X146030501Y-90918445D01*
X146075638Y-90914000D01*
X146814362Y-90914000D01*
X146859499Y-90918445D01*
X146859499Y-90918445D01*
G37*
G36*
X178799499Y-90790945D02*
G01*
X178836995Y-90802320D01*
X178871554Y-90820792D01*
X178901847Y-90845653D01*
X178926708Y-90875946D01*
X178945180Y-90910505D01*
X178956555Y-90948001D01*
X178961000Y-90993138D01*
X178961000Y-91731862D01*
X178956555Y-91776999D01*
X178945180Y-91814495D01*
X178926708Y-91849054D01*
X178901847Y-91879347D01*
X178871554Y-91904208D01*
X178836995Y-91922680D01*
X178799499Y-91934055D01*
X178754362Y-91938500D01*
X178115638Y-91938500D01*
X178070501Y-91934055D01*
X178033005Y-91922680D01*
X177998446Y-91904208D01*
X177968153Y-91879347D01*
X177943292Y-91849054D01*
X177924820Y-91814495D01*
X177913445Y-91776999D01*
X177909000Y-91731862D01*
X177909000Y-90993138D01*
X177913445Y-90948001D01*
X177924820Y-90910505D01*
X177943292Y-90875946D01*
X177968153Y-90845653D01*
X177998446Y-90820792D01*
X178033005Y-90802320D01*
X178070501Y-90790945D01*
X178115638Y-90786500D01*
X178754362Y-90786500D01*
X178799499Y-90790945D01*
X178799499Y-90790945D01*
G37*
G36*
X171823500Y-91851000D02*
G01*
X171071500Y-91851000D01*
X171071500Y-90689000D01*
X171823500Y-90689000D01*
X171823500Y-91851000D01*
X171823500Y-91851000D01*
G37*
G36*
X169923500Y-91851000D02*
G01*
X169171500Y-91851000D01*
X169171500Y-90689000D01*
X169923500Y-90689000D01*
X169923500Y-91851000D01*
X169923500Y-91851000D01*
G37*
G36*
X178799499Y-89040945D02*
G01*
X178836995Y-89052320D01*
X178871554Y-89070792D01*
X178901847Y-89095653D01*
X178926708Y-89125946D01*
X178945180Y-89160505D01*
X178956555Y-89198001D01*
X178961000Y-89243138D01*
X178961000Y-89981862D01*
X178956555Y-90026999D01*
X178945180Y-90064495D01*
X178926708Y-90099054D01*
X178901847Y-90129347D01*
X178871554Y-90154208D01*
X178836995Y-90172680D01*
X178799499Y-90184055D01*
X178754362Y-90188500D01*
X178115638Y-90188500D01*
X178070501Y-90184055D01*
X178033005Y-90172680D01*
X177998446Y-90154208D01*
X177968153Y-90129347D01*
X177943292Y-90099054D01*
X177924820Y-90064495D01*
X177913445Y-90026999D01*
X177909000Y-89981862D01*
X177909000Y-89243138D01*
X177913445Y-89198001D01*
X177924820Y-89160505D01*
X177943292Y-89125946D01*
X177968153Y-89095653D01*
X177998446Y-89070792D01*
X178033005Y-89052320D01*
X178070501Y-89040945D01*
X178115638Y-89036500D01*
X178754362Y-89036500D01*
X178799499Y-89040945D01*
X178799499Y-89040945D01*
G37*
G36*
X211057142Y-88118242D02*
G01*
X211205101Y-88179529D01*
X211338255Y-88268499D01*
X211451501Y-88381745D01*
X211540471Y-88514899D01*
X211601758Y-88662858D01*
X211633000Y-88819925D01*
X211633000Y-88980075D01*
X211601758Y-89137142D01*
X211540471Y-89285101D01*
X211451501Y-89418255D01*
X211338255Y-89531501D01*
X211205101Y-89620471D01*
X211057142Y-89681758D01*
X210900075Y-89713000D01*
X210739925Y-89713000D01*
X210582858Y-89681758D01*
X210434899Y-89620471D01*
X210301745Y-89531501D01*
X210188499Y-89418255D01*
X210099529Y-89285101D01*
X210038242Y-89137142D01*
X210007000Y-88980075D01*
X210007000Y-88819925D01*
X210038242Y-88662858D01*
X210099529Y-88514899D01*
X210188499Y-88381745D01*
X210301745Y-88268499D01*
X210434899Y-88179529D01*
X210582858Y-88118242D01*
X210739925Y-88087000D01*
X210900075Y-88087000D01*
X211057142Y-88118242D01*
X211057142Y-88118242D01*
G37*
G36*
X171823500Y-89651000D02*
G01*
X169171500Y-89651000D01*
X169171500Y-88489000D01*
X171823500Y-88489000D01*
X171823500Y-89651000D01*
X171823500Y-89651000D01*
G37*
G36*
X157844499Y-87933445D02*
G01*
X157881995Y-87944820D01*
X157916554Y-87963292D01*
X157946847Y-87988153D01*
X157971708Y-88018446D01*
X157990180Y-88053005D01*
X158001555Y-88090501D01*
X158006000Y-88135638D01*
X158006000Y-88874362D01*
X158001555Y-88919499D01*
X157990180Y-88956995D01*
X157971708Y-88991554D01*
X157946847Y-89021847D01*
X157916554Y-89046708D01*
X157881995Y-89065180D01*
X157844499Y-89076555D01*
X157799362Y-89081000D01*
X157160638Y-89081000D01*
X157115501Y-89076555D01*
X157078005Y-89065180D01*
X157043446Y-89046708D01*
X157013153Y-89021847D01*
X156988292Y-88991554D01*
X156969820Y-88956995D01*
X156958445Y-88919499D01*
X156954000Y-88874362D01*
X156954000Y-88135638D01*
X156958445Y-88090501D01*
X156969820Y-88053005D01*
X156988292Y-88018446D01*
X157013153Y-87988153D01*
X157043446Y-87963292D01*
X157078005Y-87944820D01*
X157115501Y-87933445D01*
X157160638Y-87929000D01*
X157799362Y-87929000D01*
X157844499Y-87933445D01*
X157844499Y-87933445D01*
G37*
G36*
X162924499Y-87933445D02*
G01*
X162961995Y-87944820D01*
X162996554Y-87963292D01*
X163026847Y-87988153D01*
X163051708Y-88018446D01*
X163070180Y-88053005D01*
X163081555Y-88090501D01*
X163086000Y-88135638D01*
X163086000Y-88874362D01*
X163081555Y-88919499D01*
X163070180Y-88956995D01*
X163051708Y-88991554D01*
X163026847Y-89021847D01*
X162996554Y-89046708D01*
X162961995Y-89065180D01*
X162924499Y-89076555D01*
X162879362Y-89081000D01*
X162240638Y-89081000D01*
X162195501Y-89076555D01*
X162158005Y-89065180D01*
X162123446Y-89046708D01*
X162093153Y-89021847D01*
X162068292Y-88991554D01*
X162049820Y-88956995D01*
X162038445Y-88919499D01*
X162034000Y-88874362D01*
X162034000Y-88135638D01*
X162038445Y-88090501D01*
X162049820Y-88053005D01*
X162068292Y-88018446D01*
X162093153Y-87988153D01*
X162123446Y-87963292D01*
X162158005Y-87944820D01*
X162195501Y-87933445D01*
X162240638Y-87929000D01*
X162879362Y-87929000D01*
X162924499Y-87933445D01*
X162924499Y-87933445D01*
G37*
G36*
X160384499Y-87933445D02*
G01*
X160421995Y-87944820D01*
X160456554Y-87963292D01*
X160486847Y-87988153D01*
X160511708Y-88018446D01*
X160530180Y-88053005D01*
X160541555Y-88090501D01*
X160546000Y-88135638D01*
X160546000Y-88874362D01*
X160541555Y-88919499D01*
X160530180Y-88956995D01*
X160511708Y-88991554D01*
X160486847Y-89021847D01*
X160456554Y-89046708D01*
X160421995Y-89065180D01*
X160384499Y-89076555D01*
X160339362Y-89081000D01*
X159700638Y-89081000D01*
X159655501Y-89076555D01*
X159618005Y-89065180D01*
X159583446Y-89046708D01*
X159553153Y-89021847D01*
X159528292Y-88991554D01*
X159509820Y-88956995D01*
X159498445Y-88919499D01*
X159494000Y-88874362D01*
X159494000Y-88135638D01*
X159498445Y-88090501D01*
X159509820Y-88053005D01*
X159528292Y-88018446D01*
X159553153Y-87988153D01*
X159583446Y-87963292D01*
X159618005Y-87944820D01*
X159655501Y-87933445D01*
X159700638Y-87929000D01*
X160339362Y-87929000D01*
X160384499Y-87933445D01*
X160384499Y-87933445D01*
G37*
G36*
X155304499Y-87933445D02*
G01*
X155341995Y-87944820D01*
X155376554Y-87963292D01*
X155406847Y-87988153D01*
X155431708Y-88018446D01*
X155450180Y-88053005D01*
X155461555Y-88090501D01*
X155466000Y-88135638D01*
X155466000Y-88874362D01*
X155461555Y-88919499D01*
X155450180Y-88956995D01*
X155431708Y-88991554D01*
X155406847Y-89021847D01*
X155376554Y-89046708D01*
X155341995Y-89065180D01*
X155304499Y-89076555D01*
X155259362Y-89081000D01*
X154620638Y-89081000D01*
X154575501Y-89076555D01*
X154538005Y-89065180D01*
X154503446Y-89046708D01*
X154473153Y-89021847D01*
X154448292Y-88991554D01*
X154429820Y-88956995D01*
X154418445Y-88919499D01*
X154414000Y-88874362D01*
X154414000Y-88135638D01*
X154418445Y-88090501D01*
X154429820Y-88053005D01*
X154448292Y-88018446D01*
X154473153Y-87988153D01*
X154503446Y-87963292D01*
X154538005Y-87944820D01*
X154575501Y-87933445D01*
X154620638Y-87929000D01*
X155259362Y-87929000D01*
X155304499Y-87933445D01*
X155304499Y-87933445D01*
G37*
G36*
X175718786Y-86447746D02*
G01*
X175749461Y-86457051D01*
X175777729Y-86472161D01*
X175802506Y-86492494D01*
X175822839Y-86517271D01*
X175837949Y-86545539D01*
X175847254Y-86576214D01*
X175851000Y-86614251D01*
X175851000Y-88625749D01*
X175847254Y-88663786D01*
X175837949Y-88694461D01*
X175822839Y-88722729D01*
X175802506Y-88747506D01*
X175777729Y-88767839D01*
X175749461Y-88782949D01*
X175718786Y-88792254D01*
X175680749Y-88796000D01*
X173569251Y-88796000D01*
X173531214Y-88792254D01*
X173500539Y-88782949D01*
X173472271Y-88767839D01*
X173447494Y-88747506D01*
X173427161Y-88722729D01*
X173412051Y-88694461D01*
X173402746Y-88663786D01*
X173399000Y-88625749D01*
X173399000Y-86614251D01*
X173402746Y-86576214D01*
X173412051Y-86545539D01*
X173427161Y-86517271D01*
X173447494Y-86492494D01*
X173472271Y-86472161D01*
X173500539Y-86457051D01*
X173531214Y-86447746D01*
X173569251Y-86444000D01*
X175680749Y-86444000D01*
X175718786Y-86447746D01*
X175718786Y-86447746D01*
G37*
G36*
X167463786Y-86447746D02*
G01*
X167494461Y-86457051D01*
X167522729Y-86472161D01*
X167547506Y-86492494D01*
X167567839Y-86517271D01*
X167582949Y-86545539D01*
X167592254Y-86576214D01*
X167596000Y-86614251D01*
X167596000Y-88625749D01*
X167592254Y-88663786D01*
X167582949Y-88694461D01*
X167567839Y-88722729D01*
X167547506Y-88747506D01*
X167522729Y-88767839D01*
X167494461Y-88782949D01*
X167463786Y-88792254D01*
X167425749Y-88796000D01*
X165314251Y-88796000D01*
X165276214Y-88792254D01*
X165245539Y-88782949D01*
X165217271Y-88767839D01*
X165192494Y-88747506D01*
X165172161Y-88722729D01*
X165157051Y-88694461D01*
X165147746Y-88663786D01*
X165144000Y-88625749D01*
X165144000Y-86614251D01*
X165147746Y-86576214D01*
X165157051Y-86545539D01*
X165172161Y-86517271D01*
X165192494Y-86492494D01*
X165217271Y-86472161D01*
X165245539Y-86457051D01*
X165276214Y-86447746D01*
X165314251Y-86444000D01*
X167425749Y-86444000D01*
X167463786Y-86447746D01*
X167463786Y-86447746D01*
G37*
G36*
X155304499Y-86183445D02*
G01*
X155341995Y-86194820D01*
X155376554Y-86213292D01*
X155406847Y-86238153D01*
X155431708Y-86268446D01*
X155450180Y-86303005D01*
X155461555Y-86340501D01*
X155466000Y-86385638D01*
X155466000Y-87124362D01*
X155461555Y-87169499D01*
X155450180Y-87206995D01*
X155431708Y-87241554D01*
X155406847Y-87271847D01*
X155376554Y-87296708D01*
X155341995Y-87315180D01*
X155304499Y-87326555D01*
X155259362Y-87331000D01*
X154620638Y-87331000D01*
X154575501Y-87326555D01*
X154538005Y-87315180D01*
X154503446Y-87296708D01*
X154473153Y-87271847D01*
X154448292Y-87241554D01*
X154429820Y-87206995D01*
X154418445Y-87169499D01*
X154414000Y-87124362D01*
X154414000Y-86385638D01*
X154418445Y-86340501D01*
X154429820Y-86303005D01*
X154448292Y-86268446D01*
X154473153Y-86238153D01*
X154503446Y-86213292D01*
X154538005Y-86194820D01*
X154575501Y-86183445D01*
X154620638Y-86179000D01*
X155259362Y-86179000D01*
X155304499Y-86183445D01*
X155304499Y-86183445D01*
G37*
G36*
X162924499Y-86183445D02*
G01*
X162961995Y-86194820D01*
X162996554Y-86213292D01*
X163026847Y-86238153D01*
X163051708Y-86268446D01*
X163070180Y-86303005D01*
X163081555Y-86340501D01*
X163086000Y-86385638D01*
X163086000Y-87124362D01*
X163081555Y-87169499D01*
X163070180Y-87206995D01*
X163051708Y-87241554D01*
X163026847Y-87271847D01*
X162996554Y-87296708D01*
X162961995Y-87315180D01*
X162924499Y-87326555D01*
X162879362Y-87331000D01*
X162240638Y-87331000D01*
X162195501Y-87326555D01*
X162158005Y-87315180D01*
X162123446Y-87296708D01*
X162093153Y-87271847D01*
X162068292Y-87241554D01*
X162049820Y-87206995D01*
X162038445Y-87169499D01*
X162034000Y-87124362D01*
X162034000Y-86385638D01*
X162038445Y-86340501D01*
X162049820Y-86303005D01*
X162068292Y-86268446D01*
X162093153Y-86238153D01*
X162123446Y-86213292D01*
X162158005Y-86194820D01*
X162195501Y-86183445D01*
X162240638Y-86179000D01*
X162879362Y-86179000D01*
X162924499Y-86183445D01*
X162924499Y-86183445D01*
G37*
G36*
X157844499Y-86183445D02*
G01*
X157881995Y-86194820D01*
X157916554Y-86213292D01*
X157946847Y-86238153D01*
X157971708Y-86268446D01*
X157990180Y-86303005D01*
X158001555Y-86340501D01*
X158006000Y-86385638D01*
X158006000Y-87124362D01*
X158001555Y-87169499D01*
X157990180Y-87206995D01*
X157971708Y-87241554D01*
X157946847Y-87271847D01*
X157916554Y-87296708D01*
X157881995Y-87315180D01*
X157844499Y-87326555D01*
X157799362Y-87331000D01*
X157160638Y-87331000D01*
X157115501Y-87326555D01*
X157078005Y-87315180D01*
X157043446Y-87296708D01*
X157013153Y-87271847D01*
X156988292Y-87241554D01*
X156969820Y-87206995D01*
X156958445Y-87169499D01*
X156954000Y-87124362D01*
X156954000Y-86385638D01*
X156958445Y-86340501D01*
X156969820Y-86303005D01*
X156988292Y-86268446D01*
X157013153Y-86238153D01*
X157043446Y-86213292D01*
X157078005Y-86194820D01*
X157115501Y-86183445D01*
X157160638Y-86179000D01*
X157799362Y-86179000D01*
X157844499Y-86183445D01*
X157844499Y-86183445D01*
G37*
G36*
X160384499Y-86183445D02*
G01*
X160421995Y-86194820D01*
X160456554Y-86213292D01*
X160486847Y-86238153D01*
X160511708Y-86268446D01*
X160530180Y-86303005D01*
X160541555Y-86340501D01*
X160546000Y-86385638D01*
X160546000Y-87124362D01*
X160541555Y-87169499D01*
X160530180Y-87206995D01*
X160511708Y-87241554D01*
X160486847Y-87271847D01*
X160456554Y-87296708D01*
X160421995Y-87315180D01*
X160384499Y-87326555D01*
X160339362Y-87331000D01*
X159700638Y-87331000D01*
X159655501Y-87326555D01*
X159618005Y-87315180D01*
X159583446Y-87296708D01*
X159553153Y-87271847D01*
X159528292Y-87241554D01*
X159509820Y-87206995D01*
X159498445Y-87169499D01*
X159494000Y-87124362D01*
X159494000Y-86385638D01*
X159498445Y-86340501D01*
X159509820Y-86303005D01*
X159528292Y-86268446D01*
X159553153Y-86238153D01*
X159583446Y-86213292D01*
X159618005Y-86194820D01*
X159655501Y-86183445D01*
X159700638Y-86179000D01*
X160339362Y-86179000D01*
X160384499Y-86183445D01*
X160384499Y-86183445D01*
G37*
G36*
X211057142Y-85578242D02*
G01*
X211205101Y-85639529D01*
X211338255Y-85728499D01*
X211451501Y-85841745D01*
X211540471Y-85974899D01*
X211601758Y-86122858D01*
X211633000Y-86279925D01*
X211633000Y-86440075D01*
X211601758Y-86597142D01*
X211540471Y-86745101D01*
X211451501Y-86878255D01*
X211338255Y-86991501D01*
X211205101Y-87080471D01*
X211057142Y-87141758D01*
X210900075Y-87173000D01*
X210739925Y-87173000D01*
X210582858Y-87141758D01*
X210434899Y-87080471D01*
X210301745Y-86991501D01*
X210188499Y-86878255D01*
X210099529Y-86745101D01*
X210038242Y-86597142D01*
X210007000Y-86440075D01*
X210007000Y-86279925D01*
X210038242Y-86122858D01*
X210099529Y-85974899D01*
X210188499Y-85841745D01*
X210301745Y-85728499D01*
X210434899Y-85639529D01*
X210582858Y-85578242D01*
X210739925Y-85547000D01*
X210900075Y-85547000D01*
X211057142Y-85578242D01*
X211057142Y-85578242D01*
G37*
G36*
X170357499Y-85559737D02*
G01*
X170367108Y-85562652D01*
X170375972Y-85567390D01*
X170383737Y-85573763D01*
X170393948Y-85586206D01*
X170400878Y-85596575D01*
X170418205Y-85613902D01*
X170438580Y-85627515D01*
X170461220Y-85636891D01*
X170485253Y-85641671D01*
X170509757Y-85641670D01*
X170533790Y-85636888D01*
X170556429Y-85627510D01*
X170576802Y-85613895D01*
X170594129Y-85596568D01*
X170601058Y-85586198D01*
X170611263Y-85573763D01*
X170619028Y-85567390D01*
X170627892Y-85562652D01*
X170637501Y-85559737D01*
X170653640Y-85558148D01*
X171141361Y-85558148D01*
X171159699Y-85559954D01*
X171171950Y-85560556D01*
X171190369Y-85560556D01*
X171212649Y-85562750D01*
X171296733Y-85579476D01*
X171318160Y-85585976D01*
X171397358Y-85618780D01*
X171402803Y-85621691D01*
X171402809Y-85621693D01*
X171411669Y-85626429D01*
X171411673Y-85626432D01*
X171417114Y-85629340D01*
X171488399Y-85676971D01*
X171505704Y-85691172D01*
X171566328Y-85751796D01*
X171580529Y-85769101D01*
X171628160Y-85840386D01*
X171631068Y-85845827D01*
X171631071Y-85845831D01*
X171635807Y-85854691D01*
X171635809Y-85854697D01*
X171638720Y-85860142D01*
X171671524Y-85939340D01*
X171678024Y-85960767D01*
X171694750Y-86044851D01*
X171696944Y-86067131D01*
X171696944Y-86085550D01*
X171697546Y-86097801D01*
X171699352Y-86116139D01*
X171699352Y-86603862D01*
X171697546Y-86622199D01*
X171696944Y-86634450D01*
X171696944Y-86652869D01*
X171694750Y-86675149D01*
X171678024Y-86759233D01*
X171671524Y-86780660D01*
X171638720Y-86859858D01*
X171635809Y-86865303D01*
X171635807Y-86865309D01*
X171631071Y-86874169D01*
X171631068Y-86874173D01*
X171628160Y-86879614D01*
X171580529Y-86950899D01*
X171566328Y-86968204D01*
X171505704Y-87028828D01*
X171488399Y-87043029D01*
X171417114Y-87090660D01*
X171411673Y-87093568D01*
X171411669Y-87093571D01*
X171402809Y-87098307D01*
X171402803Y-87098309D01*
X171397358Y-87101220D01*
X171318160Y-87134024D01*
X171296733Y-87140524D01*
X171212649Y-87157250D01*
X171190369Y-87159444D01*
X171171950Y-87159444D01*
X171159699Y-87160046D01*
X171141362Y-87161852D01*
X170653640Y-87161852D01*
X170637501Y-87160263D01*
X170627892Y-87157348D01*
X170619028Y-87152610D01*
X170611263Y-87146237D01*
X170601052Y-87133794D01*
X170594122Y-87123425D01*
X170576795Y-87106098D01*
X170556420Y-87092485D01*
X170533780Y-87083109D01*
X170509747Y-87078329D01*
X170485243Y-87078330D01*
X170461210Y-87083112D01*
X170438571Y-87092490D01*
X170418198Y-87106105D01*
X170400871Y-87123432D01*
X170393942Y-87133802D01*
X170383737Y-87146237D01*
X170375972Y-87152610D01*
X170367108Y-87157348D01*
X170357499Y-87160263D01*
X170341360Y-87161852D01*
X169853638Y-87161852D01*
X169835301Y-87160046D01*
X169823050Y-87159444D01*
X169804631Y-87159444D01*
X169782351Y-87157250D01*
X169698267Y-87140524D01*
X169676840Y-87134024D01*
X169597642Y-87101220D01*
X169592197Y-87098309D01*
X169592191Y-87098307D01*
X169583331Y-87093571D01*
X169583327Y-87093568D01*
X169577886Y-87090660D01*
X169506601Y-87043029D01*
X169489296Y-87028828D01*
X169428672Y-86968204D01*
X169414471Y-86950899D01*
X169366840Y-86879614D01*
X169363932Y-86874173D01*
X169363929Y-86874169D01*
X169359193Y-86865309D01*
X169359191Y-86865303D01*
X169356280Y-86859858D01*
X169323476Y-86780660D01*
X169316976Y-86759233D01*
X169300250Y-86675149D01*
X169298056Y-86652869D01*
X169298056Y-86634450D01*
X169297454Y-86622199D01*
X169295648Y-86603862D01*
X169295648Y-86116139D01*
X169297454Y-86097801D01*
X169298056Y-86085550D01*
X169298056Y-86067131D01*
X169300250Y-86044851D01*
X169316976Y-85960767D01*
X169323476Y-85939340D01*
X169356280Y-85860142D01*
X169359191Y-85854697D01*
X169359193Y-85854691D01*
X169363929Y-85845831D01*
X169363932Y-85845827D01*
X169366840Y-85840386D01*
X169414471Y-85769101D01*
X169428672Y-85751796D01*
X169489296Y-85691172D01*
X169506601Y-85676971D01*
X169577886Y-85629340D01*
X169583327Y-85626432D01*
X169583331Y-85626429D01*
X169592191Y-85621693D01*
X169592197Y-85621691D01*
X169597642Y-85618780D01*
X169676840Y-85585976D01*
X169698267Y-85579476D01*
X169782351Y-85562750D01*
X169804631Y-85560556D01*
X169823050Y-85560556D01*
X169835301Y-85559954D01*
X169853639Y-85558148D01*
X170341360Y-85558148D01*
X170357499Y-85559737D01*
X170357499Y-85559737D01*
G37*
G36*
X143529499Y-85838445D02*
G01*
X143566995Y-85849820D01*
X143601554Y-85868292D01*
X143631847Y-85893153D01*
X143656708Y-85923446D01*
X143675180Y-85958005D01*
X143686555Y-85995501D01*
X143691000Y-86040638D01*
X143691000Y-86679362D01*
X143686555Y-86724499D01*
X143675180Y-86761995D01*
X143656708Y-86796554D01*
X143631847Y-86826847D01*
X143601554Y-86851708D01*
X143566995Y-86870180D01*
X143529499Y-86881555D01*
X143484362Y-86886000D01*
X142745638Y-86886000D01*
X142700501Y-86881555D01*
X142663005Y-86870180D01*
X142628446Y-86851708D01*
X142598153Y-86826847D01*
X142573292Y-86796554D01*
X142554820Y-86761995D01*
X142543445Y-86724499D01*
X142539000Y-86679362D01*
X142539000Y-86040638D01*
X142543445Y-85995501D01*
X142554820Y-85958005D01*
X142573292Y-85923446D01*
X142598153Y-85893153D01*
X142628446Y-85868292D01*
X142663005Y-85849820D01*
X142700501Y-85838445D01*
X142745638Y-85834000D01*
X143484362Y-85834000D01*
X143529499Y-85838445D01*
X143529499Y-85838445D01*
G37*
G36*
X148609499Y-85838445D02*
G01*
X148646995Y-85849820D01*
X148681554Y-85868292D01*
X148711847Y-85893153D01*
X148736708Y-85923446D01*
X148755180Y-85958005D01*
X148766555Y-85995501D01*
X148771000Y-86040638D01*
X148771000Y-86679362D01*
X148766555Y-86724499D01*
X148755180Y-86761995D01*
X148736708Y-86796554D01*
X148711847Y-86826847D01*
X148681554Y-86851708D01*
X148646995Y-86870180D01*
X148609499Y-86881555D01*
X148564362Y-86886000D01*
X147825638Y-86886000D01*
X147780501Y-86881555D01*
X147743005Y-86870180D01*
X147708446Y-86851708D01*
X147678153Y-86826847D01*
X147653292Y-86796554D01*
X147634820Y-86761995D01*
X147623445Y-86724499D01*
X147619000Y-86679362D01*
X147619000Y-86040638D01*
X147623445Y-85995501D01*
X147634820Y-85958005D01*
X147653292Y-85923446D01*
X147678153Y-85893153D01*
X147708446Y-85868292D01*
X147743005Y-85849820D01*
X147780501Y-85838445D01*
X147825638Y-85834000D01*
X148564362Y-85834000D01*
X148609499Y-85838445D01*
X148609499Y-85838445D01*
G37*
G36*
X141779499Y-85838445D02*
G01*
X141816995Y-85849820D01*
X141851554Y-85868292D01*
X141881847Y-85893153D01*
X141906708Y-85923446D01*
X141925180Y-85958005D01*
X141936555Y-85995501D01*
X141941000Y-86040638D01*
X141941000Y-86679362D01*
X141936555Y-86724499D01*
X141925180Y-86761995D01*
X141906708Y-86796554D01*
X141881847Y-86826847D01*
X141851554Y-86851708D01*
X141816995Y-86870180D01*
X141779499Y-86881555D01*
X141734362Y-86886000D01*
X140995638Y-86886000D01*
X140950501Y-86881555D01*
X140913005Y-86870180D01*
X140878446Y-86851708D01*
X140848153Y-86826847D01*
X140823292Y-86796554D01*
X140804820Y-86761995D01*
X140793445Y-86724499D01*
X140789000Y-86679362D01*
X140789000Y-86040638D01*
X140793445Y-85995501D01*
X140804820Y-85958005D01*
X140823292Y-85923446D01*
X140848153Y-85893153D01*
X140878446Y-85868292D01*
X140913005Y-85849820D01*
X140950501Y-85838445D01*
X140995638Y-85834000D01*
X141734362Y-85834000D01*
X141779499Y-85838445D01*
X141779499Y-85838445D01*
G37*
G36*
X146859499Y-85838445D02*
G01*
X146896995Y-85849820D01*
X146931554Y-85868292D01*
X146961847Y-85893153D01*
X146986708Y-85923446D01*
X147005180Y-85958005D01*
X147016555Y-85995501D01*
X147021000Y-86040638D01*
X147021000Y-86679362D01*
X147016555Y-86724499D01*
X147005180Y-86761995D01*
X146986708Y-86796554D01*
X146961847Y-86826847D01*
X146931554Y-86851708D01*
X146896995Y-86870180D01*
X146859499Y-86881555D01*
X146814362Y-86886000D01*
X146075638Y-86886000D01*
X146030501Y-86881555D01*
X145993005Y-86870180D01*
X145958446Y-86851708D01*
X145928153Y-86826847D01*
X145903292Y-86796554D01*
X145884820Y-86761995D01*
X145873445Y-86724499D01*
X145869000Y-86679362D01*
X145869000Y-86040638D01*
X145873445Y-85995501D01*
X145884820Y-85958005D01*
X145903292Y-85923446D01*
X145928153Y-85893153D01*
X145958446Y-85868292D01*
X145993005Y-85849820D01*
X146030501Y-85838445D01*
X146075638Y-85834000D01*
X146814362Y-85834000D01*
X146859499Y-85838445D01*
X146859499Y-85838445D01*
G37*
G36*
X175497142Y-83038242D02*
G01*
X175645101Y-83099529D01*
X175778255Y-83188499D01*
X175891501Y-83301745D01*
X175980471Y-83434899D01*
X176041758Y-83582858D01*
X176073000Y-83739925D01*
X176073000Y-83900075D01*
X176041758Y-84057142D01*
X175980471Y-84205101D01*
X175891501Y-84338255D01*
X175778255Y-84451501D01*
X175645101Y-84540471D01*
X175497142Y-84601758D01*
X175340075Y-84633000D01*
X175179925Y-84633000D01*
X175022858Y-84601758D01*
X174874899Y-84540471D01*
X174741745Y-84451501D01*
X174628499Y-84338255D01*
X174539529Y-84205101D01*
X174478242Y-84057142D01*
X174447000Y-83900075D01*
X174447000Y-83739925D01*
X174478242Y-83582858D01*
X174539529Y-83434899D01*
X174628499Y-83301745D01*
X174741745Y-83188499D01*
X174874899Y-83099529D01*
X175022858Y-83038242D01*
X175179925Y-83007000D01*
X175340075Y-83007000D01*
X175497142Y-83038242D01*
X175497142Y-83038242D01*
G37*
G36*
X173533000Y-84633000D02*
G01*
X171907000Y-84633000D01*
X171907000Y-83007000D01*
X173533000Y-83007000D01*
X173533000Y-84633000D01*
X173533000Y-84633000D01*
G37*
G36*
X203437142Y-83038242D02*
G01*
X203585101Y-83099529D01*
X203718255Y-83188499D01*
X203831501Y-83301745D01*
X203920471Y-83434899D01*
X203981758Y-83582858D01*
X204013000Y-83739925D01*
X204013000Y-83900075D01*
X203981758Y-84057142D01*
X203920471Y-84205101D01*
X203831501Y-84338255D01*
X203718255Y-84451501D01*
X203585101Y-84540471D01*
X203437142Y-84601758D01*
X203280075Y-84633000D01*
X203119925Y-84633000D01*
X202962858Y-84601758D01*
X202814899Y-84540471D01*
X202681745Y-84451501D01*
X202568499Y-84338255D01*
X202479529Y-84205101D01*
X202418242Y-84057142D01*
X202387000Y-83900075D01*
X202387000Y-83739925D01*
X202418242Y-83582858D01*
X202479529Y-83434899D01*
X202568499Y-83301745D01*
X202681745Y-83188499D01*
X202814899Y-83099529D01*
X202962858Y-83038242D01*
X203119925Y-83007000D01*
X203280075Y-83007000D01*
X203437142Y-83038242D01*
X203437142Y-83038242D01*
G37*
G36*
X211057142Y-83038242D02*
G01*
X211205101Y-83099529D01*
X211338255Y-83188499D01*
X211451501Y-83301745D01*
X211540471Y-83434899D01*
X211601758Y-83582858D01*
X211633000Y-83739925D01*
X211633000Y-83900075D01*
X211601758Y-84057142D01*
X211540471Y-84205101D01*
X211451501Y-84338255D01*
X211338255Y-84451501D01*
X211205101Y-84540471D01*
X211057142Y-84601758D01*
X210900075Y-84633000D01*
X210739925Y-84633000D01*
X210582858Y-84601758D01*
X210434899Y-84540471D01*
X210301745Y-84451501D01*
X210188499Y-84338255D01*
X210099529Y-84205101D01*
X210038242Y-84057142D01*
X210007000Y-83900075D01*
X210007000Y-83739925D01*
X210038242Y-83582858D01*
X210099529Y-83434899D01*
X210188499Y-83301745D01*
X210301745Y-83188499D01*
X210434899Y-83099529D01*
X210582858Y-83038242D01*
X210739925Y-83007000D01*
X210900075Y-83007000D01*
X211057142Y-83038242D01*
X211057142Y-83038242D01*
G37*
G36*
X180577142Y-83038242D02*
G01*
X180725101Y-83099529D01*
X180858255Y-83188499D01*
X180971501Y-83301745D01*
X181060471Y-83434899D01*
X181121758Y-83582858D01*
X181153000Y-83739925D01*
X181153000Y-83900075D01*
X181121758Y-84057142D01*
X181060471Y-84205101D01*
X180971501Y-84338255D01*
X180858255Y-84451501D01*
X180725101Y-84540471D01*
X180577142Y-84601758D01*
X180420075Y-84633000D01*
X180259925Y-84633000D01*
X180102858Y-84601758D01*
X179954899Y-84540471D01*
X179821745Y-84451501D01*
X179708499Y-84338255D01*
X179619529Y-84205101D01*
X179558242Y-84057142D01*
X179527000Y-83900075D01*
X179527000Y-83739925D01*
X179558242Y-83582858D01*
X179619529Y-83434899D01*
X179708499Y-83301745D01*
X179821745Y-83188499D01*
X179954899Y-83099529D01*
X180102858Y-83038242D01*
X180259925Y-83007000D01*
X180420075Y-83007000D01*
X180577142Y-83038242D01*
X180577142Y-83038242D01*
G37*
G36*
X165337142Y-83038242D02*
G01*
X165485101Y-83099529D01*
X165618255Y-83188499D01*
X165731501Y-83301745D01*
X165820471Y-83434899D01*
X165881758Y-83582858D01*
X165913000Y-83739925D01*
X165913000Y-83900075D01*
X165881758Y-84057142D01*
X165820471Y-84205101D01*
X165731501Y-84338255D01*
X165618255Y-84451501D01*
X165485101Y-84540471D01*
X165337142Y-84601758D01*
X165180075Y-84633000D01*
X165019925Y-84633000D01*
X164862858Y-84601758D01*
X164714899Y-84540471D01*
X164581745Y-84451501D01*
X164468499Y-84338255D01*
X164379529Y-84205101D01*
X164318242Y-84057142D01*
X164287000Y-83900075D01*
X164287000Y-83739925D01*
X164318242Y-83582858D01*
X164379529Y-83434899D01*
X164468499Y-83301745D01*
X164581745Y-83188499D01*
X164714899Y-83099529D01*
X164862858Y-83038242D01*
X165019925Y-83007000D01*
X165180075Y-83007000D01*
X165337142Y-83038242D01*
X165337142Y-83038242D01*
G37*
G36*
X178037142Y-83038242D02*
G01*
X178185101Y-83099529D01*
X178318255Y-83188499D01*
X178431501Y-83301745D01*
X178520471Y-83434899D01*
X178581758Y-83582858D01*
X178613000Y-83739925D01*
X178613000Y-83900075D01*
X178581758Y-84057142D01*
X178520471Y-84205101D01*
X178431501Y-84338255D01*
X178318255Y-84451501D01*
X178185101Y-84540471D01*
X178037142Y-84601758D01*
X177880075Y-84633000D01*
X177719925Y-84633000D01*
X177562858Y-84601758D01*
X177414899Y-84540471D01*
X177281745Y-84451501D01*
X177168499Y-84338255D01*
X177079529Y-84205101D01*
X177018242Y-84057142D01*
X176987000Y-83900075D01*
X176987000Y-83739925D01*
X177018242Y-83582858D01*
X177079529Y-83434899D01*
X177168499Y-83301745D01*
X177281745Y-83188499D01*
X177414899Y-83099529D01*
X177562858Y-83038242D01*
X177719925Y-83007000D01*
X177880075Y-83007000D01*
X178037142Y-83038242D01*
X178037142Y-83038242D01*
G37*
G36*
X160257142Y-83038242D02*
G01*
X160405101Y-83099529D01*
X160538255Y-83188499D01*
X160651501Y-83301745D01*
X160740471Y-83434899D01*
X160801758Y-83582858D01*
X160833000Y-83739925D01*
X160833000Y-83900075D01*
X160801758Y-84057142D01*
X160740471Y-84205101D01*
X160651501Y-84338255D01*
X160538255Y-84451501D01*
X160405101Y-84540471D01*
X160257142Y-84601758D01*
X160100075Y-84633000D01*
X159939925Y-84633000D01*
X159782858Y-84601758D01*
X159634899Y-84540471D01*
X159501745Y-84451501D01*
X159388499Y-84338255D01*
X159299529Y-84205101D01*
X159238242Y-84057142D01*
X159207000Y-83900075D01*
X159207000Y-83739925D01*
X159238242Y-83582858D01*
X159299529Y-83434899D01*
X159388499Y-83301745D01*
X159501745Y-83188499D01*
X159634899Y-83099529D01*
X159782858Y-83038242D01*
X159939925Y-83007000D01*
X160100075Y-83007000D01*
X160257142Y-83038242D01*
X160257142Y-83038242D01*
G37*
G36*
X157717142Y-83038242D02*
G01*
X157865101Y-83099529D01*
X157998255Y-83188499D01*
X158111501Y-83301745D01*
X158200471Y-83434899D01*
X158261758Y-83582858D01*
X158293000Y-83739925D01*
X158293000Y-83900075D01*
X158261758Y-84057142D01*
X158200471Y-84205101D01*
X158111501Y-84338255D01*
X157998255Y-84451501D01*
X157865101Y-84540471D01*
X157717142Y-84601758D01*
X157560075Y-84633000D01*
X157399925Y-84633000D01*
X157242858Y-84601758D01*
X157094899Y-84540471D01*
X156961745Y-84451501D01*
X156848499Y-84338255D01*
X156759529Y-84205101D01*
X156698242Y-84057142D01*
X156667000Y-83900075D01*
X156667000Y-83739925D01*
X156698242Y-83582858D01*
X156759529Y-83434899D01*
X156848499Y-83301745D01*
X156961745Y-83188499D01*
X157094899Y-83099529D01*
X157242858Y-83038242D01*
X157399925Y-83007000D01*
X157560075Y-83007000D01*
X157717142Y-83038242D01*
X157717142Y-83038242D01*
G37*
G36*
X183117142Y-83038242D02*
G01*
X183265101Y-83099529D01*
X183398255Y-83188499D01*
X183511501Y-83301745D01*
X183600471Y-83434899D01*
X183661758Y-83582858D01*
X183693000Y-83739925D01*
X183693000Y-83900075D01*
X183661758Y-84057142D01*
X183600471Y-84205101D01*
X183511501Y-84338255D01*
X183398255Y-84451501D01*
X183265101Y-84540471D01*
X183117142Y-84601758D01*
X182960075Y-84633000D01*
X182799925Y-84633000D01*
X182642858Y-84601758D01*
X182494899Y-84540471D01*
X182361745Y-84451501D01*
X182248499Y-84338255D01*
X182159529Y-84205101D01*
X182098242Y-84057142D01*
X182067000Y-83900075D01*
X182067000Y-83739925D01*
X182098242Y-83582858D01*
X182159529Y-83434899D01*
X182248499Y-83301745D01*
X182361745Y-83188499D01*
X182494899Y-83099529D01*
X182642858Y-83038242D01*
X182799925Y-83007000D01*
X182960075Y-83007000D01*
X183117142Y-83038242D01*
X183117142Y-83038242D01*
G37*
G36*
X155753000Y-84633000D02*
G01*
X154127000Y-84633000D01*
X154127000Y-83007000D01*
X155753000Y-83007000D01*
X155753000Y-84633000D01*
X155753000Y-84633000D01*
G37*
G36*
X162797142Y-83038242D02*
G01*
X162945101Y-83099529D01*
X163078255Y-83188499D01*
X163191501Y-83301745D01*
X163280471Y-83434899D01*
X163341758Y-83582858D01*
X163373000Y-83739925D01*
X163373000Y-83900075D01*
X163341758Y-84057142D01*
X163280471Y-84205101D01*
X163191501Y-84338255D01*
X163078255Y-84451501D01*
X162945101Y-84540471D01*
X162797142Y-84601758D01*
X162640075Y-84633000D01*
X162479925Y-84633000D01*
X162322858Y-84601758D01*
X162174899Y-84540471D01*
X162041745Y-84451501D01*
X161928499Y-84338255D01*
X161839529Y-84205101D01*
X161778242Y-84057142D01*
X161747000Y-83900075D01*
X161747000Y-83739925D01*
X161778242Y-83582858D01*
X161839529Y-83434899D01*
X161928499Y-83301745D01*
X162041745Y-83188499D01*
X162174899Y-83099529D01*
X162322858Y-83038242D01*
X162479925Y-83007000D01*
X162640075Y-83007000D01*
X162797142Y-83038242D01*
X162797142Y-83038242D01*
G37*
G36*
X200897142Y-83038242D02*
G01*
X201045101Y-83099529D01*
X201178255Y-83188499D01*
X201291501Y-83301745D01*
X201380471Y-83434899D01*
X201441758Y-83582858D01*
X201473000Y-83739925D01*
X201473000Y-83900075D01*
X201441758Y-84057142D01*
X201380471Y-84205101D01*
X201291501Y-84338255D01*
X201178255Y-84451501D01*
X201045101Y-84540471D01*
X200897142Y-84601758D01*
X200740075Y-84633000D01*
X200579925Y-84633000D01*
X200422858Y-84601758D01*
X200274899Y-84540471D01*
X200141745Y-84451501D01*
X200028499Y-84338255D01*
X199939529Y-84205101D01*
X199878242Y-84057142D01*
X199847000Y-83900075D01*
X199847000Y-83739925D01*
X199878242Y-83582858D01*
X199939529Y-83434899D01*
X200028499Y-83301745D01*
X200141745Y-83188499D01*
X200274899Y-83099529D01*
X200422858Y-83038242D01*
X200579925Y-83007000D01*
X200740075Y-83007000D01*
X200897142Y-83038242D01*
X200897142Y-83038242D01*
G37*
G36*
X198357142Y-83038242D02*
G01*
X198505101Y-83099529D01*
X198638255Y-83188499D01*
X198751501Y-83301745D01*
X198840471Y-83434899D01*
X198901758Y-83582858D01*
X198933000Y-83739925D01*
X198933000Y-83900075D01*
X198901758Y-84057142D01*
X198840471Y-84205101D01*
X198751501Y-84338255D01*
X198638255Y-84451501D01*
X198505101Y-84540471D01*
X198357142Y-84601758D01*
X198200075Y-84633000D01*
X198039925Y-84633000D01*
X197882858Y-84601758D01*
X197734899Y-84540471D01*
X197601745Y-84451501D01*
X197488499Y-84338255D01*
X197399529Y-84205101D01*
X197338242Y-84057142D01*
X197307000Y-83900075D01*
X197307000Y-83739925D01*
X197338242Y-83582858D01*
X197399529Y-83434899D01*
X197488499Y-83301745D01*
X197601745Y-83188499D01*
X197734899Y-83099529D01*
X197882858Y-83038242D01*
X198039925Y-83007000D01*
X198200075Y-83007000D01*
X198357142Y-83038242D01*
X198357142Y-83038242D01*
G37*
G36*
X195817142Y-83038242D02*
G01*
X195965101Y-83099529D01*
X196098255Y-83188499D01*
X196211501Y-83301745D01*
X196300471Y-83434899D01*
X196361758Y-83582858D01*
X196393000Y-83739925D01*
X196393000Y-83900075D01*
X196361758Y-84057142D01*
X196300471Y-84205101D01*
X196211501Y-84338255D01*
X196098255Y-84451501D01*
X195965101Y-84540471D01*
X195817142Y-84601758D01*
X195660075Y-84633000D01*
X195499925Y-84633000D01*
X195342858Y-84601758D01*
X195194899Y-84540471D01*
X195061745Y-84451501D01*
X194948499Y-84338255D01*
X194859529Y-84205101D01*
X194798242Y-84057142D01*
X194767000Y-83900075D01*
X194767000Y-83739925D01*
X194798242Y-83582858D01*
X194859529Y-83434899D01*
X194948499Y-83301745D01*
X195061745Y-83188499D01*
X195194899Y-83099529D01*
X195342858Y-83038242D01*
X195499925Y-83007000D01*
X195660075Y-83007000D01*
X195817142Y-83038242D01*
X195817142Y-83038242D01*
G37*
G36*
X193277142Y-83038242D02*
G01*
X193425101Y-83099529D01*
X193558255Y-83188499D01*
X193671501Y-83301745D01*
X193760471Y-83434899D01*
X193821758Y-83582858D01*
X193853000Y-83739925D01*
X193853000Y-83900075D01*
X193821758Y-84057142D01*
X193760471Y-84205101D01*
X193671501Y-84338255D01*
X193558255Y-84451501D01*
X193425101Y-84540471D01*
X193277142Y-84601758D01*
X193120075Y-84633000D01*
X192959925Y-84633000D01*
X192802858Y-84601758D01*
X192654899Y-84540471D01*
X192521745Y-84451501D01*
X192408499Y-84338255D01*
X192319529Y-84205101D01*
X192258242Y-84057142D01*
X192227000Y-83900075D01*
X192227000Y-83739925D01*
X192258242Y-83582858D01*
X192319529Y-83434899D01*
X192408499Y-83301745D01*
X192521745Y-83188499D01*
X192654899Y-83099529D01*
X192802858Y-83038242D01*
X192959925Y-83007000D01*
X193120075Y-83007000D01*
X193277142Y-83038242D01*
X193277142Y-83038242D01*
G37*
G36*
X190737142Y-83038242D02*
G01*
X190885101Y-83099529D01*
X191018255Y-83188499D01*
X191131501Y-83301745D01*
X191220471Y-83434899D01*
X191281758Y-83582858D01*
X191313000Y-83739925D01*
X191313000Y-83900075D01*
X191281758Y-84057142D01*
X191220471Y-84205101D01*
X191131501Y-84338255D01*
X191018255Y-84451501D01*
X190885101Y-84540471D01*
X190737142Y-84601758D01*
X190580075Y-84633000D01*
X190419925Y-84633000D01*
X190262858Y-84601758D01*
X190114899Y-84540471D01*
X189981745Y-84451501D01*
X189868499Y-84338255D01*
X189779529Y-84205101D01*
X189718242Y-84057142D01*
X189687000Y-83900075D01*
X189687000Y-83739925D01*
X189718242Y-83582858D01*
X189779529Y-83434899D01*
X189868499Y-83301745D01*
X189981745Y-83188499D01*
X190114899Y-83099529D01*
X190262858Y-83038242D01*
X190419925Y-83007000D01*
X190580075Y-83007000D01*
X190737142Y-83038242D01*
X190737142Y-83038242D01*
G37*
G36*
X188197142Y-83038242D02*
G01*
X188345101Y-83099529D01*
X188478255Y-83188499D01*
X188591501Y-83301745D01*
X188680471Y-83434899D01*
X188741758Y-83582858D01*
X188773000Y-83739925D01*
X188773000Y-83900075D01*
X188741758Y-84057142D01*
X188680471Y-84205101D01*
X188591501Y-84338255D01*
X188478255Y-84451501D01*
X188345101Y-84540471D01*
X188197142Y-84601758D01*
X188040075Y-84633000D01*
X187879925Y-84633000D01*
X187722858Y-84601758D01*
X187574899Y-84540471D01*
X187441745Y-84451501D01*
X187328499Y-84338255D01*
X187239529Y-84205101D01*
X187178242Y-84057142D01*
X187147000Y-83900075D01*
X187147000Y-83739925D01*
X187178242Y-83582858D01*
X187239529Y-83434899D01*
X187328499Y-83301745D01*
X187441745Y-83188499D01*
X187574899Y-83099529D01*
X187722858Y-83038242D01*
X187879925Y-83007000D01*
X188040075Y-83007000D01*
X188197142Y-83038242D01*
X188197142Y-83038242D01*
G37*
G36*
X185657142Y-83038242D02*
G01*
X185805101Y-83099529D01*
X185938255Y-83188499D01*
X186051501Y-83301745D01*
X186140471Y-83434899D01*
X186201758Y-83582858D01*
X186233000Y-83739925D01*
X186233000Y-83900075D01*
X186201758Y-84057142D01*
X186140471Y-84205101D01*
X186051501Y-84338255D01*
X185938255Y-84451501D01*
X185805101Y-84540471D01*
X185657142Y-84601758D01*
X185500075Y-84633000D01*
X185339925Y-84633000D01*
X185182858Y-84601758D01*
X185034899Y-84540471D01*
X184901745Y-84451501D01*
X184788499Y-84338255D01*
X184699529Y-84205101D01*
X184638242Y-84057142D01*
X184607000Y-83900075D01*
X184607000Y-83739925D01*
X184638242Y-83582858D01*
X184699529Y-83434899D01*
X184788499Y-83301745D01*
X184901745Y-83188499D01*
X185034899Y-83099529D01*
X185182858Y-83038242D01*
X185339925Y-83007000D01*
X185500075Y-83007000D01*
X185657142Y-83038242D01*
X185657142Y-83038242D01*
G37*
G36*
X203437142Y-80498242D02*
G01*
X203585101Y-80559529D01*
X203718255Y-80648499D01*
X203831501Y-80761745D01*
X203920471Y-80894899D01*
X203981758Y-81042858D01*
X204013000Y-81199925D01*
X204013000Y-81360075D01*
X203981758Y-81517142D01*
X203920471Y-81665101D01*
X203831501Y-81798255D01*
X203718255Y-81911501D01*
X203585101Y-82000471D01*
X203437142Y-82061758D01*
X203280075Y-82093000D01*
X203119925Y-82093000D01*
X202962858Y-82061758D01*
X202814899Y-82000471D01*
X202681745Y-81911501D01*
X202568499Y-81798255D01*
X202479529Y-81665101D01*
X202418242Y-81517142D01*
X202387000Y-81360075D01*
X202387000Y-81199925D01*
X202418242Y-81042858D01*
X202479529Y-80894899D01*
X202568499Y-80761745D01*
X202681745Y-80648499D01*
X202814899Y-80559529D01*
X202962858Y-80498242D01*
X203119925Y-80467000D01*
X203280075Y-80467000D01*
X203437142Y-80498242D01*
X203437142Y-80498242D01*
G37*
G36*
X195817142Y-80498242D02*
G01*
X195965101Y-80559529D01*
X196098255Y-80648499D01*
X196211501Y-80761745D01*
X196300471Y-80894899D01*
X196361758Y-81042858D01*
X196393000Y-81199925D01*
X196393000Y-81360075D01*
X196361758Y-81517142D01*
X196300471Y-81665101D01*
X196211501Y-81798255D01*
X196098255Y-81911501D01*
X195965101Y-82000471D01*
X195817142Y-82061758D01*
X195660075Y-82093000D01*
X195499925Y-82093000D01*
X195342858Y-82061758D01*
X195194899Y-82000471D01*
X195061745Y-81911501D01*
X194948499Y-81798255D01*
X194859529Y-81665101D01*
X194798242Y-81517142D01*
X194767000Y-81360075D01*
X194767000Y-81199925D01*
X194798242Y-81042858D01*
X194859529Y-80894899D01*
X194948499Y-80761745D01*
X195061745Y-80648499D01*
X195194899Y-80559529D01*
X195342858Y-80498242D01*
X195499925Y-80467000D01*
X195660075Y-80467000D01*
X195817142Y-80498242D01*
X195817142Y-80498242D01*
G37*
G36*
X193277142Y-80498242D02*
G01*
X193425101Y-80559529D01*
X193558255Y-80648499D01*
X193671501Y-80761745D01*
X193760471Y-80894899D01*
X193821758Y-81042858D01*
X193853000Y-81199925D01*
X193853000Y-81360075D01*
X193821758Y-81517142D01*
X193760471Y-81665101D01*
X193671501Y-81798255D01*
X193558255Y-81911501D01*
X193425101Y-82000471D01*
X193277142Y-82061758D01*
X193120075Y-82093000D01*
X192959925Y-82093000D01*
X192802858Y-82061758D01*
X192654899Y-82000471D01*
X192521745Y-81911501D01*
X192408499Y-81798255D01*
X192319529Y-81665101D01*
X192258242Y-81517142D01*
X192227000Y-81360075D01*
X192227000Y-81199925D01*
X192258242Y-81042858D01*
X192319529Y-80894899D01*
X192408499Y-80761745D01*
X192521745Y-80648499D01*
X192654899Y-80559529D01*
X192802858Y-80498242D01*
X192959925Y-80467000D01*
X193120075Y-80467000D01*
X193277142Y-80498242D01*
X193277142Y-80498242D01*
G37*
G36*
X190737142Y-80498242D02*
G01*
X190885101Y-80559529D01*
X191018255Y-80648499D01*
X191131501Y-80761745D01*
X191220471Y-80894899D01*
X191281758Y-81042858D01*
X191313000Y-81199925D01*
X191313000Y-81360075D01*
X191281758Y-81517142D01*
X191220471Y-81665101D01*
X191131501Y-81798255D01*
X191018255Y-81911501D01*
X190885101Y-82000471D01*
X190737142Y-82061758D01*
X190580075Y-82093000D01*
X190419925Y-82093000D01*
X190262858Y-82061758D01*
X190114899Y-82000471D01*
X189981745Y-81911501D01*
X189868499Y-81798255D01*
X189779529Y-81665101D01*
X189718242Y-81517142D01*
X189687000Y-81360075D01*
X189687000Y-81199925D01*
X189718242Y-81042858D01*
X189779529Y-80894899D01*
X189868499Y-80761745D01*
X189981745Y-80648499D01*
X190114899Y-80559529D01*
X190262858Y-80498242D01*
X190419925Y-80467000D01*
X190580075Y-80467000D01*
X190737142Y-80498242D01*
X190737142Y-80498242D01*
G37*
G36*
X211057142Y-80498242D02*
G01*
X211205101Y-80559529D01*
X211338255Y-80648499D01*
X211451501Y-80761745D01*
X211540471Y-80894899D01*
X211601758Y-81042858D01*
X211633000Y-81199925D01*
X211633000Y-81360075D01*
X211601758Y-81517142D01*
X211540471Y-81665101D01*
X211451501Y-81798255D01*
X211338255Y-81911501D01*
X211205101Y-82000471D01*
X211057142Y-82061758D01*
X210900075Y-82093000D01*
X210739925Y-82093000D01*
X210582858Y-82061758D01*
X210434899Y-82000471D01*
X210301745Y-81911501D01*
X210188499Y-81798255D01*
X210099529Y-81665101D01*
X210038242Y-81517142D01*
X210007000Y-81360075D01*
X210007000Y-81199925D01*
X210038242Y-81042858D01*
X210099529Y-80894899D01*
X210188499Y-80761745D01*
X210301745Y-80648499D01*
X210434899Y-80559529D01*
X210582858Y-80498242D01*
X210739925Y-80467000D01*
X210900075Y-80467000D01*
X211057142Y-80498242D01*
X211057142Y-80498242D01*
G37*
G36*
X200897142Y-80498242D02*
G01*
X201045101Y-80559529D01*
X201178255Y-80648499D01*
X201291501Y-80761745D01*
X201380471Y-80894899D01*
X201441758Y-81042858D01*
X201473000Y-81199925D01*
X201473000Y-81360075D01*
X201441758Y-81517142D01*
X201380471Y-81665101D01*
X201291501Y-81798255D01*
X201178255Y-81911501D01*
X201045101Y-82000471D01*
X200897142Y-82061758D01*
X200740075Y-82093000D01*
X200579925Y-82093000D01*
X200422858Y-82061758D01*
X200274899Y-82000471D01*
X200141745Y-81911501D01*
X200028499Y-81798255D01*
X199939529Y-81665101D01*
X199878242Y-81517142D01*
X199847000Y-81360075D01*
X199847000Y-81199925D01*
X199878242Y-81042858D01*
X199939529Y-80894899D01*
X200028499Y-80761745D01*
X200141745Y-80648499D01*
X200274899Y-80559529D01*
X200422858Y-80498242D01*
X200579925Y-80467000D01*
X200740075Y-80467000D01*
X200897142Y-80498242D01*
X200897142Y-80498242D01*
G37*
G36*
X172957142Y-80498242D02*
G01*
X173105101Y-80559529D01*
X173238255Y-80648499D01*
X173351501Y-80761745D01*
X173440471Y-80894899D01*
X173501758Y-81042858D01*
X173533000Y-81199925D01*
X173533000Y-81360075D01*
X173501758Y-81517142D01*
X173440471Y-81665101D01*
X173351501Y-81798255D01*
X173238255Y-81911501D01*
X173105101Y-82000471D01*
X172957142Y-82061758D01*
X172800075Y-82093000D01*
X172639925Y-82093000D01*
X172482858Y-82061758D01*
X172334899Y-82000471D01*
X172201745Y-81911501D01*
X172088499Y-81798255D01*
X171999529Y-81665101D01*
X171938242Y-81517142D01*
X171907000Y-81360075D01*
X171907000Y-81199925D01*
X171938242Y-81042858D01*
X171999529Y-80894899D01*
X172088499Y-80761745D01*
X172201745Y-80648499D01*
X172334899Y-80559529D01*
X172482858Y-80498242D01*
X172639925Y-80467000D01*
X172800075Y-80467000D01*
X172957142Y-80498242D01*
X172957142Y-80498242D01*
G37*
G36*
X175497142Y-80498242D02*
G01*
X175645101Y-80559529D01*
X175778255Y-80648499D01*
X175891501Y-80761745D01*
X175980471Y-80894899D01*
X176041758Y-81042858D01*
X176073000Y-81199925D01*
X176073000Y-81360075D01*
X176041758Y-81517142D01*
X175980471Y-81665101D01*
X175891501Y-81798255D01*
X175778255Y-81911501D01*
X175645101Y-82000471D01*
X175497142Y-82061758D01*
X175340075Y-82093000D01*
X175179925Y-82093000D01*
X175022858Y-82061758D01*
X174874899Y-82000471D01*
X174741745Y-81911501D01*
X174628499Y-81798255D01*
X174539529Y-81665101D01*
X174478242Y-81517142D01*
X174447000Y-81360075D01*
X174447000Y-81199925D01*
X174478242Y-81042858D01*
X174539529Y-80894899D01*
X174628499Y-80761745D01*
X174741745Y-80648499D01*
X174874899Y-80559529D01*
X175022858Y-80498242D01*
X175179925Y-80467000D01*
X175340075Y-80467000D01*
X175497142Y-80498242D01*
X175497142Y-80498242D01*
G37*
G36*
X198357142Y-80498242D02*
G01*
X198505101Y-80559529D01*
X198638255Y-80648499D01*
X198751501Y-80761745D01*
X198840471Y-80894899D01*
X198901758Y-81042858D01*
X198933000Y-81199925D01*
X198933000Y-81360075D01*
X198901758Y-81517142D01*
X198840471Y-81665101D01*
X198751501Y-81798255D01*
X198638255Y-81911501D01*
X198505101Y-82000471D01*
X198357142Y-82061758D01*
X198200075Y-82093000D01*
X198039925Y-82093000D01*
X197882858Y-82061758D01*
X197734899Y-82000471D01*
X197601745Y-81911501D01*
X197488499Y-81798255D01*
X197399529Y-81665101D01*
X197338242Y-81517142D01*
X197307000Y-81360075D01*
X197307000Y-81199925D01*
X197338242Y-81042858D01*
X197399529Y-80894899D01*
X197488499Y-80761745D01*
X197601745Y-80648499D01*
X197734899Y-80559529D01*
X197882858Y-80498242D01*
X198039925Y-80467000D01*
X198200075Y-80467000D01*
X198357142Y-80498242D01*
X198357142Y-80498242D01*
G37*
G36*
X178037142Y-80498242D02*
G01*
X178185101Y-80559529D01*
X178318255Y-80648499D01*
X178431501Y-80761745D01*
X178520471Y-80894899D01*
X178581758Y-81042858D01*
X178613000Y-81199925D01*
X178613000Y-81360075D01*
X178581758Y-81517142D01*
X178520471Y-81665101D01*
X178431501Y-81798255D01*
X178318255Y-81911501D01*
X178185101Y-82000471D01*
X178037142Y-82061758D01*
X177880075Y-82093000D01*
X177719925Y-82093000D01*
X177562858Y-82061758D01*
X177414899Y-82000471D01*
X177281745Y-81911501D01*
X177168499Y-81798255D01*
X177079529Y-81665101D01*
X177018242Y-81517142D01*
X176987000Y-81360075D01*
X176987000Y-81199925D01*
X177018242Y-81042858D01*
X177079529Y-80894899D01*
X177168499Y-80761745D01*
X177281745Y-80648499D01*
X177414899Y-80559529D01*
X177562858Y-80498242D01*
X177719925Y-80467000D01*
X177880075Y-80467000D01*
X178037142Y-80498242D01*
X178037142Y-80498242D01*
G37*
G36*
X180577142Y-80498242D02*
G01*
X180725101Y-80559529D01*
X180858255Y-80648499D01*
X180971501Y-80761745D01*
X181060471Y-80894899D01*
X181121758Y-81042858D01*
X181153000Y-81199925D01*
X181153000Y-81360075D01*
X181121758Y-81517142D01*
X181060471Y-81665101D01*
X180971501Y-81798255D01*
X180858255Y-81911501D01*
X180725101Y-82000471D01*
X180577142Y-82061758D01*
X180420075Y-82093000D01*
X180259925Y-82093000D01*
X180102858Y-82061758D01*
X179954899Y-82000471D01*
X179821745Y-81911501D01*
X179708499Y-81798255D01*
X179619529Y-81665101D01*
X179558242Y-81517142D01*
X179527000Y-81360075D01*
X179527000Y-81199925D01*
X179558242Y-81042858D01*
X179619529Y-80894899D01*
X179708499Y-80761745D01*
X179821745Y-80648499D01*
X179954899Y-80559529D01*
X180102858Y-80498242D01*
X180259925Y-80467000D01*
X180420075Y-80467000D01*
X180577142Y-80498242D01*
X180577142Y-80498242D01*
G37*
G36*
X155177142Y-80498242D02*
G01*
X155325101Y-80559529D01*
X155458255Y-80648499D01*
X155571501Y-80761745D01*
X155660471Y-80894899D01*
X155721758Y-81042858D01*
X155753000Y-81199925D01*
X155753000Y-81360075D01*
X155721758Y-81517142D01*
X155660471Y-81665101D01*
X155571501Y-81798255D01*
X155458255Y-81911501D01*
X155325101Y-82000471D01*
X155177142Y-82061758D01*
X155020075Y-82093000D01*
X154859925Y-82093000D01*
X154702858Y-82061758D01*
X154554899Y-82000471D01*
X154421745Y-81911501D01*
X154308499Y-81798255D01*
X154219529Y-81665101D01*
X154158242Y-81517142D01*
X154127000Y-81360075D01*
X154127000Y-81199925D01*
X154158242Y-81042858D01*
X154219529Y-80894899D01*
X154308499Y-80761745D01*
X154421745Y-80648499D01*
X154554899Y-80559529D01*
X154702858Y-80498242D01*
X154859925Y-80467000D01*
X155020075Y-80467000D01*
X155177142Y-80498242D01*
X155177142Y-80498242D01*
G37*
G36*
X183117142Y-80498242D02*
G01*
X183265101Y-80559529D01*
X183398255Y-80648499D01*
X183511501Y-80761745D01*
X183600471Y-80894899D01*
X183661758Y-81042858D01*
X183693000Y-81199925D01*
X183693000Y-81360075D01*
X183661758Y-81517142D01*
X183600471Y-81665101D01*
X183511501Y-81798255D01*
X183398255Y-81911501D01*
X183265101Y-82000471D01*
X183117142Y-82061758D01*
X182960075Y-82093000D01*
X182799925Y-82093000D01*
X182642858Y-82061758D01*
X182494899Y-82000471D01*
X182361745Y-81911501D01*
X182248499Y-81798255D01*
X182159529Y-81665101D01*
X182098242Y-81517142D01*
X182067000Y-81360075D01*
X182067000Y-81199925D01*
X182098242Y-81042858D01*
X182159529Y-80894899D01*
X182248499Y-80761745D01*
X182361745Y-80648499D01*
X182494899Y-80559529D01*
X182642858Y-80498242D01*
X182799925Y-80467000D01*
X182960075Y-80467000D01*
X183117142Y-80498242D01*
X183117142Y-80498242D01*
G37*
G36*
X162797142Y-80498242D02*
G01*
X162945101Y-80559529D01*
X163078255Y-80648499D01*
X163191501Y-80761745D01*
X163280471Y-80894899D01*
X163341758Y-81042858D01*
X163373000Y-81199925D01*
X163373000Y-81360075D01*
X163341758Y-81517142D01*
X163280471Y-81665101D01*
X163191501Y-81798255D01*
X163078255Y-81911501D01*
X162945101Y-82000471D01*
X162797142Y-82061758D01*
X162640075Y-82093000D01*
X162479925Y-82093000D01*
X162322858Y-82061758D01*
X162174899Y-82000471D01*
X162041745Y-81911501D01*
X161928499Y-81798255D01*
X161839529Y-81665101D01*
X161778242Y-81517142D01*
X161747000Y-81360075D01*
X161747000Y-81199925D01*
X161778242Y-81042858D01*
X161839529Y-80894899D01*
X161928499Y-80761745D01*
X162041745Y-80648499D01*
X162174899Y-80559529D01*
X162322858Y-80498242D01*
X162479925Y-80467000D01*
X162640075Y-80467000D01*
X162797142Y-80498242D01*
X162797142Y-80498242D01*
G37*
G36*
X157717142Y-80498242D02*
G01*
X157865101Y-80559529D01*
X157998255Y-80648499D01*
X158111501Y-80761745D01*
X158200471Y-80894899D01*
X158261758Y-81042858D01*
X158293000Y-81199925D01*
X158293000Y-81360075D01*
X158261758Y-81517142D01*
X158200471Y-81665101D01*
X158111501Y-81798255D01*
X157998255Y-81911501D01*
X157865101Y-82000471D01*
X157717142Y-82061758D01*
X157560075Y-82093000D01*
X157399925Y-82093000D01*
X157242858Y-82061758D01*
X157094899Y-82000471D01*
X156961745Y-81911501D01*
X156848499Y-81798255D01*
X156759529Y-81665101D01*
X156698242Y-81517142D01*
X156667000Y-81360075D01*
X156667000Y-81199925D01*
X156698242Y-81042858D01*
X156759529Y-80894899D01*
X156848499Y-80761745D01*
X156961745Y-80648499D01*
X157094899Y-80559529D01*
X157242858Y-80498242D01*
X157399925Y-80467000D01*
X157560075Y-80467000D01*
X157717142Y-80498242D01*
X157717142Y-80498242D01*
G37*
G36*
X165337142Y-80498242D02*
G01*
X165485101Y-80559529D01*
X165618255Y-80648499D01*
X165731501Y-80761745D01*
X165820471Y-80894899D01*
X165881758Y-81042858D01*
X165913000Y-81199925D01*
X165913000Y-81360075D01*
X165881758Y-81517142D01*
X165820471Y-81665101D01*
X165731501Y-81798255D01*
X165618255Y-81911501D01*
X165485101Y-82000471D01*
X165337142Y-82061758D01*
X165180075Y-82093000D01*
X165019925Y-82093000D01*
X164862858Y-82061758D01*
X164714899Y-82000471D01*
X164581745Y-81911501D01*
X164468499Y-81798255D01*
X164379529Y-81665101D01*
X164318242Y-81517142D01*
X164287000Y-81360075D01*
X164287000Y-81199925D01*
X164318242Y-81042858D01*
X164379529Y-80894899D01*
X164468499Y-80761745D01*
X164581745Y-80648499D01*
X164714899Y-80559529D01*
X164862858Y-80498242D01*
X165019925Y-80467000D01*
X165180075Y-80467000D01*
X165337142Y-80498242D01*
X165337142Y-80498242D01*
G37*
G36*
X185657142Y-80498242D02*
G01*
X185805101Y-80559529D01*
X185938255Y-80648499D01*
X186051501Y-80761745D01*
X186140471Y-80894899D01*
X186201758Y-81042858D01*
X186233000Y-81199925D01*
X186233000Y-81360075D01*
X186201758Y-81517142D01*
X186140471Y-81665101D01*
X186051501Y-81798255D01*
X185938255Y-81911501D01*
X185805101Y-82000471D01*
X185657142Y-82061758D01*
X185500075Y-82093000D01*
X185339925Y-82093000D01*
X185182858Y-82061758D01*
X185034899Y-82000471D01*
X184901745Y-81911501D01*
X184788499Y-81798255D01*
X184699529Y-81665101D01*
X184638242Y-81517142D01*
X184607000Y-81360075D01*
X184607000Y-81199925D01*
X184638242Y-81042858D01*
X184699529Y-80894899D01*
X184788499Y-80761745D01*
X184901745Y-80648499D01*
X185034899Y-80559529D01*
X185182858Y-80498242D01*
X185339925Y-80467000D01*
X185500075Y-80467000D01*
X185657142Y-80498242D01*
X185657142Y-80498242D01*
G37*
G36*
X188197142Y-80498242D02*
G01*
X188345101Y-80559529D01*
X188478255Y-80648499D01*
X188591501Y-80761745D01*
X188680471Y-80894899D01*
X188741758Y-81042858D01*
X188773000Y-81199925D01*
X188773000Y-81360075D01*
X188741758Y-81517142D01*
X188680471Y-81665101D01*
X188591501Y-81798255D01*
X188478255Y-81911501D01*
X188345101Y-82000471D01*
X188197142Y-82061758D01*
X188040075Y-82093000D01*
X187879925Y-82093000D01*
X187722858Y-82061758D01*
X187574899Y-82000471D01*
X187441745Y-81911501D01*
X187328499Y-81798255D01*
X187239529Y-81665101D01*
X187178242Y-81517142D01*
X187147000Y-81360075D01*
X187147000Y-81199925D01*
X187178242Y-81042858D01*
X187239529Y-80894899D01*
X187328499Y-80761745D01*
X187441745Y-80648499D01*
X187574899Y-80559529D01*
X187722858Y-80498242D01*
X187879925Y-80467000D01*
X188040075Y-80467000D01*
X188197142Y-80498242D01*
X188197142Y-80498242D01*
G37*
G36*
X160257142Y-80498242D02*
G01*
X160405101Y-80559529D01*
X160538255Y-80648499D01*
X160651501Y-80761745D01*
X160740471Y-80894899D01*
X160801758Y-81042858D01*
X160833000Y-81199925D01*
X160833000Y-81360075D01*
X160801758Y-81517142D01*
X160740471Y-81665101D01*
X160651501Y-81798255D01*
X160538255Y-81911501D01*
X160405101Y-82000471D01*
X160257142Y-82061758D01*
X160100075Y-82093000D01*
X159939925Y-82093000D01*
X159782858Y-82061758D01*
X159634899Y-82000471D01*
X159501745Y-81911501D01*
X159388499Y-81798255D01*
X159299529Y-81665101D01*
X159238242Y-81517142D01*
X159207000Y-81360075D01*
X159207000Y-81199925D01*
X159238242Y-81042858D01*
X159299529Y-80894899D01*
X159388499Y-80761745D01*
X159501745Y-80648499D01*
X159634899Y-80559529D01*
X159782858Y-80498242D01*
X159939925Y-80467000D01*
X160100075Y-80467000D01*
X160257142Y-80498242D01*
X160257142Y-80498242D01*
G37*
M02*
