G04 #@! TF.GenerationSoftware,KiCad,Pcbnew,(5.1.0)-1*
G04 #@! TF.CreationDate,2020-07-20T11:56:29-07:00*
G04 #@! TF.ProjectId,Tiny_Z80,54696e79-5f5a-4383-902e-6b696361645f,rev?*
G04 #@! TF.SameCoordinates,Original*
G04 #@! TF.FileFunction,Legend,Top*
G04 #@! TF.FilePolarity,Positive*
%FSLAX46Y46*%
G04 Gerber Fmt 4.6, Leading zero omitted, Abs format (unit mm)*
G04 Created by KiCad (PCBNEW (5.1.0)-1) date 2020-07-20 11:56:29*
%MOMM*%
%LPD*%
G04 APERTURE LIST*
%ADD10C,0.150000*%
%ADD11C,0.120000*%
%ADD12C,0.100000*%
%ADD13C,0.254000*%
%ADD14C,0.203200*%
G04 APERTURE END LIST*
D10*
X186205952Y-91575000D02*
X186110714Y-91527380D01*
X185967857Y-91527380D01*
X185825000Y-91575000D01*
X185729761Y-91670238D01*
X185682142Y-91765476D01*
X185634523Y-91955952D01*
X185634523Y-92098809D01*
X185682142Y-92289285D01*
X185729761Y-92384523D01*
X185825000Y-92479761D01*
X185967857Y-92527380D01*
X186063095Y-92527380D01*
X186205952Y-92479761D01*
X186253571Y-92432142D01*
X186253571Y-92098809D01*
X186063095Y-92098809D01*
X186682142Y-92527380D02*
X186682142Y-91527380D01*
X187063095Y-91527380D01*
X187158333Y-91575000D01*
X187205952Y-91622619D01*
X187253571Y-91717857D01*
X187253571Y-91860714D01*
X187205952Y-91955952D01*
X187158333Y-92003571D01*
X187063095Y-92051190D01*
X186682142Y-92051190D01*
X188158333Y-92527380D02*
X187682142Y-92527380D01*
X187682142Y-91527380D01*
X188396428Y-91527380D02*
X189015476Y-91527380D01*
X188682142Y-91908333D01*
X188825000Y-91908333D01*
X188920238Y-91955952D01*
X188967857Y-92003571D01*
X189015476Y-92098809D01*
X189015476Y-92336904D01*
X188967857Y-92432142D01*
X188920238Y-92479761D01*
X188825000Y-92527380D01*
X188539285Y-92527380D01*
X188444047Y-92479761D01*
X188396428Y-92432142D01*
D11*
X188595000Y-89535000D02*
X189865000Y-90805000D01*
X186690000Y-88900000D02*
X187960000Y-90170000D01*
X188595000Y-88900000D02*
X188595000Y-90170000D01*
X187960000Y-89535000D02*
X187960000Y-90805000D01*
X186690000Y-88265000D02*
X186690000Y-89535000D01*
X185420000Y-90805000D02*
X184150000Y-90805000D01*
X186690000Y-89535000D02*
X185420000Y-90805000D01*
X187960000Y-90805000D02*
X186690000Y-89535000D01*
X188595000Y-90170000D02*
X187960000Y-90805000D01*
X189230000Y-90805000D02*
X188595000Y-90170000D01*
X190500000Y-90805000D02*
X189230000Y-90805000D01*
X188595000Y-88900000D02*
X190500000Y-90805000D01*
X187960000Y-89535000D02*
X188595000Y-88900000D01*
X186690000Y-88265000D02*
X187960000Y-89535000D01*
X184150000Y-90805000D02*
X186690000Y-88265000D01*
D10*
X173273333Y-94073404D02*
X173730476Y-94073404D01*
X173501904Y-94873404D02*
X173501904Y-94073404D01*
X173997142Y-94873404D02*
X173997142Y-94340071D01*
X173997142Y-94073404D02*
X173959047Y-94111500D01*
X173997142Y-94149595D01*
X174035238Y-94111500D01*
X173997142Y-94073404D01*
X173997142Y-94149595D01*
X174378095Y-94340071D02*
X174378095Y-94873404D01*
X174378095Y-94416261D02*
X174416190Y-94378166D01*
X174492380Y-94340071D01*
X174606666Y-94340071D01*
X174682857Y-94378166D01*
X174720952Y-94454357D01*
X174720952Y-94873404D01*
X175025714Y-94340071D02*
X175216190Y-94873404D01*
X175406666Y-94340071D02*
X175216190Y-94873404D01*
X175140000Y-95063880D01*
X175101904Y-95101976D01*
X175025714Y-95140071D01*
X176244761Y-94073404D02*
X176778095Y-94073404D01*
X176244761Y-94873404D01*
X176778095Y-94873404D01*
X177197142Y-94416261D02*
X177120952Y-94378166D01*
X177082857Y-94340071D01*
X177044761Y-94263880D01*
X177044761Y-94225785D01*
X177082857Y-94149595D01*
X177120952Y-94111500D01*
X177197142Y-94073404D01*
X177349523Y-94073404D01*
X177425714Y-94111500D01*
X177463809Y-94149595D01*
X177501904Y-94225785D01*
X177501904Y-94263880D01*
X177463809Y-94340071D01*
X177425714Y-94378166D01*
X177349523Y-94416261D01*
X177197142Y-94416261D01*
X177120952Y-94454357D01*
X177082857Y-94492452D01*
X177044761Y-94568642D01*
X177044761Y-94721023D01*
X177082857Y-94797214D01*
X177120952Y-94835309D01*
X177197142Y-94873404D01*
X177349523Y-94873404D01*
X177425714Y-94835309D01*
X177463809Y-94797214D01*
X177501904Y-94721023D01*
X177501904Y-94568642D01*
X177463809Y-94492452D01*
X177425714Y-94454357D01*
X177349523Y-94416261D01*
X177997142Y-94073404D02*
X178073333Y-94073404D01*
X178149523Y-94111500D01*
X178187619Y-94149595D01*
X178225714Y-94225785D01*
X178263809Y-94378166D01*
X178263809Y-94568642D01*
X178225714Y-94721023D01*
X178187619Y-94797214D01*
X178149523Y-94835309D01*
X178073333Y-94873404D01*
X177997142Y-94873404D01*
X177920952Y-94835309D01*
X177882857Y-94797214D01*
X177844761Y-94721023D01*
X177806666Y-94568642D01*
X177806666Y-94378166D01*
X177844761Y-94225785D01*
X177882857Y-94149595D01*
X177920952Y-94111500D01*
X177997142Y-94073404D01*
X179216190Y-94568642D02*
X179825714Y-94568642D01*
X180701904Y-94073404D02*
X180968571Y-94873404D01*
X181235238Y-94073404D01*
X181806666Y-94835309D02*
X181730476Y-94873404D01*
X181578095Y-94873404D01*
X181501904Y-94835309D01*
X181463809Y-94759119D01*
X181463809Y-94454357D01*
X181501904Y-94378166D01*
X181578095Y-94340071D01*
X181730476Y-94340071D01*
X181806666Y-94378166D01*
X181844761Y-94454357D01*
X181844761Y-94530547D01*
X181463809Y-94606738D01*
X182187619Y-94873404D02*
X182187619Y-94340071D01*
X182187619Y-94492452D02*
X182225714Y-94416261D01*
X182263809Y-94378166D01*
X182340000Y-94340071D01*
X182416190Y-94340071D01*
X182644761Y-94835309D02*
X182720952Y-94873404D01*
X182873333Y-94873404D01*
X182949523Y-94835309D01*
X182987619Y-94759119D01*
X182987619Y-94721023D01*
X182949523Y-94644833D01*
X182873333Y-94606738D01*
X182759047Y-94606738D01*
X182682857Y-94568642D01*
X182644761Y-94492452D01*
X182644761Y-94454357D01*
X182682857Y-94378166D01*
X182759047Y-94340071D01*
X182873333Y-94340071D01*
X182949523Y-94378166D01*
X183330476Y-94873404D02*
X183330476Y-94340071D01*
X183330476Y-94073404D02*
X183292380Y-94111500D01*
X183330476Y-94149595D01*
X183368571Y-94111500D01*
X183330476Y-94073404D01*
X183330476Y-94149595D01*
X183825714Y-94873404D02*
X183749523Y-94835309D01*
X183711428Y-94797214D01*
X183673333Y-94721023D01*
X183673333Y-94492452D01*
X183711428Y-94416261D01*
X183749523Y-94378166D01*
X183825714Y-94340071D01*
X183940000Y-94340071D01*
X184016190Y-94378166D01*
X184054285Y-94416261D01*
X184092380Y-94492452D01*
X184092380Y-94721023D01*
X184054285Y-94797214D01*
X184016190Y-94835309D01*
X183940000Y-94873404D01*
X183825714Y-94873404D01*
X184435238Y-94340071D02*
X184435238Y-94873404D01*
X184435238Y-94416261D02*
X184473333Y-94378166D01*
X184549523Y-94340071D01*
X184663809Y-94340071D01*
X184740000Y-94378166D01*
X184778095Y-94454357D01*
X184778095Y-94873404D01*
X186187619Y-94873404D02*
X185730476Y-94873404D01*
X185959047Y-94873404D02*
X185959047Y-94073404D01*
X185882857Y-94187690D01*
X185806666Y-94263880D01*
X185730476Y-94301976D01*
X186530476Y-94797214D02*
X186568571Y-94835309D01*
X186530476Y-94873404D01*
X186492380Y-94835309D01*
X186530476Y-94797214D01*
X186530476Y-94873404D01*
X187063809Y-94073404D02*
X187140000Y-94073404D01*
X187216190Y-94111500D01*
X187254285Y-94149595D01*
X187292380Y-94225785D01*
X187330476Y-94378166D01*
X187330476Y-94568642D01*
X187292380Y-94721023D01*
X187254285Y-94797214D01*
X187216190Y-94835309D01*
X187140000Y-94873404D01*
X187063809Y-94873404D01*
X186987619Y-94835309D01*
X186949523Y-94797214D01*
X186911428Y-94721023D01*
X186873333Y-94568642D01*
X186873333Y-94378166D01*
X186911428Y-94225785D01*
X186949523Y-94149595D01*
X186987619Y-94111500D01*
X187063809Y-94073404D01*
X170397142Y-96147214D02*
X170359047Y-96185309D01*
X170244761Y-96223404D01*
X170168571Y-96223404D01*
X170054285Y-96185309D01*
X169978095Y-96109119D01*
X169940000Y-96032928D01*
X169901904Y-95880547D01*
X169901904Y-95766261D01*
X169940000Y-95613880D01*
X169978095Y-95537690D01*
X170054285Y-95461500D01*
X170168571Y-95423404D01*
X170244761Y-95423404D01*
X170359047Y-95461500D01*
X170397142Y-95499595D01*
X170854285Y-96223404D02*
X170778095Y-96185309D01*
X170740000Y-96147214D01*
X170701904Y-96071023D01*
X170701904Y-95842452D01*
X170740000Y-95766261D01*
X170778095Y-95728166D01*
X170854285Y-95690071D01*
X170968571Y-95690071D01*
X171044761Y-95728166D01*
X171082857Y-95766261D01*
X171120952Y-95842452D01*
X171120952Y-96071023D01*
X171082857Y-96147214D01*
X171044761Y-96185309D01*
X170968571Y-96223404D01*
X170854285Y-96223404D01*
X171463809Y-95690071D02*
X171463809Y-96490071D01*
X171463809Y-95728166D02*
X171540000Y-95690071D01*
X171692380Y-95690071D01*
X171768571Y-95728166D01*
X171806666Y-95766261D01*
X171844761Y-95842452D01*
X171844761Y-96071023D01*
X171806666Y-96147214D01*
X171768571Y-96185309D01*
X171692380Y-96223404D01*
X171540000Y-96223404D01*
X171463809Y-96185309D01*
X172111428Y-95690071D02*
X172301904Y-96223404D01*
X172492380Y-95690071D02*
X172301904Y-96223404D01*
X172225714Y-96413880D01*
X172187619Y-96451976D01*
X172111428Y-96490071D01*
X172797142Y-96223404D02*
X172797142Y-95690071D01*
X172797142Y-95842452D02*
X172835238Y-95766261D01*
X172873333Y-95728166D01*
X172949523Y-95690071D01*
X173025714Y-95690071D01*
X173292380Y-96223404D02*
X173292380Y-95690071D01*
X173292380Y-95423404D02*
X173254285Y-95461500D01*
X173292380Y-95499595D01*
X173330476Y-95461500D01*
X173292380Y-95423404D01*
X173292380Y-95499595D01*
X174016190Y-95690071D02*
X174016190Y-96337690D01*
X173978095Y-96413880D01*
X173940000Y-96451976D01*
X173863809Y-96490071D01*
X173749523Y-96490071D01*
X173673333Y-96451976D01*
X174016190Y-96185309D02*
X173940000Y-96223404D01*
X173787619Y-96223404D01*
X173711428Y-96185309D01*
X173673333Y-96147214D01*
X173635238Y-96071023D01*
X173635238Y-95842452D01*
X173673333Y-95766261D01*
X173711428Y-95728166D01*
X173787619Y-95690071D01*
X173940000Y-95690071D01*
X174016190Y-95728166D01*
X174397142Y-96223404D02*
X174397142Y-95423404D01*
X174740000Y-96223404D02*
X174740000Y-95804357D01*
X174701904Y-95728166D01*
X174625714Y-95690071D01*
X174511428Y-95690071D01*
X174435238Y-95728166D01*
X174397142Y-95766261D01*
X175006666Y-95690071D02*
X175311428Y-95690071D01*
X175120952Y-95423404D02*
X175120952Y-96109119D01*
X175159047Y-96185309D01*
X175235238Y-96223404D01*
X175311428Y-96223404D01*
X176416190Y-96528166D02*
X176378095Y-96490071D01*
X176301904Y-96375785D01*
X176263809Y-96299595D01*
X176225714Y-96185309D01*
X176187619Y-95994833D01*
X176187619Y-95842452D01*
X176225714Y-95651976D01*
X176263809Y-95537690D01*
X176301904Y-95461500D01*
X176378095Y-95347214D01*
X176416190Y-95309119D01*
X177178095Y-96147214D02*
X177140000Y-96185309D01*
X177025714Y-96223404D01*
X176949523Y-96223404D01*
X176835238Y-96185309D01*
X176759047Y-96109119D01*
X176720952Y-96032928D01*
X176682857Y-95880547D01*
X176682857Y-95766261D01*
X176720952Y-95613880D01*
X176759047Y-95537690D01*
X176835238Y-95461500D01*
X176949523Y-95423404D01*
X177025714Y-95423404D01*
X177140000Y-95461500D01*
X177178095Y-95499595D01*
X177444761Y-96528166D02*
X177482857Y-96490071D01*
X177559047Y-96375785D01*
X177597142Y-96299595D01*
X177635238Y-96185309D01*
X177673333Y-95994833D01*
X177673333Y-95842452D01*
X177635238Y-95651976D01*
X177597142Y-95537690D01*
X177559047Y-95461500D01*
X177482857Y-95347214D01*
X177444761Y-95309119D01*
X178625714Y-95499595D02*
X178663809Y-95461500D01*
X178740000Y-95423404D01*
X178930476Y-95423404D01*
X179006666Y-95461500D01*
X179044761Y-95499595D01*
X179082857Y-95575785D01*
X179082857Y-95651976D01*
X179044761Y-95766261D01*
X178587619Y-96223404D01*
X179082857Y-96223404D01*
X179578095Y-95423404D02*
X179654285Y-95423404D01*
X179730476Y-95461500D01*
X179768571Y-95499595D01*
X179806666Y-95575785D01*
X179844761Y-95728166D01*
X179844761Y-95918642D01*
X179806666Y-96071023D01*
X179768571Y-96147214D01*
X179730476Y-96185309D01*
X179654285Y-96223404D01*
X179578095Y-96223404D01*
X179501904Y-96185309D01*
X179463809Y-96147214D01*
X179425714Y-96071023D01*
X179387619Y-95918642D01*
X179387619Y-95728166D01*
X179425714Y-95575785D01*
X179463809Y-95499595D01*
X179501904Y-95461500D01*
X179578095Y-95423404D01*
X180149523Y-95499595D02*
X180187619Y-95461500D01*
X180263809Y-95423404D01*
X180454285Y-95423404D01*
X180530476Y-95461500D01*
X180568571Y-95499595D01*
X180606666Y-95575785D01*
X180606666Y-95651976D01*
X180568571Y-95766261D01*
X180111428Y-96223404D01*
X180606666Y-96223404D01*
X181101904Y-95423404D02*
X181178095Y-95423404D01*
X181254285Y-95461500D01*
X181292380Y-95499595D01*
X181330476Y-95575785D01*
X181368571Y-95728166D01*
X181368571Y-95918642D01*
X181330476Y-96071023D01*
X181292380Y-96147214D01*
X181254285Y-96185309D01*
X181178095Y-96223404D01*
X181101904Y-96223404D01*
X181025714Y-96185309D01*
X180987619Y-96147214D01*
X180949523Y-96071023D01*
X180911428Y-95918642D01*
X180911428Y-95728166D01*
X180949523Y-95575785D01*
X180987619Y-95499595D01*
X181025714Y-95461500D01*
X181101904Y-95423404D01*
X182282857Y-96185309D02*
X182397142Y-96223404D01*
X182587619Y-96223404D01*
X182663809Y-96185309D01*
X182701904Y-96147214D01*
X182740000Y-96071023D01*
X182740000Y-95994833D01*
X182701904Y-95918642D01*
X182663809Y-95880547D01*
X182587619Y-95842452D01*
X182435238Y-95804357D01*
X182359047Y-95766261D01*
X182320952Y-95728166D01*
X182282857Y-95651976D01*
X182282857Y-95575785D01*
X182320952Y-95499595D01*
X182359047Y-95461500D01*
X182435238Y-95423404D01*
X182625714Y-95423404D01*
X182740000Y-95461500D01*
X183387619Y-96185309D02*
X183311428Y-96223404D01*
X183159047Y-96223404D01*
X183082857Y-96185309D01*
X183044761Y-96109119D01*
X183044761Y-95804357D01*
X183082857Y-95728166D01*
X183159047Y-95690071D01*
X183311428Y-95690071D01*
X183387619Y-95728166D01*
X183425714Y-95804357D01*
X183425714Y-95880547D01*
X183044761Y-95956738D01*
X183768571Y-96223404D02*
X183768571Y-95690071D01*
X183768571Y-95842452D02*
X183806666Y-95766261D01*
X183844761Y-95728166D01*
X183920952Y-95690071D01*
X183997142Y-95690071D01*
X184606666Y-95690071D02*
X184606666Y-96337690D01*
X184568571Y-96413880D01*
X184530476Y-96451976D01*
X184454285Y-96490071D01*
X184340000Y-96490071D01*
X184263809Y-96451976D01*
X184606666Y-96185309D02*
X184530476Y-96223404D01*
X184378095Y-96223404D01*
X184301904Y-96185309D01*
X184263809Y-96147214D01*
X184225714Y-96071023D01*
X184225714Y-95842452D01*
X184263809Y-95766261D01*
X184301904Y-95728166D01*
X184378095Y-95690071D01*
X184530476Y-95690071D01*
X184606666Y-95728166D01*
X185292380Y-96185309D02*
X185216190Y-96223404D01*
X185063809Y-96223404D01*
X184987619Y-96185309D01*
X184949523Y-96109119D01*
X184949523Y-95804357D01*
X184987619Y-95728166D01*
X185063809Y-95690071D01*
X185216190Y-95690071D01*
X185292380Y-95728166D01*
X185330476Y-95804357D01*
X185330476Y-95880547D01*
X184949523Y-95956738D01*
X185597142Y-95690071D02*
X185787619Y-96223404D01*
X185978095Y-95690071D02*
X185787619Y-96223404D01*
X185711428Y-96413880D01*
X185673333Y-96451976D01*
X185597142Y-96490071D01*
X186892380Y-96223404D02*
X186892380Y-95423404D01*
X187349523Y-96223404D02*
X187006666Y-95766261D01*
X187349523Y-95423404D02*
X186892380Y-95880547D01*
X187692380Y-96223404D02*
X187692380Y-95690071D01*
X187692380Y-95423404D02*
X187654285Y-95461500D01*
X187692380Y-95499595D01*
X187730476Y-95461500D01*
X187692380Y-95423404D01*
X187692380Y-95499595D01*
X188035238Y-96185309D02*
X188111428Y-96223404D01*
X188263809Y-96223404D01*
X188340000Y-96185309D01*
X188378095Y-96109119D01*
X188378095Y-96071023D01*
X188340000Y-95994833D01*
X188263809Y-95956738D01*
X188149523Y-95956738D01*
X188073333Y-95918642D01*
X188035238Y-95842452D01*
X188035238Y-95804357D01*
X188073333Y-95728166D01*
X188149523Y-95690071D01*
X188263809Y-95690071D01*
X188340000Y-95728166D01*
X189025714Y-96185309D02*
X188949523Y-96223404D01*
X188797142Y-96223404D01*
X188720952Y-96185309D01*
X188682857Y-96109119D01*
X188682857Y-95804357D01*
X188720952Y-95728166D01*
X188797142Y-95690071D01*
X188949523Y-95690071D01*
X189025714Y-95728166D01*
X189063809Y-95804357D01*
X189063809Y-95880547D01*
X188682857Y-95956738D01*
X189520952Y-96223404D02*
X189444761Y-96185309D01*
X189406666Y-96109119D01*
X189406666Y-95423404D01*
X190130476Y-96185309D02*
X190054285Y-96223404D01*
X189901904Y-96223404D01*
X189825714Y-96185309D01*
X189787619Y-96109119D01*
X189787619Y-95804357D01*
X189825714Y-95728166D01*
X189901904Y-95690071D01*
X190054285Y-95690071D01*
X190130476Y-95728166D01*
X190168571Y-95804357D01*
X190168571Y-95880547D01*
X189787619Y-95956738D01*
X190435238Y-95690071D02*
X190625714Y-96223404D01*
X190816190Y-95690071D01*
D11*
X134620000Y-122117500D02*
X140272500Y-122117500D01*
X134620000Y-122117500D02*
X128967500Y-122117500D01*
X134620000Y-101402500D02*
X140272500Y-101402500D01*
X134620000Y-101402500D02*
X127045000Y-101402500D01*
D12*
X161375000Y-119465000D02*
X161375000Y-117815000D01*
X159725000Y-119465000D02*
X161375000Y-119465000D01*
X148505000Y-119465000D02*
X148505000Y-117815000D01*
X150155000Y-119465000D02*
X148505000Y-119465000D01*
X161375000Y-104055000D02*
X161375000Y-105705000D01*
X159725000Y-104055000D02*
X161375000Y-104055000D01*
X148505000Y-105205000D02*
X148505000Y-105705000D01*
X149655000Y-104055000D02*
X148505000Y-105205000D01*
X150155000Y-104055000D02*
X149655000Y-104055000D01*
D11*
X164180000Y-101250000D02*
X155940000Y-101250000D01*
X164180000Y-122270000D02*
X164180000Y-101250000D01*
X145700000Y-122270000D02*
X164180000Y-122270000D01*
X145700000Y-102250000D02*
X145700000Y-122270000D01*
X146700000Y-101250000D02*
X145700000Y-102250000D01*
X153940000Y-101250000D02*
X146700000Y-101250000D01*
X169595000Y-112412500D02*
X169595000Y-112837500D01*
X169595000Y-112837500D02*
X169770000Y-112837500D01*
X169595000Y-99042500D02*
X169595000Y-98617500D01*
X169595000Y-98617500D02*
X169770000Y-98617500D01*
X189815000Y-112412500D02*
X189815000Y-112837500D01*
X189815000Y-112837500D02*
X189640000Y-112837500D01*
X189815000Y-99042500D02*
X189815000Y-98617500D01*
X189815000Y-98617500D02*
X189640000Y-98617500D01*
X169770000Y-112837500D02*
X169770000Y-114727500D01*
D10*
X139605000Y-83725000D02*
X139605000Y-84300000D01*
X149955000Y-83725000D02*
X149955000Y-84400000D01*
X149955000Y-94075000D02*
X149955000Y-93400000D01*
X139605000Y-94075000D02*
X139605000Y-93400000D01*
X139605000Y-83725000D02*
X140280000Y-83725000D01*
X139605000Y-94075000D02*
X140280000Y-94075000D01*
X149955000Y-94075000D02*
X149280000Y-94075000D01*
X149955000Y-83725000D02*
X149280000Y-83725000D01*
X139605000Y-84300000D02*
X138330000Y-84300000D01*
D13*
X213360000Y-106552500D02*
X213360000Y-98552500D01*
X209060000Y-98552500D02*
X213360000Y-98552500D01*
X209060000Y-106552500D02*
X209060000Y-98552500D01*
X213360000Y-106552500D02*
X209060000Y-106552500D01*
X214060000Y-98552500D02*
X213360000Y-98552500D01*
X214060000Y-106552500D02*
X214060000Y-98552500D01*
X213360000Y-106552500D02*
X214060000Y-106552500D01*
X214610000Y-98002500D02*
X214060000Y-98552500D01*
X214060000Y-106552500D02*
X214610000Y-107102500D01*
X214060000Y-106552500D02*
X214610000Y-106552500D01*
X214060000Y-98552500D02*
X214610000Y-98552500D01*
X214610000Y-98552500D02*
X214610000Y-106552500D01*
X212090000Y-120650000D02*
X211455000Y-120650000D01*
X209550000Y-123190000D02*
X209550000Y-122555000D01*
X211455000Y-113030000D02*
X212090000Y-113665000D01*
X212090000Y-113665000D02*
X212090000Y-114935000D01*
X212090000Y-114935000D02*
X211455000Y-115570000D01*
X211455000Y-115570000D02*
X212090000Y-116205000D01*
X212090000Y-116205000D02*
X212090000Y-117475000D01*
X212090000Y-117475000D02*
X211455000Y-118110000D01*
X211455000Y-118110000D02*
X212090000Y-118745000D01*
X212090000Y-118745000D02*
X212090000Y-120015000D01*
X212090000Y-120015000D02*
X211455000Y-120650000D01*
X212090000Y-111125000D02*
X212090000Y-112395000D01*
X212090000Y-112395000D02*
X211455000Y-113030000D01*
X207010000Y-111125000D02*
X207645000Y-110490000D01*
X207645000Y-110490000D02*
X208915000Y-110490000D01*
X208915000Y-110490000D02*
X209550000Y-111125000D01*
X209550000Y-111125000D02*
X210185000Y-110490000D01*
X210185000Y-110490000D02*
X211455000Y-110490000D01*
X211455000Y-110490000D02*
X212090000Y-111125000D01*
X209550000Y-122555000D02*
X208915000Y-123190000D01*
X208915000Y-123190000D02*
X207645000Y-123190000D01*
X207645000Y-123190000D02*
X207010000Y-122555000D01*
X207010000Y-122555000D02*
X207010000Y-121285000D01*
X207010000Y-121285000D02*
X207645000Y-120650000D01*
X207645000Y-120650000D02*
X207010000Y-120015000D01*
X207010000Y-120015000D02*
X207010000Y-118745000D01*
X207010000Y-118745000D02*
X207645000Y-118110000D01*
X207645000Y-118110000D02*
X207010000Y-117475000D01*
X207010000Y-117475000D02*
X207010000Y-116205000D01*
X207010000Y-116205000D02*
X207645000Y-115570000D01*
X207645000Y-115570000D02*
X207010000Y-114935000D01*
X207010000Y-114935000D02*
X207010000Y-113665000D01*
X207010000Y-113665000D02*
X207645000Y-113030000D01*
X207645000Y-113030000D02*
X207010000Y-112395000D01*
X207010000Y-112395000D02*
X207010000Y-111125000D01*
X212090000Y-120650000D02*
X212090000Y-123190000D01*
X212090000Y-123190000D02*
X209550000Y-123190000D01*
D11*
X155111267Y-99570000D02*
X154768733Y-99570000D01*
X155111267Y-98550000D02*
X154768733Y-98550000D01*
X135323733Y-99570000D02*
X135666267Y-99570000D01*
X135323733Y-98550000D02*
X135666267Y-98550000D01*
X201170000Y-92881267D02*
X201170000Y-92538733D01*
X200150000Y-92881267D02*
X200150000Y-92538733D01*
X197610000Y-107778733D02*
X197610000Y-108121267D01*
X198630000Y-107778733D02*
X198630000Y-108121267D01*
X183390000Y-91611267D02*
X183390000Y-91268733D01*
X182370000Y-91611267D02*
X182370000Y-91268733D01*
X172210000Y-91611267D02*
X172210000Y-91268733D01*
X173230000Y-91611267D02*
X173230000Y-91268733D01*
X205230000Y-92538733D02*
X205230000Y-92881267D01*
X206250000Y-92538733D02*
X206250000Y-92881267D01*
X205230000Y-108121267D02*
X205230000Y-107778733D01*
X206250000Y-108121267D02*
X206250000Y-107778733D01*
X192305000Y-91910000D02*
X192305000Y-94370000D01*
X192305000Y-94370000D02*
X193775000Y-94370000D01*
X193775000Y-94370000D02*
X193775000Y-91910000D01*
X196315000Y-94370000D02*
X196315000Y-91910000D01*
X194845000Y-94370000D02*
X196315000Y-94370000D01*
X194845000Y-91910000D02*
X194845000Y-94370000D01*
X197385000Y-91910000D02*
X197385000Y-94370000D01*
X197385000Y-94370000D02*
X198855000Y-94370000D01*
X198855000Y-94370000D02*
X198855000Y-91910000D01*
X199273748Y-114740000D02*
X202046252Y-114740000D01*
X199273748Y-111320000D02*
X202046252Y-111320000D01*
X201813748Y-85920000D02*
X204586252Y-85920000D01*
X201813748Y-89340000D02*
X204586252Y-89340000D01*
D10*
X197295000Y-102405000D02*
X196185000Y-102405000D01*
X196185000Y-98255000D02*
X197295000Y-98255000D01*
X205135000Y-98255000D02*
X204025000Y-98255000D01*
X205135000Y-102405000D02*
X204025000Y-102405000D01*
X196185000Y-102405000D02*
X196185000Y-98255000D01*
X205135000Y-102405000D02*
X205135000Y-98255000D01*
X197295000Y-102405000D02*
X197295000Y-103530000D01*
D11*
X157990000Y-91268733D02*
X157990000Y-91611267D01*
X156970000Y-91268733D02*
X156970000Y-91611267D01*
X175100000Y-89190000D02*
X175100000Y-93690000D01*
X175100000Y-93690000D02*
X180500000Y-93690000D01*
D13*
X210185000Y-92710000D02*
X209550000Y-92710000D01*
X212090000Y-92710000D02*
X211455000Y-92710000D01*
X212090000Y-80645000D02*
X211455000Y-80010000D01*
X212090000Y-81915000D02*
X212090000Y-80645000D01*
X211455000Y-82550000D02*
X212090000Y-81915000D01*
X209550000Y-81915000D02*
X209550000Y-80645000D01*
X209550000Y-80645000D02*
X210185000Y-80010000D01*
X210185000Y-82550000D02*
X209550000Y-81915000D01*
X210185000Y-85090000D02*
X209550000Y-84455000D01*
X209550000Y-84455000D02*
X209550000Y-83185000D01*
X209550000Y-83185000D02*
X210185000Y-82550000D01*
X210185000Y-80010000D02*
X211455000Y-80010000D01*
X211455000Y-82550000D02*
X212090000Y-83185000D01*
X212090000Y-83185000D02*
X212090000Y-84455000D01*
X212090000Y-84455000D02*
X211455000Y-85090000D01*
X212090000Y-95250000D02*
X209550000Y-95250000D01*
X209550000Y-95250000D02*
X209550000Y-92710000D01*
X210185000Y-92710000D02*
X209550000Y-92075000D01*
X209550000Y-92075000D02*
X209550000Y-90805000D01*
X209550000Y-90805000D02*
X210185000Y-90170000D01*
X210185000Y-90170000D02*
X209550000Y-89535000D01*
X209550000Y-89535000D02*
X209550000Y-88265000D01*
X209550000Y-88265000D02*
X210185000Y-87630000D01*
X210185000Y-87630000D02*
X209550000Y-86995000D01*
X209550000Y-86995000D02*
X209550000Y-85725000D01*
X209550000Y-85725000D02*
X210185000Y-85090000D01*
X211455000Y-85090000D02*
X212090000Y-85725000D01*
X212090000Y-85725000D02*
X212090000Y-86995000D01*
X212090000Y-86995000D02*
X211455000Y-87630000D01*
X211455000Y-87630000D02*
X212090000Y-88265000D01*
X212090000Y-88265000D02*
X212090000Y-89535000D01*
X212090000Y-89535000D02*
X211455000Y-90170000D01*
X211455000Y-90170000D02*
X212090000Y-90805000D01*
X212090000Y-90805000D02*
X212090000Y-92075000D01*
X212090000Y-92075000D02*
X211455000Y-92710000D01*
X212090000Y-92710000D02*
X212090000Y-95250000D01*
X173990000Y-85090000D02*
X173990000Y-84455000D01*
X171450000Y-82550000D02*
X172085000Y-82550000D01*
X181610000Y-84455000D02*
X180975000Y-85090000D01*
X180975000Y-85090000D02*
X179705000Y-85090000D01*
X179705000Y-85090000D02*
X179070000Y-84455000D01*
X179070000Y-84455000D02*
X178435000Y-85090000D01*
X178435000Y-85090000D02*
X177165000Y-85090000D01*
X177165000Y-85090000D02*
X176530000Y-84455000D01*
X176530000Y-84455000D02*
X175895000Y-85090000D01*
X175895000Y-85090000D02*
X174625000Y-85090000D01*
X174625000Y-85090000D02*
X173990000Y-84455000D01*
X203835000Y-85090000D02*
X202565000Y-85090000D01*
X202565000Y-85090000D02*
X201930000Y-84455000D01*
X201930000Y-84455000D02*
X201295000Y-85090000D01*
X201295000Y-85090000D02*
X200025000Y-85090000D01*
X200025000Y-85090000D02*
X199390000Y-84455000D01*
X199390000Y-84455000D02*
X198755000Y-85090000D01*
X198755000Y-85090000D02*
X197485000Y-85090000D01*
X197485000Y-85090000D02*
X196850000Y-84455000D01*
X196850000Y-84455000D02*
X196215000Y-85090000D01*
X196215000Y-85090000D02*
X194945000Y-85090000D01*
X194945000Y-85090000D02*
X194310000Y-84455000D01*
X194310000Y-84455000D02*
X193675000Y-85090000D01*
X193675000Y-85090000D02*
X192405000Y-85090000D01*
X192405000Y-85090000D02*
X191770000Y-84455000D01*
X191770000Y-84455000D02*
X191135000Y-85090000D01*
X191135000Y-85090000D02*
X189865000Y-85090000D01*
X189865000Y-85090000D02*
X189230000Y-84455000D01*
X189230000Y-84455000D02*
X188595000Y-85090000D01*
X188595000Y-85090000D02*
X187325000Y-85090000D01*
X187325000Y-85090000D02*
X186690000Y-84455000D01*
X186690000Y-84455000D02*
X186055000Y-85090000D01*
X186055000Y-85090000D02*
X184785000Y-85090000D01*
X184785000Y-85090000D02*
X184150000Y-84455000D01*
X184150000Y-84455000D02*
X183515000Y-85090000D01*
X183515000Y-85090000D02*
X182245000Y-85090000D01*
X182245000Y-85090000D02*
X181610000Y-84455000D01*
X203835000Y-80010000D02*
X204470000Y-80645000D01*
X204470000Y-80645000D02*
X204470000Y-81915000D01*
X204470000Y-81915000D02*
X203835000Y-82550000D01*
X203835000Y-82550000D02*
X204470000Y-83185000D01*
X204470000Y-83185000D02*
X204470000Y-84455000D01*
X204470000Y-84455000D02*
X203835000Y-85090000D01*
X172085000Y-82550000D02*
X171450000Y-81915000D01*
X171450000Y-81915000D02*
X171450000Y-80645000D01*
X171450000Y-80645000D02*
X172085000Y-80010000D01*
X172085000Y-80010000D02*
X173355000Y-80010000D01*
X173355000Y-80010000D02*
X173990000Y-80645000D01*
X173990000Y-80645000D02*
X174625000Y-80010000D01*
X174625000Y-80010000D02*
X175895000Y-80010000D01*
X175895000Y-80010000D02*
X176530000Y-80645000D01*
X176530000Y-80645000D02*
X177165000Y-80010000D01*
X177165000Y-80010000D02*
X178435000Y-80010000D01*
X178435000Y-80010000D02*
X179070000Y-80645000D01*
X179070000Y-80645000D02*
X179705000Y-80010000D01*
X179705000Y-80010000D02*
X180975000Y-80010000D01*
X180975000Y-80010000D02*
X181610000Y-80645000D01*
X181610000Y-80645000D02*
X182245000Y-80010000D01*
X182245000Y-80010000D02*
X183515000Y-80010000D01*
X183515000Y-80010000D02*
X184150000Y-80645000D01*
X184150000Y-80645000D02*
X184785000Y-80010000D01*
X184785000Y-80010000D02*
X186055000Y-80010000D01*
X186055000Y-80010000D02*
X186690000Y-80645000D01*
X186690000Y-80645000D02*
X187325000Y-80010000D01*
X187325000Y-80010000D02*
X188595000Y-80010000D01*
X188595000Y-80010000D02*
X189230000Y-80645000D01*
X189230000Y-80645000D02*
X189865000Y-80010000D01*
X189865000Y-80010000D02*
X191135000Y-80010000D01*
X191135000Y-80010000D02*
X191770000Y-80645000D01*
X191770000Y-80645000D02*
X192405000Y-80010000D01*
X192405000Y-80010000D02*
X193675000Y-80010000D01*
X193675000Y-80010000D02*
X194310000Y-80645000D01*
X194310000Y-80645000D02*
X194945000Y-80010000D01*
X194945000Y-80010000D02*
X196215000Y-80010000D01*
X196215000Y-80010000D02*
X196850000Y-80645000D01*
X196850000Y-80645000D02*
X197485000Y-80010000D01*
X197485000Y-80010000D02*
X198755000Y-80010000D01*
X198755000Y-80010000D02*
X199390000Y-80645000D01*
X199390000Y-80645000D02*
X200025000Y-80010000D01*
X200025000Y-80010000D02*
X201295000Y-80010000D01*
X201295000Y-80010000D02*
X201930000Y-80645000D01*
X201930000Y-80645000D02*
X202565000Y-80010000D01*
X202565000Y-80010000D02*
X203835000Y-80010000D01*
X173990000Y-85090000D02*
X171450000Y-85090000D01*
X171450000Y-85090000D02*
X171450000Y-82550000D01*
X128270000Y-126365000D02*
X128270000Y-125730000D01*
X128270000Y-128270000D02*
X128270000Y-127635000D01*
X210185000Y-125730000D02*
X211455000Y-125730000D01*
X211455000Y-125730000D02*
X212090000Y-126365000D01*
X209550000Y-126365000D02*
X210185000Y-125730000D01*
X211455000Y-128270000D02*
X212090000Y-127635000D01*
X210185000Y-128270000D02*
X211455000Y-128270000D01*
X209550000Y-127635000D02*
X210185000Y-128270000D01*
X205105000Y-125730000D02*
X206375000Y-125730000D01*
X206375000Y-125730000D02*
X207010000Y-126365000D01*
X204470000Y-126365000D02*
X205105000Y-125730000D01*
X206375000Y-128270000D02*
X207010000Y-127635000D01*
X205105000Y-128270000D02*
X206375000Y-128270000D01*
X204470000Y-127635000D02*
X205105000Y-128270000D01*
X208915000Y-125730000D02*
X209550000Y-126365000D01*
X207645000Y-125730000D02*
X208915000Y-125730000D01*
X207010000Y-126365000D02*
X207645000Y-125730000D01*
X207645000Y-128270000D02*
X207010000Y-127635000D01*
X208915000Y-128270000D02*
X207645000Y-128270000D01*
X209550000Y-127635000D02*
X208915000Y-128270000D01*
X200025000Y-125730000D02*
X201295000Y-125730000D01*
X201295000Y-125730000D02*
X201930000Y-126365000D01*
X199390000Y-126365000D02*
X200025000Y-125730000D01*
X201295000Y-128270000D02*
X201930000Y-127635000D01*
X200025000Y-128270000D02*
X201295000Y-128270000D01*
X199390000Y-127635000D02*
X200025000Y-128270000D01*
X203835000Y-125730000D02*
X204470000Y-126365000D01*
X202565000Y-125730000D02*
X203835000Y-125730000D01*
X201930000Y-126365000D02*
X202565000Y-125730000D01*
X202565000Y-128270000D02*
X201930000Y-127635000D01*
X203835000Y-128270000D02*
X202565000Y-128270000D01*
X204470000Y-127635000D02*
X203835000Y-128270000D01*
X194945000Y-125730000D02*
X196215000Y-125730000D01*
X196215000Y-125730000D02*
X196850000Y-126365000D01*
X194310000Y-126365000D02*
X194945000Y-125730000D01*
X196215000Y-128270000D02*
X196850000Y-127635000D01*
X194945000Y-128270000D02*
X196215000Y-128270000D01*
X194310000Y-127635000D02*
X194945000Y-128270000D01*
X198755000Y-125730000D02*
X199390000Y-126365000D01*
X197485000Y-125730000D02*
X198755000Y-125730000D01*
X196850000Y-126365000D02*
X197485000Y-125730000D01*
X197485000Y-128270000D02*
X196850000Y-127635000D01*
X198755000Y-128270000D02*
X197485000Y-128270000D01*
X199390000Y-127635000D02*
X198755000Y-128270000D01*
X189865000Y-125730000D02*
X191135000Y-125730000D01*
X191135000Y-125730000D02*
X191770000Y-126365000D01*
X189230000Y-126365000D02*
X189865000Y-125730000D01*
X191135000Y-128270000D02*
X191770000Y-127635000D01*
X189865000Y-128270000D02*
X191135000Y-128270000D01*
X189230000Y-127635000D02*
X189865000Y-128270000D01*
X193675000Y-125730000D02*
X194310000Y-126365000D01*
X192405000Y-125730000D02*
X193675000Y-125730000D01*
X191770000Y-126365000D02*
X192405000Y-125730000D01*
X192405000Y-128270000D02*
X191770000Y-127635000D01*
X193675000Y-128270000D02*
X192405000Y-128270000D01*
X194310000Y-127635000D02*
X193675000Y-128270000D01*
X184785000Y-125730000D02*
X186055000Y-125730000D01*
X186055000Y-125730000D02*
X186690000Y-126365000D01*
X184150000Y-126365000D02*
X184785000Y-125730000D01*
X186055000Y-128270000D02*
X186690000Y-127635000D01*
X184785000Y-128270000D02*
X186055000Y-128270000D01*
X184150000Y-127635000D02*
X184785000Y-128270000D01*
X188595000Y-125730000D02*
X189230000Y-126365000D01*
X187325000Y-125730000D02*
X188595000Y-125730000D01*
X186690000Y-126365000D02*
X187325000Y-125730000D01*
X187325000Y-128270000D02*
X186690000Y-127635000D01*
X188595000Y-128270000D02*
X187325000Y-128270000D01*
X189230000Y-127635000D02*
X188595000Y-128270000D01*
X179705000Y-125730000D02*
X180975000Y-125730000D01*
X180975000Y-125730000D02*
X181610000Y-126365000D01*
X179070000Y-126365000D02*
X179705000Y-125730000D01*
X180975000Y-128270000D02*
X181610000Y-127635000D01*
X179705000Y-128270000D02*
X180975000Y-128270000D01*
X179070000Y-127635000D02*
X179705000Y-128270000D01*
X183515000Y-125730000D02*
X184150000Y-126365000D01*
X182245000Y-125730000D02*
X183515000Y-125730000D01*
X181610000Y-126365000D02*
X182245000Y-125730000D01*
X182245000Y-128270000D02*
X181610000Y-127635000D01*
X183515000Y-128270000D02*
X182245000Y-128270000D01*
X184150000Y-127635000D02*
X183515000Y-128270000D01*
X174625000Y-125730000D02*
X175895000Y-125730000D01*
X175895000Y-125730000D02*
X176530000Y-126365000D01*
X173990000Y-126365000D02*
X174625000Y-125730000D01*
X175895000Y-128270000D02*
X176530000Y-127635000D01*
X174625000Y-128270000D02*
X175895000Y-128270000D01*
X173990000Y-127635000D02*
X174625000Y-128270000D01*
X178435000Y-125730000D02*
X179070000Y-126365000D01*
X177165000Y-125730000D02*
X178435000Y-125730000D01*
X176530000Y-126365000D02*
X177165000Y-125730000D01*
X177165000Y-128270000D02*
X176530000Y-127635000D01*
X178435000Y-128270000D02*
X177165000Y-128270000D01*
X179070000Y-127635000D02*
X178435000Y-128270000D01*
X169545000Y-125730000D02*
X170815000Y-125730000D01*
X170815000Y-125730000D02*
X171450000Y-126365000D01*
X168910000Y-126365000D02*
X169545000Y-125730000D01*
X170815000Y-128270000D02*
X171450000Y-127635000D01*
X169545000Y-128270000D02*
X170815000Y-128270000D01*
X168910000Y-127635000D02*
X169545000Y-128270000D01*
X173355000Y-125730000D02*
X173990000Y-126365000D01*
X172085000Y-125730000D02*
X173355000Y-125730000D01*
X171450000Y-126365000D02*
X172085000Y-125730000D01*
X172085000Y-128270000D02*
X171450000Y-127635000D01*
X173355000Y-128270000D02*
X172085000Y-128270000D01*
X173990000Y-127635000D02*
X173355000Y-128270000D01*
X164465000Y-125730000D02*
X165735000Y-125730000D01*
X165735000Y-125730000D02*
X166370000Y-126365000D01*
X163830000Y-126365000D02*
X164465000Y-125730000D01*
X165735000Y-128270000D02*
X166370000Y-127635000D01*
X164465000Y-128270000D02*
X165735000Y-128270000D01*
X163830000Y-127635000D02*
X164465000Y-128270000D01*
X168275000Y-125730000D02*
X168910000Y-126365000D01*
X167005000Y-125730000D02*
X168275000Y-125730000D01*
X166370000Y-126365000D02*
X167005000Y-125730000D01*
X167005000Y-128270000D02*
X166370000Y-127635000D01*
X168275000Y-128270000D02*
X167005000Y-128270000D01*
X168910000Y-127635000D02*
X168275000Y-128270000D01*
X159385000Y-125730000D02*
X160655000Y-125730000D01*
X160655000Y-125730000D02*
X161290000Y-126365000D01*
X158750000Y-126365000D02*
X159385000Y-125730000D01*
X160655000Y-128270000D02*
X161290000Y-127635000D01*
X159385000Y-128270000D02*
X160655000Y-128270000D01*
X158750000Y-127635000D02*
X159385000Y-128270000D01*
X163195000Y-125730000D02*
X163830000Y-126365000D01*
X161925000Y-125730000D02*
X163195000Y-125730000D01*
X161290000Y-126365000D02*
X161925000Y-125730000D01*
X161925000Y-128270000D02*
X161290000Y-127635000D01*
X163195000Y-128270000D02*
X161925000Y-128270000D01*
X163830000Y-127635000D02*
X163195000Y-128270000D01*
X154305000Y-125730000D02*
X155575000Y-125730000D01*
X155575000Y-125730000D02*
X156210000Y-126365000D01*
X153670000Y-126365000D02*
X154305000Y-125730000D01*
X155575000Y-128270000D02*
X156210000Y-127635000D01*
X154305000Y-128270000D02*
X155575000Y-128270000D01*
X153670000Y-127635000D02*
X154305000Y-128270000D01*
X158115000Y-125730000D02*
X158750000Y-126365000D01*
X156845000Y-125730000D02*
X158115000Y-125730000D01*
X156210000Y-126365000D02*
X156845000Y-125730000D01*
X156845000Y-128270000D02*
X156210000Y-127635000D01*
X158115000Y-128270000D02*
X156845000Y-128270000D01*
X158750000Y-127635000D02*
X158115000Y-128270000D01*
X149225000Y-125730000D02*
X150495000Y-125730000D01*
X150495000Y-125730000D02*
X151130000Y-126365000D01*
X148590000Y-126365000D02*
X149225000Y-125730000D01*
X150495000Y-128270000D02*
X151130000Y-127635000D01*
X149225000Y-128270000D02*
X150495000Y-128270000D01*
X148590000Y-127635000D02*
X149225000Y-128270000D01*
X153035000Y-125730000D02*
X153670000Y-126365000D01*
X151765000Y-125730000D02*
X153035000Y-125730000D01*
X151130000Y-126365000D02*
X151765000Y-125730000D01*
X151765000Y-128270000D02*
X151130000Y-127635000D01*
X153035000Y-128270000D02*
X151765000Y-128270000D01*
X153670000Y-127635000D02*
X153035000Y-128270000D01*
X144145000Y-125730000D02*
X145415000Y-125730000D01*
X145415000Y-125730000D02*
X146050000Y-126365000D01*
X143510000Y-126365000D02*
X144145000Y-125730000D01*
X145415000Y-128270000D02*
X146050000Y-127635000D01*
X144145000Y-128270000D02*
X145415000Y-128270000D01*
X143510000Y-127635000D02*
X144145000Y-128270000D01*
X147955000Y-125730000D02*
X148590000Y-126365000D01*
X146685000Y-125730000D02*
X147955000Y-125730000D01*
X146050000Y-126365000D02*
X146685000Y-125730000D01*
X146685000Y-128270000D02*
X146050000Y-127635000D01*
X147955000Y-128270000D02*
X146685000Y-128270000D01*
X148590000Y-127635000D02*
X147955000Y-128270000D01*
X141605000Y-128270000D02*
X140970000Y-127635000D01*
X142875000Y-128270000D02*
X141605000Y-128270000D01*
X143510000Y-127635000D02*
X142875000Y-128270000D01*
X142875000Y-125730000D02*
X143510000Y-126365000D01*
X141605000Y-125730000D02*
X142875000Y-125730000D01*
X140970000Y-126365000D02*
X141605000Y-125730000D01*
X140335000Y-128270000D02*
X140970000Y-127635000D01*
X139065000Y-128270000D02*
X140335000Y-128270000D01*
X138430000Y-127635000D02*
X139065000Y-128270000D01*
X139065000Y-125730000D02*
X140335000Y-125730000D01*
X140335000Y-125730000D02*
X140970000Y-126365000D01*
X138430000Y-126365000D02*
X139065000Y-125730000D01*
X135890000Y-126365000D02*
X136525000Y-125730000D01*
X136525000Y-125730000D02*
X137795000Y-125730000D01*
X137795000Y-125730000D02*
X138430000Y-126365000D01*
X212090000Y-126365000D02*
X212090000Y-127635000D01*
X138430000Y-127635000D02*
X137795000Y-128270000D01*
X137795000Y-128270000D02*
X136525000Y-128270000D01*
X136525000Y-128270000D02*
X135890000Y-127635000D01*
X125730000Y-128270000D02*
X125730000Y-125730000D01*
X125730000Y-125730000D02*
X128270000Y-125730000D01*
X128270000Y-126365000D02*
X128905000Y-125730000D01*
X128905000Y-125730000D02*
X130175000Y-125730000D01*
X130175000Y-125730000D02*
X130810000Y-126365000D01*
X130810000Y-126365000D02*
X131445000Y-125730000D01*
X131445000Y-125730000D02*
X132715000Y-125730000D01*
X132715000Y-125730000D02*
X133350000Y-126365000D01*
X133350000Y-126365000D02*
X133985000Y-125730000D01*
X133985000Y-125730000D02*
X135255000Y-125730000D01*
X135255000Y-125730000D02*
X135890000Y-126365000D01*
X135890000Y-127635000D02*
X135255000Y-128270000D01*
X135255000Y-128270000D02*
X133985000Y-128270000D01*
X133985000Y-128270000D02*
X133350000Y-127635000D01*
X133350000Y-127635000D02*
X132715000Y-128270000D01*
X132715000Y-128270000D02*
X131445000Y-128270000D01*
X131445000Y-128270000D02*
X130810000Y-127635000D01*
X130810000Y-127635000D02*
X130175000Y-128270000D01*
X130175000Y-128270000D02*
X128905000Y-128270000D01*
X128905000Y-128270000D02*
X128270000Y-127635000D01*
X128270000Y-128270000D02*
X125730000Y-128270000D01*
X168910000Y-123825000D02*
X168910000Y-123190000D01*
X168910000Y-125730000D02*
X168910000Y-125095000D01*
X191135000Y-125730000D02*
X191770000Y-125095000D01*
X189865000Y-125730000D02*
X191135000Y-125730000D01*
X189230000Y-125095000D02*
X189865000Y-125730000D01*
X189230000Y-125095000D02*
X188595000Y-125730000D01*
X188595000Y-125730000D02*
X187325000Y-125730000D01*
X187325000Y-125730000D02*
X186690000Y-125095000D01*
X189865000Y-123190000D02*
X191135000Y-123190000D01*
X191135000Y-123190000D02*
X191770000Y-123825000D01*
X189230000Y-123825000D02*
X189865000Y-123190000D01*
X186690000Y-123825000D02*
X187325000Y-123190000D01*
X187325000Y-123190000D02*
X188595000Y-123190000D01*
X188595000Y-123190000D02*
X189230000Y-123825000D01*
X182245000Y-125730000D02*
X181610000Y-125095000D01*
X183515000Y-125730000D02*
X182245000Y-125730000D01*
X184150000Y-125095000D02*
X183515000Y-125730000D01*
X184150000Y-125095000D02*
X184785000Y-125730000D01*
X184785000Y-125730000D02*
X186055000Y-125730000D01*
X186055000Y-125730000D02*
X186690000Y-125095000D01*
X183515000Y-123190000D02*
X184150000Y-123825000D01*
X182245000Y-123190000D02*
X183515000Y-123190000D01*
X181610000Y-123825000D02*
X182245000Y-123190000D01*
X184150000Y-123825000D02*
X184785000Y-123190000D01*
X186055000Y-123190000D02*
X186690000Y-123825000D01*
X184785000Y-123190000D02*
X186055000Y-123190000D01*
X180975000Y-125730000D02*
X181610000Y-125095000D01*
X179705000Y-125730000D02*
X180975000Y-125730000D01*
X179070000Y-125095000D02*
X179705000Y-125730000D01*
X179705000Y-123190000D02*
X180975000Y-123190000D01*
X180975000Y-123190000D02*
X181610000Y-123825000D01*
X179070000Y-123825000D02*
X179705000Y-123190000D01*
X176530000Y-123825000D02*
X177165000Y-123190000D01*
X177165000Y-123190000D02*
X178435000Y-123190000D01*
X178435000Y-123190000D02*
X179070000Y-123825000D01*
X191770000Y-123825000D02*
X191770000Y-125095000D01*
X179070000Y-125095000D02*
X178435000Y-125730000D01*
X178435000Y-125730000D02*
X177165000Y-125730000D01*
X177165000Y-125730000D02*
X176530000Y-125095000D01*
X166370000Y-125730000D02*
X166370000Y-123190000D01*
X166370000Y-123190000D02*
X168910000Y-123190000D01*
X168910000Y-123825000D02*
X169545000Y-123190000D01*
X169545000Y-123190000D02*
X170815000Y-123190000D01*
X170815000Y-123190000D02*
X171450000Y-123825000D01*
X171450000Y-123825000D02*
X172085000Y-123190000D01*
X172085000Y-123190000D02*
X173355000Y-123190000D01*
X173355000Y-123190000D02*
X173990000Y-123825000D01*
X173990000Y-123825000D02*
X174625000Y-123190000D01*
X174625000Y-123190000D02*
X175895000Y-123190000D01*
X175895000Y-123190000D02*
X176530000Y-123825000D01*
X176530000Y-125095000D02*
X175895000Y-125730000D01*
X175895000Y-125730000D02*
X174625000Y-125730000D01*
X174625000Y-125730000D02*
X173990000Y-125095000D01*
X173990000Y-125095000D02*
X173355000Y-125730000D01*
X173355000Y-125730000D02*
X172085000Y-125730000D01*
X172085000Y-125730000D02*
X171450000Y-125095000D01*
X171450000Y-125095000D02*
X170815000Y-125730000D01*
X170815000Y-125730000D02*
X169545000Y-125730000D01*
X169545000Y-125730000D02*
X168910000Y-125095000D01*
X168910000Y-125730000D02*
X166370000Y-125730000D01*
X153670000Y-85090000D02*
X153670000Y-82550000D01*
X156210000Y-85090000D02*
X153670000Y-85090000D01*
X164465000Y-80010000D02*
X165735000Y-80010000D01*
X163830000Y-80645000D02*
X164465000Y-80010000D01*
X163195000Y-80010000D02*
X163830000Y-80645000D01*
X161925000Y-80010000D02*
X163195000Y-80010000D01*
X161290000Y-80645000D02*
X161925000Y-80010000D01*
X160655000Y-80010000D02*
X161290000Y-80645000D01*
X159385000Y-80010000D02*
X160655000Y-80010000D01*
X158750000Y-80645000D02*
X159385000Y-80010000D01*
X158115000Y-80010000D02*
X158750000Y-80645000D01*
X156845000Y-80010000D02*
X158115000Y-80010000D01*
X156210000Y-80645000D02*
X156845000Y-80010000D01*
X155575000Y-80010000D02*
X156210000Y-80645000D01*
X154305000Y-80010000D02*
X155575000Y-80010000D01*
X153670000Y-80645000D02*
X154305000Y-80010000D01*
X153670000Y-81915000D02*
X153670000Y-80645000D01*
X154305000Y-82550000D02*
X153670000Y-81915000D01*
X166370000Y-84455000D02*
X165735000Y-85090000D01*
X166370000Y-83185000D02*
X166370000Y-84455000D01*
X165735000Y-82550000D02*
X166370000Y-83185000D01*
X166370000Y-81915000D02*
X165735000Y-82550000D01*
X166370000Y-80645000D02*
X166370000Y-81915000D01*
X165735000Y-80010000D02*
X166370000Y-80645000D01*
X164465000Y-85090000D02*
X163830000Y-84455000D01*
X165735000Y-85090000D02*
X164465000Y-85090000D01*
X156845000Y-85090000D02*
X156210000Y-84455000D01*
X158115000Y-85090000D02*
X156845000Y-85090000D01*
X158750000Y-84455000D02*
X158115000Y-85090000D01*
X159385000Y-85090000D02*
X158750000Y-84455000D01*
X160655000Y-85090000D02*
X159385000Y-85090000D01*
X161290000Y-84455000D02*
X160655000Y-85090000D01*
X161925000Y-85090000D02*
X161290000Y-84455000D01*
X163195000Y-85090000D02*
X161925000Y-85090000D01*
X163830000Y-84455000D02*
X163195000Y-85090000D01*
X153670000Y-82550000D02*
X154305000Y-82550000D01*
X156210000Y-85090000D02*
X156210000Y-84455000D01*
D11*
X203710000Y-92881267D02*
X203710000Y-92538733D01*
X202690000Y-92881267D02*
X202690000Y-92538733D01*
X203710000Y-107778733D02*
X203710000Y-108121267D01*
X202690000Y-107778733D02*
X202690000Y-108121267D01*
X193550000Y-87458733D02*
X193550000Y-87801267D01*
X192530000Y-87458733D02*
X192530000Y-87801267D01*
X195070000Y-87458733D02*
X195070000Y-87801267D01*
X196090000Y-87458733D02*
X196090000Y-87801267D01*
X198630000Y-87458733D02*
X198630000Y-87801267D01*
X197610000Y-87458733D02*
X197610000Y-87801267D01*
X193550000Y-123361267D02*
X193550000Y-123018733D01*
X192530000Y-123361267D02*
X192530000Y-123018733D01*
X195070000Y-123361267D02*
X195070000Y-123018733D01*
X196090000Y-123361267D02*
X196090000Y-123018733D01*
X197610000Y-123361267D02*
X197610000Y-123018733D01*
X198630000Y-123361267D02*
X198630000Y-123018733D01*
X201170000Y-123361267D02*
X201170000Y-123018733D01*
X200150000Y-123361267D02*
X200150000Y-123018733D01*
X203710000Y-123361267D02*
X203710000Y-123018733D01*
X202690000Y-123361267D02*
X202690000Y-123018733D01*
X195070000Y-118281267D02*
X195070000Y-117938733D01*
X196090000Y-118281267D02*
X196090000Y-117938733D01*
X198630000Y-118281267D02*
X198630000Y-117938733D01*
X197610000Y-118281267D02*
X197610000Y-117938733D01*
X200150000Y-118281267D02*
X200150000Y-117938733D01*
X201170000Y-118281267D02*
X201170000Y-117938733D01*
X182370000Y-120821267D02*
X182370000Y-120478733D01*
X183390000Y-120821267D02*
X183390000Y-120478733D01*
X189990000Y-120821267D02*
X189990000Y-120478733D01*
X191010000Y-120821267D02*
X191010000Y-120478733D01*
X185930000Y-120821267D02*
X185930000Y-120478733D01*
X184910000Y-120821267D02*
X184910000Y-120478733D01*
X187450000Y-120821267D02*
X187450000Y-120478733D01*
X188470000Y-120821267D02*
X188470000Y-120478733D01*
X203710000Y-117938733D02*
X203710000Y-118281267D01*
X202690000Y-117938733D02*
X202690000Y-118281267D01*
X175770000Y-120821267D02*
X175770000Y-120478733D01*
X174750000Y-120821267D02*
X174750000Y-120478733D01*
X171830000Y-118280000D02*
X171830000Y-117980000D01*
X171830000Y-117980000D02*
X168530000Y-117980000D01*
X168530000Y-117980000D02*
X168530000Y-118280000D01*
X171830000Y-120480000D02*
X171830000Y-120780000D01*
X171830000Y-120780000D02*
X168530000Y-120780000D01*
X168530000Y-120780000D02*
X168530000Y-120480000D01*
X159265000Y-92340000D02*
X160765000Y-92340000D01*
X160765000Y-92340000D02*
X160765000Y-90540000D01*
X168165000Y-90540000D02*
X168165000Y-92340000D01*
X163165000Y-88740000D02*
X165765000Y-88740000D01*
X165765000Y-94140000D02*
X163165000Y-94140000D01*
X163165000Y-94140000D02*
X163165000Y-94740000D01*
X154205000Y-91910000D02*
X154205000Y-94370000D01*
X154205000Y-94370000D02*
X155675000Y-94370000D01*
X155675000Y-94370000D02*
X155675000Y-91910000D01*
X155450000Y-87458733D02*
X155450000Y-87801267D01*
X154430000Y-87458733D02*
X154430000Y-87801267D01*
D10*
X126707976Y-100209404D02*
X126707976Y-100857023D01*
X126746071Y-100933214D01*
X126784166Y-100971309D01*
X126860357Y-101009404D01*
X127012738Y-101009404D01*
X127088928Y-100971309D01*
X127127023Y-100933214D01*
X127165119Y-100857023D01*
X127165119Y-100209404D01*
X127469880Y-100209404D02*
X127965119Y-100209404D01*
X127698452Y-100514166D01*
X127812738Y-100514166D01*
X127888928Y-100552261D01*
X127927023Y-100590357D01*
X127965119Y-100666547D01*
X127965119Y-100857023D01*
X127927023Y-100933214D01*
X127888928Y-100971309D01*
X127812738Y-101009404D01*
X127584166Y-101009404D01*
X127507976Y-100971309D01*
X127469880Y-100933214D01*
X130102455Y-100780833D02*
X130483407Y-100780833D01*
X129997693Y-101009404D02*
X130364360Y-100209404D01*
X130531026Y-101009404D01*
X130764360Y-100971309D02*
X130873883Y-101009404D01*
X131064360Y-101009404D01*
X131145312Y-100971309D01*
X131188169Y-100933214D01*
X131235788Y-100857023D01*
X131245312Y-100780833D01*
X131216741Y-100704642D01*
X131183407Y-100666547D01*
X131111979Y-100628452D01*
X130964360Y-100590357D01*
X130892931Y-100552261D01*
X130859598Y-100514166D01*
X130831026Y-100437976D01*
X130840550Y-100361785D01*
X130888169Y-100285595D01*
X130931026Y-100247500D01*
X131011979Y-100209404D01*
X131202455Y-100209404D01*
X131311979Y-100247500D01*
X132002455Y-100209404D02*
X131850074Y-100209404D01*
X131769122Y-100247500D01*
X131726264Y-100285595D01*
X131635788Y-100399880D01*
X131578645Y-100552261D01*
X131540550Y-100857023D01*
X131569122Y-100933214D01*
X131602455Y-100971309D01*
X131673883Y-101009404D01*
X131826264Y-101009404D01*
X131907217Y-100971309D01*
X131950074Y-100933214D01*
X131997693Y-100857023D01*
X132021502Y-100666547D01*
X131992931Y-100590357D01*
X131959598Y-100552261D01*
X131888169Y-100514166D01*
X131735788Y-100514166D01*
X131654836Y-100552261D01*
X131611979Y-100590357D01*
X131564360Y-100666547D01*
X132788169Y-100933214D02*
X132745312Y-100971309D01*
X132626264Y-101009404D01*
X132550074Y-101009404D01*
X132440550Y-100971309D01*
X132373883Y-100895119D01*
X132345312Y-100818928D01*
X132326264Y-100666547D01*
X132340550Y-100552261D01*
X132397693Y-100399880D01*
X132445312Y-100323690D01*
X132531026Y-100247500D01*
X132650074Y-100209404D01*
X132726264Y-100209404D01*
X132835788Y-100247500D01*
X132869122Y-100285595D01*
X133531026Y-100476071D02*
X133464360Y-101009404D01*
X133378645Y-100171309D02*
X133116741Y-100742738D01*
X133611979Y-100742738D01*
X134135788Y-100209404D02*
X134211979Y-100209404D01*
X134283407Y-100247500D01*
X134316741Y-100285595D01*
X134345312Y-100361785D01*
X134364360Y-100514166D01*
X134340550Y-100704642D01*
X134283407Y-100857023D01*
X134235788Y-100933214D01*
X134192931Y-100971309D01*
X134111979Y-101009404D01*
X134035788Y-101009404D01*
X133964360Y-100971309D01*
X133931026Y-100933214D01*
X133902455Y-100857023D01*
X133883407Y-100704642D01*
X133907217Y-100514166D01*
X133964360Y-100361785D01*
X134011979Y-100285595D01*
X134054836Y-100247500D01*
X134135788Y-100209404D01*
X134897693Y-100209404D02*
X134973883Y-100209404D01*
X135045312Y-100247500D01*
X135078645Y-100285595D01*
X135107217Y-100361785D01*
X135126264Y-100514166D01*
X135102455Y-100704642D01*
X135045312Y-100857023D01*
X134997693Y-100933214D01*
X134954836Y-100971309D01*
X134873883Y-101009404D01*
X134797693Y-101009404D01*
X134726264Y-100971309D01*
X134692931Y-100933214D01*
X134664360Y-100857023D01*
X134645312Y-100704642D01*
X134669122Y-100514166D01*
X134726264Y-100361785D01*
X134773883Y-100285595D01*
X134816741Y-100247500D01*
X134897693Y-100209404D01*
X135578645Y-100552261D02*
X135507217Y-100514166D01*
X135473883Y-100476071D01*
X135445312Y-100399880D01*
X135450074Y-100361785D01*
X135497693Y-100285595D01*
X135540550Y-100247500D01*
X135621502Y-100209404D01*
X135773883Y-100209404D01*
X135845312Y-100247500D01*
X135878645Y-100285595D01*
X135907217Y-100361785D01*
X135902455Y-100399880D01*
X135854836Y-100476071D01*
X135811979Y-100514166D01*
X135731026Y-100552261D01*
X135578645Y-100552261D01*
X135497693Y-100590357D01*
X135454836Y-100628452D01*
X135407217Y-100704642D01*
X135388169Y-100857023D01*
X135416741Y-100933214D01*
X135450074Y-100971309D01*
X135521502Y-101009404D01*
X135673883Y-101009404D01*
X135754836Y-100971309D01*
X135797693Y-100933214D01*
X135845312Y-100857023D01*
X135864360Y-100704642D01*
X135835788Y-100628452D01*
X135802455Y-100590357D01*
X135731026Y-100552261D01*
X145757976Y-99961904D02*
X145757976Y-100609523D01*
X145796071Y-100685714D01*
X145834166Y-100723809D01*
X145910357Y-100761904D01*
X146062738Y-100761904D01*
X146138928Y-100723809D01*
X146177023Y-100685714D01*
X146215119Y-100609523D01*
X146215119Y-99961904D01*
X146557976Y-100038095D02*
X146596071Y-100000000D01*
X146672261Y-99961904D01*
X146862738Y-99961904D01*
X146938928Y-100000000D01*
X146977023Y-100038095D01*
X147015119Y-100114285D01*
X147015119Y-100190476D01*
X146977023Y-100304761D01*
X146519880Y-100761904D01*
X147015119Y-100761904D01*
X148461979Y-100653809D02*
X148571502Y-100691904D01*
X148761979Y-100691904D01*
X148842931Y-100653809D01*
X148885788Y-100615714D01*
X148933407Y-100539523D01*
X148942931Y-100463333D01*
X148914360Y-100387142D01*
X148881026Y-100349047D01*
X148809598Y-100310952D01*
X148661979Y-100272857D01*
X148590550Y-100234761D01*
X148557217Y-100196666D01*
X148528645Y-100120476D01*
X148538169Y-100044285D01*
X148585788Y-99968095D01*
X148628645Y-99930000D01*
X148709598Y-99891904D01*
X148900074Y-99891904D01*
X149009598Y-99930000D01*
X149223883Y-100653809D02*
X149333407Y-100691904D01*
X149523883Y-100691904D01*
X149604836Y-100653809D01*
X149647693Y-100615714D01*
X149695312Y-100539523D01*
X149704836Y-100463333D01*
X149676264Y-100387142D01*
X149642931Y-100349047D01*
X149571502Y-100310952D01*
X149423883Y-100272857D01*
X149352455Y-100234761D01*
X149319122Y-100196666D01*
X149290550Y-100120476D01*
X149300074Y-100044285D01*
X149347693Y-99968095D01*
X149390550Y-99930000D01*
X149471502Y-99891904D01*
X149661979Y-99891904D01*
X149771502Y-99930000D01*
X150004836Y-99891904D02*
X150461979Y-99891904D01*
X150133407Y-100691904D02*
X150233407Y-99891904D01*
X150652455Y-99891904D02*
X151147693Y-99891904D01*
X150842931Y-100196666D01*
X150957217Y-100196666D01*
X151028645Y-100234761D01*
X151061979Y-100272857D01*
X151090550Y-100349047D01*
X151066741Y-100539523D01*
X151019122Y-100615714D01*
X150976264Y-100653809D01*
X150895312Y-100691904D01*
X150666741Y-100691904D01*
X150595312Y-100653809D01*
X150561979Y-100615714D01*
X151428645Y-100691904D02*
X151581026Y-100691904D01*
X151661979Y-100653809D01*
X151704836Y-100615714D01*
X151795312Y-100501428D01*
X151852455Y-100349047D01*
X151890550Y-100044285D01*
X151861979Y-99968095D01*
X151828645Y-99930000D01*
X151757217Y-99891904D01*
X151604836Y-99891904D01*
X151523883Y-99930000D01*
X151481026Y-99968095D01*
X151433407Y-100044285D01*
X151409598Y-100234761D01*
X151438169Y-100310952D01*
X151471502Y-100349047D01*
X151542931Y-100387142D01*
X151695312Y-100387142D01*
X151776264Y-100349047D01*
X151819122Y-100310952D01*
X151866741Y-100234761D01*
X152119122Y-100653809D02*
X152228645Y-100691904D01*
X152419122Y-100691904D01*
X152500074Y-100653809D01*
X152542931Y-100615714D01*
X152590550Y-100539523D01*
X152600074Y-100463333D01*
X152571502Y-100387142D01*
X152538169Y-100349047D01*
X152466741Y-100310952D01*
X152319122Y-100272857D01*
X152247693Y-100234761D01*
X152214360Y-100196666D01*
X152185788Y-100120476D01*
X152195312Y-100044285D01*
X152242931Y-99968095D01*
X152285788Y-99930000D01*
X152366741Y-99891904D01*
X152557217Y-99891904D01*
X152666741Y-99930000D01*
X153233407Y-100272857D02*
X152966741Y-100272857D01*
X152914360Y-100691904D02*
X153014360Y-99891904D01*
X153395312Y-99891904D01*
X153852455Y-99891904D02*
X153928645Y-99891904D01*
X154000074Y-99930000D01*
X154033407Y-99968095D01*
X154061979Y-100044285D01*
X154081026Y-100196666D01*
X154057217Y-100387142D01*
X154000074Y-100539523D01*
X153952455Y-100615714D01*
X153909598Y-100653809D01*
X153828645Y-100691904D01*
X153752455Y-100691904D01*
X153681026Y-100653809D01*
X153647693Y-100615714D01*
X153619122Y-100539523D01*
X153600074Y-100387142D01*
X153623883Y-100196666D01*
X153681026Y-100044285D01*
X153728645Y-99968095D01*
X153771502Y-99930000D01*
X153852455Y-99891904D01*
X154771502Y-100158571D02*
X154704836Y-100691904D01*
X154619122Y-99853809D02*
X154357217Y-100425238D01*
X154852455Y-100425238D01*
X155376264Y-99891904D02*
X155452455Y-99891904D01*
X155523883Y-99930000D01*
X155557217Y-99968095D01*
X155585788Y-100044285D01*
X155604836Y-100196666D01*
X155581026Y-100387142D01*
X155523883Y-100539523D01*
X155476264Y-100615714D01*
X155433407Y-100653809D01*
X155352455Y-100691904D01*
X155276264Y-100691904D01*
X155204836Y-100653809D01*
X155171502Y-100615714D01*
X155142931Y-100539523D01*
X155123883Y-100387142D01*
X155147693Y-100196666D01*
X155204836Y-100044285D01*
X155252455Y-99968095D01*
X155295312Y-99930000D01*
X155376264Y-99891904D01*
X166207380Y-106489404D02*
X167016904Y-106489404D01*
X167112142Y-106441785D01*
X167159761Y-106394166D01*
X167207380Y-106298928D01*
X167207380Y-106108452D01*
X167159761Y-106013214D01*
X167112142Y-105965595D01*
X167016904Y-105917976D01*
X166207380Y-105917976D01*
X167207380Y-104917976D02*
X167207380Y-105489404D01*
X167207380Y-105203690D02*
X166207380Y-105203690D01*
X166350238Y-105298928D01*
X166445476Y-105394166D01*
X166493095Y-105489404D01*
X144170476Y-81011904D02*
X144170476Y-81659523D01*
X144208571Y-81735714D01*
X144246666Y-81773809D01*
X144322857Y-81811904D01*
X144475238Y-81811904D01*
X144551428Y-81773809D01*
X144589523Y-81735714D01*
X144627619Y-81659523D01*
X144627619Y-81011904D01*
X145351428Y-81278571D02*
X145351428Y-81811904D01*
X145160952Y-80973809D02*
X144970476Y-81545238D01*
X145465714Y-81545238D01*
X137803645Y-96145357D02*
X138070312Y-96145357D01*
X138132217Y-96564404D02*
X137751264Y-96564404D01*
X137851264Y-95764404D01*
X138232217Y-95764404D01*
X138475074Y-96564404D02*
X138575074Y-95764404D01*
X138879836Y-95764404D01*
X138951264Y-95802500D01*
X138984598Y-95840595D01*
X139013169Y-95916785D01*
X138998883Y-96031071D01*
X138951264Y-96107261D01*
X138908407Y-96145357D01*
X138827455Y-96183452D01*
X138522693Y-96183452D01*
X139275074Y-96564404D02*
X139375074Y-95764404D01*
X139570312Y-96335833D01*
X139908407Y-95764404D01*
X139808407Y-96564404D01*
X140213169Y-95764404D02*
X140746502Y-95764404D01*
X140303645Y-96564404D01*
X141203645Y-95764404D02*
X141279836Y-95764404D01*
X141351264Y-95802500D01*
X141384598Y-95840595D01*
X141413169Y-95916785D01*
X141432217Y-96069166D01*
X141408407Y-96259642D01*
X141351264Y-96412023D01*
X141303645Y-96488214D01*
X141260788Y-96526309D01*
X141179836Y-96564404D01*
X141103645Y-96564404D01*
X141032217Y-96526309D01*
X140998883Y-96488214D01*
X140970312Y-96412023D01*
X140951264Y-96259642D01*
X140975074Y-96069166D01*
X141032217Y-95916785D01*
X141079836Y-95840595D01*
X141122693Y-95802500D01*
X141203645Y-95764404D01*
X142156026Y-95764404D02*
X142003645Y-95764404D01*
X141922693Y-95802500D01*
X141879836Y-95840595D01*
X141789360Y-95954880D01*
X141732217Y-96107261D01*
X141694122Y-96412023D01*
X141722693Y-96488214D01*
X141756026Y-96526309D01*
X141827455Y-96564404D01*
X141979836Y-96564404D01*
X142060788Y-96526309D01*
X142103645Y-96488214D01*
X142151264Y-96412023D01*
X142175074Y-96221547D01*
X142146502Y-96145357D01*
X142113169Y-96107261D01*
X142041741Y-96069166D01*
X141889360Y-96069166D01*
X141808407Y-96107261D01*
X141765550Y-96145357D01*
X141717931Y-96221547D01*
X142884598Y-96031071D02*
X142817931Y-96564404D01*
X142732217Y-95726309D02*
X142470312Y-96297738D01*
X142965550Y-96297738D01*
X143227455Y-96335833D02*
X143608407Y-96335833D01*
X143122693Y-96564404D02*
X143489360Y-95764404D01*
X143656026Y-96564404D01*
X143975074Y-96145357D02*
X144241741Y-96145357D01*
X144303645Y-96564404D02*
X143922693Y-96564404D01*
X144022693Y-95764404D01*
X144403645Y-95764404D01*
X144632217Y-95764404D02*
X145089360Y-95764404D01*
X144760788Y-96564404D02*
X144860788Y-95764404D01*
X145722693Y-96488214D02*
X145679836Y-96526309D01*
X145560788Y-96564404D01*
X145484598Y-96564404D01*
X145375074Y-96526309D01*
X145308407Y-96450119D01*
X145279836Y-96373928D01*
X145260788Y-96221547D01*
X145275074Y-96107261D01*
X145332217Y-95954880D01*
X145379836Y-95878690D01*
X145465550Y-95802500D01*
X145584598Y-95764404D01*
X145660788Y-95764404D01*
X145770312Y-95802500D01*
X145803645Y-95840595D01*
X146465550Y-96031071D02*
X146398883Y-96564404D01*
X146313169Y-95726309D02*
X146051264Y-96297738D01*
X146546502Y-96297738D01*
X147227455Y-96031071D02*
X147160788Y-96564404D01*
X147075074Y-95726309D02*
X146813169Y-96297738D01*
X147308407Y-96297738D01*
X206254404Y-105359166D02*
X206825833Y-105359166D01*
X206940119Y-105397261D01*
X207016309Y-105473452D01*
X207054404Y-105587738D01*
X207054404Y-105663928D01*
X207054404Y-104559166D02*
X207054404Y-105016309D01*
X207054404Y-104787738D02*
X206254404Y-104787738D01*
X206368690Y-104863928D01*
X206444880Y-104940119D01*
X206482976Y-105016309D01*
X207016309Y-103588735D02*
X207054404Y-103479211D01*
X207054404Y-103288735D01*
X207016309Y-103207782D01*
X206978214Y-103164925D01*
X206902023Y-103117306D01*
X206825833Y-103107782D01*
X206749642Y-103136354D01*
X206711547Y-103169687D01*
X206673452Y-103241116D01*
X206635357Y-103388735D01*
X206597261Y-103460163D01*
X206559166Y-103493497D01*
X206482976Y-103522068D01*
X206406785Y-103512544D01*
X206330595Y-103464925D01*
X206292500Y-103422068D01*
X206254404Y-103341116D01*
X206254404Y-103150639D01*
X206292500Y-103041116D01*
X207016309Y-102483973D02*
X207054404Y-102564925D01*
X207054404Y-102717306D01*
X207016309Y-102788735D01*
X206940119Y-102817306D01*
X206635357Y-102779211D01*
X206559166Y-102731592D01*
X206521071Y-102650639D01*
X206521071Y-102498258D01*
X206559166Y-102426830D01*
X206635357Y-102398258D01*
X206711547Y-102407782D01*
X206787738Y-102798258D01*
X207054404Y-102107782D02*
X206521071Y-102041116D01*
X206673452Y-102060163D02*
X206597261Y-102012544D01*
X206559166Y-101969687D01*
X206521071Y-101888735D01*
X206521071Y-101812544D01*
X207054404Y-101612544D02*
X206521071Y-101545877D01*
X206254404Y-101512544D02*
X206292500Y-101555401D01*
X206330595Y-101522068D01*
X206292500Y-101479211D01*
X206254404Y-101512544D01*
X206330595Y-101522068D01*
X207054404Y-100888735D02*
X206635357Y-100836354D01*
X206559166Y-100864925D01*
X206521071Y-100936354D01*
X206521071Y-101088735D01*
X206559166Y-101169687D01*
X207016309Y-100883973D02*
X207054404Y-100964925D01*
X207054404Y-101155401D01*
X207016309Y-101226830D01*
X206940119Y-101255401D01*
X206863928Y-101245877D01*
X206787738Y-101198258D01*
X206749642Y-101117306D01*
X206749642Y-100926830D01*
X206711547Y-100845877D01*
X207054404Y-100393497D02*
X207016309Y-100464925D01*
X206940119Y-100493497D01*
X206254404Y-100407782D01*
X207130595Y-100288735D02*
X207130595Y-99679211D01*
X206825833Y-99488735D02*
X206825833Y-99107782D01*
X207054404Y-99593497D02*
X206254404Y-99226830D01*
X207054404Y-99060163D01*
D14*
X205501119Y-122258666D02*
X206226833Y-122258666D01*
X206371976Y-122307047D01*
X206468738Y-122403809D01*
X206517119Y-122548952D01*
X206517119Y-122645714D01*
X205501119Y-121339428D02*
X205501119Y-121532952D01*
X205549500Y-121629714D01*
X205597880Y-121678095D01*
X205743023Y-121774857D01*
X205936547Y-121823238D01*
X206323595Y-121823238D01*
X206420357Y-121774857D01*
X206468738Y-121726476D01*
X206517119Y-121629714D01*
X206517119Y-121436190D01*
X206468738Y-121339428D01*
X206420357Y-121291047D01*
X206323595Y-121242666D01*
X206081690Y-121242666D01*
X205984928Y-121291047D01*
X205936547Y-121339428D01*
X205888166Y-121436190D01*
X205888166Y-121629714D01*
X205936547Y-121726476D01*
X205984928Y-121774857D01*
X206081690Y-121823238D01*
X206517119Y-119908440D02*
X206033309Y-120152764D01*
X206517119Y-120430955D02*
X205501119Y-120303955D01*
X205501119Y-119955612D01*
X205549500Y-119874574D01*
X205597880Y-119837079D01*
X205694642Y-119805631D01*
X205839785Y-119823774D01*
X205936547Y-119879412D01*
X205984928Y-119929002D01*
X206033309Y-120022136D01*
X206033309Y-120370479D01*
X206420357Y-118981945D02*
X206468738Y-119031536D01*
X206517119Y-119168212D01*
X206517119Y-119255298D01*
X206468738Y-119379879D01*
X206371976Y-119454869D01*
X206275214Y-119486317D01*
X206081690Y-119505669D01*
X205936547Y-119487526D01*
X205743023Y-119419793D01*
X205646261Y-119364155D01*
X205549500Y-119264974D01*
X205501119Y-119128298D01*
X205501119Y-119041212D01*
X205549500Y-118916631D01*
X205597880Y-118879136D01*
X205597880Y-118530793D02*
X205549500Y-118481202D01*
X205501119Y-118388069D01*
X205501119Y-118170355D01*
X205549500Y-118089317D01*
X205597880Y-118051821D01*
X205694642Y-118020374D01*
X205791404Y-118032469D01*
X205936547Y-118094155D01*
X206517119Y-118689240D01*
X206517119Y-118123183D01*
X205501119Y-117430126D02*
X205501119Y-117343040D01*
X205549500Y-117262002D01*
X205597880Y-117224507D01*
X205694642Y-117193060D01*
X205888166Y-117173707D01*
X206130071Y-117203945D01*
X206323595Y-117271679D01*
X206420357Y-117327317D01*
X206468738Y-117376907D01*
X206517119Y-117470040D01*
X206517119Y-117557126D01*
X206468738Y-117638164D01*
X206420357Y-117675660D01*
X206323595Y-117707107D01*
X206130071Y-117726460D01*
X205888166Y-117696221D01*
X205694642Y-117628488D01*
X205597880Y-117572850D01*
X205549500Y-117523260D01*
X205501119Y-117430126D01*
X206517119Y-116381469D02*
X206517119Y-116903983D01*
X206517119Y-116642726D02*
X205501119Y-116515726D01*
X205646261Y-116620955D01*
X205743023Y-116720136D01*
X205791404Y-116813269D01*
X205839785Y-115513031D02*
X206517119Y-115597698D01*
X205452738Y-115682364D02*
X206178452Y-115990793D01*
X206178452Y-115424736D01*
X206613880Y-115348536D02*
X206613880Y-114651850D01*
X206468738Y-114459536D02*
X206517119Y-114334955D01*
X206517119Y-114117240D01*
X206468738Y-114024107D01*
X206420357Y-113974517D01*
X206323595Y-113918879D01*
X206226833Y-113906783D01*
X206130071Y-113938231D01*
X206081690Y-113975726D01*
X206033309Y-114056764D01*
X205984928Y-114224888D01*
X205936547Y-114305926D01*
X205888166Y-114343421D01*
X205791404Y-114374869D01*
X205694642Y-114362774D01*
X205597880Y-114307136D01*
X205549500Y-114257545D01*
X205501119Y-114164412D01*
X205501119Y-113946698D01*
X205549500Y-113822117D01*
X205984928Y-113484660D02*
X205984928Y-113179860D01*
X206517119Y-113115755D02*
X206517119Y-113551183D01*
X205501119Y-113424183D01*
X205501119Y-112988755D01*
X206517119Y-112201355D02*
X206033309Y-112445679D01*
X206517119Y-112723869D02*
X205501119Y-112596869D01*
X205501119Y-112248526D01*
X205549500Y-112167488D01*
X205597880Y-112129993D01*
X205694642Y-112098545D01*
X205839785Y-112116688D01*
X205936547Y-112172326D01*
X205984928Y-112221917D01*
X206033309Y-112315050D01*
X206033309Y-112663393D01*
X206517119Y-111809469D02*
X205501119Y-111682469D01*
X206226833Y-111381298D02*
X206226833Y-110945869D01*
X206517119Y-111504669D02*
X205501119Y-111072869D01*
X206517119Y-110895069D01*
X206517119Y-110154840D02*
X206517119Y-110590269D01*
X205501119Y-110463269D01*
D10*
X152584166Y-98075714D02*
X152546071Y-98113809D01*
X152431785Y-98151904D01*
X152355595Y-98151904D01*
X152241309Y-98113809D01*
X152165119Y-98037619D01*
X152127023Y-97961428D01*
X152088928Y-97809047D01*
X152088928Y-97694761D01*
X152127023Y-97542380D01*
X152165119Y-97466190D01*
X152241309Y-97390000D01*
X152355595Y-97351904D01*
X152431785Y-97351904D01*
X152546071Y-97390000D01*
X152584166Y-97428095D01*
X152888928Y-97428095D02*
X152927023Y-97390000D01*
X153003214Y-97351904D01*
X153193690Y-97351904D01*
X153269880Y-97390000D01*
X153307976Y-97428095D01*
X153346071Y-97504285D01*
X153346071Y-97580476D01*
X153307976Y-97694761D01*
X152850833Y-98151904D01*
X153346071Y-98151904D01*
X154571979Y-98151904D02*
X154114836Y-98151904D01*
X154343407Y-98151904D02*
X154443407Y-97351904D01*
X154352931Y-97466190D01*
X154267217Y-97542380D01*
X154186264Y-97580476D01*
X155167217Y-97351904D02*
X155243407Y-97351904D01*
X155314836Y-97390000D01*
X155348169Y-97428095D01*
X155376741Y-97504285D01*
X155395788Y-97656666D01*
X155371979Y-97847142D01*
X155314836Y-97999523D01*
X155267217Y-98075714D01*
X155224360Y-98113809D01*
X155143407Y-98151904D01*
X155067217Y-98151904D01*
X154995788Y-98113809D01*
X154962455Y-98075714D01*
X154933883Y-97999523D01*
X154914836Y-97847142D01*
X154938645Y-97656666D01*
X154995788Y-97504285D01*
X155043407Y-97428095D01*
X155086264Y-97390000D01*
X155167217Y-97351904D01*
X155929122Y-97351904D02*
X156005312Y-97351904D01*
X156076741Y-97390000D01*
X156110074Y-97428095D01*
X156138645Y-97504285D01*
X156157693Y-97656666D01*
X156133883Y-97847142D01*
X156076741Y-97999523D01*
X156029122Y-98075714D01*
X155986264Y-98113809D01*
X155905312Y-98151904D01*
X155829122Y-98151904D01*
X155757693Y-98113809D01*
X155724360Y-98075714D01*
X155695788Y-97999523D01*
X155676741Y-97847142D01*
X155700550Y-97656666D01*
X155757693Y-97504285D01*
X155805312Y-97428095D01*
X155848169Y-97390000D01*
X155929122Y-97351904D01*
X156505312Y-97618571D02*
X156438645Y-98151904D01*
X156495788Y-97694761D02*
X156538645Y-97656666D01*
X156619598Y-97618571D01*
X156733883Y-97618571D01*
X156805312Y-97656666D01*
X156833883Y-97732857D01*
X156781502Y-98151904D01*
X157481502Y-97732857D02*
X157214836Y-97732857D01*
X157162455Y-98151904D02*
X157262455Y-97351904D01*
X157643407Y-97351904D01*
X138931666Y-98710714D02*
X138893571Y-98748809D01*
X138779285Y-98786904D01*
X138703095Y-98786904D01*
X138588809Y-98748809D01*
X138512619Y-98672619D01*
X138474523Y-98596428D01*
X138436428Y-98444047D01*
X138436428Y-98329761D01*
X138474523Y-98177380D01*
X138512619Y-98101190D01*
X138588809Y-98025000D01*
X138703095Y-97986904D01*
X138779285Y-97986904D01*
X138893571Y-98025000D01*
X138931666Y-98063095D01*
X139198333Y-97986904D02*
X139693571Y-97986904D01*
X139426904Y-98291666D01*
X139541190Y-98291666D01*
X139617380Y-98329761D01*
X139655476Y-98367857D01*
X139693571Y-98444047D01*
X139693571Y-98634523D01*
X139655476Y-98710714D01*
X139617380Y-98748809D01*
X139541190Y-98786904D01*
X139312619Y-98786904D01*
X139236428Y-98748809D01*
X139198333Y-98710714D01*
X137744479Y-100056904D02*
X137287336Y-100056904D01*
X137515907Y-100056904D02*
X137615907Y-99256904D01*
X137525431Y-99371190D01*
X137439717Y-99447380D01*
X137358764Y-99485476D01*
X138339717Y-99256904D02*
X138415907Y-99256904D01*
X138487336Y-99295000D01*
X138520669Y-99333095D01*
X138549241Y-99409285D01*
X138568288Y-99561666D01*
X138544479Y-99752142D01*
X138487336Y-99904523D01*
X138439717Y-99980714D01*
X138396860Y-100018809D01*
X138315907Y-100056904D01*
X138239717Y-100056904D01*
X138168288Y-100018809D01*
X138134955Y-99980714D01*
X138106383Y-99904523D01*
X138087336Y-99752142D01*
X138111145Y-99561666D01*
X138168288Y-99409285D01*
X138215907Y-99333095D01*
X138258764Y-99295000D01*
X138339717Y-99256904D01*
X139101622Y-99256904D02*
X139177812Y-99256904D01*
X139249241Y-99295000D01*
X139282574Y-99333095D01*
X139311145Y-99409285D01*
X139330193Y-99561666D01*
X139306383Y-99752142D01*
X139249241Y-99904523D01*
X139201622Y-99980714D01*
X139158764Y-100018809D01*
X139077812Y-100056904D01*
X139001622Y-100056904D01*
X138930193Y-100018809D01*
X138896860Y-99980714D01*
X138868288Y-99904523D01*
X138849241Y-99752142D01*
X138873050Y-99561666D01*
X138930193Y-99409285D01*
X138977812Y-99333095D01*
X139020669Y-99295000D01*
X139101622Y-99256904D01*
X139677812Y-99523571D02*
X139611145Y-100056904D01*
X139668288Y-99599761D02*
X139711145Y-99561666D01*
X139792098Y-99523571D01*
X139906383Y-99523571D01*
X139977812Y-99561666D01*
X140006383Y-99637857D01*
X139954002Y-100056904D01*
X140654002Y-99637857D02*
X140387336Y-99637857D01*
X140334955Y-100056904D02*
X140434955Y-99256904D01*
X140815907Y-99256904D01*
X199675714Y-94113333D02*
X199713809Y-94151428D01*
X199751904Y-94265714D01*
X199751904Y-94341904D01*
X199713809Y-94456190D01*
X199637619Y-94532380D01*
X199561428Y-94570476D01*
X199409047Y-94608571D01*
X199294761Y-94608571D01*
X199142380Y-94570476D01*
X199066190Y-94532380D01*
X198990000Y-94456190D01*
X198951904Y-94341904D01*
X198951904Y-94265714D01*
X198990000Y-94151428D01*
X199028095Y-94113333D01*
X198951904Y-93427619D02*
X198951904Y-93580000D01*
X198990000Y-93656190D01*
X199028095Y-93694285D01*
X199142380Y-93770476D01*
X199294761Y-93808571D01*
X199599523Y-93808571D01*
X199675714Y-93770476D01*
X199713809Y-93732380D01*
X199751904Y-93656190D01*
X199751904Y-93503809D01*
X199713809Y-93427619D01*
X199675714Y-93389523D01*
X199599523Y-93351428D01*
X199409047Y-93351428D01*
X199332857Y-93389523D01*
X199294761Y-93427619D01*
X199256666Y-93503809D01*
X199256666Y-93656190D01*
X199294761Y-93732380D01*
X199332857Y-93770476D01*
X199409047Y-93808571D01*
X199751904Y-92125520D02*
X199751904Y-92582663D01*
X199751904Y-92354092D02*
X198951904Y-92254092D01*
X199066190Y-92344568D01*
X199142380Y-92430282D01*
X199180476Y-92511235D01*
X198951904Y-91530282D02*
X198951904Y-91454092D01*
X198990000Y-91382663D01*
X199028095Y-91349330D01*
X199104285Y-91320758D01*
X199256666Y-91301711D01*
X199447142Y-91325520D01*
X199599523Y-91382663D01*
X199675714Y-91430282D01*
X199713809Y-91473139D01*
X199751904Y-91554092D01*
X199751904Y-91630282D01*
X199713809Y-91701711D01*
X199675714Y-91735044D01*
X199599523Y-91763616D01*
X199447142Y-91782663D01*
X199256666Y-91758854D01*
X199104285Y-91701711D01*
X199028095Y-91654092D01*
X198990000Y-91611235D01*
X198951904Y-91530282D01*
X198951904Y-90768377D02*
X198951904Y-90692187D01*
X198990000Y-90620758D01*
X199028095Y-90587425D01*
X199104285Y-90558854D01*
X199256666Y-90539806D01*
X199447142Y-90563616D01*
X199599523Y-90620758D01*
X199675714Y-90668377D01*
X199713809Y-90711235D01*
X199751904Y-90792187D01*
X199751904Y-90868377D01*
X199713809Y-90939806D01*
X199675714Y-90973139D01*
X199599523Y-91001711D01*
X199447142Y-91020758D01*
X199256666Y-90996949D01*
X199104285Y-90939806D01*
X199028095Y-90892187D01*
X198990000Y-90849330D01*
X198951904Y-90768377D01*
X199218571Y-90192187D02*
X199751904Y-90258854D01*
X199294761Y-90201711D02*
X199256666Y-90158854D01*
X199218571Y-90077901D01*
X199218571Y-89963616D01*
X199256666Y-89892187D01*
X199332857Y-89863616D01*
X199751904Y-89915997D01*
X199332857Y-89215997D02*
X199332857Y-89482663D01*
X199751904Y-89535044D02*
X198951904Y-89435044D01*
X198951904Y-89054092D01*
X197135714Y-108464285D02*
X197173809Y-108502380D01*
X197211904Y-108616666D01*
X197211904Y-108692857D01*
X197173809Y-108807142D01*
X197097619Y-108883333D01*
X197021428Y-108921428D01*
X196869047Y-108959523D01*
X196754761Y-108959523D01*
X196602380Y-108921428D01*
X196526190Y-108883333D01*
X196450000Y-108807142D01*
X196411904Y-108692857D01*
X196411904Y-108616666D01*
X196450000Y-108502380D01*
X196488095Y-108464285D01*
X197211904Y-107702380D02*
X197211904Y-108159523D01*
X197211904Y-107930952D02*
X196411904Y-107930952D01*
X196526190Y-108007142D01*
X196602380Y-108083333D01*
X196640476Y-108159523D01*
X196411904Y-107435714D02*
X196411904Y-106940476D01*
X196716666Y-107207142D01*
X196716666Y-107092857D01*
X196754761Y-107016666D01*
X196792857Y-106978571D01*
X196869047Y-106940476D01*
X197059523Y-106940476D01*
X197135714Y-106978571D01*
X197173809Y-107016666D01*
X197211904Y-107092857D01*
X197211904Y-107321428D01*
X197173809Y-107397619D01*
X197135714Y-107435714D01*
X199751904Y-108953020D02*
X199751904Y-109410163D01*
X199751904Y-109181592D02*
X198951904Y-109081592D01*
X199066190Y-109172068D01*
X199142380Y-109257782D01*
X199180476Y-109338735D01*
X198951904Y-108357782D02*
X198951904Y-108281592D01*
X198990000Y-108210163D01*
X199028095Y-108176830D01*
X199104285Y-108148258D01*
X199256666Y-108129211D01*
X199447142Y-108153020D01*
X199599523Y-108210163D01*
X199675714Y-108257782D01*
X199713809Y-108300639D01*
X199751904Y-108381592D01*
X199751904Y-108457782D01*
X199713809Y-108529211D01*
X199675714Y-108562544D01*
X199599523Y-108591116D01*
X199447142Y-108610163D01*
X199256666Y-108586354D01*
X199104285Y-108529211D01*
X199028095Y-108481592D01*
X198990000Y-108438735D01*
X198951904Y-108357782D01*
X198951904Y-107595877D02*
X198951904Y-107519687D01*
X198990000Y-107448258D01*
X199028095Y-107414925D01*
X199104285Y-107386354D01*
X199256666Y-107367306D01*
X199447142Y-107391116D01*
X199599523Y-107448258D01*
X199675714Y-107495877D01*
X199713809Y-107538735D01*
X199751904Y-107619687D01*
X199751904Y-107695877D01*
X199713809Y-107767306D01*
X199675714Y-107800639D01*
X199599523Y-107829211D01*
X199447142Y-107848258D01*
X199256666Y-107824449D01*
X199104285Y-107767306D01*
X199028095Y-107719687D01*
X198990000Y-107676830D01*
X198951904Y-107595877D01*
X199218571Y-107019687D02*
X199751904Y-107086354D01*
X199294761Y-107029211D02*
X199256666Y-106986354D01*
X199218571Y-106905401D01*
X199218571Y-106791116D01*
X199256666Y-106719687D01*
X199332857Y-106691116D01*
X199751904Y-106743497D01*
X199332857Y-106043497D02*
X199332857Y-106310163D01*
X199751904Y-106362544D02*
X198951904Y-106262544D01*
X198951904Y-105881592D01*
X181895714Y-93351285D02*
X181933809Y-93389380D01*
X181971904Y-93503666D01*
X181971904Y-93579857D01*
X181933809Y-93694142D01*
X181857619Y-93770333D01*
X181781428Y-93808428D01*
X181629047Y-93846523D01*
X181514761Y-93846523D01*
X181362380Y-93808428D01*
X181286190Y-93770333D01*
X181210000Y-93694142D01*
X181171904Y-93579857D01*
X181171904Y-93503666D01*
X181210000Y-93389380D01*
X181248095Y-93351285D01*
X181971904Y-92589380D02*
X181971904Y-93046523D01*
X181971904Y-92817952D02*
X181171904Y-92817952D01*
X181286190Y-92894142D01*
X181362380Y-92970333D01*
X181400476Y-93046523D01*
X181171904Y-91865571D02*
X181171904Y-92246523D01*
X181552857Y-92284619D01*
X181514761Y-92246523D01*
X181476666Y-92170333D01*
X181476666Y-91979857D01*
X181514761Y-91903666D01*
X181552857Y-91865571D01*
X181629047Y-91827476D01*
X181819523Y-91827476D01*
X181895714Y-91865571D01*
X181933809Y-91903666D01*
X181971904Y-91979857D01*
X181971904Y-92170333D01*
X181933809Y-92246523D01*
X181895714Y-92284619D01*
X181171904Y-91187306D02*
X181171904Y-90692068D01*
X181476666Y-90996830D01*
X181476666Y-90882544D01*
X181514761Y-90811116D01*
X181552857Y-90777782D01*
X181629047Y-90749211D01*
X181819523Y-90773020D01*
X181895714Y-90820639D01*
X181933809Y-90863497D01*
X181971904Y-90944449D01*
X181971904Y-91173020D01*
X181933809Y-91244449D01*
X181895714Y-91277782D01*
X181171904Y-90425401D02*
X181171904Y-89930163D01*
X181476666Y-90234925D01*
X181476666Y-90120639D01*
X181514761Y-90049211D01*
X181552857Y-90015877D01*
X181629047Y-89987306D01*
X181819523Y-90011116D01*
X181895714Y-90058735D01*
X181933809Y-90101592D01*
X181971904Y-90182544D01*
X181971904Y-90411116D01*
X181933809Y-90482544D01*
X181895714Y-90515877D01*
X181438571Y-89620639D02*
X182238571Y-89720639D01*
X181476666Y-89625401D02*
X181438571Y-89544449D01*
X181438571Y-89392068D01*
X181476666Y-89320639D01*
X181514761Y-89287306D01*
X181590952Y-89258735D01*
X181819523Y-89287306D01*
X181895714Y-89334925D01*
X181933809Y-89377782D01*
X181971904Y-89458735D01*
X181971904Y-89611116D01*
X181933809Y-89682544D01*
X181552857Y-88644449D02*
X181552857Y-88911116D01*
X181971904Y-88963497D02*
X181171904Y-88863497D01*
X181171904Y-88482544D01*
X171735714Y-93541785D02*
X171773809Y-93579880D01*
X171811904Y-93694166D01*
X171811904Y-93770357D01*
X171773809Y-93884642D01*
X171697619Y-93960833D01*
X171621428Y-93998928D01*
X171469047Y-94037023D01*
X171354761Y-94037023D01*
X171202380Y-93998928D01*
X171126190Y-93960833D01*
X171050000Y-93884642D01*
X171011904Y-93770357D01*
X171011904Y-93694166D01*
X171050000Y-93579880D01*
X171088095Y-93541785D01*
X171811904Y-92779880D02*
X171811904Y-93237023D01*
X171811904Y-93008452D02*
X171011904Y-93008452D01*
X171126190Y-93084642D01*
X171202380Y-93160833D01*
X171240476Y-93237023D01*
X171278571Y-92094166D02*
X171811904Y-92094166D01*
X170973809Y-92284642D02*
X171545238Y-92475119D01*
X171545238Y-91979880D01*
X171011904Y-91187306D02*
X171011904Y-90692068D01*
X171316666Y-90996830D01*
X171316666Y-90882544D01*
X171354761Y-90811116D01*
X171392857Y-90777782D01*
X171469047Y-90749211D01*
X171659523Y-90773020D01*
X171735714Y-90820639D01*
X171773809Y-90863497D01*
X171811904Y-90944449D01*
X171811904Y-91173020D01*
X171773809Y-91244449D01*
X171735714Y-91277782D01*
X171011904Y-90425401D02*
X171011904Y-89930163D01*
X171316666Y-90234925D01*
X171316666Y-90120639D01*
X171354761Y-90049211D01*
X171392857Y-90015877D01*
X171469047Y-89987306D01*
X171659523Y-90011116D01*
X171735714Y-90058735D01*
X171773809Y-90101592D01*
X171811904Y-90182544D01*
X171811904Y-90411116D01*
X171773809Y-90482544D01*
X171735714Y-90515877D01*
X171278571Y-89620639D02*
X172078571Y-89720639D01*
X171316666Y-89625401D02*
X171278571Y-89544449D01*
X171278571Y-89392068D01*
X171316666Y-89320639D01*
X171354761Y-89287306D01*
X171430952Y-89258735D01*
X171659523Y-89287306D01*
X171735714Y-89334925D01*
X171773809Y-89377782D01*
X171811904Y-89458735D01*
X171811904Y-89611116D01*
X171773809Y-89682544D01*
X171392857Y-88644449D02*
X171392857Y-88911116D01*
X171811904Y-88963497D02*
X171011904Y-88863497D01*
X171011904Y-88482544D01*
X204755714Y-93224285D02*
X204793809Y-93262380D01*
X204831904Y-93376666D01*
X204831904Y-93452857D01*
X204793809Y-93567142D01*
X204717619Y-93643333D01*
X204641428Y-93681428D01*
X204489047Y-93719523D01*
X204374761Y-93719523D01*
X204222380Y-93681428D01*
X204146190Y-93643333D01*
X204070000Y-93567142D01*
X204031904Y-93452857D01*
X204031904Y-93376666D01*
X204070000Y-93262380D01*
X204108095Y-93224285D01*
X204831904Y-92462380D02*
X204831904Y-92919523D01*
X204831904Y-92690952D02*
X204031904Y-92690952D01*
X204146190Y-92767142D01*
X204222380Y-92843333D01*
X204260476Y-92919523D01*
X204031904Y-91776666D02*
X204031904Y-91929047D01*
X204070000Y-92005238D01*
X204108095Y-92043333D01*
X204222380Y-92119523D01*
X204374761Y-92157619D01*
X204679523Y-92157619D01*
X204755714Y-92119523D01*
X204793809Y-92081428D01*
X204831904Y-92005238D01*
X204831904Y-91852857D01*
X204793809Y-91776666D01*
X204755714Y-91738571D01*
X204679523Y-91700476D01*
X204489047Y-91700476D01*
X204412857Y-91738571D01*
X204374761Y-91776666D01*
X204336666Y-91852857D01*
X204336666Y-92005238D01*
X204374761Y-92081428D01*
X204412857Y-92119523D01*
X204489047Y-92157619D01*
X206838571Y-93659092D02*
X207371904Y-93725758D01*
X206533809Y-93811473D02*
X207105238Y-94073377D01*
X207105238Y-93578139D01*
X206571904Y-93282901D02*
X206571904Y-92749568D01*
X207371904Y-93192425D01*
X206838571Y-92478139D02*
X207638571Y-92578139D01*
X206876666Y-92482901D02*
X206838571Y-92401949D01*
X206838571Y-92249568D01*
X206876666Y-92178139D01*
X206914761Y-92144806D01*
X206990952Y-92116235D01*
X207219523Y-92144806D01*
X207295714Y-92192425D01*
X207333809Y-92235282D01*
X207371904Y-92316235D01*
X207371904Y-92468616D01*
X207333809Y-92540044D01*
X206952857Y-91501949D02*
X206952857Y-91768616D01*
X207371904Y-91820997D02*
X206571904Y-91720997D01*
X206571904Y-91340044D01*
X204755714Y-109416785D02*
X204793809Y-109454880D01*
X204831904Y-109569166D01*
X204831904Y-109645357D01*
X204793809Y-109759642D01*
X204717619Y-109835833D01*
X204641428Y-109873928D01*
X204489047Y-109912023D01*
X204374761Y-109912023D01*
X204222380Y-109873928D01*
X204146190Y-109835833D01*
X204070000Y-109759642D01*
X204031904Y-109645357D01*
X204031904Y-109569166D01*
X204070000Y-109454880D01*
X204108095Y-109416785D01*
X204831904Y-108654880D02*
X204831904Y-109112023D01*
X204831904Y-108883452D02*
X204031904Y-108883452D01*
X204146190Y-108959642D01*
X204222380Y-109035833D01*
X204260476Y-109112023D01*
X204031904Y-108388214D02*
X204031904Y-107854880D01*
X204831904Y-108197738D01*
X204298571Y-107311592D02*
X204831904Y-107378258D01*
X203993809Y-107463973D02*
X204565238Y-107725877D01*
X204565238Y-107230639D01*
X204031904Y-106935401D02*
X204031904Y-106402068D01*
X204831904Y-106844925D01*
X204298571Y-106130639D02*
X205098571Y-106230639D01*
X204336666Y-106135401D02*
X204298571Y-106054449D01*
X204298571Y-105902068D01*
X204336666Y-105830639D01*
X204374761Y-105797306D01*
X204450952Y-105768735D01*
X204679523Y-105797306D01*
X204755714Y-105844925D01*
X204793809Y-105887782D01*
X204831904Y-105968735D01*
X204831904Y-106121116D01*
X204793809Y-106192544D01*
X204412857Y-105154449D02*
X204412857Y-105421116D01*
X204831904Y-105473497D02*
X204031904Y-105373497D01*
X204031904Y-104992544D01*
X190861904Y-93300476D02*
X190061904Y-93300476D01*
X190061904Y-93110000D01*
X190100000Y-92995714D01*
X190176190Y-92919523D01*
X190252380Y-92881428D01*
X190404761Y-92843333D01*
X190519047Y-92843333D01*
X190671428Y-92881428D01*
X190747619Y-92919523D01*
X190823809Y-92995714D01*
X190861904Y-93110000D01*
X190861904Y-93300476D01*
X190861904Y-92081428D02*
X190861904Y-92538571D01*
X190861904Y-92310000D02*
X190061904Y-92310000D01*
X190176190Y-92386190D01*
X190252380Y-92462380D01*
X190290476Y-92538571D01*
X192131904Y-94640044D02*
X191331904Y-94540044D01*
X191331904Y-94235282D01*
X191370000Y-94163854D01*
X191408095Y-94130520D01*
X191484285Y-94101949D01*
X191598571Y-94116235D01*
X191674761Y-94163854D01*
X191712857Y-94206711D01*
X191750952Y-94287663D01*
X191750952Y-94592425D01*
X191331904Y-93587663D02*
X191331904Y-93435282D01*
X191370000Y-93363854D01*
X191446190Y-93297187D01*
X191598571Y-93278139D01*
X191865238Y-93311473D01*
X192017619Y-93368616D01*
X192093809Y-93454330D01*
X192131904Y-93535282D01*
X192131904Y-93687663D01*
X192093809Y-93759092D01*
X192017619Y-93825758D01*
X191865238Y-93844806D01*
X191598571Y-93811473D01*
X191446190Y-93754330D01*
X191370000Y-93668616D01*
X191331904Y-93587663D01*
X191331904Y-92978139D02*
X192131904Y-92887663D01*
X191560476Y-92663854D01*
X192131904Y-92582901D01*
X191331904Y-92292425D01*
X191712857Y-92035282D02*
X191712857Y-91768616D01*
X192131904Y-91706711D02*
X192131904Y-92087663D01*
X191331904Y-91987663D01*
X191331904Y-91606711D01*
X192131904Y-90906711D02*
X191750952Y-91125758D01*
X192131904Y-91363854D02*
X191331904Y-91263854D01*
X191331904Y-90959092D01*
X191370000Y-90887663D01*
X191408095Y-90854330D01*
X191484285Y-90825758D01*
X191598571Y-90840044D01*
X191674761Y-90887663D01*
X191712857Y-90930520D01*
X191750952Y-91011473D01*
X191750952Y-91316235D01*
X195941904Y-95840476D02*
X195141904Y-95840476D01*
X195141904Y-95650000D01*
X195180000Y-95535714D01*
X195256190Y-95459523D01*
X195332380Y-95421428D01*
X195484761Y-95383333D01*
X195599047Y-95383333D01*
X195751428Y-95421428D01*
X195827619Y-95459523D01*
X195903809Y-95535714D01*
X195941904Y-95650000D01*
X195941904Y-95840476D01*
X195218095Y-95078571D02*
X195180000Y-95040476D01*
X195141904Y-94964285D01*
X195141904Y-94773809D01*
X195180000Y-94697619D01*
X195218095Y-94659523D01*
X195294285Y-94621428D01*
X195370476Y-94621428D01*
X195484761Y-94659523D01*
X195941904Y-95116666D01*
X195941904Y-94621428D01*
X195141904Y-90761949D02*
X195141904Y-90304806D01*
X195941904Y-90633377D02*
X195141904Y-90533377D01*
X195141904Y-90114330D02*
X195941904Y-89680997D01*
X195141904Y-89580997D02*
X195941904Y-90214330D01*
X198481904Y-95840476D02*
X197681904Y-95840476D01*
X197681904Y-95650000D01*
X197720000Y-95535714D01*
X197796190Y-95459523D01*
X197872380Y-95421428D01*
X198024761Y-95383333D01*
X198139047Y-95383333D01*
X198291428Y-95421428D01*
X198367619Y-95459523D01*
X198443809Y-95535714D01*
X198481904Y-95650000D01*
X198481904Y-95840476D01*
X197681904Y-95116666D02*
X197681904Y-94621428D01*
X197986666Y-94888095D01*
X197986666Y-94773809D01*
X198024761Y-94697619D01*
X198062857Y-94659523D01*
X198139047Y-94621428D01*
X198329523Y-94621428D01*
X198405714Y-94659523D01*
X198443809Y-94697619D01*
X198481904Y-94773809D01*
X198481904Y-95002380D01*
X198443809Y-95078571D01*
X198405714Y-95116666D01*
X198481904Y-90385758D02*
X198100952Y-90604806D01*
X198481904Y-90842901D02*
X197681904Y-90742901D01*
X197681904Y-90438139D01*
X197720000Y-90366711D01*
X197758095Y-90333377D01*
X197834285Y-90304806D01*
X197948571Y-90319092D01*
X198024761Y-90366711D01*
X198062857Y-90409568D01*
X198100952Y-90490520D01*
X198100952Y-90795282D01*
X197681904Y-90019092D02*
X198481904Y-89585758D01*
X197681904Y-89485758D02*
X198481904Y-90119092D01*
X198742333Y-110432857D02*
X198475666Y-110432857D01*
X198475666Y-110851904D02*
X198475666Y-110051904D01*
X198856619Y-110051904D01*
X199580428Y-110851904D02*
X199123285Y-110851904D01*
X199351857Y-110851904D02*
X199351857Y-110051904D01*
X199275666Y-110166190D01*
X199199476Y-110242380D01*
X199123285Y-110280476D01*
X200614193Y-110051904D02*
X200690383Y-110051904D01*
X200761812Y-110090000D01*
X200795145Y-110128095D01*
X200823717Y-110204285D01*
X200842764Y-110356666D01*
X200818955Y-110547142D01*
X200761812Y-110699523D01*
X200714193Y-110775714D01*
X200671336Y-110813809D01*
X200590383Y-110851904D01*
X200514193Y-110851904D01*
X200442764Y-110813809D01*
X200409431Y-110775714D01*
X200380860Y-110699523D01*
X200361812Y-110547142D01*
X200385622Y-110356666D01*
X200442764Y-110204285D01*
X200490383Y-110128095D01*
X200533241Y-110090000D01*
X200614193Y-110051904D01*
X201133241Y-110775714D02*
X201166574Y-110813809D01*
X201123717Y-110851904D01*
X201090383Y-110813809D01*
X201133241Y-110775714D01*
X201123717Y-110851904D01*
X201985622Y-110051904D02*
X201604669Y-110051904D01*
X201518955Y-110432857D01*
X201561812Y-110394761D01*
X201642764Y-110356666D01*
X201833241Y-110356666D01*
X201904669Y-110394761D01*
X201938002Y-110432857D01*
X201966574Y-110509047D01*
X201942764Y-110699523D01*
X201895145Y-110775714D01*
X201852288Y-110813809D01*
X201771336Y-110851904D01*
X201580860Y-110851904D01*
X201509431Y-110813809D01*
X201476098Y-110775714D01*
X202257050Y-110623333D02*
X202638002Y-110623333D01*
X202152288Y-110851904D02*
X202518955Y-110051904D01*
X202685622Y-110851904D01*
X201345833Y-90112857D02*
X201079166Y-90112857D01*
X201079166Y-90531904D02*
X201079166Y-89731904D01*
X201460119Y-89731904D01*
X201726785Y-89808095D02*
X201764880Y-89770000D01*
X201841071Y-89731904D01*
X202031547Y-89731904D01*
X202107738Y-89770000D01*
X202145833Y-89808095D01*
X202183928Y-89884285D01*
X202183928Y-89960476D01*
X202145833Y-90074761D01*
X201688690Y-90531904D01*
X202183928Y-90531904D01*
X203535193Y-89731904D02*
X203611383Y-89731904D01*
X203682812Y-89770000D01*
X203716145Y-89808095D01*
X203744717Y-89884285D01*
X203763764Y-90036666D01*
X203739955Y-90227142D01*
X203682812Y-90379523D01*
X203635193Y-90455714D01*
X203592336Y-90493809D01*
X203511383Y-90531904D01*
X203435193Y-90531904D01*
X203363764Y-90493809D01*
X203330431Y-90455714D01*
X203301860Y-90379523D01*
X203282812Y-90227142D01*
X203306622Y-90036666D01*
X203363764Y-89884285D01*
X203411383Y-89808095D01*
X203454241Y-89770000D01*
X203535193Y-89731904D01*
X204054241Y-90455714D02*
X204087574Y-90493809D01*
X204044717Y-90531904D01*
X204011383Y-90493809D01*
X204054241Y-90455714D01*
X204044717Y-90531904D01*
X204906622Y-89731904D02*
X204525669Y-89731904D01*
X204439955Y-90112857D01*
X204482812Y-90074761D01*
X204563764Y-90036666D01*
X204754241Y-90036666D01*
X204825669Y-90074761D01*
X204859002Y-90112857D01*
X204887574Y-90189047D01*
X204863764Y-90379523D01*
X204816145Y-90455714D01*
X204773288Y-90493809D01*
X204692336Y-90531904D01*
X204501860Y-90531904D01*
X204430431Y-90493809D01*
X204397098Y-90455714D01*
X205178050Y-90303333D02*
X205559002Y-90303333D01*
X205073288Y-90531904D02*
X205439955Y-89731904D01*
X205606622Y-90531904D01*
X194712380Y-101091904D02*
X195521904Y-101091904D01*
X195617142Y-101044285D01*
X195664761Y-100996666D01*
X195712380Y-100901428D01*
X195712380Y-100710952D01*
X195664761Y-100615714D01*
X195617142Y-100568095D01*
X195521904Y-100520476D01*
X194712380Y-100520476D01*
X194712380Y-99615714D02*
X194712380Y-99806190D01*
X194760000Y-99901428D01*
X194807619Y-99949047D01*
X194950476Y-100044285D01*
X195140952Y-100091904D01*
X195521904Y-100091904D01*
X195617142Y-100044285D01*
X195664761Y-99996666D01*
X195712380Y-99901428D01*
X195712380Y-99710952D01*
X195664761Y-99615714D01*
X195617142Y-99568095D01*
X195521904Y-99520476D01*
X195283809Y-99520476D01*
X195188571Y-99568095D01*
X195140952Y-99615714D01*
X195093333Y-99710952D01*
X195093333Y-99901428D01*
X195140952Y-99996666D01*
X195188571Y-100044285D01*
X195283809Y-100091904D01*
X156495714Y-91573333D02*
X156533809Y-91611428D01*
X156571904Y-91725714D01*
X156571904Y-91801904D01*
X156533809Y-91916190D01*
X156457619Y-91992380D01*
X156381428Y-92030476D01*
X156229047Y-92068571D01*
X156114761Y-92068571D01*
X155962380Y-92030476D01*
X155886190Y-91992380D01*
X155810000Y-91916190D01*
X155771904Y-91801904D01*
X155771904Y-91725714D01*
X155810000Y-91611428D01*
X155848095Y-91573333D01*
X156038571Y-90887619D02*
X156571904Y-90887619D01*
X155733809Y-91078095D02*
X156305238Y-91268571D01*
X156305238Y-90773333D01*
X157841904Y-88950520D02*
X157841904Y-89407663D01*
X157841904Y-89179092D02*
X157041904Y-89079092D01*
X157156190Y-89169568D01*
X157232380Y-89255282D01*
X157270476Y-89336235D01*
X157041904Y-88355282D02*
X157041904Y-88279092D01*
X157080000Y-88207663D01*
X157118095Y-88174330D01*
X157194285Y-88145758D01*
X157346666Y-88126711D01*
X157537142Y-88150520D01*
X157689523Y-88207663D01*
X157765714Y-88255282D01*
X157803809Y-88298139D01*
X157841904Y-88379092D01*
X157841904Y-88455282D01*
X157803809Y-88526711D01*
X157765714Y-88560044D01*
X157689523Y-88588616D01*
X157537142Y-88607663D01*
X157346666Y-88583854D01*
X157194285Y-88526711D01*
X157118095Y-88479092D01*
X157080000Y-88436235D01*
X157041904Y-88355282D01*
X157041904Y-87593377D02*
X157041904Y-87517187D01*
X157080000Y-87445758D01*
X157118095Y-87412425D01*
X157194285Y-87383854D01*
X157346666Y-87364806D01*
X157537142Y-87388616D01*
X157689523Y-87445758D01*
X157765714Y-87493377D01*
X157803809Y-87536235D01*
X157841904Y-87617187D01*
X157841904Y-87693377D01*
X157803809Y-87764806D01*
X157765714Y-87798139D01*
X157689523Y-87826711D01*
X157537142Y-87845758D01*
X157346666Y-87821949D01*
X157194285Y-87764806D01*
X157118095Y-87717187D01*
X157080000Y-87674330D01*
X157041904Y-87593377D01*
X157308571Y-87017187D02*
X157841904Y-87083854D01*
X157384761Y-87026711D02*
X157346666Y-86983854D01*
X157308571Y-86902901D01*
X157308571Y-86788616D01*
X157346666Y-86717187D01*
X157422857Y-86688616D01*
X157841904Y-86740997D01*
X157422857Y-86040997D02*
X157422857Y-86307663D01*
X157841904Y-86360044D02*
X157041904Y-86260044D01*
X157041904Y-85879092D01*
X175196547Y-88563452D02*
X175196547Y-88944404D01*
X174929880Y-88144404D02*
X175196547Y-88563452D01*
X175463214Y-88144404D01*
X176148928Y-88944404D02*
X175691785Y-88944404D01*
X175920357Y-88944404D02*
X175920357Y-88144404D01*
X175844166Y-88258690D01*
X175767976Y-88334880D01*
X175691785Y-88372976D01*
X177317693Y-88944404D02*
X176860550Y-88944404D01*
X177089122Y-88944404D02*
X177189122Y-88144404D01*
X177098645Y-88258690D01*
X177012931Y-88334880D01*
X176931979Y-88372976D01*
X178103407Y-88144404D02*
X177951026Y-88144404D01*
X177870074Y-88182500D01*
X177827217Y-88220595D01*
X177736741Y-88334880D01*
X177679598Y-88487261D01*
X177641502Y-88792023D01*
X177670074Y-88868214D01*
X177703407Y-88906309D01*
X177774836Y-88944404D01*
X177927217Y-88944404D01*
X178008169Y-88906309D01*
X178051026Y-88868214D01*
X178098645Y-88792023D01*
X178122455Y-88601547D01*
X178093883Y-88525357D01*
X178060550Y-88487261D01*
X177989122Y-88449166D01*
X177836741Y-88449166D01*
X177755788Y-88487261D01*
X177712931Y-88525357D01*
X177665312Y-88601547D01*
X178422455Y-88944404D02*
X178522455Y-88144404D01*
X178717693Y-88715833D01*
X179055788Y-88144404D01*
X178955788Y-88944404D01*
X179336741Y-88944404D02*
X179436741Y-88144404D01*
X179389122Y-88525357D02*
X179846264Y-88525357D01*
X179793883Y-88944404D02*
X179893883Y-88144404D01*
X180165312Y-88411071D02*
X180584360Y-88411071D01*
X180098645Y-88944404D01*
X180517693Y-88944404D01*
D14*
X208041119Y-94318666D02*
X208766833Y-94318666D01*
X208911976Y-94367047D01*
X209008738Y-94463809D01*
X209057119Y-94608952D01*
X209057119Y-94705714D01*
X208137880Y-93883238D02*
X208089500Y-93834857D01*
X208041119Y-93738095D01*
X208041119Y-93496190D01*
X208089500Y-93399428D01*
X208137880Y-93351047D01*
X208234642Y-93302666D01*
X208331404Y-93302666D01*
X208476547Y-93351047D01*
X209057119Y-93931619D01*
X209057119Y-93302666D01*
X209008738Y-90342236D02*
X209057119Y-90217655D01*
X209057119Y-89999940D01*
X209008738Y-89906807D01*
X208960357Y-89857217D01*
X208863595Y-89801579D01*
X208766833Y-89789483D01*
X208670071Y-89820931D01*
X208621690Y-89858426D01*
X208573309Y-89939464D01*
X208524928Y-90107588D01*
X208476547Y-90188626D01*
X208428166Y-90226121D01*
X208331404Y-90257569D01*
X208234642Y-90245474D01*
X208137880Y-90189836D01*
X208089500Y-90140245D01*
X208041119Y-90047112D01*
X208041119Y-89829398D01*
X208089500Y-89704817D01*
X209008738Y-89079493D02*
X209057119Y-89172626D01*
X209057119Y-89346798D01*
X209008738Y-89427836D01*
X208911976Y-89459283D01*
X208524928Y-89410902D01*
X208428166Y-89355264D01*
X208379785Y-89262131D01*
X208379785Y-89087960D01*
X208428166Y-89006921D01*
X208524928Y-88975474D01*
X208621690Y-88987569D01*
X208718452Y-89435093D01*
X209057119Y-88650112D02*
X208379785Y-88565445D01*
X208573309Y-88589636D02*
X208476547Y-88533998D01*
X208428166Y-88484407D01*
X208379785Y-88391274D01*
X208379785Y-88304188D01*
X209057119Y-88084055D02*
X208379785Y-87999388D01*
X208041119Y-87957055D02*
X208089500Y-88006645D01*
X208137880Y-87969150D01*
X208089500Y-87919560D01*
X208041119Y-87957055D01*
X208137880Y-87969150D01*
X209057119Y-87256740D02*
X208524928Y-87190217D01*
X208428166Y-87221664D01*
X208379785Y-87302702D01*
X208379785Y-87476874D01*
X208428166Y-87570007D01*
X209008738Y-87250693D02*
X209057119Y-87343826D01*
X209057119Y-87561540D01*
X209008738Y-87642579D01*
X208911976Y-87674026D01*
X208815214Y-87661931D01*
X208718452Y-87606293D01*
X208670071Y-87513160D01*
X208670071Y-87295445D01*
X208621690Y-87202312D01*
X209057119Y-86690683D02*
X209008738Y-86771721D01*
X208911976Y-86803169D01*
X208041119Y-86694312D01*
X209153880Y-86572150D02*
X209153880Y-85875464D01*
X208524928Y-85274331D02*
X208573309Y-85149750D01*
X208621690Y-85112255D01*
X208718452Y-85080807D01*
X208863595Y-85098950D01*
X208960357Y-85154588D01*
X209008738Y-85204179D01*
X209057119Y-85297312D01*
X209057119Y-85645655D01*
X208041119Y-85518655D01*
X208041119Y-85213855D01*
X208089500Y-85132817D01*
X208137880Y-85095321D01*
X208234642Y-85063874D01*
X208331404Y-85075969D01*
X208428166Y-85131607D01*
X208476547Y-85181198D01*
X208524928Y-85274331D01*
X208524928Y-85579131D01*
X173651333Y-85549619D02*
X173651333Y-86275333D01*
X173602952Y-86420476D01*
X173506190Y-86517238D01*
X173361047Y-86565619D01*
X173264285Y-86565619D01*
X174038380Y-85549619D02*
X174667333Y-85549619D01*
X174328666Y-85936666D01*
X174473809Y-85936666D01*
X174570571Y-85985047D01*
X174618952Y-86033428D01*
X174667333Y-86130190D01*
X174667333Y-86372095D01*
X174618952Y-86468857D01*
X174570571Y-86517238D01*
X174473809Y-86565619D01*
X174183523Y-86565619D01*
X174086761Y-86517238D01*
X174038380Y-86468857D01*
X176504116Y-86565619D02*
X176631116Y-85549619D01*
X176979459Y-85549619D01*
X177060497Y-85598000D01*
X177097992Y-85646380D01*
X177129440Y-85743142D01*
X177111297Y-85888285D01*
X177055659Y-85985047D01*
X177006068Y-86033428D01*
X176912935Y-86081809D01*
X176564592Y-86081809D01*
X177810401Y-86565619D02*
X177876925Y-86033428D01*
X177845478Y-85936666D01*
X177764440Y-85888285D01*
X177590268Y-85888285D01*
X177497135Y-85936666D01*
X177816449Y-86517238D02*
X177723316Y-86565619D01*
X177505601Y-86565619D01*
X177424563Y-86517238D01*
X177393116Y-86420476D01*
X177405211Y-86323714D01*
X177460849Y-86226952D01*
X177553982Y-86178571D01*
X177771697Y-86178571D01*
X177864830Y-86130190D01*
X178245830Y-86565619D02*
X178330497Y-85888285D01*
X178306306Y-86081809D02*
X178361944Y-85985047D01*
X178411535Y-85936666D01*
X178504668Y-85888285D01*
X178591754Y-85888285D01*
X179203773Y-86565619D02*
X179270297Y-86033428D01*
X179238849Y-85936666D01*
X179157811Y-85888285D01*
X178983640Y-85888285D01*
X178890506Y-85936666D01*
X179209820Y-86517238D02*
X179116687Y-86565619D01*
X178898973Y-86565619D01*
X178817935Y-86517238D01*
X178786487Y-86420476D01*
X178798582Y-86323714D01*
X178854220Y-86226952D01*
X178947354Y-86178571D01*
X179165068Y-86178571D01*
X179258201Y-86130190D01*
X179769830Y-86565619D02*
X179688792Y-86517238D01*
X179657344Y-86420476D01*
X179766201Y-85549619D01*
X180248801Y-86565619D02*
X180167763Y-86517238D01*
X180136316Y-86420476D01*
X180245173Y-85549619D01*
X180951535Y-86517238D02*
X180858401Y-86565619D01*
X180684230Y-86565619D01*
X180603192Y-86517238D01*
X180571744Y-86420476D01*
X180620125Y-86033428D01*
X180675763Y-85936666D01*
X180768897Y-85888285D01*
X180943068Y-85888285D01*
X181024106Y-85936666D01*
X181055554Y-86033428D01*
X181043459Y-86130190D01*
X180595935Y-86226952D01*
X181511544Y-86565619D02*
X181430506Y-86517238D01*
X181399059Y-86420476D01*
X181507916Y-85549619D01*
D10*
X126733333Y-124339404D02*
X126733333Y-124910833D01*
X126695238Y-125025119D01*
X126619047Y-125101309D01*
X126504761Y-125139404D01*
X126428571Y-125139404D01*
X127457142Y-124606071D02*
X127457142Y-125139404D01*
X127266666Y-124301309D02*
X127076190Y-124872738D01*
X127571428Y-124872738D01*
X130086622Y-125139404D02*
X129867574Y-124758452D01*
X129629479Y-125139404D02*
X129729479Y-124339404D01*
X130034241Y-124339404D01*
X130105669Y-124377500D01*
X130139002Y-124415595D01*
X130167574Y-124491785D01*
X130153288Y-124606071D01*
X130105669Y-124682261D01*
X130062812Y-124720357D01*
X129981860Y-124758452D01*
X129677098Y-124758452D01*
X130896145Y-125063214D02*
X130853288Y-125101309D01*
X130734241Y-125139404D01*
X130658050Y-125139404D01*
X130548526Y-125101309D01*
X130481860Y-125025119D01*
X130453288Y-124948928D01*
X130434241Y-124796547D01*
X130448526Y-124682261D01*
X130505669Y-124529880D01*
X130553288Y-124453690D01*
X130639002Y-124377500D01*
X130758050Y-124339404D01*
X130834241Y-124339404D01*
X130943764Y-124377500D01*
X130977098Y-124415595D01*
X131281860Y-124415595D02*
X131324717Y-124377500D01*
X131405669Y-124339404D01*
X131596145Y-124339404D01*
X131667574Y-124377500D01*
X131700907Y-124415595D01*
X131729479Y-124491785D01*
X131719955Y-124567976D01*
X131667574Y-124682261D01*
X131153288Y-125139404D01*
X131648526Y-125139404D01*
X132243764Y-124339404D02*
X132319955Y-124339404D01*
X132391383Y-124377500D01*
X132424717Y-124415595D01*
X132453288Y-124491785D01*
X132472336Y-124644166D01*
X132448526Y-124834642D01*
X132391383Y-124987023D01*
X132343764Y-125063214D01*
X132300907Y-125101309D01*
X132219955Y-125139404D01*
X132143764Y-125139404D01*
X132072336Y-125101309D01*
X132039002Y-125063214D01*
X132010431Y-124987023D01*
X131991383Y-124834642D01*
X132015193Y-124644166D01*
X132072336Y-124491785D01*
X132119955Y-124415595D01*
X132162812Y-124377500D01*
X132243764Y-124339404D01*
X133172336Y-125139404D02*
X132715193Y-125139404D01*
X132943764Y-125139404D02*
X133043764Y-124339404D01*
X132953288Y-124453690D01*
X132867574Y-124529880D01*
X132786622Y-124567976D01*
X133924717Y-124606071D02*
X133858050Y-125139404D01*
X133772336Y-124301309D02*
X133510431Y-124872738D01*
X134005669Y-124872738D01*
X134077098Y-125215595D02*
X134686622Y-125215595D01*
X135205669Y-124720357D02*
X135315193Y-124758452D01*
X135348526Y-124796547D01*
X135377098Y-124872738D01*
X135362812Y-124987023D01*
X135315193Y-125063214D01*
X135272336Y-125101309D01*
X135191383Y-125139404D01*
X134886622Y-125139404D01*
X134986622Y-124339404D01*
X135253288Y-124339404D01*
X135324717Y-124377500D01*
X135358050Y-124415595D01*
X135386622Y-124491785D01*
X135377098Y-124567976D01*
X135329479Y-124644166D01*
X135286622Y-124682261D01*
X135205669Y-124720357D01*
X134939002Y-124720357D01*
X135786622Y-124339404D02*
X135705669Y-124987023D01*
X135734241Y-125063214D01*
X135767574Y-125101309D01*
X135839002Y-125139404D01*
X135991383Y-125139404D01*
X136072336Y-125101309D01*
X136115193Y-125063214D01*
X136162812Y-124987023D01*
X136243764Y-124339404D01*
X136491383Y-125101309D02*
X136600907Y-125139404D01*
X136791383Y-125139404D01*
X136872336Y-125101309D01*
X136915193Y-125063214D01*
X136962812Y-124987023D01*
X136972336Y-124910833D01*
X136943764Y-124834642D01*
X136910431Y-124796547D01*
X136839002Y-124758452D01*
X136691383Y-124720357D01*
X136619955Y-124682261D01*
X136586622Y-124644166D01*
X136558050Y-124567976D01*
X136567574Y-124491785D01*
X136615193Y-124415595D01*
X136658050Y-124377500D01*
X136739002Y-124339404D01*
X136929479Y-124339404D01*
X137039002Y-124377500D01*
X155625833Y-124021904D02*
X155625833Y-124593333D01*
X155587738Y-124707619D01*
X155511547Y-124783809D01*
X155397261Y-124821904D01*
X155321071Y-124821904D01*
X156387738Y-124021904D02*
X156006785Y-124021904D01*
X155968690Y-124402857D01*
X156006785Y-124364761D01*
X156082976Y-124326666D01*
X156273452Y-124326666D01*
X156349642Y-124364761D01*
X156387738Y-124402857D01*
X156425833Y-124479047D01*
X156425833Y-124669523D01*
X156387738Y-124745714D01*
X156349642Y-124783809D01*
X156273452Y-124821904D01*
X156082976Y-124821904D01*
X156006785Y-124783809D01*
X155968690Y-124745714D01*
X158814002Y-124821904D02*
X158594955Y-124440952D01*
X158356860Y-124821904D02*
X158456860Y-124021904D01*
X158761622Y-124021904D01*
X158833050Y-124060000D01*
X158866383Y-124098095D01*
X158894955Y-124174285D01*
X158880669Y-124288571D01*
X158833050Y-124364761D01*
X158790193Y-124402857D01*
X158709241Y-124440952D01*
X158404479Y-124440952D01*
X159623526Y-124745714D02*
X159580669Y-124783809D01*
X159461622Y-124821904D01*
X159385431Y-124821904D01*
X159275907Y-124783809D01*
X159209241Y-124707619D01*
X159180669Y-124631428D01*
X159161622Y-124479047D01*
X159175907Y-124364761D01*
X159233050Y-124212380D01*
X159280669Y-124136190D01*
X159366383Y-124060000D01*
X159485431Y-124021904D01*
X159561622Y-124021904D01*
X159671145Y-124060000D01*
X159704479Y-124098095D01*
X160009241Y-124098095D02*
X160052098Y-124060000D01*
X160133050Y-124021904D01*
X160323526Y-124021904D01*
X160394955Y-124060000D01*
X160428288Y-124098095D01*
X160456860Y-124174285D01*
X160447336Y-124250476D01*
X160394955Y-124364761D01*
X159880669Y-124821904D01*
X160375907Y-124821904D01*
X160971145Y-124021904D02*
X161047336Y-124021904D01*
X161118764Y-124060000D01*
X161152098Y-124098095D01*
X161180669Y-124174285D01*
X161199717Y-124326666D01*
X161175907Y-124517142D01*
X161118764Y-124669523D01*
X161071145Y-124745714D01*
X161028288Y-124783809D01*
X160947336Y-124821904D01*
X160871145Y-124821904D01*
X160799717Y-124783809D01*
X160766383Y-124745714D01*
X160737812Y-124669523D01*
X160718764Y-124517142D01*
X160742574Y-124326666D01*
X160799717Y-124174285D01*
X160847336Y-124098095D01*
X160890193Y-124060000D01*
X160971145Y-124021904D01*
X161899717Y-124821904D02*
X161442574Y-124821904D01*
X161671145Y-124821904D02*
X161771145Y-124021904D01*
X161680669Y-124136190D01*
X161594955Y-124212380D01*
X161514002Y-124250476D01*
X162652098Y-124288571D02*
X162585431Y-124821904D01*
X162499717Y-123983809D02*
X162237812Y-124555238D01*
X162733050Y-124555238D01*
X162804479Y-124898095D02*
X163414002Y-124898095D01*
X163666383Y-124402857D02*
X163933050Y-124402857D01*
X163994955Y-124821904D02*
X163614002Y-124821904D01*
X163714002Y-124021904D01*
X164094955Y-124021904D01*
X164361622Y-124021904D02*
X164794955Y-124821904D01*
X164894955Y-124021904D02*
X164261622Y-124821904D01*
X165085431Y-124021904D02*
X165542574Y-124021904D01*
X165214002Y-124821904D02*
X165314002Y-124021904D01*
D14*
X159681333Y-85803619D02*
X159681333Y-86529333D01*
X159632952Y-86674476D01*
X159536190Y-86771238D01*
X159391047Y-86819619D01*
X159294285Y-86819619D01*
X160068380Y-85803619D02*
X160745714Y-85803619D01*
X160310285Y-86819619D01*
X162784487Y-85803619D02*
X162693773Y-86529333D01*
X162632087Y-86674476D01*
X162532906Y-86771238D01*
X162396230Y-86819619D01*
X162309144Y-86819619D01*
X163089287Y-85803619D02*
X163611801Y-85803619D01*
X163223544Y-86819619D02*
X163350544Y-85803619D01*
X163782344Y-86529333D02*
X164217773Y-86529333D01*
X163658973Y-86819619D02*
X164090773Y-85803619D01*
X164268573Y-86819619D01*
X165173297Y-85852000D02*
X165092259Y-85803619D01*
X164961630Y-85803619D01*
X164824954Y-85852000D01*
X164725773Y-85948761D01*
X164670135Y-86045523D01*
X164602401Y-86239047D01*
X164584259Y-86384190D01*
X164603611Y-86577714D01*
X164635059Y-86674476D01*
X164710049Y-86771238D01*
X164834630Y-86819619D01*
X164921716Y-86819619D01*
X165058392Y-86771238D01*
X165107982Y-86722857D01*
X165150316Y-86384190D01*
X164976144Y-86384190D01*
D10*
X202291904Y-93795833D02*
X201910952Y-94062500D01*
X202291904Y-94252976D02*
X201491904Y-94252976D01*
X201491904Y-93948214D01*
X201530000Y-93872023D01*
X201568095Y-93833928D01*
X201644285Y-93795833D01*
X201758571Y-93795833D01*
X201834761Y-93833928D01*
X201872857Y-93872023D01*
X201910952Y-93948214D01*
X201910952Y-94252976D01*
X202291904Y-93033928D02*
X202291904Y-93491071D01*
X202291904Y-93262500D02*
X201491904Y-93262500D01*
X201606190Y-93338690D01*
X201682380Y-93414880D01*
X201720476Y-93491071D01*
X201568095Y-92358973D02*
X201530000Y-92316116D01*
X201491904Y-92235163D01*
X201491904Y-92044687D01*
X201530000Y-91973258D01*
X201568095Y-91939925D01*
X201644285Y-91911354D01*
X201720476Y-91920877D01*
X201834761Y-91973258D01*
X202291904Y-92487544D01*
X202291904Y-91992306D01*
X201491904Y-91625639D02*
X201491904Y-91092306D01*
X202291904Y-91535163D01*
X202291904Y-109035833D02*
X201910952Y-109302500D01*
X202291904Y-109492976D02*
X201491904Y-109492976D01*
X201491904Y-109188214D01*
X201530000Y-109112023D01*
X201568095Y-109073928D01*
X201644285Y-109035833D01*
X201758571Y-109035833D01*
X201834761Y-109073928D01*
X201872857Y-109112023D01*
X201910952Y-109188214D01*
X201910952Y-109492976D01*
X201568095Y-108731071D02*
X201530000Y-108692976D01*
X201491904Y-108616785D01*
X201491904Y-108426309D01*
X201530000Y-108350119D01*
X201568095Y-108312023D01*
X201644285Y-108273928D01*
X201720476Y-108273928D01*
X201834761Y-108312023D01*
X202291904Y-108769166D01*
X202291904Y-108273928D01*
X201568095Y-107281473D02*
X201530000Y-107238616D01*
X201491904Y-107157663D01*
X201491904Y-106967187D01*
X201530000Y-106895758D01*
X201568095Y-106862425D01*
X201644285Y-106833854D01*
X201720476Y-106843377D01*
X201834761Y-106895758D01*
X202291904Y-107410044D01*
X202291904Y-106914806D01*
X201491904Y-106548139D02*
X201491904Y-106014806D01*
X202291904Y-106457663D01*
X192131904Y-88715833D02*
X191750952Y-88982500D01*
X192131904Y-89172976D02*
X191331904Y-89172976D01*
X191331904Y-88868214D01*
X191370000Y-88792023D01*
X191408095Y-88753928D01*
X191484285Y-88715833D01*
X191598571Y-88715833D01*
X191674761Y-88753928D01*
X191712857Y-88792023D01*
X191750952Y-88868214D01*
X191750952Y-89172976D01*
X191331904Y-88449166D02*
X191331904Y-87953928D01*
X191636666Y-88220595D01*
X191636666Y-88106309D01*
X191674761Y-88030119D01*
X191712857Y-87992023D01*
X191789047Y-87953928D01*
X191979523Y-87953928D01*
X192055714Y-87992023D01*
X192093809Y-88030119D01*
X192131904Y-88106309D01*
X192131904Y-88334880D01*
X192093809Y-88411071D01*
X192055714Y-88449166D01*
X192131904Y-86537663D02*
X192131904Y-86994806D01*
X192131904Y-86766235D02*
X191331904Y-86666235D01*
X191446190Y-86756711D01*
X191522380Y-86842425D01*
X191560476Y-86923377D01*
X192131904Y-86194806D02*
X191331904Y-86094806D01*
X191827142Y-86080520D02*
X192131904Y-85890044D01*
X191598571Y-85823377D02*
X191903333Y-86166235D01*
X194671904Y-88715833D02*
X194290952Y-88982500D01*
X194671904Y-89172976D02*
X193871904Y-89172976D01*
X193871904Y-88868214D01*
X193910000Y-88792023D01*
X193948095Y-88753928D01*
X194024285Y-88715833D01*
X194138571Y-88715833D01*
X194214761Y-88753928D01*
X194252857Y-88792023D01*
X194290952Y-88868214D01*
X194290952Y-89172976D01*
X194138571Y-88030119D02*
X194671904Y-88030119D01*
X193833809Y-88220595D02*
X194405238Y-88411071D01*
X194405238Y-87915833D01*
X194671904Y-86537663D02*
X194671904Y-86994806D01*
X194671904Y-86766235D02*
X193871904Y-86666235D01*
X193986190Y-86756711D01*
X194062380Y-86842425D01*
X194100476Y-86923377D01*
X194671904Y-86194806D02*
X193871904Y-86094806D01*
X194367142Y-86080520D02*
X194671904Y-85890044D01*
X194138571Y-85823377D02*
X194443333Y-86166235D01*
X197211904Y-88715833D02*
X196830952Y-88982500D01*
X197211904Y-89172976D02*
X196411904Y-89172976D01*
X196411904Y-88868214D01*
X196450000Y-88792023D01*
X196488095Y-88753928D01*
X196564285Y-88715833D01*
X196678571Y-88715833D01*
X196754761Y-88753928D01*
X196792857Y-88792023D01*
X196830952Y-88868214D01*
X196830952Y-89172976D01*
X196411904Y-87992023D02*
X196411904Y-88372976D01*
X196792857Y-88411071D01*
X196754761Y-88372976D01*
X196716666Y-88296785D01*
X196716666Y-88106309D01*
X196754761Y-88030119D01*
X196792857Y-87992023D01*
X196869047Y-87953928D01*
X197059523Y-87953928D01*
X197135714Y-87992023D01*
X197173809Y-88030119D01*
X197211904Y-88106309D01*
X197211904Y-88296785D01*
X197173809Y-88372976D01*
X197135714Y-88411071D01*
X197211904Y-86537663D02*
X197211904Y-86994806D01*
X197211904Y-86766235D02*
X196411904Y-86666235D01*
X196526190Y-86756711D01*
X196602380Y-86842425D01*
X196640476Y-86923377D01*
X197211904Y-86194806D02*
X196411904Y-86094806D01*
X196907142Y-86080520D02*
X197211904Y-85890044D01*
X196678571Y-85823377D02*
X196983333Y-86166235D01*
X192131904Y-122370833D02*
X191750952Y-122637500D01*
X192131904Y-122827976D02*
X191331904Y-122827976D01*
X191331904Y-122523214D01*
X191370000Y-122447023D01*
X191408095Y-122408928D01*
X191484285Y-122370833D01*
X191598571Y-122370833D01*
X191674761Y-122408928D01*
X191712857Y-122447023D01*
X191750952Y-122523214D01*
X191750952Y-122827976D01*
X191331904Y-122104166D02*
X191331904Y-121570833D01*
X192131904Y-121913690D01*
X191598571Y-120456116D02*
X192131904Y-120522782D01*
X191293809Y-120608497D02*
X191865238Y-120870401D01*
X191865238Y-120375163D01*
X192055714Y-120094211D02*
X192093809Y-120060877D01*
X192131904Y-120103735D01*
X192093809Y-120137068D01*
X192055714Y-120094211D01*
X192131904Y-120103735D01*
X191331904Y-119698973D02*
X191331904Y-119165639D01*
X192131904Y-119608497D01*
X192131904Y-118960877D02*
X191331904Y-118860877D01*
X191827142Y-118846592D02*
X192131904Y-118656116D01*
X191598571Y-118589449D02*
X191903333Y-118932306D01*
X194671904Y-124275833D02*
X194290952Y-124542500D01*
X194671904Y-124732976D02*
X193871904Y-124732976D01*
X193871904Y-124428214D01*
X193910000Y-124352023D01*
X193948095Y-124313928D01*
X194024285Y-124275833D01*
X194138571Y-124275833D01*
X194214761Y-124313928D01*
X194252857Y-124352023D01*
X194290952Y-124428214D01*
X194290952Y-124732976D01*
X194214761Y-123818690D02*
X194176666Y-123894880D01*
X194138571Y-123932976D01*
X194062380Y-123971071D01*
X194024285Y-123971071D01*
X193948095Y-123932976D01*
X193910000Y-123894880D01*
X193871904Y-123818690D01*
X193871904Y-123666309D01*
X193910000Y-123590119D01*
X193948095Y-123552023D01*
X194024285Y-123513928D01*
X194062380Y-123513928D01*
X194138571Y-123552023D01*
X194176666Y-123590119D01*
X194214761Y-123666309D01*
X194214761Y-123818690D01*
X194252857Y-123894880D01*
X194290952Y-123932976D01*
X194367142Y-123971071D01*
X194519523Y-123971071D01*
X194595714Y-123932976D01*
X194633809Y-123894880D01*
X194671904Y-123818690D01*
X194671904Y-123666309D01*
X194633809Y-123590119D01*
X194595714Y-123552023D01*
X194519523Y-123513928D01*
X194367142Y-123513928D01*
X194290952Y-123552023D01*
X194252857Y-123590119D01*
X194214761Y-123666309D01*
X194138571Y-122361116D02*
X194671904Y-122427782D01*
X193833809Y-122513497D02*
X194405238Y-122775401D01*
X194405238Y-122280163D01*
X194595714Y-121999211D02*
X194633809Y-121965877D01*
X194671904Y-122008735D01*
X194633809Y-122042068D01*
X194595714Y-121999211D01*
X194671904Y-122008735D01*
X193871904Y-121603973D02*
X193871904Y-121070639D01*
X194671904Y-121513497D01*
X194671904Y-120865877D02*
X193871904Y-120765877D01*
X194367142Y-120751592D02*
X194671904Y-120561116D01*
X194138571Y-120494449D02*
X194443333Y-120837306D01*
X197211904Y-124275833D02*
X196830952Y-124542500D01*
X197211904Y-124732976D02*
X196411904Y-124732976D01*
X196411904Y-124428214D01*
X196450000Y-124352023D01*
X196488095Y-124313928D01*
X196564285Y-124275833D01*
X196678571Y-124275833D01*
X196754761Y-124313928D01*
X196792857Y-124352023D01*
X196830952Y-124428214D01*
X196830952Y-124732976D01*
X197211904Y-123894880D02*
X197211904Y-123742500D01*
X197173809Y-123666309D01*
X197135714Y-123628214D01*
X197021428Y-123552023D01*
X196869047Y-123513928D01*
X196564285Y-123513928D01*
X196488095Y-123552023D01*
X196450000Y-123590119D01*
X196411904Y-123666309D01*
X196411904Y-123818690D01*
X196450000Y-123894880D01*
X196488095Y-123932976D01*
X196564285Y-123971071D01*
X196754761Y-123971071D01*
X196830952Y-123932976D01*
X196869047Y-123894880D01*
X196907142Y-123818690D01*
X196907142Y-123666309D01*
X196869047Y-123590119D01*
X196830952Y-123552023D01*
X196754761Y-123513928D01*
X196678571Y-122361116D02*
X197211904Y-122427782D01*
X196373809Y-122513497D02*
X196945238Y-122775401D01*
X196945238Y-122280163D01*
X197135714Y-121999211D02*
X197173809Y-121965877D01*
X197211904Y-122008735D01*
X197173809Y-122042068D01*
X197135714Y-121999211D01*
X197211904Y-122008735D01*
X196411904Y-121603973D02*
X196411904Y-121070639D01*
X197211904Y-121513497D01*
X197211904Y-120865877D02*
X196411904Y-120765877D01*
X196907142Y-120751592D02*
X197211904Y-120561116D01*
X196678571Y-120494449D02*
X196983333Y-120837306D01*
X199751904Y-124656785D02*
X199370952Y-124923452D01*
X199751904Y-125113928D02*
X198951904Y-125113928D01*
X198951904Y-124809166D01*
X198990000Y-124732976D01*
X199028095Y-124694880D01*
X199104285Y-124656785D01*
X199218571Y-124656785D01*
X199294761Y-124694880D01*
X199332857Y-124732976D01*
X199370952Y-124809166D01*
X199370952Y-125113928D01*
X199751904Y-123894880D02*
X199751904Y-124352023D01*
X199751904Y-124123452D02*
X198951904Y-124123452D01*
X199066190Y-124199642D01*
X199142380Y-124275833D01*
X199180476Y-124352023D01*
X198951904Y-123399642D02*
X198951904Y-123323452D01*
X198990000Y-123247261D01*
X199028095Y-123209166D01*
X199104285Y-123171071D01*
X199256666Y-123132976D01*
X199447142Y-123132976D01*
X199599523Y-123171071D01*
X199675714Y-123209166D01*
X199713809Y-123247261D01*
X199751904Y-123323452D01*
X199751904Y-123399642D01*
X199713809Y-123475833D01*
X199675714Y-123513928D01*
X199599523Y-123552023D01*
X199447142Y-123590119D01*
X199256666Y-123590119D01*
X199104285Y-123552023D01*
X199028095Y-123513928D01*
X198990000Y-123475833D01*
X198951904Y-123399642D01*
X199218571Y-122361116D02*
X199751904Y-122427782D01*
X198913809Y-122513497D02*
X199485238Y-122775401D01*
X199485238Y-122280163D01*
X199675714Y-121999211D02*
X199713809Y-121965877D01*
X199751904Y-122008735D01*
X199713809Y-122042068D01*
X199675714Y-121999211D01*
X199751904Y-122008735D01*
X198951904Y-121603973D02*
X198951904Y-121070639D01*
X199751904Y-121513497D01*
X199751904Y-120865877D02*
X198951904Y-120765877D01*
X199447142Y-120751592D02*
X199751904Y-120561116D01*
X199218571Y-120494449D02*
X199523333Y-120837306D01*
X202291904Y-124656785D02*
X201910952Y-124923452D01*
X202291904Y-125113928D02*
X201491904Y-125113928D01*
X201491904Y-124809166D01*
X201530000Y-124732976D01*
X201568095Y-124694880D01*
X201644285Y-124656785D01*
X201758571Y-124656785D01*
X201834761Y-124694880D01*
X201872857Y-124732976D01*
X201910952Y-124809166D01*
X201910952Y-125113928D01*
X202291904Y-123894880D02*
X202291904Y-124352023D01*
X202291904Y-124123452D02*
X201491904Y-124123452D01*
X201606190Y-124199642D01*
X201682380Y-124275833D01*
X201720476Y-124352023D01*
X202291904Y-123132976D02*
X202291904Y-123590119D01*
X202291904Y-123361547D02*
X201491904Y-123361547D01*
X201606190Y-123437738D01*
X201682380Y-123513928D01*
X201720476Y-123590119D01*
X201758571Y-122043616D02*
X202291904Y-122110282D01*
X201453809Y-122195997D02*
X202025238Y-122457901D01*
X202025238Y-121962663D01*
X202215714Y-121681711D02*
X202253809Y-121648377D01*
X202291904Y-121691235D01*
X202253809Y-121724568D01*
X202215714Y-121681711D01*
X202291904Y-121691235D01*
X201491904Y-121286473D02*
X201491904Y-120753139D01*
X202291904Y-121195997D01*
X202291904Y-120548377D02*
X201491904Y-120448377D01*
X201987142Y-120434092D02*
X202291904Y-120243616D01*
X201758571Y-120176949D02*
X202063333Y-120519806D01*
X194671904Y-119259285D02*
X194290952Y-119525952D01*
X194671904Y-119716428D02*
X193871904Y-119716428D01*
X193871904Y-119411666D01*
X193910000Y-119335476D01*
X193948095Y-119297380D01*
X194024285Y-119259285D01*
X194138571Y-119259285D01*
X194214761Y-119297380D01*
X194252857Y-119335476D01*
X194290952Y-119411666D01*
X194290952Y-119716428D01*
X194671904Y-118497380D02*
X194671904Y-118954523D01*
X194671904Y-118725952D02*
X193871904Y-118725952D01*
X193986190Y-118802142D01*
X194062380Y-118878333D01*
X194100476Y-118954523D01*
X193948095Y-118192619D02*
X193910000Y-118154523D01*
X193871904Y-118078333D01*
X193871904Y-117887857D01*
X193910000Y-117811666D01*
X193948095Y-117773571D01*
X194024285Y-117735476D01*
X194100476Y-117735476D01*
X194214761Y-117773571D01*
X194671904Y-118230714D01*
X194671904Y-117735476D01*
X194138571Y-116646116D02*
X194671904Y-116712782D01*
X193833809Y-116798497D02*
X194405238Y-117060401D01*
X194405238Y-116565163D01*
X194595714Y-116284211D02*
X194633809Y-116250877D01*
X194671904Y-116293735D01*
X194633809Y-116327068D01*
X194595714Y-116284211D01*
X194671904Y-116293735D01*
X193871904Y-115888973D02*
X193871904Y-115355639D01*
X194671904Y-115798497D01*
X194671904Y-115150877D02*
X193871904Y-115050877D01*
X194367142Y-115036592D02*
X194671904Y-114846116D01*
X194138571Y-114779449D02*
X194443333Y-115122306D01*
X197211904Y-119259285D02*
X196830952Y-119525952D01*
X197211904Y-119716428D02*
X196411904Y-119716428D01*
X196411904Y-119411666D01*
X196450000Y-119335476D01*
X196488095Y-119297380D01*
X196564285Y-119259285D01*
X196678571Y-119259285D01*
X196754761Y-119297380D01*
X196792857Y-119335476D01*
X196830952Y-119411666D01*
X196830952Y-119716428D01*
X197211904Y-118497380D02*
X197211904Y-118954523D01*
X197211904Y-118725952D02*
X196411904Y-118725952D01*
X196526190Y-118802142D01*
X196602380Y-118878333D01*
X196640476Y-118954523D01*
X196411904Y-118230714D02*
X196411904Y-117735476D01*
X196716666Y-118002142D01*
X196716666Y-117887857D01*
X196754761Y-117811666D01*
X196792857Y-117773571D01*
X196869047Y-117735476D01*
X197059523Y-117735476D01*
X197135714Y-117773571D01*
X197173809Y-117811666D01*
X197211904Y-117887857D01*
X197211904Y-118116428D01*
X197173809Y-118192619D01*
X197135714Y-118230714D01*
X196678571Y-116646116D02*
X197211904Y-116712782D01*
X196373809Y-116798497D02*
X196945238Y-117060401D01*
X196945238Y-116565163D01*
X197135714Y-116284211D02*
X197173809Y-116250877D01*
X197211904Y-116293735D01*
X197173809Y-116327068D01*
X197135714Y-116284211D01*
X197211904Y-116293735D01*
X196411904Y-115888973D02*
X196411904Y-115355639D01*
X197211904Y-115798497D01*
X197211904Y-115150877D02*
X196411904Y-115050877D01*
X196907142Y-115036592D02*
X197211904Y-114846116D01*
X196678571Y-114779449D02*
X196983333Y-115122306D01*
X199751904Y-119259285D02*
X199370952Y-119525952D01*
X199751904Y-119716428D02*
X198951904Y-119716428D01*
X198951904Y-119411666D01*
X198990000Y-119335476D01*
X199028095Y-119297380D01*
X199104285Y-119259285D01*
X199218571Y-119259285D01*
X199294761Y-119297380D01*
X199332857Y-119335476D01*
X199370952Y-119411666D01*
X199370952Y-119716428D01*
X199751904Y-118497380D02*
X199751904Y-118954523D01*
X199751904Y-118725952D02*
X198951904Y-118725952D01*
X199066190Y-118802142D01*
X199142380Y-118878333D01*
X199180476Y-118954523D01*
X199218571Y-117811666D02*
X199751904Y-117811666D01*
X198913809Y-118002142D02*
X199485238Y-118192619D01*
X199485238Y-117697380D01*
X199218571Y-116963616D02*
X199751904Y-117030282D01*
X198913809Y-117115997D02*
X199485238Y-117377901D01*
X199485238Y-116882663D01*
X199675714Y-116601711D02*
X199713809Y-116568377D01*
X199751904Y-116611235D01*
X199713809Y-116644568D01*
X199675714Y-116601711D01*
X199751904Y-116611235D01*
X198951904Y-116206473D02*
X198951904Y-115673139D01*
X199751904Y-116115997D01*
X199751904Y-115468377D02*
X198951904Y-115368377D01*
X199447142Y-115354092D02*
X199751904Y-115163616D01*
X199218571Y-115096949D02*
X199523333Y-115439806D01*
X181971904Y-122116785D02*
X181590952Y-122383452D01*
X181971904Y-122573928D02*
X181171904Y-122573928D01*
X181171904Y-122269166D01*
X181210000Y-122192976D01*
X181248095Y-122154880D01*
X181324285Y-122116785D01*
X181438571Y-122116785D01*
X181514761Y-122154880D01*
X181552857Y-122192976D01*
X181590952Y-122269166D01*
X181590952Y-122573928D01*
X181971904Y-121354880D02*
X181971904Y-121812023D01*
X181971904Y-121583452D02*
X181171904Y-121583452D01*
X181286190Y-121659642D01*
X181362380Y-121735833D01*
X181400476Y-121812023D01*
X181171904Y-120631071D02*
X181171904Y-121012023D01*
X181552857Y-121050119D01*
X181514761Y-121012023D01*
X181476666Y-120935833D01*
X181476666Y-120745357D01*
X181514761Y-120669166D01*
X181552857Y-120631071D01*
X181629047Y-120592976D01*
X181819523Y-120592976D01*
X181895714Y-120631071D01*
X181933809Y-120669166D01*
X181971904Y-120745357D01*
X181971904Y-120935833D01*
X181933809Y-121012023D01*
X181895714Y-121050119D01*
X181438571Y-119186116D02*
X181971904Y-119252782D01*
X181133809Y-119338497D02*
X181705238Y-119600401D01*
X181705238Y-119105163D01*
X181895714Y-118824211D02*
X181933809Y-118790877D01*
X181971904Y-118833735D01*
X181933809Y-118867068D01*
X181895714Y-118824211D01*
X181971904Y-118833735D01*
X181171904Y-118428973D02*
X181171904Y-117895639D01*
X181971904Y-118338497D01*
X181971904Y-117690877D02*
X181171904Y-117590877D01*
X181667142Y-117576592D02*
X181971904Y-117386116D01*
X181438571Y-117319449D02*
X181743333Y-117662306D01*
X189591904Y-122116785D02*
X189210952Y-122383452D01*
X189591904Y-122573928D02*
X188791904Y-122573928D01*
X188791904Y-122269166D01*
X188830000Y-122192976D01*
X188868095Y-122154880D01*
X188944285Y-122116785D01*
X189058571Y-122116785D01*
X189134761Y-122154880D01*
X189172857Y-122192976D01*
X189210952Y-122269166D01*
X189210952Y-122573928D01*
X189591904Y-121354880D02*
X189591904Y-121812023D01*
X189591904Y-121583452D02*
X188791904Y-121583452D01*
X188906190Y-121659642D01*
X188982380Y-121735833D01*
X189020476Y-121812023D01*
X188791904Y-120669166D02*
X188791904Y-120821547D01*
X188830000Y-120897738D01*
X188868095Y-120935833D01*
X188982380Y-121012023D01*
X189134761Y-121050119D01*
X189439523Y-121050119D01*
X189515714Y-121012023D01*
X189553809Y-120973928D01*
X189591904Y-120897738D01*
X189591904Y-120745357D01*
X189553809Y-120669166D01*
X189515714Y-120631071D01*
X189439523Y-120592976D01*
X189249047Y-120592976D01*
X189172857Y-120631071D01*
X189134761Y-120669166D01*
X189096666Y-120745357D01*
X189096666Y-120897738D01*
X189134761Y-120973928D01*
X189172857Y-121012023D01*
X189249047Y-121050119D01*
X189058571Y-119186116D02*
X189591904Y-119252782D01*
X188753809Y-119338497D02*
X189325238Y-119600401D01*
X189325238Y-119105163D01*
X189515714Y-118824211D02*
X189553809Y-118790877D01*
X189591904Y-118833735D01*
X189553809Y-118867068D01*
X189515714Y-118824211D01*
X189591904Y-118833735D01*
X188791904Y-118428973D02*
X188791904Y-117895639D01*
X189591904Y-118338497D01*
X189591904Y-117690877D02*
X188791904Y-117590877D01*
X189287142Y-117576592D02*
X189591904Y-117386116D01*
X189058571Y-117319449D02*
X189363333Y-117662306D01*
X184511904Y-122116785D02*
X184130952Y-122383452D01*
X184511904Y-122573928D02*
X183711904Y-122573928D01*
X183711904Y-122269166D01*
X183750000Y-122192976D01*
X183788095Y-122154880D01*
X183864285Y-122116785D01*
X183978571Y-122116785D01*
X184054761Y-122154880D01*
X184092857Y-122192976D01*
X184130952Y-122269166D01*
X184130952Y-122573928D01*
X184511904Y-121354880D02*
X184511904Y-121812023D01*
X184511904Y-121583452D02*
X183711904Y-121583452D01*
X183826190Y-121659642D01*
X183902380Y-121735833D01*
X183940476Y-121812023D01*
X183711904Y-121088214D02*
X183711904Y-120554880D01*
X184511904Y-120897738D01*
X183978571Y-119186116D02*
X184511904Y-119252782D01*
X183673809Y-119338497D02*
X184245238Y-119600401D01*
X184245238Y-119105163D01*
X184435714Y-118824211D02*
X184473809Y-118790877D01*
X184511904Y-118833735D01*
X184473809Y-118867068D01*
X184435714Y-118824211D01*
X184511904Y-118833735D01*
X183711904Y-118428973D02*
X183711904Y-117895639D01*
X184511904Y-118338497D01*
X184511904Y-117690877D02*
X183711904Y-117590877D01*
X184207142Y-117576592D02*
X184511904Y-117386116D01*
X183978571Y-117319449D02*
X184283333Y-117662306D01*
X187051904Y-122116785D02*
X186670952Y-122383452D01*
X187051904Y-122573928D02*
X186251904Y-122573928D01*
X186251904Y-122269166D01*
X186290000Y-122192976D01*
X186328095Y-122154880D01*
X186404285Y-122116785D01*
X186518571Y-122116785D01*
X186594761Y-122154880D01*
X186632857Y-122192976D01*
X186670952Y-122269166D01*
X186670952Y-122573928D01*
X187051904Y-121354880D02*
X187051904Y-121812023D01*
X187051904Y-121583452D02*
X186251904Y-121583452D01*
X186366190Y-121659642D01*
X186442380Y-121735833D01*
X186480476Y-121812023D01*
X186594761Y-120897738D02*
X186556666Y-120973928D01*
X186518571Y-121012023D01*
X186442380Y-121050119D01*
X186404285Y-121050119D01*
X186328095Y-121012023D01*
X186290000Y-120973928D01*
X186251904Y-120897738D01*
X186251904Y-120745357D01*
X186290000Y-120669166D01*
X186328095Y-120631071D01*
X186404285Y-120592976D01*
X186442380Y-120592976D01*
X186518571Y-120631071D01*
X186556666Y-120669166D01*
X186594761Y-120745357D01*
X186594761Y-120897738D01*
X186632857Y-120973928D01*
X186670952Y-121012023D01*
X186747142Y-121050119D01*
X186899523Y-121050119D01*
X186975714Y-121012023D01*
X187013809Y-120973928D01*
X187051904Y-120897738D01*
X187051904Y-120745357D01*
X187013809Y-120669166D01*
X186975714Y-120631071D01*
X186899523Y-120592976D01*
X186747142Y-120592976D01*
X186670952Y-120631071D01*
X186632857Y-120669166D01*
X186594761Y-120745357D01*
X186518571Y-119186116D02*
X187051904Y-119252782D01*
X186213809Y-119338497D02*
X186785238Y-119600401D01*
X186785238Y-119105163D01*
X186975714Y-118824211D02*
X187013809Y-118790877D01*
X187051904Y-118833735D01*
X187013809Y-118867068D01*
X186975714Y-118824211D01*
X187051904Y-118833735D01*
X186251904Y-118428973D02*
X186251904Y-117895639D01*
X187051904Y-118338497D01*
X187051904Y-117690877D02*
X186251904Y-117590877D01*
X186747142Y-117576592D02*
X187051904Y-117386116D01*
X186518571Y-117319449D02*
X186823333Y-117662306D01*
X202291904Y-119259285D02*
X201910952Y-119525952D01*
X202291904Y-119716428D02*
X201491904Y-119716428D01*
X201491904Y-119411666D01*
X201530000Y-119335476D01*
X201568095Y-119297380D01*
X201644285Y-119259285D01*
X201758571Y-119259285D01*
X201834761Y-119297380D01*
X201872857Y-119335476D01*
X201910952Y-119411666D01*
X201910952Y-119716428D01*
X202291904Y-118497380D02*
X202291904Y-118954523D01*
X202291904Y-118725952D02*
X201491904Y-118725952D01*
X201606190Y-118802142D01*
X201682380Y-118878333D01*
X201720476Y-118954523D01*
X202291904Y-118116428D02*
X202291904Y-117964047D01*
X202253809Y-117887857D01*
X202215714Y-117849761D01*
X202101428Y-117773571D01*
X201949047Y-117735476D01*
X201644285Y-117735476D01*
X201568095Y-117773571D01*
X201530000Y-117811666D01*
X201491904Y-117887857D01*
X201491904Y-118040238D01*
X201530000Y-118116428D01*
X201568095Y-118154523D01*
X201644285Y-118192619D01*
X201834761Y-118192619D01*
X201910952Y-118154523D01*
X201949047Y-118116428D01*
X201987142Y-118040238D01*
X201987142Y-117887857D01*
X201949047Y-117811666D01*
X201910952Y-117773571D01*
X201834761Y-117735476D01*
X202291904Y-116763616D02*
X202291904Y-117220758D01*
X202291904Y-116992187D02*
X201491904Y-116892187D01*
X201606190Y-116982663D01*
X201682380Y-117068377D01*
X201720476Y-117149330D01*
X201491904Y-116168377D02*
X201491904Y-116092187D01*
X201530000Y-116020758D01*
X201568095Y-115987425D01*
X201644285Y-115958854D01*
X201796666Y-115939806D01*
X201987142Y-115963616D01*
X202139523Y-116020758D01*
X202215714Y-116068377D01*
X202253809Y-116111235D01*
X202291904Y-116192187D01*
X202291904Y-116268377D01*
X202253809Y-116339806D01*
X202215714Y-116373139D01*
X202139523Y-116401711D01*
X201987142Y-116420758D01*
X201796666Y-116396949D01*
X201644285Y-116339806D01*
X201568095Y-116292187D01*
X201530000Y-116249330D01*
X201491904Y-116168377D01*
X202291904Y-115658854D02*
X201491904Y-115558854D01*
X201987142Y-115544568D02*
X202291904Y-115354092D01*
X201758571Y-115287425D02*
X202063333Y-115630282D01*
X176891904Y-122116785D02*
X176510952Y-122383452D01*
X176891904Y-122573928D02*
X176091904Y-122573928D01*
X176091904Y-122269166D01*
X176130000Y-122192976D01*
X176168095Y-122154880D01*
X176244285Y-122116785D01*
X176358571Y-122116785D01*
X176434761Y-122154880D01*
X176472857Y-122192976D01*
X176510952Y-122269166D01*
X176510952Y-122573928D01*
X176168095Y-121812023D02*
X176130000Y-121773928D01*
X176091904Y-121697738D01*
X176091904Y-121507261D01*
X176130000Y-121431071D01*
X176168095Y-121392976D01*
X176244285Y-121354880D01*
X176320476Y-121354880D01*
X176434761Y-121392976D01*
X176891904Y-121850119D01*
X176891904Y-121354880D01*
X176091904Y-120859642D02*
X176091904Y-120783452D01*
X176130000Y-120707261D01*
X176168095Y-120669166D01*
X176244285Y-120631071D01*
X176396666Y-120592976D01*
X176587142Y-120592976D01*
X176739523Y-120631071D01*
X176815714Y-120669166D01*
X176853809Y-120707261D01*
X176891904Y-120783452D01*
X176891904Y-120859642D01*
X176853809Y-120935833D01*
X176815714Y-120973928D01*
X176739523Y-121012023D01*
X176587142Y-121050119D01*
X176396666Y-121050119D01*
X176244285Y-121012023D01*
X176168095Y-120973928D01*
X176130000Y-120935833D01*
X176091904Y-120859642D01*
X176891904Y-119303616D02*
X176891904Y-119760758D01*
X176891904Y-119532187D02*
X176091904Y-119432187D01*
X176206190Y-119522663D01*
X176282380Y-119608377D01*
X176320476Y-119689330D01*
X176091904Y-118708377D02*
X176091904Y-118632187D01*
X176130000Y-118560758D01*
X176168095Y-118527425D01*
X176244285Y-118498854D01*
X176396666Y-118479806D01*
X176587142Y-118503616D01*
X176739523Y-118560758D01*
X176815714Y-118608377D01*
X176853809Y-118651235D01*
X176891904Y-118732187D01*
X176891904Y-118808377D01*
X176853809Y-118879806D01*
X176815714Y-118913139D01*
X176739523Y-118941711D01*
X176587142Y-118960758D01*
X176396666Y-118936949D01*
X176244285Y-118879806D01*
X176168095Y-118832187D01*
X176130000Y-118789330D01*
X176091904Y-118708377D01*
X176891904Y-118198854D02*
X176091904Y-118098854D01*
X176587142Y-118084568D02*
X176891904Y-117894092D01*
X176358571Y-117827425D02*
X176663333Y-118170282D01*
X166890833Y-121926309D02*
X167005119Y-121964404D01*
X167195595Y-121964404D01*
X167271785Y-121926309D01*
X167309880Y-121888214D01*
X167347976Y-121812023D01*
X167347976Y-121735833D01*
X167309880Y-121659642D01*
X167271785Y-121621547D01*
X167195595Y-121583452D01*
X167043214Y-121545357D01*
X166967023Y-121507261D01*
X166928928Y-121469166D01*
X166890833Y-121392976D01*
X166890833Y-121316785D01*
X166928928Y-121240595D01*
X166967023Y-121202500D01*
X167043214Y-121164404D01*
X167233690Y-121164404D01*
X167347976Y-121202500D01*
X167614642Y-121164404D02*
X167805119Y-121964404D01*
X167957500Y-121392976D01*
X168109880Y-121964404D01*
X168300357Y-121164404D01*
X169024166Y-121964404D02*
X168567023Y-121964404D01*
X168795595Y-121964404D02*
X168795595Y-121164404D01*
X168719404Y-121278690D01*
X168643214Y-121354880D01*
X168567023Y-121392976D01*
X170523169Y-121964404D02*
X170304122Y-121583452D01*
X170066026Y-121964404D02*
X170166026Y-121164404D01*
X170470788Y-121164404D01*
X170542217Y-121202500D01*
X170575550Y-121240595D01*
X170604122Y-121316785D01*
X170589836Y-121431071D01*
X170542217Y-121507261D01*
X170499360Y-121545357D01*
X170418407Y-121583452D01*
X170113645Y-121583452D01*
X170918407Y-121545357D02*
X171185074Y-121545357D01*
X171246979Y-121964404D02*
X170866026Y-121964404D01*
X170966026Y-121164404D01*
X171346979Y-121164404D01*
X171556502Y-121926309D02*
X171666026Y-121964404D01*
X171856502Y-121964404D01*
X171937455Y-121926309D01*
X171980312Y-121888214D01*
X172027931Y-121812023D01*
X172037455Y-121735833D01*
X172008883Y-121659642D01*
X171975550Y-121621547D01*
X171904122Y-121583452D01*
X171756502Y-121545357D01*
X171685074Y-121507261D01*
X171651741Y-121469166D01*
X171623169Y-121392976D01*
X171632693Y-121316785D01*
X171680312Y-121240595D01*
X171723169Y-121202500D01*
X171804122Y-121164404D01*
X171994598Y-121164404D01*
X172104122Y-121202500D01*
X172404122Y-121545357D02*
X172670788Y-121545357D01*
X172732693Y-121964404D02*
X172351741Y-121964404D01*
X172451741Y-121164404D01*
X172832693Y-121164404D01*
X173061264Y-121164404D02*
X173518407Y-121164404D01*
X173189836Y-121964404D02*
X173289836Y-121164404D01*
X159689880Y-95129404D02*
X160223214Y-95929404D01*
X160223214Y-95129404D02*
X159689880Y-95929404D01*
X160947023Y-95929404D02*
X160489880Y-95929404D01*
X160718452Y-95929404D02*
X160718452Y-95129404D01*
X160642261Y-95243690D01*
X160566071Y-95319880D01*
X160489880Y-95357976D01*
X163284360Y-95929404D02*
X162827217Y-95929404D01*
X163055788Y-95929404D02*
X163155788Y-95129404D01*
X163065312Y-95243690D01*
X162979598Y-95319880D01*
X162898645Y-95357976D01*
X163636741Y-95853214D02*
X163670074Y-95891309D01*
X163627217Y-95929404D01*
X163593883Y-95891309D01*
X163636741Y-95853214D01*
X163627217Y-95929404D01*
X164179598Y-95472261D02*
X164108169Y-95434166D01*
X164074836Y-95396071D01*
X164046264Y-95319880D01*
X164051026Y-95281785D01*
X164098645Y-95205595D01*
X164141502Y-95167500D01*
X164222455Y-95129404D01*
X164374836Y-95129404D01*
X164446264Y-95167500D01*
X164479598Y-95205595D01*
X164508169Y-95281785D01*
X164503407Y-95319880D01*
X164455788Y-95396071D01*
X164412931Y-95434166D01*
X164331979Y-95472261D01*
X164179598Y-95472261D01*
X164098645Y-95510357D01*
X164055788Y-95548452D01*
X164008169Y-95624642D01*
X163989122Y-95777023D01*
X164017693Y-95853214D01*
X164051026Y-95891309D01*
X164122455Y-95929404D01*
X164274836Y-95929404D01*
X164355788Y-95891309D01*
X164398645Y-95853214D01*
X164446264Y-95777023D01*
X164465312Y-95624642D01*
X164436741Y-95548452D01*
X164403407Y-95510357D01*
X164331979Y-95472261D01*
X165179598Y-95396071D02*
X165112931Y-95929404D01*
X165027217Y-95091309D02*
X164765312Y-95662738D01*
X165260550Y-95662738D01*
X165555788Y-95129404D02*
X166051026Y-95129404D01*
X165746264Y-95434166D01*
X165860550Y-95434166D01*
X165931979Y-95472261D01*
X165965312Y-95510357D01*
X165993883Y-95586547D01*
X165970074Y-95777023D01*
X165922455Y-95853214D01*
X165879598Y-95891309D01*
X165798645Y-95929404D01*
X165570074Y-95929404D01*
X165498645Y-95891309D01*
X165465312Y-95853214D01*
X166346264Y-95205595D02*
X166389122Y-95167500D01*
X166470074Y-95129404D01*
X166660550Y-95129404D01*
X166731979Y-95167500D01*
X166765312Y-95205595D01*
X166793883Y-95281785D01*
X166784360Y-95357976D01*
X166731979Y-95472261D01*
X166217693Y-95929404D01*
X166712931Y-95929404D01*
X167055788Y-95929404D02*
X167155788Y-95129404D01*
X167351026Y-95700833D01*
X167689122Y-95129404D01*
X167589122Y-95929404D01*
X167970074Y-95929404D02*
X168070074Y-95129404D01*
X168022455Y-95510357D02*
X168479598Y-95510357D01*
X168427217Y-95929404D02*
X168527217Y-95129404D01*
X168798645Y-95396071D02*
X169217693Y-95396071D01*
X168731979Y-95929404D01*
X169151026Y-95929404D01*
X154031904Y-94570476D02*
X153231904Y-94570476D01*
X153231904Y-94380000D01*
X153270000Y-94265714D01*
X153346190Y-94189523D01*
X153422380Y-94151428D01*
X153574761Y-94113333D01*
X153689047Y-94113333D01*
X153841428Y-94151428D01*
X153917619Y-94189523D01*
X153993809Y-94265714D01*
X154031904Y-94380000D01*
X154031904Y-94570476D01*
X153498571Y-93427619D02*
X154031904Y-93427619D01*
X153193809Y-93618095D02*
X153765238Y-93808571D01*
X153765238Y-93313333D01*
X153955714Y-91766830D02*
X153993809Y-91809687D01*
X154031904Y-91928735D01*
X154031904Y-92004925D01*
X153993809Y-92114449D01*
X153917619Y-92181116D01*
X153841428Y-92209687D01*
X153689047Y-92228735D01*
X153574761Y-92214449D01*
X153422380Y-92157306D01*
X153346190Y-92109687D01*
X153270000Y-92023973D01*
X153231904Y-91904925D01*
X153231904Y-91828735D01*
X153270000Y-91719211D01*
X153308095Y-91685877D01*
X154031904Y-91433497D02*
X153231904Y-91333497D01*
X153231904Y-91028735D01*
X153270000Y-90957306D01*
X153308095Y-90923973D01*
X153384285Y-90895401D01*
X153498571Y-90909687D01*
X153574761Y-90957306D01*
X153612857Y-91000163D01*
X153650952Y-91081116D01*
X153650952Y-91385877D01*
X153231904Y-90533497D02*
X153879523Y-90614449D01*
X153955714Y-90585877D01*
X153993809Y-90552544D01*
X154031904Y-90481116D01*
X154031904Y-90328735D01*
X153993809Y-90247782D01*
X153955714Y-90204925D01*
X153879523Y-90157306D01*
X153231904Y-90076354D01*
X152761904Y-87763333D02*
X152380952Y-88030000D01*
X152761904Y-88220476D02*
X151961904Y-88220476D01*
X151961904Y-87915714D01*
X152000000Y-87839523D01*
X152038095Y-87801428D01*
X152114285Y-87763333D01*
X152228571Y-87763333D01*
X152304761Y-87801428D01*
X152342857Y-87839523D01*
X152380952Y-87915714D01*
X152380952Y-88220476D01*
X151961904Y-87077619D02*
X151961904Y-87230000D01*
X152000000Y-87306190D01*
X152038095Y-87344285D01*
X152152380Y-87420476D01*
X152304761Y-87458571D01*
X152609523Y-87458571D01*
X152685714Y-87420476D01*
X152723809Y-87382380D01*
X152761904Y-87306190D01*
X152761904Y-87153809D01*
X152723809Y-87077619D01*
X152685714Y-87039523D01*
X152609523Y-87001428D01*
X152419047Y-87001428D01*
X152342857Y-87039523D01*
X152304761Y-87077619D01*
X152266666Y-87153809D01*
X152266666Y-87306190D01*
X152304761Y-87382380D01*
X152342857Y-87420476D01*
X152419047Y-87458571D01*
X154031904Y-87807663D02*
X154031904Y-88264806D01*
X154031904Y-88036235D02*
X153231904Y-87936235D01*
X153346190Y-88026711D01*
X153422380Y-88112425D01*
X153460476Y-88193377D01*
X154031904Y-87464806D02*
X153231904Y-87364806D01*
X153727142Y-87350520D02*
X154031904Y-87160044D01*
X153498571Y-87093377D02*
X153803333Y-87436235D01*
M02*
